# MagicaVoxel @ Ephtracy

# group
o 

# material
mtllib ashigaru_hold.mtl
usemtl palette

# normals
vn -1 0 0
vn 1 0 0
vn 0 0 1
vn 0 0 -1
vn 0 -1 0
vn 0 1 0

# texcoords
vt 0.00585938 0.5
vt 0.0214844 0.5
vt 0.0253906 0.5
vt 0.0292969 0.5
vt 0.0332031 0.5
vt 0.306641 0.5
vt 0.369141 0.5
vt 0.970703 0.5
vt 0.990234 0.5

# verts
v -0.4 1.3 0.4
v -0.4 1.3 -0.5
v -0.4 1.4 0.4
v -0.4 1.4 -0.5
v -0.3 1 0.3
v -0.3 1 -0.4
v -0.3 1.3 0.3
v -0.3 1.3 -0.4
v -0.2 0.6 0.2
v -0.2 0.6 -0.3
v -0.2 0.7 0.2
v -0.2 0.7 -0.3
v -0.2 0.9 0.1
v -0.2 0.9 -0.2
v -0.2 1 0.2
v -0.2 1 0.1
v -0.2 1 -0.2
v -0.2 1 -0.3
v -0.2 1.4 0.2
v -0.2 1.4 -0.3
v -0.2 1.5 0.2
v -0.2 1.5 -0.3
v -0.1 0.3 0.3
v -0.1 0.3 -5.96046e-08
v -0.1 0.3 -0.1
v -0.1 0.3 -0.4
v -0.1 0.4 0.3
v -0.1 0.4 -5.96046e-08
v -0.1 0.4 -0.1
v -0.1 0.4 -0.4
v -0.1 0.6 0.3
v -0.1 0.6 0.2
v -0.1 0.6 -5.96046e-08
v -0.1 0.6 -0.1
v -0.1 0.6 -0.3
v -0.1 0.6 -0.4
v 0 0 0.2
v 0 0 0.1
v 0 0 -0.2
v 0 0 -0.3
v 0 0.1 0.2
v 0 0.1 0.1
v 0 0.1 -0.2
v 0 0.1 -0.3
v 0 0.3 0.2
v 0 0.3 0.1
v 0 0.3 -0.2
v 0 0.3 -0.3
v 0 0.7 0.5
v 0 0.7 0.3
v 0 0.7 -0.4
v 0 0.7 -0.6
v 0 0.8 0.5
v 0 0.8 0.4
v 0 0.8 0.3
v 0 0.8 0.2
v 0 0.8 -0.3
v 0 0.8 -0.4
v 0 0.8 -0.5
v 0 0.8 -0.6
v 0 0.9 0.5
v 0 0.9 0.4
v 0 0.9 0.2
v 0 0.9 -0.3
v 0 0.9 -0.5
v 0 0.9 -0.6
v 0 1 0.4
v 0 1 0.2
v 0 1 -0.3
v 0 1 -0.5
v 0 1.5 -5.96046e-08
v 0 1.5 -0.1
v 0 1.6 -5.96046e-08
v 0 1.6 -0.1
v 0.1 0.6 -0.5
v 0.1 0.6 -0.6
v 0.1 0.7 -0.5
v 0.1 0.7 -0.6
v 0.2 1.1 0.4
v 0.2 1.1 0.3
v 0.2 1.2 0.4
v 0.2 1.2 0.3
v 0.3 0.4 0.4
v 0.3 0.4 0.3
v 0.3 0.7 0.4
v 0.3 0.7 0.3
v 0.3 0.9 0.4
v 0.3 0.9 0.3
v 0.3 1.1 0.4
v 0.3 1.1 0.3
v 0.3 1.2 0.4
v 0.3 1.2 0.3
v 0.3 1.3 0.4
v 0.3 1.3 0.3
v -0.2 1 0.3
v -0.2 1 0.2
v -0.2 1 -0.3
v -0.2 1 -0.4
v -0.2 1.3 0.3
v -0.2 1.3 0.2
v -0.2 1.3 -0.3
v -0.2 1.3 -0.4
v 0.1 0.1 0.2
v 0.1 0.1 0.1
v 0.1 0.1 -0.2
v 0.1 0.1 -0.3
v 0.1 0.3 0.2
v 0.1 0.3 0.1
v 0.1 0.3 -0.2
v 0.1 0.3 -0.3
v 0.1 1.5 -5.96046e-08
v 0.1 1.5 -0.1
v 0.1 1.6 -5.96046e-08
v 0.1 1.6 -0.1
v 0.2 0 0.2
v 0.2 0 0.1
v 0.2 0 -0.2
v 0.2 0 -0.3
v 0.2 0.1 0.2
v 0.2 0.1 0.1
v 0.2 0.1 -0.2
v 0.2 0.1 -0.3
v 0.2 0.3 0.3
v 0.2 0.3 -5.96046e-08
v 0.2 0.3 -0.1
v 0.2 0.3 -0.4
v 0.2 0.4 0.3
v 0.2 0.4 -5.96046e-08
v 0.2 0.4 -0.1
v 0.2 0.4 -0.4
v 0.2 0.6 0.3
v 0.2 0.6 0.2
v 0.2 0.6 -5.96046e-08
v 0.2 0.6 -0.1
v 0.2 0.6 -0.3
v 0.2 0.6 -0.4
v 0.2 0.6 -0.5
v 0.2 0.6 -0.6
v 0.2 0.7 -0.4
v 0.2 0.7 -0.5
v 0.2 0.7 -0.6
v 0.2 0.8 0.3
v 0.2 0.8 0.2
v 0.2 0.8 -0.3
v 0.2 0.8 -0.4
v 0.2 0.9 0.4
v 0.2 0.9 0.3
v 0.2 0.9 0.2
v 0.2 0.9 -0.3
v 0.2 0.9 -0.5
v 0.2 0.9 -0.6
v 0.2 1 0.4
v 0.2 1 0.2
v 0.2 1 -0.3
v 0.2 1 -0.5
v 0.3 0.6 0.2
v 0.3 0.6 -0.3
v 0.3 0.7 0.5
v 0.3 0.7 0.4
v 0.3 0.7 0.2
v 0.3 0.7 -0.3
v 0.3 0.8 0.5
v 0.3 0.8 0.4
v 0.3 0.9 0.2
v 0.3 0.9 0.1
v 0.3 0.9 -0.2
v 0.3 0.9 -0.3
v 0.3 1 0.2
v 0.3 1 0.1
v 0.3 1 -0.2
v 0.3 1 -0.3
v 0.3 1.3 0.2
v 0.3 1.3 -0.3
v 0.3 1.4 0.2
v 0.3 1.4 -0.3
v 0.3 1.5 0.2
v 0.3 1.5 -0.3
v 0.4 0.4 0.4
v 0.4 0.4 0.3
v 0.4 0.8 0.5
v 0.4 0.8 0.4
v 0.4 0.9 0.5
v 0.4 0.9 0.4
v 0.4 1.1 0.4
v 0.4 1.1 0.3
v 0.4 1.2 0.4
v 0.4 1.2 0.3
v 0.4 1.3 0.4
v 0.4 1.3 0.3
v 0.5 1.1 0.4
v 0.5 1.1 0.3
v 0.5 1.2 0.4
v 0.5 1.2 0.3
v 0.5 1.3 0.4
v 0.5 1.3 -0.5
v 0.5 1.4 0.4
v 0.5 1.4 -0.5
v 0 0.7 0.5
v 0 0.8 0.5
v 0 0.9 0.5
v 0.1 0.8 0.5
v 0.1 0.9 0.5
v 0.3 0.7 0.5
v 0.3 0.8 0.5
v 0.3 0.9 0.5
v 0.4 0.8 0.5
v 0.4 0.9 0.5
v -0.4 1.3 0.4
v -0.4 1.4 0.4
v 0 0.9 0.4
v 0 1 0.4
v 0.1 0.9 0.4
v 0.2 0.9 0.4
v 0.2 1 0.4
v 0.2 1.1 0.4
v 0.2 1.2 0.4
v 0.3 0.4 0.4
v 0.3 0.7 0.4
v 0.3 0.8 0.4
v 0.3 0.9 0.4
v 0.3 1.1 0.4
v 0.3 1.2 0.4
v 0.3 1.3 0.4
v 0.4 0.4 0.4
v 0.4 0.8 0.4
v 0.4 0.9 0.4
v 0.4 1.1 0.4
v 0.4 1.2 0.4
v 0.4 1.3 0.4
v 0.5 1.1 0.4
v 0.5 1.2 0.4
v 0.5 1.3 0.4
v 0.5 1.4 0.4
v -0.3 1 0.3
v -0.3 1.3 0.3
v -0.2 1 0.3
v -0.2 1.3 0.3
v -0.1 0.3 0.3
v -0.1 0.4 0.3
v -0.1 0.6 0.3
v 0.2 0.3 0.3
v 0.2 0.4 0.3
v 0.2 0.6 0.3
v -0.2 0.6 0.2
v -0.2 0.7 0.2
v -0.2 1 0.2
v -0.2 1.3 0.2
v -0.2 1.4 0.2
v -0.2 1.5 0.2
v -0.1 0.6 0.2
v 0 0 0.2
v 0 0.1 0.2
v 0 0.3 0.2
v 0 0.8 0.2
v 0 0.9 0.2
v 0 1 0.2
v 0.1 0.1 0.2
v 0.1 0.3 0.2
v 0.1 1 0.2
v 0.1 1.3 0.2
v 0.2 0 0.2
v 0.2 0.1 0.2
v 0.2 0.6 0.2
v 0.2 0.8 0.2
v 0.2 0.9 0.2
v 0.2 1 0.2
v 0.2 1.3 0.2
v 0.3 0.6 0.2
v 0.3 0.7 0.2
v 0.3 0.9 0.2
v 0.3 1 0.2
v 0.3 1.3 0.2
v 0.3 1.4 0.2
v 0.3 1.5 0.2
v 0 1.5 -5.96046e-08
v 0 1.6 -5.96046e-08
v 0.1 1.5 -5.96046e-08
v 0.1 1.6 -5.96046e-08
v -0.1 0.3 -0.1
v -0.1 0.4 -0.1
v -0.1 0.6 -0.1
v 0.2 0.3 -0.1
v 0.2 0.4 -0.1
v 0.2 0.6 -0.1
v 0 0 -0.2
v 0 0.1 -0.2
v 0 0.3 -0.2
v 0.1 0.1 -0.2
v 0.1 0.3 -0.2
v 0.2 0 -0.2
v 0.2 0.1 -0.2
v 0 0.7 -0.4
v 0 0.8 -0.4
v 0.2 0.7 -0.4
v 0.2 0.8 -0.4
v 0.1 0.6 -0.5
v 0.1 0.7 -0.5
v 0.2 0.6 -0.5
v 0.2 0.7 -0.5
v 0 0.7 0.3
v 0 0.8 0.3
v 0.2 0.8 0.3
v 0.2 0.9 0.3
v 0.2 1.1 0.3
v 0.2 1.2 0.3
v 0.3 0.4 0.3
v 0.3 0.7 0.3
v 0.3 0.9 0.3
v 0.3 1.1 0.3
v 0.3 1.2 0.3
v 0.3 1.3 0.3
v 0.4 0.4 0.3
v 0.4 1.1 0.3
v 0.4 1.2 0.3
v 0.4 1.3 0.3
v 0.5 1.1 0.3
v 0.5 1.2 0.3
v 0 0 0.1
v 0 0.1 0.1
v 0 0.3 0.1
v 0.1 0.1 0.1
v 0.1 0.3 0.1
v 0.2 0 0.1
v 0.2 0.1 0.1
v -0.1 0.3 -5.96046e-08
v -0.1 0.4 -5.96046e-08
v -0.1 0.6 -5.96046e-08
v 0.2 0.3 -5.96046e-08
v 0.2 0.4 -5.96046e-08
v 0.2 0.6 -5.96046e-08
v 0 1.5 -0.1
v 0 1.6 -0.1
v 0.1 1.5 -0.1
v 0.1 1.6 -0.1
v -0.2 0.6 -0.3
v -0.2 0.7 -0.3
v -0.2 1 -0.3
v -0.2 1.3 -0.3
v -0.2 1.4 -0.3
v -0.2 1.5 -0.3
v -0.1 0.6 -0.3
v 0 0 -0.3
v 0 0.1 -0.3
v 0 0.3 -0.3
v 0 0.8 -0.3
v 0 0.9 -0.3
v 0 1 -0.3
v 0.1 0.1 -0.3
v 0.1 0.3 -0.3
v 0.1 1 -0.3
v 0.1 1.3 -0.3
v 0.2 0 -0.3
v 0.2 0.1 -0.3
v 0.2 0.6 -0.3
v 0.2 0.8 -0.3
v 0.2 0.9 -0.3
v 0.2 1 -0.3
v 0.2 1.3 -0.3
v 0.3 0.6 -0.3
v 0.3 0.7 -0.3
v 0.3 0.9 -0.3
v 0.3 1 -0.3
v 0.3 1.3 -0.3
v 0.3 1.4 -0.3
v 0.3 1.5 -0.3
v -0.3 1 -0.4
v -0.3 1.3 -0.4
v -0.2 1 -0.4
v -0.2 1.3 -0.4
v -0.1 0.3 -0.4
v -0.1 0.4 -0.4
v -0.1 0.6 -0.4
v 0.2 0.3 -0.4
v 0.2 0.4 -0.4
v 0.2 0.6 -0.4
v -0.4 1.3 -0.5
v -0.4 1.4 -0.5
v 0 0.9 -0.5
v 0 1 -0.5
v 0.1 0.9 -0.5
v 0.2 0.9 -0.5
v 0.2 1 -0.5
v 0.5 1.3 -0.5
v 0.5 1.4 -0.5
v 0 0.7 -0.6
v 0 0.8 -0.6
v 0 0.9 -0.6
v 0.1 0.6 -0.6
v 0.1 0.7 -0.6
v 0.1 0.8 -0.6
v 0.1 0.9 -0.6
v 0.2 0.6 -0.6
v 0.2 0.7 -0.6
v 0.2 0.9 -0.6
v 0 0 0.2
v 0.2 0 0.2
v 0 0 0.1
v 0.2 0 0.1
v 0 0 -0.2
v 0.2 0 -0.2
v 0 0 -0.3
v 0.2 0 -0.3
v -0.1 0.3 0.3
v 0.2 0.3 0.3
v 0 0.3 0.2
v 0.1 0.3 0.2
v 0 0.3 0.1
v 0.1 0.3 0.1
v -0.1 0.3 -5.96046e-08
v 0.2 0.3 -5.96046e-08
v -0.1 0.3 -0.1
v 0.2 0.3 -0.1
v 0 0.3 -0.2
v 0.1 0.3 -0.2
v 0 0.3 -0.3
v 0.1 0.3 -0.3
v -0.1 0.3 -0.4
v 0.2 0.3 -0.4
v 0.3 0.4 0.4
v 0.4 0.4 0.4
v 0.3 0.4 0.3
v 0.4 0.4 0.3
v -0.2 0.6 0.2
v -0.1 0.6 0.2
v 0.2 0.6 0.2
v 0.3 0.6 0.2
v -0.1 0.6 -5.96046e-08
v 0.2 0.6 -5.96046e-08
v -0.1 0.6 -0.1
v 0.2 0.6 -0.1
v -0.2 0.6 -0.3
v -0.1 0.6 -0.3
v 0.2 0.6 -0.3
v 0.3 0.6 -0.3
v 0.1 0.6 -0.5
v 0.2 0.6 -0.5
v 0.1 0.6 -0.6
v 0.2 0.6 -0.6
v 0 0.7 0.5
v 0.3 0.7 0.5
v 0.3 0.7 0.4
v 0 0.7 0.3
v 0.3 0.7 0.3
v 0 0.7 -0.4
v 0.2 0.7 -0.4
v 0.1 0.7 -0.5
v 0.2 0.7 -0.5
v 0 0.7 -0.6
v 0.1 0.7 -0.6
v 0.3 0.8 0.5
v 0.4 0.8 0.5
v 0.3 0.8 0.4
v 0.4 0.8 0.4
v 0 0.8 0.3
v 0.2 0.8 0.3
v 0 0.8 0.2
v 0.2 0.8 0.2
v 0 0.8 -0.3
v 0.2 0.8 -0.3
v 0 0.8 -0.4
v 0.2 0.8 -0.4
v -0.3 1 0.3
v -0.2 1 0.3
v -0.2 1 0.2
v -0.2 1 0.1
v -0.2 1 -0.2
v -0.2 1 -0.3
v -0.3 1 -0.4
v -0.2 1 -0.4
v 0.2 1.1 0.4
v 0.3 1.1 0.4
v 0.4 1.1 0.4
v 0.5 1.1 0.4
v 0.2 1.1 0.3
v 0.3 1.1 0.3
v 0.4 1.1 0.3
v 0.5 1.1 0.3
v -0.4 1.3 0.4
v 0.3 1.3 0.4
v 0.4 1.3 0.4
v 0.5 1.3 0.4
v -0.3 1.3 0.3
v -0.2 1.3 0.3
v 0.3 1.3 0.3
v 0.4 1.3 0.3
v -0.2 1.3 0.2
v 0.1 1.3 0.2
v 0.2 1.3 0.2
v 0.3 1.3 0.2
v -0.2 1.3 -0.3
v 0.1 1.3 -0.3
v 0.2 1.3 -0.3
v 0.3 1.3 -0.3
v -0.3 1.3 -0.4
v -0.2 1.3 -0.4
v -0.4 1.3 -0.5
v 0.5 1.3 -0.5
v 0.1 0.1 0.2
v 0.2 0.1 0.2
v 0.1 0.1 0.1
v 0.2 0.1 0.1
v 0.1 0.1 -0.2
v 0.2 0.1 -0.2
v 0.1 0.1 -0.3
v 0.2 0.1 -0.3
v -0.1 0.6 0.3
v 0.2 0.6 0.3
v -0.1 0.6 0.2
v 0.2 0.6 0.2
v -0.1 0.6 -0.3
v 0.2 0.6 -0.3
v -0.1 0.6 -0.4
v 0.2 0.6 -0.4
v 0 0.9 0.5
v 0.1 0.9 0.5
v 0.3 0.9 0.5
v 0.4 0.9 0.5
v 0 0.9 0.4
v 0.1 0.9 0.4
v 0.2 0.9 0.4
v 0.3 0.9 0.4
v 0.4 0.9 0.4
v 0.2 0.9 0.3
v 0.3 0.9 0.3
v 0 0.9 -0.5
v 0.1 0.9 -0.5
v 0.2 0.9 -0.5
v 0 0.9 -0.6
v 0.1 0.9 -0.6
v 0.2 0.9 -0.6
v 0 1 0.4
v 0.2 1 0.4
v 0 1 0.2
v 0.1 1 0.2
v 0.2 1 0.2
v 0 1 -0.3
v 0.1 1 -0.3
v 0.2 1 -0.3
v 0 1 -0.5
v 0.2 1 -0.5
v 0.2 1.2 0.4
v 0.3 1.2 0.4
v 0.4 1.2 0.4
v 0.5 1.2 0.4
v 0.2 1.2 0.3
v 0.3 1.2 0.3
v 0.4 1.2 0.3
v 0.5 1.2 0.3
v -0.4 1.4 0.4
v 0.5 1.4 0.4
v -0.2 1.4 0.2
v 0.3 1.4 0.2
v -0.2 1.4 -0.3
v 0.3 1.4 -0.3
v -0.4 1.4 -0.5
v 0.5 1.4 -0.5
v -0.2 1.5 0.2
v 0.3 1.5 0.2
v 0 1.5 -5.96046e-08
v 0.1 1.5 -5.96046e-08
v 0 1.5 -0.1
v 0.1 1.5 -0.1
v -0.2 1.5 -0.3
v 0.3 1.5 -0.3
v 0 1.6 -5.96046e-08
v 0.1 1.6 -5.96046e-08
v 0 1.6 -0.1
v 0.1 1.6 -0.1

# faces
f 3/9/1 2/9/1 1/9/1
f 4/9/1 2/9/1 3/9/1
f 7/1/1 6/1/1 5/1/1
f 8/1/1 6/1/1 7/1/1
f 11/4/1 10/4/1 9/4/1
f 12/4/1 10/4/1 11/4/1
f 13/3/1 12/3/1 11/3/1
f 14/3/1 12/3/1 13/3/1
f 15/3/1 13/3/1 11/3/1
f 16/2/1 14/2/1 13/2/1
f 16/3/1 13/3/1 15/3/1
f 17/3/1 12/3/1 14/3/1
f 17/2/1 14/2/1 16/2/1
f 18/3/1 12/3/1 17/3/1
f 21/9/1 20/9/1 19/9/1
f 22/9/1 20/9/1 21/9/1
f 27/2/1 24/2/1 23/2/1
f 28/2/1 24/2/1 27/2/1
f 29/2/1 26/2/1 25/2/1
f 30/2/1 26/2/1 29/2/1
f 31/3/1 28/3/1 27/3/1
f 32/3/1 28/3/1 31/3/1
f 33/3/1 28/3/1 32/3/1
f 34/3/1 30/3/1 29/3/1
f 35/3/1 30/3/1 34/3/1
f 36/3/1 30/3/1 35/3/1
f 41/9/1 38/9/1 37/9/1
f 42/9/1 38/9/1 41/9/1
f 43/9/1 40/9/1 39/9/1
f 44/9/1 40/9/1 43/9/1
f 45/3/1 42/3/1 41/3/1
f 46/3/1 42/3/1 45/3/1
f 47/3/1 44/3/1 43/3/1
f 48/3/1 44/3/1 47/3/1
f 53/2/1 50/2/1 49/2/1
f 54/2/1 50/2/1 53/2/1
f 55/2/1 50/2/1 54/2/1
f 58/2/1 52/2/1 51/2/1
f 59/2/1 52/2/1 58/2/1
f 60/2/1 52/2/1 59/2/1
f 61/3/1 54/3/1 53/3/1
f 62/2/1 56/2/1 55/2/1
f 62/3/1 54/3/1 61/3/1
f 62/2/1 55/2/1 54/2/1
f 63/2/1 56/2/1 62/2/1
f 64/2/1 58/2/1 57/2/1
f 64/2/1 59/2/1 58/2/1
f 65/3/1 60/3/1 59/3/1
f 65/2/1 59/2/1 64/2/1
f 66/3/1 60/3/1 65/3/1
f 67/3/1 63/3/1 62/3/1
f 68/3/1 63/3/1 67/3/1
f 69/3/1 65/3/1 64/3/1
f 70/3/1 65/3/1 69/3/1
f 73/9/1 72/9/1 71/9/1
f 74/9/1 72/9/1 73/9/1
f 77/5/1 76/5/1 75/5/1
f 78/5/1 76/5/1 77/5/1
f 81/8/1 80/8/1 79/8/1
f 82/8/1 80/8/1 81/8/1
f 85/7/1 84/7/1 83/7/1
f 86/7/1 84/7/1 85/7/1
f 89/7/1 88/7/1 87/7/1
f 90/7/1 88/7/1 89/7/1
f 93/8/1 92/8/1 91/8/1
f 94/8/1 92/8/1 93/8/1
f 95/1/2 96/1/2 99/1/2
f 99/1/2 96/1/2 100/1/2
f 97/1/2 98/1/2 101/1/2
f 101/1/2 98/1/2 102/1/2
f 103/3/2 104/3/2 107/3/2
f 107/3/2 104/3/2 108/3/2
f 105/3/2 106/3/2 109/3/2
f 109/3/2 106/3/2 110/3/2
f 111/9/2 112/9/2 113/9/2
f 113/9/2 112/9/2 114/9/2
f 115/9/2 116/9/2 119/9/2
f 119/9/2 116/9/2 120/9/2
f 117/9/2 118/9/2 121/9/2
f 121/9/2 118/9/2 122/9/2
f 123/2/2 124/2/2 127/2/2
f 127/2/2 124/2/2 128/2/2
f 125/2/2 126/2/2 129/2/2
f 129/2/2 126/2/2 130/2/2
f 127/3/2 128/3/2 131/3/2
f 131/3/2 128/3/2 132/3/2
f 132/3/2 128/3/2 133/3/2
f 129/3/2 130/3/2 134/3/2
f 134/3/2 130/3/2 135/3/2
f 135/3/2 130/3/2 136/3/2
f 137/5/2 138/5/2 140/5/2
f 140/5/2 138/5/2 141/5/2
f 139/2/2 140/2/2 145/2/2
f 140/2/2 141/2/2 145/2/2
f 142/2/2 143/2/2 147/2/2
f 147/2/2 143/2/2 148/2/2
f 144/2/2 145/2/2 149/2/2
f 145/2/2 141/2/2 150/2/2
f 149/2/2 145/2/2 150/2/2
f 150/2/2 141/2/2 151/2/2
f 147/3/2 148/3/2 152/3/2
f 146/3/2 147/3/2 152/3/2
f 152/3/2 148/3/2 153/3/2
f 149/3/2 150/3/2 154/3/2
f 154/3/2 150/3/2 155/3/2
f 156/4/2 157/4/2 160/4/2
f 160/4/2 157/4/2 161/4/2
f 158/2/2 159/2/2 162/2/2
f 162/2/2 159/2/2 163/2/2
f 160/3/2 161/3/2 164/3/2
f 164/3/2 161/3/2 165/3/2
f 165/3/2 161/3/2 166/3/2
f 166/3/2 161/3/2 167/3/2
f 164/4/2 165/4/2 168/4/2
f 165/2/2 166/2/2 169/2/2
f 168/4/2 165/4/2 169/4/2
f 166/4/2 167/4/2 170/4/2
f 169/2/2 166/2/2 170/2/2
f 170/4/2 167/4/2 171/4/2
f 168/5/2 169/5/2 172/5/2
f 169/5/2 170/5/2 172/5/2
f 170/5/2 171/5/2 172/5/2
f 172/5/2 171/5/2 173/5/2
f 174/9/2 175/9/2 176/9/2
f 176/9/2 175/9/2 177/9/2
f 178/7/2 179/7/2 181/7/2
f 180/5/2 181/5/2 182/5/2
f 181/7/2 179/7/2 183/7/2
f 182/5/2 181/5/2 183/5/2
f 183/7/2 179/7/2 184/7/2
f 184/7/2 179/7/2 185/7/2
f 186/8/2 187/8/2 188/8/2
f 188/8/2 187/8/2 189/8/2
f 190/8/2 191/8/2 192/8/2
f 192/8/2 191/8/2 193/8/2
f 194/9/2 195/9/2 196/9/2
f 196/9/2 195/9/2 197/9/2
f 201/2/3 199/2/3 198/2/3
f 201/3/3 200/3/3 199/3/3
f 202/3/3 200/3/3 201/3/3
f 203/2/3 201/2/3 198/2/3
f 203/2/3 202/2/3 201/2/3
f 204/2/3 202/2/3 203/2/3
f 205/2/3 202/2/3 204/2/3
f 206/5/3 205/5/3 204/5/3
f 207/5/3 205/5/3 206/5/3
f 212/3/3 211/3/3 210/3/3
f 213/3/3 211/3/3 212/3/3
f 214/3/3 211/3/3 213/3/3
f 221/8/3 216/8/3 215/8/3
f 222/8/3 216/8/3 221/8/3
f 223/9/3 209/9/3 208/9/3
f 224/7/3 219/7/3 218/7/3
f 224/7/3 218/7/3 217/7/3
f 225/7/3 219/7/3 224/7/3
f 226/7/3 221/7/3 220/7/3
f 227/8/3 222/8/3 221/8/3
f 227/7/3 221/7/3 226/7/3
f 227/8/3 223/8/3 222/8/3
f 228/8/3 223/8/3 227/8/3
f 229/9/3 209/9/3 223/9/3
f 229/8/3 223/8/3 228/8/3
f 230/8/3 228/8/3 227/8/3
f 231/8/3 228/8/3 230/8/3
f 232/9/3 209/9/3 229/9/3
f 233/9/3 209/9/3 232/9/3
f 236/1/3 235/1/3 234/1/3
f 237/1/3 235/1/3 236/1/3
f 241/2/3 239/2/3 238/2/3
f 242/3/3 240/3/3 239/3/3
f 242/2/3 239/2/3 241/2/3
f 243/3/3 240/3/3 242/3/3
f 250/4/3 245/4/3 244/4/3
f 254/3/3 246/3/3 245/3/3
f 255/3/3 246/3/3 254/3/3
f 256/5/3 247/5/3 246/5/3
f 256/3/3 246/3/3 255/3/3
f 257/3/3 253/3/3 252/3/3
f 257/9/3 252/9/3 251/9/3
f 258/3/3 253/3/3 257/3/3
f 259/5/3 247/5/3 256/5/3
f 260/5/3 247/5/3 259/5/3
f 261/9/3 257/9/3 251/9/3
f 262/9/3 257/9/3 261/9/3
f 263/4/3 245/4/3 250/4/3
f 264/3/3 254/3/3 245/3/3
f 266/1/3 260/1/3 259/1/3
f 267/1/3 260/1/3 266/1/3
f 268/4/3 245/4/3 263/4/3
f 269/3/3 265/3/3 264/3/3
f 269/4/3 245/4/3 268/4/3
f 269/3/3 264/3/3 245/3/3
f 270/4/3 266/4/3 265/4/3
f 270/3/3 265/3/3 269/3/3
f 271/5/3 267/5/3 266/5/3
f 271/4/3 266/4/3 270/4/3
f 272/5/3 267/5/3 271/5/3
f 273/9/3 249/9/3 248/9/3
f 274/9/3 249/9/3 273/9/3
f 277/9/3 276/9/3 275/9/3
f 278/9/3 276/9/3 277/9/3
f 282/2/3 280/2/3 279/2/3
f 283/3/3 281/3/3 280/3/3
f 283/2/3 280/2/3 282/2/3
f 284/3/3 281/3/3 283/3/3
f 288/9/3 286/9/3 285/9/3
f 288/3/3 287/3/3 286/3/3
f 289/3/3 287/3/3 288/3/3
f 290/9/3 288/9/3 285/9/3
f 291/9/3 288/9/3 290/9/3
f 294/2/3 293/2/3 292/2/3
f 295/2/3 293/2/3 294/2/3
f 298/5/3 297/5/3 296/5/3
f 299/5/3 297/5/3 298/5/3
f 300/2/4 301/2/4 302/2/4
f 300/2/4 302/2/4 307/2/4
f 302/2/4 303/2/4 307/2/4
f 307/2/4 303/2/4 308/2/4
f 304/8/4 305/8/4 309/8/4
f 309/8/4 305/8/4 310/8/4
f 307/7/4 308/7/4 312/7/4
f 306/7/4 307/7/4 312/7/4
f 308/7/4 309/7/4 312/7/4
f 310/8/4 311/8/4 313/8/4
f 312/7/4 309/7/4 313/7/4
f 309/8/4 310/8/4 313/8/4
f 313/8/4 311/8/4 314/8/4
f 314/8/4 311/8/4 315/8/4
f 313/8/4 314/8/4 316/8/4
f 316/8/4 314/8/4 317/8/4
f 318/9/4 319/9/4 321/9/4
f 319/3/4 320/3/4 321/3/4
f 321/3/4 320/3/4 322/3/4
f 318/9/4 321/9/4 323/9/4
f 323/9/4 321/9/4 324/9/4
f 325/2/4 326/2/4 328/2/4
f 326/3/4 327/3/4 329/3/4
f 328/2/4 326/2/4 329/2/4
f 329/3/4 327/3/4 330/3/4
f 331/9/4 332/9/4 333/9/4
f 333/9/4 332/9/4 334/9/4
f 335/4/4 336/4/4 341/4/4
f 336/3/4 337/3/4 345/3/4
f 345/3/4 337/3/4 346/3/4
f 337/5/4 338/5/4 347/5/4
f 346/3/4 337/3/4 347/3/4
f 343/3/4 344/3/4 348/3/4
f 342/9/4 343/9/4 348/9/4
f 348/3/4 344/3/4 349/3/4
f 347/5/4 338/5/4 350/5/4
f 350/5/4 338/5/4 351/5/4
f 342/9/4 348/9/4 352/9/4
f 352/9/4 348/9/4 353/9/4
f 341/4/4 336/4/4 354/4/4
f 336/3/4 345/3/4 355/3/4
f 350/1/4 351/1/4 357/1/4
f 357/1/4 351/1/4 358/1/4
f 354/4/4 336/4/4 359/4/4
f 355/3/4 356/3/4 360/3/4
f 359/4/4 336/4/4 360/4/4
f 336/3/4 355/3/4 360/3/4
f 356/4/4 357/4/4 361/4/4
f 360/3/4 356/3/4 361/3/4
f 357/5/4 358/5/4 362/5/4
f 361/4/4 357/4/4 362/4/4
f 362/5/4 358/5/4 363/5/4
f 339/9/4 340/9/4 364/9/4
f 364/9/4 340/9/4 365/9/4
f 366/1/4 367/1/4 368/1/4
f 368/1/4 367/1/4 369/1/4
f 370/2/4 371/2/4 373/2/4
f 371/3/4 372/3/4 374/3/4
f 373/2/4 371/2/4 374/2/4
f 374/3/4 372/3/4 375/3/4
f 378/3/4 379/3/4 380/3/4
f 380/3/4 379/3/4 381/3/4
f 381/3/4 379/3/4 382/3/4
f 376/9/4 377/9/4 383/9/4
f 383/9/4 377/9/4 384/9/4
f 385/2/4 386/2/4 389/2/4
f 386/3/4 387/3/4 390/3/4
f 389/2/4 386/2/4 390/2/4
f 390/3/4 387/3/4 391/3/4
f 388/5/4 389/5/4 392/5/4
f 389/2/4 390/2/4 393/2/4
f 392/5/4 389/5/4 393/5/4
f 390/2/4 391/2/4 393/2/4
f 393/2/4 391/2/4 394/2/4
f 397/9/5 396/9/5 395/9/5
f 398/9/5 396/9/5 397/9/5
f 401/9/5 400/9/5 399/9/5
f 402/9/5 400/9/5 401/9/5
f 405/2/5 404/2/5 403/2/5
f 406/2/5 404/2/5 405/2/5
f 407/2/5 405/2/5 403/2/5
f 408/2/5 404/2/5 406/2/5
f 409/2/5 407/2/5 403/2/5
f 409/2/5 408/2/5 407/2/5
f 410/2/5 404/2/5 408/2/5
f 410/2/5 408/2/5 409/2/5
f 413/2/5 412/2/5 411/2/5
f 414/2/5 412/2/5 413/2/5
f 415/2/5 413/2/5 411/2/5
f 416/2/5 412/2/5 414/2/5
f 417/2/5 415/2/5 411/2/5
f 417/2/5 416/2/5 415/2/5
f 418/2/5 412/2/5 416/2/5
f 418/2/5 416/2/5 417/2/5
f 421/7/5 420/7/5 419/7/5
f 422/7/5 420/7/5 421/7/5
f 427/4/5 424/4/5 423/4/5
f 428/4/5 426/4/5 425/4/5
f 429/4/5 427/4/5 423/4/5
f 429/2/5 428/2/5 427/2/5
f 430/4/5 426/4/5 428/4/5
f 430/2/5 428/2/5 429/2/5
f 431/4/5 429/4/5 423/4/5
f 432/4/5 429/4/5 431/4/5
f 433/4/5 426/4/5 430/4/5
f 434/4/5 426/4/5 433/4/5
f 437/5/5 436/5/5 435/5/5
f 438/5/5 436/5/5 437/5/5
f 441/2/5 440/2/5 439/2/5
f 442/2/5 441/2/5 439/2/5
f 443/2/5 441/2/5 442/2/5
f 446/2/5 445/2/5 444/2/5
f 447/2/5 445/2/5 446/2/5
f 448/2/5 446/2/5 444/2/5
f 449/2/5 446/2/5 448/2/5
f 452/5/5 451/5/5 450/5/5
f 453/5/5 451/5/5 452/5/5
f 456/2/5 455/2/5 454/2/5
f 457/2/5 455/2/5 456/2/5
f 460/2/5 459/2/5 458/2/5
f 461/2/5 459/2/5 460/2/5
f 464/1/5 463/1/5 462/1/5
f 465/1/5 464/1/5 462/1/5
f 466/1/5 465/1/5 462/1/5
f 467/1/5 466/1/5 462/1/5
f 468/1/5 467/1/5 462/1/5
f 469/1/5 467/1/5 468/1/5
f 474/8/5 471/8/5 470/8/5
f 475/8/5 471/8/5 474/8/5
f 476/8/5 473/8/5 472/8/5
f 477/8/5 473/8/5 476/8/5
f 482/9/5 479/9/5 478/9/5
f 483/9/5 479/9/5 482/9/5
f 484/9/5 479/9/5 483/9/5
f 485/9/5 481/9/5 480/9/5
f 486/9/5 484/9/5 483/9/5
f 486/9/5 485/9/5 484/9/5
f 487/9/5 485/9/5 486/9/5
f 488/9/5 485/9/5 487/9/5
f 489/9/5 485/9/5 488/9/5
f 493/9/5 485/9/5 489/9/5
f 494/9/5 482/9/5 478/9/5
f 495/9/5 493/9/5 492/9/5
f 495/9/5 492/9/5 491/9/5
f 495/9/5 491/9/5 490/9/5
f 496/9/5 494/9/5 478/9/5
f 496/9/5 495/9/5 494/9/5
f 497/9/5 481/9/5 485/9/5
f 497/9/5 495/9/5 496/9/5
f 497/9/5 493/9/5 495/9/5
f 497/9/5 485/9/5 493/9/5
f 498/9/6 499/9/6 500/9/6
f 500/9/6 499/9/6 501/9/6
f 502/9/6 503/9/6 504/9/6
f 504/9/6 503/9/6 505/9/6
f 506/3/6 507/3/6 508/3/6
f 508/3/6 507/3/6 509/3/6
f 510/3/6 511/3/6 512/3/6
f 512/3/6 511/3/6 513/3/6
f 514/3/6 515/3/6 518/3/6
f 515/2/6 516/2/6 519/2/6
f 518/3/6 515/3/6 519/3/6
f 519/2/6 516/2/6 520/2/6
f 516/5/6 517/5/6 521/5/6
f 520/2/6 516/2/6 521/2/6
f 521/5/6 517/5/6 522/5/6
f 520/2/6 521/2/6 523/2/6
f 523/2/6 521/2/6 524/2/6
f 525/3/6 526/3/6 528/3/6
f 526/2/6 527/2/6 529/2/6
f 528/3/6 526/3/6 529/3/6
f 529/2/6 527/2/6 530/2/6
f 531/3/6 532/3/6 533/3/6
f 533/3/6 532/3/6 534/3/6
f 534/3/6 532/3/6 535/3/6
f 536/3/6 537/3/6 539/3/6
f 537/3/6 538/3/6 539/3/6
f 539/3/6 538/3/6 540/3/6
f 541/8/6 542/8/6 545/8/6
f 545/8/6 542/8/6 546/8/6
f 543/8/6 544/8/6 547/8/6
f 547/8/6 544/8/6 548/8/6
f 549/9/6 550/9/6 551/9/6
f 551/9/6 550/9/6 552/9/6
f 549/9/6 551/9/6 553/9/6
f 552/9/6 550/9/6 554/9/6
f 549/9/6 553/9/6 555/9/6
f 553/9/6 554/9/6 555/9/6
f 554/9/6 550/9/6 556/9/6
f 555/9/6 554/9/6 556/9/6
f 557/9/6 558/9/6 559/9/6
f 559/9/6 558/9/6 560/9/6
f 557/9/6 559/9/6 561/9/6
f 560/9/6 558/9/6 562/9/6
f 557/9/6 561/9/6 563/9/6
f 561/9/6 562/9/6 563/9/6
f 562/9/6 558/9/6 564/9/6
f 563/9/6 562/9/6 564/9/6
f 565/9/6 566/9/6 567/9/6
f 567/9/6 566/9/6 568/9/6
