# MagicaVoxel @ Ephtracy

# group
o 

# material
mtllib bomberman_throwing.mtl
usemtl palette

# normals
vn -1 0 0
vn 1 0 0
vn 0 0 1
vn 0 0 -1
vn 0 -1 0
vn 0 1 0

# texcoords
vt 0.00585938 0.5
vt 0.0214844 0.5
vt 0.0253906 0.5
vt 0.0292969 0.5
vt 0.0332031 0.5
vt 0.306641 0.5
vt 0.990234 0.5

# verts
v -0.4 1.3 0.4
v -0.4 1.3 -0.5
v -0.4 1.4 0.4
v -0.4 1.4 -0.5
v -0.3 1 0.3
v -0.3 1 -0.4
v -0.3 1.3 0.3
v -0.3 1.3 -0.4
v -0.2 0.6 0.2
v -0.2 0.6 -0.3
v -0.2 0.7 0.2
v -0.2 0.7 -0.3
v -0.2 0.9 0.1
v -0.2 0.9 -0.2
v -0.2 1 0.2
v -0.2 1 0.1
v -0.2 1 -0.2
v -0.2 1 -0.3
v -0.2 1.4 0.2
v -0.2 1.4 -0.3
v -0.2 1.5 0.2
v -0.2 1.5 -0.3
v -0.1 0.3 0.3
v -0.1 0.3 0
v -0.1 0.3 -0.1
v -0.1 0.3 -0.4
v -0.1 0.4 0.3
v -0.1 0.4 0
v -0.1 0.4 -0.1
v -0.1 0.4 -0.4
v -0.1 0.6 0.3
v -0.1 0.6 0.2
v -0.1 0.6 0
v -0.1 0.6 -0.1
v -0.1 0.6 -0.3
v -0.1 0.6 -0.4
v 0 0 0.2
v 0 0 0.1
v 0 0 -0.2
v 0 0 -0.3
v 0 0.1 0.2
v 0 0.1 0.1
v 0 0.1 -0.2
v 0 0.1 -0.3
v 0 0.3 0.2
v 0 0.3 0.1
v 0 0.3 -0.2
v 0 0.3 -0.3
v 0 0.8 0.6
v 0 0.8 0.2
v 0 0.8 -0.3
v 0 0.8 -0.7
v 0 0.9 0.6
v 0 0.9 0.5
v 0 0.9 0.4
v 0 0.9 0.2
v 0 0.9 -0.3
v 0 0.9 -0.5
v 0 0.9 -0.6
v 0 0.9 -0.7
v 0 1 0.6
v 0 1 0.5
v 0 1 0.4
v 0 1 0.2
v 0 1 -0.3
v 0 1 -0.5
v 0 1 -0.6
v 0 1 -0.7
v 0 1.5 0
v 0 1.5 -0.1
v 0 1.6 0
v 0 1.6 -0.1
v -0.2 1 0.3
v -0.2 1 0.2
v -0.2 1 -0.3
v -0.2 1 -0.4
v -0.2 1.3 0.3
v -0.2 1.3 0.2
v -0.2 1.3 -0.3
v -0.2 1.3 -0.4
v 0.1 0.1 0.2
v 0.1 0.1 0.1
v 0.1 0.1 -0.2
v 0.1 0.1 -0.3
v 0.1 0.3 0.2
v 0.1 0.3 0.1
v 0.1 0.3 -0.2
v 0.1 0.3 -0.3
v 0.1 1.5 0
v 0.1 1.5 -0.1
v 0.1 1.6 0
v 0.1 1.6 -0.1
v 0.2 0 0.2
v 0.2 0 0.1
v 0.2 0 -0.2
v 0.2 0 -0.3
v 0.2 0.1 0.2
v 0.2 0.1 0.1
v 0.2 0.1 -0.2
v 0.2 0.1 -0.3
v 0.2 0.3 0.3
v 0.2 0.3 0
v 0.2 0.3 -0.1
v 0.2 0.3 -0.4
v 0.2 0.4 0.3
v 0.2 0.4 0
v 0.2 0.4 -0.1
v 0.2 0.4 -0.4
v 0.2 0.6 0.3
v 0.2 0.6 0.2
v 0.2 0.6 0
v 0.2 0.6 -0.1
v 0.2 0.6 -0.3
v 0.2 0.6 -0.4
v 0.2 0.8 0.4
v 0.2 0.8 0.2
v 0.2 0.8 -0.3
v 0.2 0.8 -0.5
v 0.2 0.9 0.4
v 0.2 0.9 0.2
v 0.2 0.9 -0.3
v 0.2 0.9 -0.5
v 0.2 1 0.4
v 0.2 1 0.2
v 0.2 1 -0.3
v 0.2 1 -0.5
v 0.3 0.6 0.2
v 0.3 0.6 -0.3
v 0.3 0.7 0.2
v 0.3 0.7 -0.3
v 0.3 0.9 0.2
v 0.3 0.9 0.1
v 0.3 0.9 -0.2
v 0.3 0.9 -0.3
v 0.3 1 0.2
v 0.3 1 0.1
v 0.3 1 -0.2
v 0.3 1 -0.3
v 0.3 1.3 0.2
v 0.3 1.3 -0.3
v 0.3 1.4 0.2
v 0.3 1.4 -0.3
v 0.3 1.5 0.2
v 0.3 1.5 -0.3
v 0.4 0.8 0.6
v 0.4 0.8 0.4
v 0.4 0.8 -0.5
v 0.4 0.8 -0.7
v 0.4 0.9 0.5
v 0.4 0.9 0.4
v 0.4 0.9 -0.5
v 0.4 0.9 -0.6
v 0.4 1 0.6
v 0.4 1 0.5
v 0.4 1 -0.6
v 0.4 1 -0.7
v 0.5 0.9 0.5
v 0.5 0.9 0.4
v 0.5 0.9 -0.5
v 0.5 0.9 -0.6
v 0.5 1 0.5
v 0.5 1 0.4
v 0.5 1 -0.5
v 0.5 1 -0.6
v 0.5 1.3 0.4
v 0.5 1.3 -0.5
v 0.5 1.4 0.4
v 0.5 1.4 -0.5
v 0 0.8 0.6
v 0 0.9 0.6
v 0 1 0.6
v 0.1 0.9 0.6
v 0.1 1 0.6
v 0.4 0.8 0.6
v 0.4 1 0.6
v 0.4 0.9 0.5
v 0.4 1 0.5
v 0.5 0.9 0.5
v 0.5 1 0.5
v -0.4 1.3 0.4
v -0.4 1.4 0.4
v 0.5 1.3 0.4
v 0.5 1.4 0.4
v -0.3 1 0.3
v -0.3 1.3 0.3
v -0.2 1 0.3
v -0.2 1.3 0.3
v -0.1 0.3 0.3
v -0.1 0.4 0.3
v -0.1 0.6 0.3
v 0.2 0.3 0.3
v 0.2 0.4 0.3
v 0.2 0.6 0.3
v -0.2 0.6 0.2
v -0.2 0.7 0.2
v -0.2 1 0.2
v -0.2 1.3 0.2
v -0.2 1.4 0.2
v -0.2 1.5 0.2
v -0.1 0.6 0.2
v 0 0 0.2
v 0 0.1 0.2
v 0 0.3 0.2
v 0 0.8 0.2
v 0 0.9 0.2
v 0 1 0.2
v 0.1 0.1 0.2
v 0.1 0.3 0.2
v 0.1 1 0.2
v 0.1 1.3 0.2
v 0.2 0 0.2
v 0.2 0.1 0.2
v 0.2 0.6 0.2
v 0.2 0.8 0.2
v 0.2 0.9 0.2
v 0.2 1 0.2
v 0.2 1.3 0.2
v 0.3 0.6 0.2
v 0.3 0.7 0.2
v 0.3 0.9 0.2
v 0.3 1 0.2
v 0.3 1.3 0.2
v 0.3 1.4 0.2
v 0.3 1.5 0.2
v 0 1.5 0
v 0 1.6 0
v 0.1 1.5 0
v 0.1 1.6 0
v -0.1 0.3 -0.1
v -0.1 0.4 -0.1
v -0.1 0.6 -0.1
v 0.2 0.3 -0.1
v 0.2 0.4 -0.1
v 0.2 0.6 -0.1
v 0 0 -0.2
v 0 0.1 -0.2
v 0 0.3 -0.2
v 0.1 0.1 -0.2
v 0.1 0.3 -0.2
v 0.2 0 -0.2
v 0.2 0.1 -0.2
v 0.2 0.8 -0.5
v 0.2 0.9 -0.5
v 0.2 1 -0.5
v 0.4 0.8 -0.5
v 0.4 0.9 -0.5
v 0.4 1 -0.5
v 0.5 0.9 -0.5
v 0.5 1 -0.5
v 0.2 0.8 0.4
v 0.2 0.9 0.4
v 0.2 1 0.4
v 0.4 0.8 0.4
v 0.4 0.9 0.4
v 0.4 1 0.4
v 0.5 0.9 0.4
v 0.5 1 0.4
v 0 0 0.1
v 0 0.1 0.1
v 0 0.3 0.1
v 0.1 0.1 0.1
v 0.1 0.3 0.1
v 0.2 0 0.1
v 0.2 0.1 0.1
v -0.1 0.3 0
v -0.1 0.4 0
v -0.1 0.6 0
v 0.2 0.3 0
v 0.2 0.4 0
v 0.2 0.6 0
v 0 1.5 -0.1
v 0 1.6 -0.1
v 0.1 1.5 -0.1
v 0.1 1.6 -0.1
v -0.2 0.6 -0.3
v -0.2 0.7 -0.3
v -0.2 1 -0.3
v -0.2 1.3 -0.3
v -0.2 1.4 -0.3
v -0.2 1.5 -0.3
v -0.1 0.6 -0.3
v 0 0 -0.3
v 0 0.1 -0.3
v 0 0.3 -0.3
v 0 0.8 -0.3
v 0 0.9 -0.3
v 0 1 -0.3
v 0.1 0.1 -0.3
v 0.1 0.3 -0.3
v 0.1 1 -0.3
v 0.1 1.3 -0.3
v 0.2 0 -0.3
v 0.2 0.1 -0.3
v 0.2 0.6 -0.3
v 0.2 0.8 -0.3
v 0.2 0.9 -0.3
v 0.2 1 -0.3
v 0.2 1.3 -0.3
v 0.3 0.6 -0.3
v 0.3 0.7 -0.3
v 0.3 0.9 -0.3
v 0.3 1 -0.3
v 0.3 1.3 -0.3
v 0.3 1.4 -0.3
v 0.3 1.5 -0.3
v -0.3 1 -0.4
v -0.3 1.3 -0.4
v -0.2 1 -0.4
v -0.2 1.3 -0.4
v -0.1 0.3 -0.4
v -0.1 0.4 -0.4
v -0.1 0.6 -0.4
v 0.2 0.3 -0.4
v 0.2 0.4 -0.4
v 0.2 0.6 -0.4
v -0.4 1.3 -0.5
v -0.4 1.4 -0.5
v 0.5 1.3 -0.5
v 0.5 1.4 -0.5
v 0.4 0.9 -0.6
v 0.4 1 -0.6
v 0.5 0.9 -0.6
v 0.5 1 -0.6
v 0 0.8 -0.7
v 0 0.9 -0.7
v 0 1 -0.7
v 0.1 0.9 -0.7
v 0.1 1 -0.7
v 0.4 0.8 -0.7
v 0.4 1 -0.7
v 0 0 0.2
v 0.2 0 0.2
v 0 0 0.1
v 0.2 0 0.1
v 0 0 -0.2
v 0.2 0 -0.2
v 0 0 -0.3
v 0.2 0 -0.3
v -0.1 0.3 0.3
v 0.2 0.3 0.3
v 0 0.3 0.2
v 0.1 0.3 0.2
v 0 0.3 0.1
v 0.1 0.3 0.1
v -0.1 0.3 0
v 0.2 0.3 0
v -0.1 0.3 -0.1
v 0.2 0.3 -0.1
v 0 0.3 -0.2
v 0.1 0.3 -0.2
v 0 0.3 -0.3
v 0.1 0.3 -0.3
v -0.1 0.3 -0.4
v 0.2 0.3 -0.4
v -0.2 0.6 0.2
v -0.1 0.6 0.2
v 0.2 0.6 0.2
v 0.3 0.6 0.2
v -0.1 0.6 0
v 0.2 0.6 0
v -0.1 0.6 -0.1
v 0.2 0.6 -0.1
v -0.2 0.6 -0.3
v -0.1 0.6 -0.3
v 0.2 0.6 -0.3
v 0.3 0.6 -0.3
v 0 0.8 0.6
v 0.4 0.8 0.6
v 0.2 0.8 0.4
v 0.4 0.8 0.4
v 0 0.8 0.2
v 0.2 0.8 0.2
v 0 0.8 -0.3
v 0.2 0.8 -0.3
v 0.2 0.8 -0.5
v 0.4 0.8 -0.5
v 0 0.8 -0.7
v 0.4 0.8 -0.7
v 0.4 0.9 0.5
v 0.5 0.9 0.5
v 0.4 0.9 0.4
v 0.5 0.9 0.4
v 0.4 0.9 -0.5
v 0.5 0.9 -0.5
v 0.4 0.9 -0.6
v 0.5 0.9 -0.6
v -0.3 1 0.3
v -0.2 1 0.3
v -0.2 1 0.2
v -0.2 1 0.1
v -0.2 1 -0.2
v -0.2 1 -0.3
v -0.3 1 -0.4
v -0.2 1 -0.4
v -0.4 1.3 0.4
v 0.5 1.3 0.4
v -0.3 1.3 0.3
v -0.2 1.3 0.3
v -0.2 1.3 0.2
v 0.1 1.3 0.2
v 0.2 1.3 0.2
v 0.3 1.3 0.2
v -0.2 1.3 -0.3
v 0.1 1.3 -0.3
v 0.2 1.3 -0.3
v 0.3 1.3 -0.3
v -0.3 1.3 -0.4
v -0.2 1.3 -0.4
v -0.4 1.3 -0.5
v 0.5 1.3 -0.5
v 0.1 0.1 0.2
v 0.2 0.1 0.2
v 0.1 0.1 0.1
v 0.2 0.1 0.1
v 0.1 0.1 -0.2
v 0.2 0.1 -0.2
v 0.1 0.1 -0.3
v 0.2 0.1 -0.3
v -0.1 0.6 0.3
v 0.2 0.6 0.3
v -0.1 0.6 0.2
v 0.2 0.6 0.2
v -0.1 0.6 -0.3
v 0.2 0.6 -0.3
v -0.1 0.6 -0.4
v 0.2 0.6 -0.4
v 0 1 0.6
v 0.1 1 0.6
v 0.4 1 0.6
v 0 1 0.5
v 0.1 1 0.5
v 0.4 1 0.5
v 0.5 1 0.5
v 0 1 0.4
v 0.2 1 0.4
v 0.4 1 0.4
v 0.5 1 0.4
v 0 1 0.2
v 0.1 1 0.2
v 0.2 1 0.2
v 0 1 -0.3
v 0.1 1 -0.3
v 0.2 1 -0.3
v 0 1 -0.5
v 0.2 1 -0.5
v 0.4 1 -0.5
v 0.5 1 -0.5
v 0 1 -0.6
v 0.1 1 -0.6
v 0.4 1 -0.6
v 0.5 1 -0.6
v 0 1 -0.7
v 0.1 1 -0.7
v 0.4 1 -0.7
v -0.4 1.4 0.4
v 0.5 1.4 0.4
v -0.2 1.4 0.2
v 0.3 1.4 0.2
v -0.2 1.4 -0.3
v 0.3 1.4 -0.3
v -0.4 1.4 -0.5
v 0.5 1.4 -0.5
v -0.2 1.5 0.2
v 0.3 1.5 0.2
v 0 1.5 0
v 0.1 1.5 0
v 0 1.5 -0.1
v 0.1 1.5 -0.1
v -0.2 1.5 -0.3
v 0.3 1.5 -0.3
v 0 1.6 0
v 0.1 1.6 0
v 0 1.6 -0.1
v 0.1 1.6 -0.1

# faces
f 3/4/1 2/4/1 1/4/1
f 4/4/1 2/4/1 3/4/1
f 7/1/1 6/1/1 5/1/1
f 8/1/1 6/1/1 7/1/1
f 11/4/1 10/4/1 9/4/1
f 12/4/1 10/4/1 11/4/1
f 13/3/1 12/3/1 11/3/1
f 14/3/1 12/3/1 13/3/1
f 15/3/1 13/3/1 11/3/1
f 16/2/1 14/2/1 13/2/1
f 16/3/1 13/3/1 15/3/1
f 17/3/1 12/3/1 14/3/1
f 17/2/1 14/2/1 16/2/1
f 18/3/1 12/3/1 17/3/1
f 21/4/1 20/4/1 19/4/1
f 22/4/1 20/4/1 21/4/1
f 27/2/1 24/2/1 23/2/1
f 28/2/1 24/2/1 27/2/1
f 29/2/1 26/2/1 25/2/1
f 30/2/1 26/2/1 29/2/1
f 31/3/1 28/3/1 27/3/1
f 32/3/1 28/3/1 31/3/1
f 33/3/1 28/3/1 32/3/1
f 34/3/1 30/3/1 29/3/1
f 35/3/1 30/3/1 34/3/1
f 36/3/1 30/3/1 35/3/1
f 41/7/1 38/7/1 37/7/1
f 42/7/1 38/7/1 41/7/1
f 43/7/1 40/7/1 39/7/1
f 44/7/1 40/7/1 43/7/1
f 45/3/1 42/3/1 41/3/1
f 46/3/1 42/3/1 45/3/1
f 47/3/1 44/3/1 43/3/1
f 48/3/1 44/3/1 47/3/1
f 53/2/1 50/2/1 49/2/1
f 54/2/1 50/2/1 53/2/1
f 55/2/1 50/2/1 54/2/1
f 56/2/1 50/2/1 55/2/1
f 57/2/1 52/2/1 51/2/1
f 58/2/1 52/2/1 57/2/1
f 59/2/1 52/2/1 58/2/1
f 60/2/1 52/2/1 59/2/1
f 61/3/1 54/3/1 53/3/1
f 62/2/1 55/2/1 54/2/1
f 62/3/1 54/3/1 61/3/1
f 63/3/1 56/3/1 55/3/1
f 63/2/1 55/2/1 62/2/1
f 64/3/1 56/3/1 63/3/1
f 65/3/1 58/3/1 57/3/1
f 66/2/1 59/2/1 58/2/1
f 66/3/1 58/3/1 65/3/1
f 67/3/1 60/3/1 59/3/1
f 67/2/1 59/2/1 66/2/1
f 68/3/1 60/3/1 67/3/1
f 71/4/1 70/4/1 69/4/1
f 72/4/1 70/4/1 71/4/1
f 73/1/2 74/1/2 77/1/2
f 77/1/2 74/1/2 78/1/2
f 75/1/2 76/1/2 79/1/2
f 79/1/2 76/1/2 80/1/2
f 81/3/2 82/3/2 85/3/2
f 85/3/2 82/3/2 86/3/2
f 83/3/2 84/3/2 87/3/2
f 87/3/2 84/3/2 88/3/2
f 89/4/2 90/4/2 91/4/2
f 91/4/2 90/4/2 92/4/2
f 93/7/2 94/7/2 97/7/2
f 97/7/2 94/7/2 98/7/2
f 95/7/2 96/7/2 99/7/2
f 99/7/2 96/7/2 100/7/2
f 101/2/2 102/2/2 105/2/2
f 105/2/2 102/2/2 106/2/2
f 103/2/2 104/2/2 107/2/2
f 107/2/2 104/2/2 108/2/2
f 105/3/2 106/3/2 109/3/2
f 109/3/2 106/3/2 110/3/2
f 110/3/2 106/3/2 111/3/2
f 107/3/2 108/3/2 112/3/2
f 112/3/2 108/3/2 113/3/2
f 113/3/2 108/3/2 114/3/2
f 115/2/2 116/2/2 119/2/2
f 119/2/2 116/2/2 120/2/2
f 117/2/2 118/2/2 121/2/2
f 121/2/2 118/2/2 122/2/2
f 119/3/2 120/3/2 123/3/2
f 123/3/2 120/3/2 124/3/2
f 121/3/2 122/3/2 125/3/2
f 125/3/2 122/3/2 126/3/2
f 127/4/2 128/4/2 129/4/2
f 129/4/2 128/4/2 130/4/2
f 129/3/2 130/3/2 131/3/2
f 131/3/2 130/3/2 132/3/2
f 132/3/2 130/3/2 133/3/2
f 133/3/2 130/3/2 134/3/2
f 131/4/2 132/4/2 135/4/2
f 132/2/2 133/2/2 136/2/2
f 135/4/2 132/4/2 136/4/2
f 133/4/2 134/4/2 137/4/2
f 136/2/2 133/2/2 137/2/2
f 137/4/2 134/4/2 138/4/2
f 135/5/2 136/5/2 139/5/2
f 136/5/2 137/5/2 139/5/2
f 137/5/2 138/5/2 139/5/2
f 139/5/2 138/5/2 140/5/2
f 141/4/2 142/4/2 143/4/2
f 143/4/2 142/4/2 144/4/2
f 145/2/2 146/2/2 149/2/2
f 149/2/2 146/2/2 150/2/2
f 147/2/2 148/2/2 151/2/2
f 151/2/2 148/2/2 152/2/2
f 145/2/2 149/2/2 153/2/2
f 153/2/2 149/2/2 154/2/2
f 152/2/2 148/2/2 155/2/2
f 155/2/2 148/2/2 156/2/2
f 157/5/2 158/5/2 161/5/2
f 161/5/2 158/5/2 162/5/2
f 159/5/2 160/5/2 163/5/2
f 163/5/2 160/5/2 164/5/2
f 165/4/2 166/4/2 167/4/2
f 167/4/2 166/4/2 168/4/2
f 172/2/3 170/2/3 169/2/3
f 172/3/3 171/3/3 170/3/3
f 173/3/3 171/3/3 172/3/3
f 174/2/3 172/2/3 169/2/3
f 174/2/3 173/2/3 172/2/3
f 175/2/3 173/2/3 174/2/3
f 178/5/3 177/5/3 176/5/3
f 179/5/3 177/5/3 178/5/3
f 182/4/3 181/4/3 180/4/3
f 183/4/3 181/4/3 182/4/3
f 186/1/3 185/1/3 184/1/3
f 187/1/3 185/1/3 186/1/3
f 191/2/3 189/2/3 188/2/3
f 192/3/3 190/3/3 189/3/3
f 192/2/3 189/2/3 191/2/3
f 193/3/3 190/3/3 192/3/3
f 200/4/3 195/4/3 194/4/3
f 204/3/3 196/3/3 195/3/3
f 205/3/3 196/3/3 204/3/3
f 206/5/3 197/5/3 196/5/3
f 206/3/3 196/3/3 205/3/3
f 207/3/3 203/3/3 202/3/3
f 207/7/3 202/7/3 201/7/3
f 208/3/3 203/3/3 207/3/3
f 209/5/3 197/5/3 206/5/3
f 210/5/3 197/5/3 209/5/3
f 211/7/3 207/7/3 201/7/3
f 212/7/3 207/7/3 211/7/3
f 213/4/3 195/4/3 200/4/3
f 214/3/3 204/3/3 195/3/3
f 216/1/3 210/1/3 209/1/3
f 217/1/3 210/1/3 216/1/3
f 218/4/3 195/4/3 213/4/3
f 219/3/3 215/3/3 214/3/3
f 219/4/3 195/4/3 218/4/3
f 219/3/3 214/3/3 195/3/3
f 220/4/3 216/4/3 215/4/3
f 220/3/3 215/3/3 219/3/3
f 221/5/3 217/5/3 216/5/3
f 221/4/3 216/4/3 220/4/3
f 222/5/3 217/5/3 221/5/3
f 223/4/3 199/4/3 198/4/3
f 224/4/3 199/4/3 223/4/3
f 227/4/3 226/4/3 225/4/3
f 228/4/3 226/4/3 227/4/3
f 232/2/3 230/2/3 229/2/3
f 233/3/3 231/3/3 230/3/3
f 233/2/3 230/2/3 232/2/3
f 234/3/3 231/3/3 233/3/3
f 238/7/3 236/7/3 235/7/3
f 238/3/3 237/3/3 236/3/3
f 239/3/3 237/3/3 238/3/3
f 240/7/3 238/7/3 235/7/3
f 241/7/3 238/7/3 240/7/3
f 245/2/3 243/2/3 242/2/3
f 245/2/3 244/2/3 243/2/3
f 246/2/3 244/2/3 245/2/3
f 247/2/3 244/2/3 246/2/3
f 248/5/3 247/5/3 246/5/3
f 249/5/3 247/5/3 248/5/3
f 250/2/4 251/2/4 253/2/4
f 251/2/4 252/2/4 253/2/4
f 253/2/4 252/2/4 254/2/4
f 254/2/4 252/2/4 255/2/4
f 254/5/4 255/5/4 256/5/4
f 256/5/4 255/5/4 257/5/4
f 258/7/4 259/7/4 261/7/4
f 259/3/4 260/3/4 261/3/4
f 261/3/4 260/3/4 262/3/4
f 258/7/4 261/7/4 263/7/4
f 263/7/4 261/7/4 264/7/4
f 265/2/4 266/2/4 268/2/4
f 266/3/4 267/3/4 269/3/4
f 268/2/4 266/2/4 269/2/4
f 269/3/4 267/3/4 270/3/4
f 271/4/4 272/4/4 273/4/4
f 273/4/4 272/4/4 274/4/4
f 275/4/4 276/4/4 281/4/4
f 276/3/4 277/3/4 285/3/4
f 285/3/4 277/3/4 286/3/4
f 277/5/4 278/5/4 287/5/4
f 286/3/4 277/3/4 287/3/4
f 283/3/4 284/3/4 288/3/4
f 282/7/4 283/7/4 288/7/4
f 288/3/4 284/3/4 289/3/4
f 287/5/4 278/5/4 290/5/4
f 290/5/4 278/5/4 291/5/4
f 282/7/4 288/7/4 292/7/4
f 292/7/4 288/7/4 293/7/4
f 281/4/4 276/4/4 294/4/4
f 276/3/4 285/3/4 295/3/4
f 290/1/4 291/1/4 297/1/4
f 297/1/4 291/1/4 298/1/4
f 294/4/4 276/4/4 299/4/4
f 295/3/4 296/3/4 300/3/4
f 299/4/4 276/4/4 300/4/4
f 276/3/4 295/3/4 300/3/4
f 296/4/4 297/4/4 301/4/4
f 300/3/4 296/3/4 301/3/4
f 297/5/4 298/5/4 302/5/4
f 301/4/4 297/4/4 302/4/4
f 302/5/4 298/5/4 303/5/4
f 279/4/4 280/4/4 304/4/4
f 304/4/4 280/4/4 305/4/4
f 306/1/4 307/1/4 308/1/4
f 308/1/4 307/1/4 309/1/4
f 310/2/4 311/2/4 313/2/4
f 311/3/4 312/3/4 314/3/4
f 313/2/4 311/2/4 314/2/4
f 314/3/4 312/3/4 315/3/4
f 316/4/4 317/4/4 318/4/4
f 318/4/4 317/4/4 319/4/4
f 320/5/4 321/5/4 322/5/4
f 322/5/4 321/5/4 323/5/4
f 324/2/4 325/2/4 327/2/4
f 325/3/4 326/3/4 327/3/4
f 327/3/4 326/3/4 328/3/4
f 324/2/4 327/2/4 329/2/4
f 327/2/4 328/2/4 329/2/4
f 329/2/4 328/2/4 330/2/4
f 333/7/5 332/7/5 331/7/5
f 334/7/5 332/7/5 333/7/5
f 337/7/5 336/7/5 335/7/5
f 338/7/5 336/7/5 337/7/5
f 341/2/5 340/2/5 339/2/5
f 342/2/5 340/2/5 341/2/5
f 343/2/5 341/2/5 339/2/5
f 344/2/5 340/2/5 342/2/5
f 345/2/5 343/2/5 339/2/5
f 345/2/5 344/2/5 343/2/5
f 346/2/5 340/2/5 344/2/5
f 346/2/5 344/2/5 345/2/5
f 349/2/5 348/2/5 347/2/5
f 350/2/5 348/2/5 349/2/5
f 351/2/5 349/2/5 347/2/5
f 352/2/5 348/2/5 350/2/5
f 353/2/5 351/2/5 347/2/5
f 353/2/5 352/2/5 351/2/5
f 354/2/5 348/2/5 352/2/5
f 354/2/5 352/2/5 353/2/5
f 359/4/5 356/4/5 355/4/5
f 360/4/5 358/4/5 357/4/5
f 361/4/5 359/4/5 355/4/5
f 361/2/5 360/2/5 359/2/5
f 362/4/5 358/4/5 360/4/5
f 362/2/5 360/2/5 361/2/5
f 363/4/5 361/4/5 355/4/5
f 364/4/5 361/4/5 363/4/5
f 365/4/5 358/4/5 362/4/5
f 366/4/5 358/4/5 365/4/5
f 369/2/5 368/2/5 367/2/5
f 370/2/5 368/2/5 369/2/5
f 371/2/5 369/2/5 367/2/5
f 372/2/5 369/2/5 371/2/5
f 375/2/5 374/2/5 373/2/5
f 377/2/5 375/2/5 373/2/5
f 377/2/5 376/2/5 375/2/5
f 378/2/5 376/2/5 377/2/5
f 381/5/5 380/5/5 379/5/5
f 382/5/5 380/5/5 381/5/5
f 385/5/5 384/5/5 383/5/5
f 386/5/5 384/5/5 385/5/5
f 389/1/5 388/1/5 387/1/5
f 390/1/5 389/1/5 387/1/5
f 391/1/5 390/1/5 387/1/5
f 392/1/5 391/1/5 387/1/5
f 393/1/5 392/1/5 387/1/5
f 394/1/5 392/1/5 393/1/5
f 397/4/5 396/4/5 395/4/5
f 398/4/5 396/4/5 397/4/5
f 399/4/5 396/4/5 398/4/5
f 400/4/5 396/4/5 399/4/5
f 401/4/5 396/4/5 400/4/5
f 402/4/5 396/4/5 401/4/5
f 406/4/5 396/4/5 402/4/5
f 407/4/5 397/4/5 395/4/5
f 408/4/5 406/4/5 405/4/5
f 408/4/5 405/4/5 404/4/5
f 408/4/5 404/4/5 403/4/5
f 409/4/5 407/4/5 395/4/5
f 409/4/5 408/4/5 407/4/5
f 410/4/5 406/4/5 408/4/5
f 410/4/5 408/4/5 409/4/5
f 410/4/5 396/4/5 406/4/5
f 411/7/6 412/7/6 413/7/6
f 413/7/6 412/7/6 414/7/6
f 415/7/6 416/7/6 417/7/6
f 417/7/6 416/7/6 418/7/6
f 419/3/6 420/3/6 421/3/6
f 421/3/6 420/3/6 422/3/6
f 423/3/6 424/3/6 425/3/6
f 425/3/6 424/3/6 426/3/6
f 427/3/6 428/3/6 430/3/6
f 428/2/6 429/2/6 431/2/6
f 430/3/6 428/3/6 431/3/6
f 431/2/6 429/2/6 432/2/6
f 430/2/6 431/2/6 434/2/6
f 431/2/6 432/2/6 434/2/6
f 434/2/6 432/2/6 435/2/6
f 432/5/6 433/5/6 436/5/6
f 435/2/6 432/2/6 436/2/6
f 436/5/6 433/5/6 437/5/6
f 434/3/6 435/3/6 438/3/6
f 438/3/6 435/3/6 439/3/6
f 439/3/6 435/3/6 440/3/6
f 441/3/6 442/3/6 444/3/6
f 442/3/6 443/3/6 444/3/6
f 444/3/6 443/3/6 445/3/6
f 444/2/6 445/2/6 448/2/6
f 445/2/6 446/2/6 448/2/6
f 448/2/6 446/2/6 449/2/6
f 446/5/6 447/5/6 450/5/6
f 449/2/6 446/2/6 450/2/6
f 450/5/6 447/5/6 451/5/6
f 448/3/6 449/3/6 452/3/6
f 449/2/6 450/2/6 453/2/6
f 452/3/6 449/3/6 453/3/6
f 453/2/6 450/2/6 454/2/6
f 455/4/6 456/4/6 457/4/6
f 457/4/6 456/4/6 458/4/6
f 455/4/6 457/4/6 459/4/6
f 458/4/6 456/4/6 460/4/6
f 455/4/6 459/4/6 461/4/6
f 459/4/6 460/4/6 461/4/6
f 460/4/6 456/4/6 462/4/6
f 461/4/6 460/4/6 462/4/6
f 463/4/6 464/4/6 465/4/6
f 465/4/6 464/4/6 466/4/6
f 463/4/6 465/4/6 467/4/6
f 466/4/6 464/4/6 468/4/6
f 463/4/6 467/4/6 469/4/6
f 467/4/6 468/4/6 469/4/6
f 468/4/6 464/4/6 470/4/6
f 469/4/6 468/4/6 470/4/6
f 471/4/6 472/4/6 473/4/6
f 473/4/6 472/4/6 474/4/6
