# MagicaVoxel @ Ephtracy

# group
o 

# material
mtllib ashigaru_attack.mtl
usemtl palette

# normals
vn -1 0 0
vn 1 0 0
vn 0 0 1
vn 0 0 -1
vn 0 -1 0
vn 0 1 0

# texcoords
vt 0.00585938 0.5
vt 0.0214844 0.5
vt 0.0253906 0.5
vt 0.0292969 0.5
vt 0.0332031 0.5
vt 0.306641 0.5
vt 0.369141 0.5
vt 0.966797 0.5
vt 0.990234 0.5

# verts
v -0.4 1.3 0.4
v -0.4 1.3 -0.5
v -0.4 1.4 0.4
v -0.4 1.4 -0.5
v -0.3 1 0.3
v -0.3 1 -0.4
v -0.3 1.3 0.3
v -0.3 1.3 -0.4
v -0.2 0.6 0.2
v -0.2 0.6 -0.3
v -0.2 0.7 0.2
v -0.2 0.7 -0.3
v -0.2 0.9 0.1
v -0.2 0.9 -0.2
v -0.2 1 0.2
v -0.2 1 0.1
v -0.2 1 -0.2
v -0.2 1 -0.3
v -0.2 1.4 0.2
v -0.2 1.4 -0.3
v -0.2 1.5 0.2
v -0.2 1.5 -0.3
v -0.1 0.3 0.3
v -0.1 0.3 -5.96046e-08
v -0.1 0.3 -0.1
v -0.1 0.3 -0.4
v -0.1 0.4 0.3
v -0.1 0.4 -5.96046e-08
v -0.1 0.4 -0.1
v -0.1 0.4 -0.4
v -0.1 0.6 0.4
v -0.1 0.6 0.3
v -0.1 0.6 0.2
v -0.1 0.6 -5.96046e-08
v -0.1 0.6 -0.1
v -0.1 0.6 -0.3
v -0.1 0.6 -0.4
v -0.1 0.7 0.4
v -0.1 0.7 0.3
v 0 0 0.2
v 0 0 0.1
v 0 0 -0.2
v 0 0 -0.3
v 0 0.1 0.2
v 0 0.1 0.1
v 0 0.1 -0.2
v 0 0.1 -0.3
v 0 0.3 0.2
v 0 0.3 0.1
v 0 0.3 -0.2
v 0 0.3 -0.3
v 0 0.7 0.5
v 0 0.7 0.4
v 0 0.7 0.3
v 0 0.7 -0.4
v 0 0.7 -0.6
v 0 0.8 0.5
v 0 0.8 0.4
v 0 0.8 0.3
v 0 0.8 0.2
v 0 0.8 -0.3
v 0 0.8 -0.4
v 0 0.8 -0.5
v 0 0.8 -0.6
v 0 0.9 0.5
v 0 0.9 0.4
v 0 0.9 0.2
v 0 0.9 -0.3
v 0 0.9 -0.5
v 0 0.9 -0.6
v 0 1 0.4
v 0 1 0.2
v 0 1 -0.3
v 0 1 -0.5
v 0 1.5 -5.96046e-08
v 0 1.5 -0.1
v 0 1.6 -5.96046e-08
v 0 1.6 -0.1
v 0.1 0.6 0.5
v 0.1 0.6 0.4
v 0.1 0.6 -0.5
v 0.1 0.6 -0.6
v 0.1 0.7 0.5
v 0.1 0.7 0.4
v 0.1 0.7 -0.5
v 0.1 0.7 -0.6
v 0.6 0.5 0.4
v 0.6 0.5 0.3
v 0.6 0.6 0.4
v 0.6 0.6 0.3
v 0.6 0.7 0.4
v 0.6 0.7 0.3
v 0.6 0.8 0.4
v 0.6 0.8 0.3
v -0.2 1 0.3
v -0.2 1 0.2
v -0.2 1 -0.3
v -0.2 1 -0.4
v -0.2 1.3 0.3
v -0.2 1.3 0.2
v -0.2 1.3 -0.3
v -0.2 1.3 -0.4
v 0.1 0.1 0.2
v 0.1 0.1 0.1
v 0.1 0.1 -0.2
v 0.1 0.1 -0.3
v 0.1 0.3 0.2
v 0.1 0.3 0.1
v 0.1 0.3 -0.2
v 0.1 0.3 -0.3
v 0.1 1.5 -5.96046e-08
v 0.1 1.5 -0.1
v 0.1 1.6 -5.96046e-08
v 0.1 1.6 -0.1
v 0.2 0 0.2
v 0.2 0 0.1
v 0.2 0 -0.2
v 0.2 0 -0.3
v 0.2 0.1 0.2
v 0.2 0.1 0.1
v 0.2 0.1 -0.2
v 0.2 0.1 -0.3
v 0.2 0.3 0.3
v 0.2 0.3 -5.96046e-08
v 0.2 0.3 -0.1
v 0.2 0.3 -0.4
v 0.2 0.4 0.3
v 0.2 0.4 -5.96046e-08
v 0.2 0.4 -0.1
v 0.2 0.4 -0.4
v 0.2 0.6 0.3
v 0.2 0.6 0.2
v 0.2 0.6 -5.96046e-08
v 0.2 0.6 -0.1
v 0.2 0.6 -0.3
v 0.2 0.6 -0.4
v 0.2 0.6 -0.5
v 0.2 0.6 -0.6
v 0.2 0.7 -0.4
v 0.2 0.7 -0.5
v 0.2 0.7 -0.6
v 0.2 0.8 0.5
v 0.2 0.8 0.3
v 0.2 0.8 0.2
v 0.2 0.8 -0.3
v 0.2 0.8 -0.4
v 0.2 0.9 0.5
v 0.2 0.9 0.4
v 0.2 0.9 0.2
v 0.2 0.9 -0.3
v 0.2 0.9 -0.5
v 0.2 0.9 -0.6
v 0.2 1 0.4
v 0.2 1 0.2
v 0.2 1 -0.3
v 0.2 1 -0.5
v 0.3 0.6 0.2
v 0.3 0.6 -0.3
v 0.3 0.7 0.5
v 0.3 0.7 0.4
v 0.3 0.7 0.3
v 0.3 0.7 0.2
v 0.3 0.7 -0.3
v 0.3 0.8 0.5
v 0.3 0.8 0.3
v 0.3 0.9 0.2
v 0.3 0.9 0.1
v 0.3 0.9 -0.2
v 0.3 0.9 -0.3
v 0.3 1 0.2
v 0.3 1 0.1
v 0.3 1 -0.2
v 0.3 1 -0.3
v 0.3 1.3 0.2
v 0.3 1.3 -0.3
v 0.3 1.4 0.2
v 0.3 1.4 -0.3
v 0.3 1.5 0.2
v 0.3 1.5 -0.3
v 0.4 0.6 0.5
v 0.4 0.6 0.4
v 0.4 0.7 0.5
v 0.4 0.7 0.4
v 0.5 1.3 0.4
v 0.5 1.3 -0.5
v 0.5 1.4 0.4
v 0.5 1.4 -0.5
v 0.7 0.5 0.4
v 0.7 0.5 0.3
v 0.7 0.6 0.4
v 0.7 0.6 0.3
v 0.7 0.7 0.4
v 0.7 0.7 0.3
v 0.7 0.8 0.4
v 0.7 0.8 0.3
v 0.8 0.6 0.4
v 0.8 0.6 0.3
v 0.8 0.7 0.4
v 0.8 0.7 0.3
v 0 0.7 0.5
v 0 0.8 0.5
v 0 0.9 0.5
v 0.1 0.6 0.5
v 0.1 0.7 0.5
v 0.1 0.8 0.5
v 0.2 0.8 0.5
v 0.2 0.9 0.5
v 0.3 0.6 0.5
v 0.3 0.7 0.5
v 0.3 0.8 0.5
v 0.4 0.6 0.5
v 0.4 0.7 0.5
v -0.4 1.3 0.4
v -0.4 1.4 0.4
v -0.1 0.6 0.4
v -0.1 0.7 0.4
v 0 0.7 0.4
v 0 0.9 0.4
v 0 1 0.4
v 0.1 0.6 0.4
v 0.1 0.7 0.4
v 0.2 0.9 0.4
v 0.2 1 0.4
v 0.4 0.6 0.4
v 0.4 0.7 0.4
v 0.5 1.3 0.4
v 0.5 1.4 0.4
v 0.6 0.5 0.4
v 0.6 0.6 0.4
v 0.6 0.7 0.4
v 0.6 0.8 0.4
v 0.7 0.5 0.4
v 0.7 0.6 0.4
v 0.7 0.7 0.4
v 0.7 0.8 0.4
v 0.8 0.6 0.4
v 0.8 0.7 0.4
v -0.3 1 0.3
v -0.3 1.3 0.3
v -0.2 1 0.3
v -0.2 1.3 0.3
v -0.1 0.3 0.3
v -0.1 0.4 0.3
v -0.1 0.6 0.3
v 0.2 0.3 0.3
v 0.2 0.4 0.3
v 0.2 0.6 0.3
v -0.2 0.6 0.2
v -0.2 0.7 0.2
v -0.2 1 0.2
v -0.2 1.3 0.2
v -0.2 1.4 0.2
v -0.2 1.5 0.2
v -0.1 0.6 0.2
v 0 0 0.2
v 0 0.1 0.2
v 0 0.3 0.2
v 0 0.8 0.2
v 0 0.9 0.2
v 0 1 0.2
v 0.1 0.1 0.2
v 0.1 0.3 0.2
v 0.1 1 0.2
v 0.1 1.3 0.2
v 0.2 0 0.2
v 0.2 0.1 0.2
v 0.2 0.6 0.2
v 0.2 0.8 0.2
v 0.2 0.9 0.2
v 0.2 1 0.2
v 0.2 1.3 0.2
v 0.3 0.6 0.2
v 0.3 0.7 0.2
v 0.3 0.9 0.2
v 0.3 1 0.2
v 0.3 1.3 0.2
v 0.3 1.4 0.2
v 0.3 1.5 0.2
v 0 1.5 -5.96046e-08
v 0 1.6 -5.96046e-08
v 0.1 1.5 -5.96046e-08
v 0.1 1.6 -5.96046e-08
v -0.1 0.3 -0.1
v -0.1 0.4 -0.1
v -0.1 0.6 -0.1
v 0.2 0.3 -0.1
v 0.2 0.4 -0.1
v 0.2 0.6 -0.1
v 0 0 -0.2
v 0 0.1 -0.2
v 0 0.3 -0.2
v 0.1 0.1 -0.2
v 0.1 0.3 -0.2
v 0.2 0 -0.2
v 0.2 0.1 -0.2
v 0 0.7 -0.4
v 0 0.8 -0.4
v 0.2 0.7 -0.4
v 0.2 0.8 -0.4
v 0.1 0.6 -0.5
v 0.1 0.7 -0.5
v 0.2 0.6 -0.5
v 0.2 0.7 -0.5
v -0.1 0.6 0.3
v -0.1 0.7 0.3
v 0 0.7 0.3
v 0 0.8 0.3
v 0.2 0.6 0.3
v 0.2 0.8 0.3
v 0.3 0.7 0.3
v 0.3 0.8 0.3
v 0.6 0.5 0.3
v 0.6 0.6 0.3
v 0.6 0.7 0.3
v 0.6 0.8 0.3
v 0.7 0.5 0.3
v 0.7 0.6 0.3
v 0.7 0.7 0.3
v 0.7 0.8 0.3
v 0.8 0.6 0.3
v 0.8 0.7 0.3
v 0 0 0.1
v 0 0.1 0.1
v 0 0.3 0.1
v 0.1 0.1 0.1
v 0.1 0.3 0.1
v 0.2 0 0.1
v 0.2 0.1 0.1
v -0.1 0.3 -5.96046e-08
v -0.1 0.4 -5.96046e-08
v -0.1 0.6 -5.96046e-08
v 0.2 0.3 -5.96046e-08
v 0.2 0.4 -5.96046e-08
v 0.2 0.6 -5.96046e-08
v 0 1.5 -0.1
v 0 1.6 -0.1
v 0.1 1.5 -0.1
v 0.1 1.6 -0.1
v -0.2 0.6 -0.3
v -0.2 0.7 -0.3
v -0.2 1 -0.3
v -0.2 1.3 -0.3
v -0.2 1.4 -0.3
v -0.2 1.5 -0.3
v -0.1 0.6 -0.3
v 0 0 -0.3
v 0 0.1 -0.3
v 0 0.3 -0.3
v 0 0.8 -0.3
v 0 0.9 -0.3
v 0 1 -0.3
v 0.1 0.1 -0.3
v 0.1 0.3 -0.3
v 0.1 1 -0.3
v 0.1 1.3 -0.3
v 0.2 0 -0.3
v 0.2 0.1 -0.3
v 0.2 0.6 -0.3
v 0.2 0.8 -0.3
v 0.2 0.9 -0.3
v 0.2 1 -0.3
v 0.2 1.3 -0.3
v 0.3 0.6 -0.3
v 0.3 0.7 -0.3
v 0.3 0.9 -0.3
v 0.3 1 -0.3
v 0.3 1.3 -0.3
v 0.3 1.4 -0.3
v 0.3 1.5 -0.3
v -0.3 1 -0.4
v -0.3 1.3 -0.4
v -0.2 1 -0.4
v -0.2 1.3 -0.4
v -0.1 0.3 -0.4
v -0.1 0.4 -0.4
v -0.1 0.6 -0.4
v 0.2 0.3 -0.4
v 0.2 0.4 -0.4
v 0.2 0.6 -0.4
v -0.4 1.3 -0.5
v -0.4 1.4 -0.5
v 0 0.9 -0.5
v 0 1 -0.5
v 0.1 0.9 -0.5
v 0.2 0.9 -0.5
v 0.2 1 -0.5
v 0.5 1.3 -0.5
v 0.5 1.4 -0.5
v 0 0.7 -0.6
v 0 0.8 -0.6
v 0 0.9 -0.6
v 0.1 0.6 -0.6
v 0.1 0.7 -0.6
v 0.1 0.8 -0.6
v 0.1 0.9 -0.6
v 0.2 0.6 -0.6
v 0.2 0.7 -0.6
v 0.2 0.9 -0.6
v 0 0 0.2
v 0.2 0 0.2
v 0 0 0.1
v 0.2 0 0.1
v 0 0 -0.2
v 0.2 0 -0.2
v 0 0 -0.3
v 0.2 0 -0.3
v -0.1 0.3 0.3
v 0.2 0.3 0.3
v 0 0.3 0.2
v 0.1 0.3 0.2
v 0 0.3 0.1
v 0.1 0.3 0.1
v -0.1 0.3 -5.96046e-08
v 0.2 0.3 -5.96046e-08
v -0.1 0.3 -0.1
v 0.2 0.3 -0.1
v 0 0.3 -0.2
v 0.1 0.3 -0.2
v 0 0.3 -0.3
v 0.1 0.3 -0.3
v -0.1 0.3 -0.4
v 0.2 0.3 -0.4
v 0.6 0.5 0.4
v 0.7 0.5 0.4
v 0.6 0.5 0.3
v 0.7 0.5 0.3
v 0.1 0.6 0.5
v 0.3 0.6 0.5
v 0.4 0.6 0.5
v -0.1 0.6 0.4
v 0.1 0.6 0.4
v 0.3 0.6 0.4
v 0.4 0.6 0.4
v 0.6 0.6 0.4
v 0.7 0.6 0.4
v 0.8 0.6 0.4
v -0.1 0.6 0.3
v 0.2 0.6 0.3
v 0.6 0.6 0.3
v 0.7 0.6 0.3
v 0.8 0.6 0.3
v -0.2 0.6 0.2
v -0.1 0.6 0.2
v 0.2 0.6 0.2
v 0.3 0.6 0.2
v -0.1 0.6 -5.96046e-08
v 0.2 0.6 -5.96046e-08
v -0.1 0.6 -0.1
v 0.2 0.6 -0.1
v -0.2 0.6 -0.3
v -0.1 0.6 -0.3
v 0.2 0.6 -0.3
v 0.3 0.6 -0.3
v 0.1 0.6 -0.5
v 0.2 0.6 -0.5
v 0.1 0.6 -0.6
v 0.2 0.6 -0.6
v 0 0.7 0.5
v 0.1 0.7 0.5
v 0 0.7 0.4
v 0.1 0.7 0.4
v 0 0.7 -0.4
v 0.2 0.7 -0.4
v 0.1 0.7 -0.5
v 0.2 0.7 -0.5
v 0 0.7 -0.6
v 0.1 0.7 -0.6
v 0 0.8 0.3
v 0.2 0.8 0.3
v 0 0.8 0.2
v 0.2 0.8 0.2
v 0 0.8 -0.3
v 0.2 0.8 -0.3
v 0 0.8 -0.4
v 0.2 0.8 -0.4
v -0.3 1 0.3
v -0.2 1 0.3
v -0.2 1 0.2
v -0.2 1 0.1
v -0.2 1 -0.2
v -0.2 1 -0.3
v -0.3 1 -0.4
v -0.2 1 -0.4
v -0.4 1.3 0.4
v 0.5 1.3 0.4
v -0.3 1.3 0.3
v -0.2 1.3 0.3
v -0.2 1.3 0.2
v 0.1 1.3 0.2
v 0.2 1.3 0.2
v 0.3 1.3 0.2
v -0.2 1.3 -0.3
v 0.1 1.3 -0.3
v 0.2 1.3 -0.3
v 0.3 1.3 -0.3
v -0.3 1.3 -0.4
v -0.2 1.3 -0.4
v -0.4 1.3 -0.5
v 0.5 1.3 -0.5
v 0.1 0.1 0.2
v 0.2 0.1 0.2
v 0.1 0.1 0.1
v 0.2 0.1 0.1
v 0.1 0.1 -0.2
v 0.2 0.1 -0.2
v 0.1 0.1 -0.3
v 0.2 0.1 -0.3
v -0.1 0.6 0.3
v 0.2 0.6 0.3
v -0.1 0.6 0.2
v 0.2 0.6 0.2
v -0.1 0.6 -0.3
v 0.2 0.6 -0.3
v -0.1 0.6 -0.4
v 0.2 0.6 -0.4
v 0.3 0.7 0.5
v 0.4 0.7 0.5
v -0.1 0.7 0.4
v 0 0.7 0.4
v 0.3 0.7 0.4
v 0.4 0.7 0.4
v 0.6 0.7 0.4
v 0.7 0.7 0.4
v 0.8 0.7 0.4
v -0.1 0.7 0.3
v 0 0.7 0.3
v 0.3 0.7 0.3
v 0.6 0.7 0.3
v 0.7 0.7 0.3
v 0.8 0.7 0.3
v 0.2 0.8 0.5
v 0.3 0.8 0.5
v 0.6 0.8 0.4
v 0.7 0.8 0.4
v 0.2 0.8 0.3
v 0.3 0.8 0.3
v 0.6 0.8 0.3
v 0.7 0.8 0.3
v 0 0.9 0.5
v 0.2 0.9 0.5
v 0 0.9 0.4
v 0.2 0.9 0.4
v 0 0.9 -0.5
v 0.1 0.9 -0.5
v 0.2 0.9 -0.5
v 0 0.9 -0.6
v 0.1 0.9 -0.6
v 0.2 0.9 -0.6
v 0 1 0.4
v 0.2 1 0.4
v 0 1 0.2
v 0.1 1 0.2
v 0.2 1 0.2
v 0 1 -0.3
v 0.1 1 -0.3
v 0.2 1 -0.3
v 0 1 -0.5
v 0.2 1 -0.5
v -0.4 1.4 0.4
v 0.5 1.4 0.4
v -0.2 1.4 0.2
v 0.3 1.4 0.2
v -0.2 1.4 -0.3
v 0.3 1.4 -0.3
v -0.4 1.4 -0.5
v 0.5 1.4 -0.5
v -0.2 1.5 0.2
v 0.3 1.5 0.2
v 0 1.5 -5.96046e-08
v 0.1 1.5 -5.96046e-08
v 0 1.5 -0.1
v 0.1 1.5 -0.1
v -0.2 1.5 -0.3
v 0.3 1.5 -0.3
v 0 1.6 -5.96046e-08
v 0.1 1.6 -5.96046e-08
v 0 1.6 -0.1
v 0.1 1.6 -0.1

# faces
f 3/9/1 2/9/1 1/9/1
f 4/9/1 2/9/1 3/9/1
f 7/1/1 6/1/1 5/1/1
f 8/1/1 6/1/1 7/1/1
f 11/4/1 10/4/1 9/4/1
f 12/4/1 10/4/1 11/4/1
f 13/3/1 12/3/1 11/3/1
f 14/3/1 12/3/1 13/3/1
f 15/3/1 13/3/1 11/3/1
f 16/2/1 14/2/1 13/2/1
f 16/3/1 13/3/1 15/3/1
f 17/3/1 12/3/1 14/3/1
f 17/2/1 14/2/1 16/2/1
f 18/3/1 12/3/1 17/3/1
f 21/9/1 20/9/1 19/9/1
f 22/9/1 20/9/1 21/9/1
f 27/2/1 24/2/1 23/2/1
f 28/2/1 24/2/1 27/2/1
f 29/2/1 26/2/1 25/2/1
f 30/2/1 26/2/1 29/2/1
f 32/3/1 28/3/1 27/3/1
f 33/3/1 28/3/1 32/3/1
f 34/3/1 28/3/1 33/3/1
f 35/3/1 30/3/1 29/3/1
f 36/3/1 30/3/1 35/3/1
f 37/3/1 30/3/1 36/3/1
f 38/7/1 32/7/1 31/7/1
f 39/7/1 32/7/1 38/7/1
f 44/9/1 41/9/1 40/9/1
f 45/9/1 41/9/1 44/9/1
f 46/9/1 43/9/1 42/9/1
f 47/9/1 43/9/1 46/9/1
f 48/3/1 45/3/1 44/3/1
f 49/3/1 45/3/1 48/3/1
f 50/3/1 47/3/1 46/3/1
f 51/3/1 47/3/1 50/3/1
f 57/3/1 53/3/1 52/3/1
f 58/2/1 54/2/1 53/2/1
f 58/3/1 53/3/1 57/3/1
f 59/2/1 54/2/1 58/2/1
f 62/2/1 56/2/1 55/2/1
f 63/2/1 56/2/1 62/2/1
f 64/2/1 56/2/1 63/2/1
f 65/2/1 60/2/1 59/2/1
f 65/2/1 58/2/1 57/2/1
f 65/2/1 59/2/1 58/2/1
f 66/2/1 60/2/1 65/2/1
f 67/2/1 60/2/1 66/2/1
f 68/2/1 63/2/1 62/2/1
f 68/2/1 62/2/1 61/2/1
f 69/3/1 64/3/1 63/3/1
f 69/2/1 63/2/1 68/2/1
f 70/3/1 64/3/1 69/3/1
f 71/3/1 67/3/1 66/3/1
f 72/3/1 67/3/1 71/3/1
f 73/3/1 69/3/1 68/3/1
f 74/3/1 69/3/1 73/3/1
f 77/9/1 76/9/1 75/9/1
f 78/9/1 76/9/1 77/9/1
f 83/2/1 80/2/1 79/2/1
f 84/2/1 80/2/1 83/2/1
f 85/5/1 82/5/1 81/5/1
f 86/5/1 82/5/1 85/5/1
f 89/8/1 88/8/1 87/8/1
f 90/8/1 88/8/1 89/8/1
f 93/8/1 92/8/1 91/8/1
f 94/8/1 92/8/1 93/8/1
f 95/1/2 96/1/2 99/1/2
f 99/1/2 96/1/2 100/1/2
f 97/1/2 98/1/2 101/1/2
f 101/1/2 98/1/2 102/1/2
f 103/3/2 104/3/2 107/3/2
f 107/3/2 104/3/2 108/3/2
f 105/3/2 106/3/2 109/3/2
f 109/3/2 106/3/2 110/3/2
f 111/9/2 112/9/2 113/9/2
f 113/9/2 112/9/2 114/9/2
f 115/9/2 116/9/2 119/9/2
f 119/9/2 116/9/2 120/9/2
f 117/9/2 118/9/2 121/9/2
f 121/9/2 118/9/2 122/9/2
f 123/2/2 124/2/2 127/2/2
f 127/2/2 124/2/2 128/2/2
f 125/2/2 126/2/2 129/2/2
f 129/2/2 126/2/2 130/2/2
f 127/3/2 128/3/2 131/3/2
f 131/3/2 128/3/2 132/3/2
f 132/3/2 128/3/2 133/3/2
f 129/3/2 130/3/2 134/3/2
f 134/3/2 130/3/2 135/3/2
f 135/3/2 130/3/2 136/3/2
f 137/5/2 138/5/2 140/5/2
f 140/5/2 138/5/2 141/5/2
f 139/2/2 140/2/2 146/2/2
f 140/2/2 141/2/2 146/2/2
f 143/2/2 144/2/2 147/2/2
f 142/2/2 143/2/2 147/2/2
f 147/2/2 144/2/2 148/2/2
f 148/2/2 144/2/2 149/2/2
f 145/2/2 146/2/2 150/2/2
f 146/2/2 141/2/2 151/2/2
f 150/2/2 146/2/2 151/2/2
f 151/2/2 141/2/2 152/2/2
f 148/3/2 149/3/2 153/3/2
f 153/3/2 149/3/2 154/3/2
f 150/3/2 151/3/2 155/3/2
f 155/3/2 151/3/2 156/3/2
f 157/4/2 158/4/2 162/4/2
f 162/4/2 158/4/2 163/4/2
f 160/2/2 161/2/2 164/2/2
f 159/2/2 160/2/2 164/2/2
f 164/2/2 161/2/2 165/2/2
f 162/3/2 163/3/2 166/3/2
f 166/3/2 163/3/2 167/3/2
f 167/3/2 163/3/2 168/3/2
f 168/3/2 163/3/2 169/3/2
f 166/4/2 167/4/2 170/4/2
f 167/2/2 168/2/2 171/2/2
f 170/4/2 167/4/2 171/4/2
f 168/4/2 169/4/2 172/4/2
f 171/2/2 168/2/2 172/2/2
f 172/4/2 169/4/2 173/4/2
f 170/5/2 171/5/2 174/5/2
f 171/5/2 172/5/2 174/5/2
f 172/5/2 173/5/2 174/5/2
f 174/5/2 173/5/2 175/5/2
f 176/9/2 177/9/2 178/9/2
f 178/9/2 177/9/2 179/9/2
f 180/5/2 181/5/2 182/5/2
f 182/5/2 181/5/2 183/5/2
f 184/9/2 185/9/2 186/9/2
f 186/9/2 185/9/2 187/9/2
f 188/8/2 189/8/2 190/8/2
f 190/8/2 189/8/2 191/8/2
f 192/8/2 193/8/2 194/8/2
f 194/8/2 193/8/2 195/8/2
f 196/8/2 197/8/2 198/8/2
f 198/8/2 197/8/2 199/8/2
f 204/3/3 201/3/3 200/3/3
f 205/2/3 202/2/3 201/2/3
f 205/3/3 201/3/3 204/3/3
f 206/2/3 204/2/3 203/2/3
f 206/2/3 202/2/3 205/2/3
f 206/2/3 205/2/3 204/2/3
f 207/2/3 202/2/3 206/2/3
f 208/2/3 206/2/3 203/2/3
f 209/2/3 206/2/3 208/2/3
f 210/2/3 206/2/3 209/2/3
f 211/5/3 209/5/3 208/5/3
f 212/5/3 209/5/3 211/5/3
f 217/7/3 216/7/3 215/7/3
f 220/7/3 217/7/3 215/7/3
f 221/7/3 217/7/3 220/7/3
f 222/3/3 219/3/3 218/3/3
f 223/3/3 219/3/3 222/3/3
f 226/9/3 214/9/3 213/9/3
f 227/9/3 214/9/3 226/9/3
f 229/7/3 225/7/3 224/7/3
f 230/7/3 225/7/3 229/7/3
f 232/8/3 229/8/3 228/8/3
f 232/8/3 231/8/3 230/8/3
f 232/8/3 230/8/3 229/8/3
f 233/8/3 231/8/3 232/8/3
f 234/8/3 231/8/3 233/8/3
f 235/8/3 231/8/3 234/8/3
f 236/8/3 234/8/3 233/8/3
f 237/8/3 234/8/3 236/8/3
f 240/1/3 239/1/3 238/1/3
f 241/1/3 239/1/3 240/1/3
f 245/2/3 243/2/3 242/2/3
f 246/3/3 244/3/3 243/3/3
f 246/2/3 243/2/3 245/2/3
f 247/3/3 244/3/3 246/3/3
f 254/4/3 249/4/3 248/4/3
f 258/3/3 250/3/3 249/3/3
f 259/3/3 250/3/3 258/3/3
f 260/5/3 251/5/3 250/5/3
f 260/3/3 250/3/3 259/3/3
f 261/3/3 257/3/3 256/3/3
f 261/9/3 256/9/3 255/9/3
f 262/3/3 257/3/3 261/3/3
f 263/5/3 251/5/3 260/5/3
f 264/5/3 251/5/3 263/5/3
f 265/9/3 261/9/3 255/9/3
f 266/9/3 261/9/3 265/9/3
f 267/4/3 249/4/3 254/4/3
f 268/3/3 258/3/3 249/3/3
f 270/1/3 264/1/3 263/1/3
f 271/1/3 264/1/3 270/1/3
f 272/4/3 249/4/3 267/4/3
f 273/3/3 269/3/3 268/3/3
f 273/4/3 249/4/3 272/4/3
f 273/3/3 268/3/3 249/3/3
f 274/4/3 270/4/3 269/4/3
f 274/3/3 269/3/3 273/3/3
f 275/5/3 271/5/3 270/5/3
f 275/4/3 270/4/3 274/4/3
f 276/5/3 271/5/3 275/5/3
f 277/9/3 253/9/3 252/9/3
f 278/9/3 253/9/3 277/9/3
f 281/9/3 280/9/3 279/9/3
f 282/9/3 280/9/3 281/9/3
f 286/2/3 284/2/3 283/2/3
f 287/3/3 285/3/3 284/3/3
f 287/2/3 284/2/3 286/2/3
f 288/3/3 285/3/3 287/3/3
f 292/9/3 290/9/3 289/9/3
f 292/3/3 291/3/3 290/3/3
f 293/3/3 291/3/3 292/3/3
f 294/9/3 292/9/3 289/9/3
f 295/9/3 292/9/3 294/9/3
f 298/2/3 297/2/3 296/2/3
f 299/2/3 297/2/3 298/2/3
f 302/5/3 301/5/3 300/5/3
f 303/5/3 301/5/3 302/5/3
f 304/7/4 305/7/4 306/7/4
f 304/7/4 306/7/4 308/7/4
f 306/2/4 307/2/4 309/2/4
f 308/7/4 306/7/4 310/7/4
f 306/2/4 309/2/4 310/2/4
f 310/2/4 309/2/4 311/2/4
f 308/7/4 310/7/4 313/7/4
f 313/7/4 310/7/4 314/7/4
f 312/8/4 313/8/4 316/8/4
f 314/8/4 315/8/4 316/8/4
f 313/8/4 314/8/4 316/8/4
f 316/8/4 315/8/4 317/8/4
f 317/8/4 315/8/4 318/8/4
f 318/8/4 315/8/4 319/8/4
f 317/8/4 318/8/4 320/8/4
f 320/8/4 318/8/4 321/8/4
f 322/9/4 323/9/4 325/9/4
f 323/3/4 324/3/4 325/3/4
f 325/3/4 324/3/4 326/3/4
f 322/9/4 325/9/4 327/9/4
f 327/9/4 325/9/4 328/9/4
f 329/2/4 330/2/4 332/2/4
f 330/3/4 331/3/4 333/3/4
f 332/2/4 330/2/4 333/2/4
f 333/3/4 331/3/4 334/3/4
f 335/9/4 336/9/4 337/9/4
f 337/9/4 336/9/4 338/9/4
f 339/4/4 340/4/4 345/4/4
f 340/3/4 341/3/4 349/3/4
f 349/3/4 341/3/4 350/3/4
f 341/5/4 342/5/4 351/5/4
f 350/3/4 341/3/4 351/3/4
f 347/3/4 348/3/4 352/3/4
f 346/9/4 347/9/4 352/9/4
f 352/3/4 348/3/4 353/3/4
f 351/5/4 342/5/4 354/5/4
f 354/5/4 342/5/4 355/5/4
f 346/9/4 352/9/4 356/9/4
f 356/9/4 352/9/4 357/9/4
f 345/4/4 340/4/4 358/4/4
f 340/3/4 349/3/4 359/3/4
f 354/1/4 355/1/4 361/1/4
f 361/1/4 355/1/4 362/1/4
f 358/4/4 340/4/4 363/4/4
f 359/3/4 360/3/4 364/3/4
f 363/4/4 340/4/4 364/4/4
f 340/3/4 359/3/4 364/3/4
f 360/4/4 361/4/4 365/4/4
f 364/3/4 360/3/4 365/3/4
f 361/5/4 362/5/4 366/5/4
f 365/4/4 361/4/4 366/4/4
f 366/5/4 362/5/4 367/5/4
f 343/9/4 344/9/4 368/9/4
f 368/9/4 344/9/4 369/9/4
f 370/1/4 371/1/4 372/1/4
f 372/1/4 371/1/4 373/1/4
f 374/2/4 375/2/4 377/2/4
f 375/3/4 376/3/4 378/3/4
f 377/2/4 375/2/4 378/2/4
f 378/3/4 376/3/4 379/3/4
f 382/3/4 383/3/4 384/3/4
f 384/3/4 383/3/4 385/3/4
f 385/3/4 383/3/4 386/3/4
f 380/9/4 381/9/4 387/9/4
f 387/9/4 381/9/4 388/9/4
f 389/2/4 390/2/4 393/2/4
f 390/3/4 391/3/4 394/3/4
f 393/2/4 390/2/4 394/2/4
f 394/3/4 391/3/4 395/3/4
f 392/5/4 393/5/4 396/5/4
f 393/2/4 394/2/4 397/2/4
f 396/5/4 393/5/4 397/5/4
f 394/2/4 395/2/4 397/2/4
f 397/2/4 395/2/4 398/2/4
f 401/9/5 400/9/5 399/9/5
f 402/9/5 400/9/5 401/9/5
f 405/9/5 404/9/5 403/9/5
f 406/9/5 404/9/5 405/9/5
f 409/2/5 408/2/5 407/2/5
f 410/2/5 408/2/5 409/2/5
f 411/2/5 409/2/5 407/2/5
f 412/2/5 408/2/5 410/2/5
f 413/2/5 411/2/5 407/2/5
f 413/2/5 412/2/5 411/2/5
f 414/2/5 408/2/5 412/2/5
f 414/2/5 412/2/5 413/2/5
f 417/2/5 416/2/5 415/2/5
f 418/2/5 416/2/5 417/2/5
f 419/2/5 417/2/5 415/2/5
f 420/2/5 416/2/5 418/2/5
f 421/2/5 419/2/5 415/2/5
f 421/2/5 420/2/5 419/2/5
f 422/2/5 416/2/5 420/2/5
f 422/2/5 420/2/5 421/2/5
f 425/8/5 424/8/5 423/8/5
f 426/8/5 424/8/5 425/8/5
f 431/2/5 428/2/5 427/2/5
f 432/5/5 429/5/5 428/5/5
f 432/2/5 428/2/5 431/2/5
f 433/5/5 429/5/5 432/5/5
f 437/7/5 431/7/5 430/7/5
f 437/7/5 432/7/5 431/7/5
f 437/7/5 434/7/5 433/7/5
f 437/7/5 433/7/5 432/7/5
f 438/7/5 434/7/5 437/7/5
f 439/7/5 434/7/5 438/7/5
f 440/8/5 436/8/5 435/8/5
f 441/8/5 436/8/5 440/8/5
f 446/4/5 443/4/5 442/4/5
f 447/4/5 445/4/5 444/4/5
f 448/4/5 446/4/5 442/4/5
f 448/2/5 447/2/5 446/2/5
f 449/4/5 445/4/5 447/4/5
f 449/2/5 447/2/5 448/2/5
f 450/4/5 448/4/5 442/4/5
f 451/4/5 448/4/5 450/4/5
f 452/4/5 445/4/5 449/4/5
f 453/4/5 445/4/5 452/4/5
f 456/5/5 455/5/5 454/5/5
f 457/5/5 455/5/5 456/5/5
f 460/3/5 459/3/5 458/3/5
f 461/3/5 459/3/5 460/3/5
f 464/2/5 463/2/5 462/2/5
f 465/2/5 463/2/5 464/2/5
f 466/2/5 464/2/5 462/2/5
f 467/2/5 464/2/5 466/2/5
f 470/2/5 469/2/5 468/2/5
f 471/2/5 469/2/5 470/2/5
f 474/2/5 473/2/5 472/2/5
f 475/2/5 473/2/5 474/2/5
f 478/1/5 477/1/5 476/1/5
f 479/1/5 478/1/5 476/1/5
f 480/1/5 479/1/5 476/1/5
f 481/1/5 480/1/5 476/1/5
f 482/1/5 481/1/5 476/1/5
f 483/1/5 481/1/5 482/1/5
f 486/9/5 485/9/5 484/9/5
f 487/9/5 485/9/5 486/9/5
f 488/9/5 485/9/5 487/9/5
f 489/9/5 485/9/5 488/9/5
f 490/9/5 485/9/5 489/9/5
f 491/9/5 485/9/5 490/9/5
f 495/9/5 485/9/5 491/9/5
f 496/9/5 486/9/5 484/9/5
f 497/9/5 495/9/5 494/9/5
f 497/9/5 494/9/5 493/9/5
f 497/9/5 493/9/5 492/9/5
f 498/9/5 496/9/5 484/9/5
f 498/9/5 497/9/5 496/9/5
f 499/9/5 495/9/5 497/9/5
f 499/9/5 497/9/5 498/9/5
f 499/9/5 485/9/5 495/9/5
f 500/9/6 501/9/6 502/9/6
f 502/9/6 501/9/6 503/9/6
f 504/9/6 505/9/6 506/9/6
f 506/9/6 505/9/6 507/9/6
f 508/3/6 509/3/6 510/3/6
f 510/3/6 509/3/6 511/3/6
f 512/3/6 513/3/6 514/3/6
f 514/3/6 513/3/6 515/3/6
f 516/5/6 517/5/6 520/5/6
f 520/5/6 517/5/6 521/5/6
f 518/7/6 519/7/6 525/7/6
f 525/7/6 519/7/6 526/7/6
f 520/7/6 521/7/6 527/7/6
f 521/7/6 522/7/6 527/7/6
f 527/7/6 522/7/6 528/7/6
f 523/8/6 524/8/6 529/8/6
f 529/8/6 524/8/6 530/8/6
f 531/2/6 532/2/6 535/2/6
f 535/2/6 532/2/6 536/2/6
f 533/8/6 534/8/6 537/8/6
f 537/8/6 534/8/6 538/8/6
f 539/2/6 540/2/6 541/2/6
f 541/2/6 540/2/6 542/2/6
f 543/3/6 544/3/6 546/3/6
f 544/2/6 545/2/6 547/2/6
f 546/3/6 544/3/6 547/3/6
f 547/2/6 545/2/6 548/2/6
f 549/3/6 550/3/6 551/3/6
f 551/3/6 550/3/6 552/3/6
f 552/3/6 550/3/6 553/3/6
f 554/3/6 555/3/6 557/3/6
f 555/3/6 556/3/6 557/3/6
f 557/3/6 556/3/6 558/3/6
f 559/9/6 560/9/6 561/9/6
f 561/9/6 560/9/6 562/9/6
f 559/9/6 561/9/6 563/9/6
f 562/9/6 560/9/6 564/9/6
f 559/9/6 563/9/6 565/9/6
f 563/9/6 564/9/6 565/9/6
f 564/9/6 560/9/6 566/9/6
f 565/9/6 564/9/6 566/9/6
f 567/9/6 568/9/6 569/9/6
f 569/9/6 568/9/6 570/9/6
f 567/9/6 569/9/6 571/9/6
f 570/9/6 568/9/6 572/9/6
f 567/9/6 571/9/6 573/9/6
f 571/9/6 572/9/6 573/9/6
f 572/9/6 568/9/6 574/9/6
f 573/9/6 572/9/6 574/9/6
f 575/9/6 576/9/6 577/9/6
f 577/9/6 576/9/6 578/9/6
