# MagicaVoxel @ Ephtracy

# group
o 

# material
mtllib kabe_cross.mtl
usemtl palette

# normals
vn -1 0 0
vn 1 0 0
vn 0 0 1
vn 0 0 -1
vn 0 -1 0
vn 0 1 0

# texcoords
vt 0.00585938 0.5
vt 0.810547 0.5
vt 0.990234 0.5

# verts
v -0.8 0 0.2
v -0.8 0 0.1
v -0.8 0 0
v -0.8 0 -0.1
v -0.8 0 -0.2
v -0.8 0.1 0.2
v -0.8 0.1 0.1
v -0.8 0.1 0
v -0.8 0.1 -0.1
v -0.8 0.1 -0.2
v -0.8 0.2 0.2
v -0.8 0.2 0.1
v -0.8 0.2 0
v -0.8 0.2 -0.1
v -0.8 0.2 -0.2
v -0.8 0.3 0.1
v -0.8 0.3 0
v -0.8 0.3 -0.1
v -0.8 0.3 -0.2
v -0.8 0.4 0.2
v -0.8 0.4 0
v -0.8 0.4 -0.1
v -0.8 0.4 -0.2
v -0.8 1.3 0.4
v -0.8 1.3 0.2
v -0.8 1.3 0.1
v -0.8 1.3 -0.1
v -0.8 1.3 -0.2
v -0.8 1.3 -0.4
v -0.8 1.4 0.4
v -0.8 1.4 0.3
v -0.8 1.4 0.1
v -0.8 1.4 -0.1
v -0.8 1.4 -0.3
v -0.8 1.4 -0.4
v -0.8 1.5 0.3
v -0.8 1.5 0.1
v -0.8 1.5 -0.1
v -0.8 1.5 -0.3
v -0.8 1.6 0.1
v -0.8 1.6 -0.1
v -0.4 1.3 0.8
v -0.4 1.3 0.4
v -0.4 1.3 -0.4
v -0.4 1.3 -0.8
v -0.4 1.4 0.8
v -0.4 1.4 0.4
v -0.4 1.4 -0.4
v -0.4 1.4 -0.8
v -0.3 1.4 0.8
v -0.3 1.4 0.3
v -0.3 1.4 -0.3
v -0.3 1.4 -0.8
v -0.3 1.5 0.8
v -0.3 1.5 0.3
v -0.3 1.5 -0.3
v -0.3 1.5 -0.8
v -0.2 0 0.8
v -0.2 0 0.7
v -0.2 0 0.6
v -0.2 0 0.5
v -0.2 0 0.4
v -0.2 0 0.3
v -0.2 0 0.2
v -0.2 0 -0.2
v -0.2 0 -0.3
v -0.2 0 -0.4
v -0.2 0 -0.5
v -0.2 0 -0.6
v -0.2 0 -0.7
v -0.2 0 -0.8
v -0.2 0.1 0.8
v -0.2 0.1 0.7
v -0.2 0.1 0.6
v -0.2 0.1 0.5
v -0.2 0.1 0.4
v -0.2 0.1 0.3
v -0.2 0.1 0.2
v -0.2 0.1 -0.2
v -0.2 0.1 -0.3
v -0.2 0.1 -0.4
v -0.2 0.1 -0.5
v -0.2 0.1 -0.6
v -0.2 0.1 -0.7
v -0.2 0.1 -0.8
v -0.2 0.2 0.8
v -0.2 0.2 0.7
v -0.2 0.2 0.6
v -0.2 0.2 0.5
v -0.2 0.2 0.4
v -0.2 0.2 0.3
v -0.2 0.2 0.2
v -0.2 0.2 -0.2
v -0.2 0.2 -0.3
v -0.2 0.2 -0.4
v -0.2 0.2 -0.5
v -0.2 0.2 -0.6
v -0.2 0.2 -0.7
v -0.2 0.2 -0.8
v -0.2 0.3 0.8
v -0.2 0.3 0.7
v -0.2 0.3 0.6
v -0.2 0.3 0.5
v -0.2 0.3 0.4
v -0.2 0.3 0.3
v -0.2 0.3 0.2
v -0.2 0.3 -0.2
v -0.2 0.3 -0.3
v -0.2 0.3 -0.4
v -0.2 0.3 -0.5
v -0.2 0.3 -0.6
v -0.2 0.3 -0.7
v -0.2 0.4 0.8
v -0.2 0.4 0.7
v -0.2 0.4 0.6
v -0.2 0.4 0.3
v -0.2 0.4 0.2
v -0.2 0.4 -0.2
v -0.2 0.4 -0.5
v -0.2 0.4 -0.6
v -0.2 0.4 -0.8
v -0.2 1.3 0.8
v -0.2 1.3 0.2
v -0.2 1.3 -0.2
v -0.2 1.3 -0.8
v -0.1 1.5 0.8
v -0.1 1.5 0.1
v -0.1 1.5 -0.1
v -0.1 1.5 -0.8
v -0.1 1.6 0.8
v -0.1 1.6 0.1
v -0.1 1.6 -0.1
v -0.1 1.6 -0.8
v 0.1 1.5 0.8
v 0.1 1.5 0.1
v 0.1 1.5 -0.1
v 0.1 1.5 -0.8
v 0.1 1.6 0.8
v 0.1 1.6 0.1
v 0.1 1.6 -0.1
v 0.1 1.6 -0.8
v 0.2 0 0.8
v 0.2 0 0.7
v 0.2 0 0.6
v 0.2 0 0.5
v 0.2 0 0.4
v 0.2 0 0.3
v 0.2 0 0.2
v 0.2 0 -0.2
v 0.2 0 -0.3
v 0.2 0 -0.4
v 0.2 0 -0.5
v 0.2 0 -0.6
v 0.2 0 -0.7
v 0.2 0 -0.8
v 0.2 0.1 0.7
v 0.2 0.1 0.6
v 0.2 0.1 0.5
v 0.2 0.1 0.4
v 0.2 0.1 0.3
v 0.2 0.1 0.2
v 0.2 0.1 -0.2
v 0.2 0.1 -0.3
v 0.2 0.1 -0.4
v 0.2 0.1 -0.5
v 0.2 0.1 -0.6
v 0.2 0.1 -0.7
v 0.2 0.1 -0.8
v 0.2 0.2 0.7
v 0.2 0.2 0.6
v 0.2 0.2 0.5
v 0.2 0.2 0.4
v 0.2 0.2 0.3
v 0.2 0.2 0.2
v 0.2 0.2 -0.2
v 0.2 0.2 -0.3
v 0.2 0.2 -0.4
v 0.2 0.2 -0.5
v 0.2 0.2 -0.6
v 0.2 0.2 -0.7
v 0.2 0.2 -0.8
v 0.2 0.3 0.8
v 0.2 0.3 0.7
v 0.2 0.3 0.6
v 0.2 0.3 0.5
v 0.2 0.3 0.4
v 0.2 0.3 0.3
v 0.2 0.3 0.2
v 0.2 0.3 -0.2
v 0.2 0.3 -0.3
v 0.2 0.3 -0.4
v 0.2 0.3 -0.5
v 0.2 0.3 -0.6
v 0.2 0.3 -0.7
v 0.2 0.3 -0.8
v 0.2 0.4 0.7
v 0.2 0.4 0.4
v 0.2 0.4 0.3
v 0.2 0.4 0.2
v 0.2 0.4 -0.2
v 0.2 0.4 -0.4
v 0.2 0.4 -0.5
v 0.2 0.4 -0.8
v 0.2 1.3 0.8
v 0.2 1.3 0.2
v 0.2 1.3 -0.2
v 0.2 1.3 -0.8
v 0.3 1.4 0.8
v 0.3 1.4 0.3
v 0.3 1.4 -0.3
v 0.3 1.4 -0.8
v 0.3 1.5 0.8
v 0.3 1.5 0.3
v 0.3 1.5 -0.3
v 0.3 1.5 -0.8
v 0.4 1.3 0.8
v 0.4 1.3 0.4
v 0.4 1.3 -0.4
v 0.4 1.3 -0.8
v 0.4 1.4 0.8
v 0.4 1.4 0.4
v 0.4 1.4 -0.4
v 0.4 1.4 -0.8
v 0.8 0 0.2
v 0.8 0 0.1
v 0.8 0 0
v 0.8 0 -0.1
v 0.8 0 -0.2
v 0.8 0.1 0.2
v 0.8 0.1 0.1
v 0.8 0.1 0
v 0.8 0.1 -0.1
v 0.8 0.2 0.2
v 0.8 0.2 0.1
v 0.8 0.2 0
v 0.8 0.2 -0.1
v 0.8 0.3 0.2
v 0.8 0.3 0.1
v 0.8 0.3 0
v 0.8 0.3 -0.1
v 0.8 0.3 -0.2
v 0.8 0.4 0.2
v 0.8 0.4 -0.1
v 0.8 1.3 0.4
v 0.8 1.3 0.2
v 0.8 1.3 0.1
v 0.8 1.3 -0.1
v 0.8 1.3 -0.2
v 0.8 1.3 -0.4
v 0.8 1.4 0.4
v 0.8 1.4 0.3
v 0.8 1.4 0.1
v 0.8 1.4 -0.1
v 0.8 1.4 -0.3
v 0.8 1.4 -0.4
v 0.8 1.5 0.3
v 0.8 1.5 0.1
v 0.8 1.5 -0.1
v 0.8 1.5 -0.3
v 0.8 1.6 0.1
v 0.8 1.6 -0.1
v -0.4 1.3 0.8
v -0.4 1.4 0.8
v -0.3 1.4 0.8
v -0.3 1.5 0.8
v -0.2 0 0.8
v -0.2 0.1 0.8
v -0.2 0.2 0.8
v -0.2 0.3 0.8
v -0.2 0.4 0.8
v -0.2 1.3 0.8
v -0.1 0 0.8
v -0.1 0.1 0.8
v -0.1 0.2 0.8
v -0.1 0.3 0.8
v -0.1 1.3 0.8
v -0.1 1.4 0.8
v -0.1 1.5 0.8
v -0.1 1.6 0.8
v 0 0 0.8
v 0 0.1 0.8
v 0 0.2 0.8
v 0 0.3 0.8
v 0.1 0 0.8
v 0.1 0.1 0.8
v 0.1 0.2 0.8
v 0.1 0.3 0.8
v 0.1 0.4 0.8
v 0.1 1.3 0.8
v 0.1 1.4 0.8
v 0.1 1.5 0.8
v 0.1 1.6 0.8
v 0.2 0 0.8
v 0.2 0.3 0.8
v 0.2 1.3 0.8
v 0.3 1.4 0.8
v 0.3 1.5 0.8
v 0.4 1.3 0.8
v 0.4 1.4 0.8
v -0.8 1.3 0.4
v -0.8 1.4 0.4
v -0.4 1.3 0.4
v -0.4 1.4 0.4
v 0.4 1.3 0.4
v 0.4 1.4 0.4
v 0.8 1.3 0.4
v 0.8 1.4 0.4
v -0.8 1.4 0.3
v -0.8 1.5 0.3
v -0.3 1.4 0.3
v -0.3 1.5 0.3
v 0.3 1.4 0.3
v 0.3 1.5 0.3
v 0.8 1.4 0.3
v 0.8 1.5 0.3
v -0.8 0 0.2
v -0.8 0.1 0.2
v -0.8 0.2 0.2
v -0.8 0.4 0.2
v -0.8 1.3 0.2
v -0.7 0 0.2
v -0.7 0.1 0.2
v -0.7 0.2 0.2
v -0.7 0.3 0.2
v -0.6 0 0.2
v -0.6 0.1 0.2
v -0.6 0.2 0.2
v -0.6 0.3 0.2
v -0.6 0.4 0.2
v -0.5 0 0.2
v -0.5 0.1 0.2
v -0.5 0.2 0.2
v -0.5 0.3 0.2
v -0.5 0.4 0.2
v -0.4 0 0.2
v -0.4 0.1 0.2
v -0.4 0.2 0.2
v -0.4 0.3 0.2
v -0.3 0 0.2
v -0.3 0.1 0.2
v -0.3 0.2 0.2
v -0.3 0.3 0.2
v -0.2 0 0.2
v -0.2 0.1 0.2
v -0.2 0.2 0.2
v -0.2 0.3 0.2
v -0.2 0.4 0.2
v -0.2 1.3 0.2
v 0.2 0 0.2
v 0.2 0.1 0.2
v 0.2 0.2 0.2
v 0.2 0.3 0.2
v 0.2 0.4 0.2
v 0.2 1.3 0.2
v 0.3 0 0.2
v 0.3 0.1 0.2
v 0.3 0.2 0.2
v 0.3 0.3 0.2
v 0.3 0.4 0.2
v 0.4 0 0.2
v 0.4 0.1 0.2
v 0.4 0.2 0.2
v 0.4 0.3 0.2
v 0.5 0 0.2
v 0.5 0.1 0.2
v 0.5 0.2 0.2
v 0.5 0.3 0.2
v 0.6 0 0.2
v 0.6 0.1 0.2
v 0.6 0.2 0.2
v 0.6 0.3 0.2
v 0.6 0.4 0.2
v 0.7 0 0.2
v 0.7 0.1 0.2
v 0.7 0.2 0.2
v 0.7 0.3 0.2
v 0.7 0.4 0.2
v 0.8 0 0.2
v 0.8 0.1 0.2
v 0.8 0.2 0.2
v 0.8 0.3 0.2
v 0.8 0.4 0.2
v 0.8 1.3 0.2
v -0.8 1.5 0.1
v -0.8 1.6 0.1
v -0.1 1.5 0.1
v -0.1 1.6 0.1
v 0.1 1.5 0.1
v 0.1 1.6 0.1
v 0.8 1.5 0.1
v 0.8 1.6 0.1
v -0.8 1.5 -0.1
v -0.8 1.6 -0.1
v -0.1 1.5 -0.1
v -0.1 1.6 -0.1
v 0.1 1.5 -0.1
v 0.1 1.6 -0.1
v 0.8 1.5 -0.1
v 0.8 1.6 -0.1
v -0.8 0 -0.2
v -0.8 0.1 -0.2
v -0.8 0.2 -0.2
v -0.8 0.3 -0.2
v -0.8 0.4 -0.2
v -0.8 1.3 -0.2
v -0.7 0 -0.2
v -0.7 0.1 -0.2
v -0.7 0.2 -0.2
v -0.7 0.3 -0.2
v -0.6 0 -0.2
v -0.6 0.1 -0.2
v -0.6 0.2 -0.2
v -0.6 0.3 -0.2
v -0.5 0 -0.2
v -0.5 0.1 -0.2
v -0.5 0.2 -0.2
v -0.5 0.3 -0.2
v -0.5 0.4 -0.2
v -0.4 0 -0.2
v -0.4 0.1 -0.2
v -0.4 0.2 -0.2
v -0.4 0.3 -0.2
v -0.4 0.4 -0.2
v -0.3 0 -0.2
v -0.3 0.1 -0.2
v -0.3 0.2 -0.2
v -0.3 0.3 -0.2
v -0.2 0 -0.2
v -0.2 0.1 -0.2
v -0.2 0.2 -0.2
v -0.2 0.3 -0.2
v -0.2 0.4 -0.2
v -0.2 1.3 -0.2
v 0.2 0 -0.2
v 0.2 0.1 -0.2
v 0.2 0.2 -0.2
v 0.2 0.3 -0.2
v 0.2 0.4 -0.2
v 0.2 1.3 -0.2
v 0.3 0 -0.2
v 0.3 0.1 -0.2
v 0.3 0.2 -0.2
v 0.3 0.3 -0.2
v 0.3 0.4 -0.2
v 0.4 0 -0.2
v 0.4 0.1 -0.2
v 0.4 0.2 -0.2
v 0.4 0.3 -0.2
v 0.4 0.4 -0.2
v 0.5 0 -0.2
v 0.5 0.1 -0.2
v 0.5 0.2 -0.2
v 0.5 0.3 -0.2
v 0.6 0 -0.2
v 0.6 0.1 -0.2
v 0.6 0.2 -0.2
v 0.6 0.3 -0.2
v 0.7 0 -0.2
v 0.7 0.1 -0.2
v 0.7 0.2 -0.2
v 0.7 0.3 -0.2
v 0.7 0.4 -0.2
v 0.8 0 -0.2
v 0.8 0.3 -0.2
v 0.8 1.3 -0.2
v -0.8 1.4 -0.3
v -0.8 1.5 -0.3
v -0.3 1.4 -0.3
v -0.3 1.5 -0.3
v 0.3 1.4 -0.3
v 0.3 1.5 -0.3
v 0.8 1.4 -0.3
v 0.8 1.5 -0.3
v -0.8 1.3 -0.4
v -0.8 1.4 -0.4
v -0.4 1.3 -0.4
v -0.4 1.4 -0.4
v 0.4 1.3 -0.4
v 0.4 1.4 -0.4
v 0.8 1.3 -0.4
v 0.8 1.4 -0.4
v -0.4 1.3 -0.8
v -0.4 1.4 -0.8
v -0.3 1.4 -0.8
v -0.3 1.5 -0.8
v -0.2 0 -0.8
v -0.2 0.1 -0.8
v -0.2 0.2 -0.8
v -0.2 0.4 -0.8
v -0.2 1.3 -0.8
v -0.1 0 -0.8
v -0.1 0.1 -0.8
v -0.1 0.2 -0.8
v -0.1 0.3 -0.8
v -0.1 1.3 -0.8
v -0.1 1.4 -0.8
v -0.1 1.5 -0.8
v -0.1 1.6 -0.8
v 0 0 -0.8
v 0 0.1 -0.8
v 0 0.2 -0.8
v 0 0.3 -0.8
v 0 0.4 -0.8
v 0.1 0 -0.8
v 0.1 0.1 -0.8
v 0.1 0.2 -0.8
v 0.1 0.3 -0.8
v 0.1 0.4 -0.8
v 0.1 1.3 -0.8
v 0.1 1.4 -0.8
v 0.1 1.5 -0.8
v 0.1 1.6 -0.8
v 0.2 0 -0.8
v 0.2 0.1 -0.8
v 0.2 0.2 -0.8
v 0.2 0.3 -0.8
v 0.2 0.4 -0.8
v 0.2 1.3 -0.8
v 0.3 1.4 -0.8
v 0.3 1.5 -0.8
v 0.4 1.3 -0.8
v 0.4 1.4 -0.8
v -0.2 0 0.8
v -0.1 0 0.8
v 0 0 0.8
v 0.1 0 0.8
v 0.2 0 0.8
v -0.2 0 0.7
v -0.1 0 0.7
v 0 0 0.7
v 0.1 0 0.7
v 0.2 0 0.7
v -0.2 0 0.6
v -0.1 0 0.6
v 0.1 0 0.6
v 0.2 0 0.6
v -0.2 0 0.5
v -0.1 0 0.5
v 0.1 0 0.5
v 0.2 0 0.5
v -0.2 0 0.4
v -0.1 0 0.4
v 0.1 0 0.4
v 0.2 0 0.4
v -0.2 0 0.3
v -0.1 0 0.3
v 0.1 0 0.3
v 0.2 0 0.3
v -0.8 0 0.2
v -0.7 0 0.2
v -0.6 0 0.2
v -0.5 0 0.2
v -0.4 0 0.2
v -0.3 0 0.2
v -0.2 0 0.2
v -0.1 0 0.2
v 0.1 0 0.2
v 0.2 0 0.2
v 0.3 0 0.2
v 0.4 0 0.2
v 0.5 0 0.2
v 0.6 0 0.2
v 0.7 0 0.2
v 0.8 0 0.2
v -0.8 0 0.1
v -0.7 0 0.1
v -0.6 0 0.1
v -0.5 0 0.1
v -0.4 0 0.1
v -0.3 0 0.1
v -0.2 0 0.1
v -0.1 0 0.1
v 0.1 0 0.1
v 0.3 0 0.1
v 0.4 0 0.1
v 0.5 0 0.1
v 0.6 0 0.1
v 0.7 0 0.1
v 0.8 0 0.1
v -0.8 0 0
v -0.7 0 0
v -0.2 0 0
v -0.1 0 0
v 0.1 0 0
v 0.2 0 0
v 0.7 0 0
v 0.8 0 0
v -0.8 0 -0.1
v -0.7 0 -0.1
v -0.6 0 -0.1
v -0.5 0 -0.1
v -0.4 0 -0.1
v -0.3 0 -0.1
v -0.1 0 -0.1
v 0.1 0 -0.1
v 0.2 0 -0.1
v 0.3 0 -0.1
v 0.4 0 -0.1
v 0.5 0 -0.1
v 0.6 0 -0.1
v 0.7 0 -0.1
v 0.8 0 -0.1
v -0.8 0 -0.2
v -0.7 0 -0.2
v -0.6 0 -0.2
v -0.5 0 -0.2
v -0.4 0 -0.2
v -0.3 0 -0.2
v -0.2 0 -0.2
v -0.1 0 -0.2
v 0.1 0 -0.2
v 0.2 0 -0.2
v 0.3 0 -0.2
v 0.4 0 -0.2
v 0.5 0 -0.2
v 0.6 0 -0.2
v 0.7 0 -0.2
v 0.8 0 -0.2
v -0.2 0 -0.3
v -0.1 0 -0.3
v 0.1 0 -0.3
v 0.2 0 -0.3
v -0.2 0 -0.4
v -0.1 0 -0.4
v 0.1 0 -0.4
v 0.2 0 -0.4
v -0.2 0 -0.5
v -0.1 0 -0.5
v 0.1 0 -0.5
v 0.2 0 -0.5
v -0.2 0 -0.6
v -0.1 0 -0.6
v 0.1 0 -0.6
v 0.2 0 -0.6
v -0.2 0 -0.7
v -0.1 0 -0.7
v 0 0 -0.7
v 0.1 0 -0.7
v 0.2 0 -0.7
v -0.2 0 -0.8
v -0.1 0 -0.8
v 0 0 -0.8
v 0.1 0 -0.8
v 0.2 0 -0.8
v -0.4 1.3 0.8
v -0.2 1.3 0.8
v 0.2 1.3 0.8
v 0.4 1.3 0.8
v -0.8 1.3 0.4
v -0.4 1.3 0.4
v 0.4 1.3 0.4
v 0.8 1.3 0.4
v -0.8 1.3 0.2
v -0.2 1.3 0.2
v 0.2 1.3 0.2
v 0.8 1.3 0.2
v -0.8 1.3 -0.2
v -0.2 1.3 -0.2
v 0.2 1.3 -0.2
v 0.8 1.3 -0.2
v -0.8 1.3 -0.4
v -0.4 1.3 -0.4
v 0.4 1.3 -0.4
v 0.8 1.3 -0.4
v -0.4 1.3 -0.8
v -0.2 1.3 -0.8
v 0.2 1.3 -0.8
v 0.4 1.3 -0.8
v -0.4 1.4 0.8
v -0.3 1.4 0.8
v 0.3 1.4 0.8
v 0.4 1.4 0.8
v -0.8 1.4 0.4
v -0.4 1.4 0.4
v 0.4 1.4 0.4
v 0.8 1.4 0.4
v -0.8 1.4 0.3
v -0.3 1.4 0.3
v 0.3 1.4 0.3
v 0.8 1.4 0.3
v -0.8 1.4 -0.3
v -0.3 1.4 -0.3
v 0.3 1.4 -0.3
v 0.8 1.4 -0.3
v -0.8 1.4 -0.4
v -0.4 1.4 -0.4
v 0.4 1.4 -0.4
v 0.8 1.4 -0.4
v -0.4 1.4 -0.8
v -0.3 1.4 -0.8
v 0.3 1.4 -0.8
v 0.4 1.4 -0.8
v -0.3 1.5 0.8
v -0.1 1.5 0.8
v 0.1 1.5 0.8
v 0.3 1.5 0.8
v -0.8 1.5 0.3
v -0.3 1.5 0.3
v 0.3 1.5 0.3
v 0.8 1.5 0.3
v -0.8 1.5 0.1
v -0.1 1.5 0.1
v 0.1 1.5 0.1
v 0.8 1.5 0.1
v -0.8 1.5 -0.1
v -0.1 1.5 -0.1
v 0.1 1.5 -0.1
v 0.8 1.5 -0.1
v -0.8 1.5 -0.3
v -0.3 1.5 -0.3
v 0.3 1.5 -0.3
v 0.8 1.5 -0.3
v -0.3 1.5 -0.8
v -0.1 1.5 -0.8
v 0.1 1.5 -0.8
v 0.3 1.5 -0.8
v -0.1 1.6 0.8
v 0.1 1.6 0.8
v -0.8 1.6 0.1
v -0.1 1.6 0.1
v 0.1 1.6 0.1
v 0.8 1.6 0.1
v -0.8 1.6 -0.1
v -0.1 1.6 -0.1
v 0.1 1.6 -0.1
v 0.8 1.6 -0.1
v -0.1 1.6 -0.8
v 0.1 1.6 -0.8

# faces
f 6/2/1 2/2/1 1/2/1
f 7/1/1 3/1/1 2/1/1
f 7/2/1 2/2/1 6/2/1
f 8/2/1 4/2/1 3/2/1
f 8/1/1 3/1/1 7/1/1
f 9/1/1 5/1/1 4/1/1
f 9/2/1 4/2/1 8/2/1
f 10/1/1 5/1/1 9/1/1
f 11/1/1 7/1/1 6/1/1
f 12/2/1 8/2/1 7/2/1
f 12/1/1 7/1/1 11/1/1
f 12/2/1 9/2/1 8/2/1
f 12/2/1 10/2/1 9/2/1
f 13/2/1 10/2/1 12/2/1
f 14/2/1 10/2/1 13/2/1
f 15/2/1 10/2/1 14/2/1
f 16/2/1 12/2/1 11/2/1
f 16/1/1 13/1/1 12/1/1
f 17/2/1 14/2/1 13/2/1
f 17/1/1 13/1/1 16/1/1
f 18/1/1 15/1/1 14/1/1
f 18/2/1 14/2/1 17/2/1
f 19/1/1 15/1/1 18/1/1
f 20/2/1 17/2/1 16/2/1
f 20/2/1 16/2/1 11/2/1
f 21/1/1 18/1/1 17/1/1
f 21/2/1 17/2/1 20/2/1
f 22/2/1 19/2/1 18/2/1
f 22/1/1 18/1/1 21/1/1
f 23/2/1 19/2/1 22/2/1
f 25/1/1 21/1/1 20/1/1
f 25/1/1 22/1/1 21/1/1
f 25/1/1 23/1/1 22/1/1
f 26/1/1 23/1/1 25/1/1
f 27/1/1 23/1/1 26/1/1
f 28/1/1 23/1/1 27/1/1
f 30/3/1 26/3/1 25/3/1
f 30/3/1 25/3/1 24/3/1
f 31/3/1 26/3/1 30/3/1
f 32/1/1 27/1/1 26/1/1
f 32/3/1 26/3/1 31/3/1
f 33/3/1 28/3/1 27/3/1
f 33/1/1 27/1/1 32/1/1
f 33/3/1 29/3/1 28/3/1
f 34/3/1 29/3/1 33/3/1
f 35/3/1 29/3/1 34/3/1
f 36/3/1 32/3/1 31/3/1
f 36/3/1 34/3/1 33/3/1
f 36/3/1 33/3/1 32/3/1
f 37/3/1 34/3/1 36/3/1
f 38/3/1 34/3/1 37/3/1
f 39/3/1 34/3/1 38/3/1
f 40/3/1 38/3/1 37/3/1
f 41/3/1 38/3/1 40/3/1
f 46/3/1 43/3/1 42/3/1
f 47/3/1 43/3/1 46/3/1
f 48/3/1 45/3/1 44/3/1
f 49/3/1 45/3/1 48/3/1
f 54/3/1 51/3/1 50/3/1
f 55/3/1 51/3/1 54/3/1
f 56/3/1 53/3/1 52/3/1
f 57/3/1 53/3/1 56/3/1
f 72/1/1 59/1/1 58/1/1
f 73/2/1 60/2/1 59/2/1
f 73/1/1 59/1/1 72/1/1
f 74/1/1 61/1/1 60/1/1
f 74/2/1 60/2/1 73/2/1
f 75/2/1 62/2/1 61/2/1
f 75/1/1 61/1/1 74/1/1
f 76/1/1 63/1/1 62/1/1
f 76/2/1 62/2/1 75/2/1
f 77/2/1 64/2/1 63/2/1
f 77/1/1 63/1/1 76/1/1
f 78/2/1 64/2/1 77/2/1
f 79/1/1 66/1/1 65/1/1
f 80/2/1 67/2/1 66/2/1
f 80/1/1 66/1/1 79/1/1
f 81/1/1 68/1/1 67/1/1
f 81/2/1 67/2/1 80/2/1
f 82/2/1 69/2/1 68/2/1
f 82/1/1 68/1/1 81/1/1
f 83/1/1 70/1/1 69/1/1
f 83/2/1 69/2/1 82/2/1
f 84/2/1 71/2/1 70/2/1
f 84/1/1 70/1/1 83/1/1
f 85/2/1 71/2/1 84/2/1
f 86/2/1 73/2/1 72/2/1
f 86/2/1 74/2/1 73/2/1
f 86/2/1 75/2/1 74/2/1
f 87/2/1 75/2/1 86/2/1
f 88/2/1 75/2/1 87/2/1
f 89/1/1 76/1/1 75/1/1
f 89/2/1 75/2/1 88/2/1
f 90/2/1 78/2/1 77/2/1
f 90/1/1 76/1/1 89/1/1
f 90/2/1 77/2/1 76/2/1
f 91/2/1 78/2/1 90/2/1
f 92/2/1 78/2/1 91/2/1
f 93/2/1 80/2/1 79/2/1
f 94/1/1 81/1/1 80/1/1
f 94/2/1 80/2/1 93/2/1
f 95/2/1 83/2/1 82/2/1
f 95/1/1 81/1/1 94/1/1
f 95/2/1 84/2/1 83/2/1
f 95/2/1 82/2/1 81/2/1
f 96/2/1 84/2/1 95/2/1
f 97/2/1 84/2/1 96/2/1
f 98/1/1 85/1/1 84/1/1
f 98/2/1 84/2/1 97/2/1
f 99/1/1 85/1/1 98/1/1
f 100/1/1 87/1/1 86/1/1
f 101/2/1 88/2/1 87/2/1
f 101/1/1 87/1/1 100/1/1
f 102/1/1 89/1/1 88/1/1
f 102/2/1 88/2/1 101/2/1
f 103/2/1 90/2/1 89/2/1
f 103/1/1 89/1/1 102/1/1
f 104/1/1 91/1/1 90/1/1
f 104/2/1 90/2/1 103/2/1
f 105/2/1 92/2/1 91/2/1
f 105/1/1 91/1/1 104/1/1
f 106/2/1 92/2/1 105/2/1
f 107/1/1 94/1/1 93/1/1
f 108/2/1 95/2/1 94/2/1
f 108/1/1 94/1/1 107/1/1
f 109/1/1 96/1/1 95/1/1
f 109/2/1 95/2/1 108/2/1
f 110/2/1 97/2/1 96/2/1
f 110/1/1 96/1/1 109/1/1
f 111/1/1 98/1/1 97/1/1
f 111/2/1 97/2/1 110/2/1
f 112/2/1 99/2/1 98/2/1
f 112/1/1 98/1/1 111/1/1
f 113/2/1 101/2/1 100/2/1
f 114/1/1 102/1/1 101/1/1
f 114/2/1 101/2/1 113/2/1
f 115/2/1 103/2/1 102/2/1
f 115/1/1 102/1/1 114/1/1
f 115/2/1 104/2/1 103/2/1
f 115/2/1 105/2/1 104/2/1
f 116/1/1 106/1/1 105/1/1
f 116/2/1 105/2/1 115/2/1
f 117/1/1 106/1/1 116/1/1
f 118/2/1 109/2/1 108/2/1
f 118/2/1 108/2/1 107/2/1
f 118/2/1 110/2/1 109/2/1
f 119/1/1 111/1/1 110/1/1
f 119/2/1 110/2/1 118/2/1
f 120/2/1 112/2/1 111/2/1
f 120/1/1 111/1/1 119/1/1
f 121/2/1 99/2/1 112/2/1
f 121/2/1 112/2/1 120/2/1
f 122/1/1 115/1/1 114/1/1
f 122/1/1 117/1/1 116/1/1
f 122/1/1 114/1/1 113/1/1
f 122/1/1 116/1/1 115/1/1
f 123/1/1 117/1/1 122/1/1
f 124/1/1 121/1/1 120/1/1
f 124/1/1 120/1/1 119/1/1
f 124/1/1 119/1/1 118/1/1
f 125/1/1 121/1/1 124/1/1
f 130/3/1 127/3/1 126/3/1
f 131/3/1 127/3/1 130/3/1
f 132/3/1 129/3/1 128/3/1
f 133/3/1 129/3/1 132/3/1
f 134/3/2 135/3/2 138/3/2
f 138/3/2 135/3/2 139/3/2
f 136/3/2 137/3/2 140/3/2
f 140/3/2 137/3/2 141/3/2
f 142/2/2 143/2/2 156/2/2
f 143/1/2 144/1/2 156/1/2
f 144/2/2 145/2/2 157/2/2
f 156/1/2 144/1/2 157/1/2
f 145/1/2 146/1/2 158/1/2
f 157/2/2 145/2/2 158/2/2
f 146/2/2 147/2/2 159/2/2
f 158/1/2 146/1/2 159/1/2
f 147/1/2 148/1/2 160/1/2
f 159/2/2 147/2/2 160/2/2
f 160/1/2 148/1/2 161/1/2
f 149/2/2 150/2/2 162/2/2
f 150/1/2 151/1/2 163/1/2
f 162/2/2 150/2/2 163/2/2
f 151/2/2 152/2/2 164/2/2
f 163/1/2 151/1/2 164/1/2
f 152/1/2 153/1/2 165/1/2
f 164/2/2 152/2/2 165/2/2
f 153/2/2 154/2/2 166/2/2
f 165/1/2 153/1/2 166/1/2
f 154/1/2 155/1/2 167/1/2
f 166/2/2 154/2/2 167/2/2
f 167/1/2 155/1/2 168/1/2
f 142/2/2 156/2/2 169/2/2
f 156/2/2 157/2/2 169/2/2
f 157/1/2 158/1/2 170/1/2
f 169/2/2 157/2/2 170/2/2
f 158/2/2 159/2/2 171/2/2
f 170/1/2 158/1/2 171/1/2
f 160/2/2 161/2/2 171/2/2
f 159/2/2 160/2/2 171/2/2
f 171/2/2 161/2/2 172/2/2
f 172/2/2 161/2/2 173/2/2
f 173/2/2 161/2/2 174/2/2
f 162/1/2 163/1/2 175/1/2
f 165/2/2 166/2/2 176/2/2
f 175/1/2 163/1/2 176/1/2
f 164/2/2 165/2/2 176/2/2
f 163/2/2 164/2/2 176/2/2
f 176/2/2 166/2/2 177/2/2
f 177/2/2 166/2/2 178/2/2
f 166/1/2 167/1/2 179/1/2
f 178/2/2 166/2/2 179/2/2
f 167/2/2 168/2/2 180/2/2
f 179/1/2 167/1/2 180/1/2
f 180/2/2 168/2/2 181/2/2
f 142/2/2 169/2/2 182/2/2
f 169/1/2 170/1/2 183/1/2
f 182/2/2 169/2/2 183/2/2
f 170/2/2 171/2/2 184/2/2
f 183/1/2 170/1/2 184/1/2
f 171/1/2 172/1/2 185/1/2
f 184/2/2 171/2/2 185/2/2
f 172/2/2 173/2/2 186/2/2
f 185/1/2 172/1/2 186/1/2
f 173/1/2 174/1/2 187/1/2
f 186/2/2 173/2/2 187/2/2
f 187/1/2 174/1/2 188/1/2
f 175/2/2 176/2/2 189/2/2
f 176/1/2 177/1/2 190/1/2
f 189/2/2 176/2/2 190/2/2
f 177/2/2 178/2/2 191/2/2
f 190/1/2 177/1/2 191/1/2
f 178/1/2 179/1/2 192/1/2
f 191/2/2 178/2/2 192/2/2
f 179/2/2 180/2/2 193/2/2
f 192/1/2 179/1/2 193/1/2
f 180/1/2 181/1/2 194/1/2
f 193/2/2 180/2/2 194/2/2
f 194/1/2 181/1/2 195/1/2
f 184/2/2 185/2/2 196/2/2
f 185/2/2 186/2/2 196/2/2
f 183/2/2 184/2/2 196/2/2
f 182/1/2 183/1/2 196/1/2
f 186/1/2 187/1/2 197/1/2
f 196/2/2 186/2/2 197/2/2
f 187/2/2 188/2/2 198/2/2
f 197/1/2 187/1/2 198/1/2
f 198/2/2 188/2/2 199/2/2
f 190/2/2 191/2/2 200/2/2
f 189/2/2 190/2/2 200/2/2
f 191/1/2 192/1/2 201/1/2
f 200/2/2 191/2/2 201/2/2
f 194/2/2 195/2/2 202/2/2
f 201/1/2 192/1/2 202/1/2
f 193/2/2 194/2/2 202/2/2
f 192/2/2 193/2/2 202/2/2
f 202/2/2 195/2/2 203/2/2
f 198/1/2 199/1/2 204/1/2
f 197/1/2 198/1/2 204/1/2
f 182/1/2 196/1/2 204/1/2
f 196/1/2 197/1/2 204/1/2
f 204/1/2 199/1/2 205/1/2
f 202/1/2 203/1/2 206/1/2
f 200/1/2 201/1/2 206/1/2
f 201/1/2 202/1/2 206/1/2
f 206/1/2 203/1/2 207/1/2
f 208/3/2 209/3/2 212/3/2
f 212/3/2 209/3/2 213/3/2
f 210/3/2 211/3/2 214/3/2
f 214/3/2 211/3/2 215/3/2
f 216/3/2 217/3/2 220/3/2
f 220/3/2 217/3/2 221/3/2
f 218/3/2 219/3/2 222/3/2
f 222/3/2 219/3/2 223/3/2
f 224/1/2 225/1/2 229/1/2
f 225/2/2 226/2/2 230/2/2
f 229/1/2 225/1/2 230/1/2
f 226/1/2 227/1/2 231/1/2
f 230/2/2 226/2/2 231/2/2
f 227/2/2 228/2/2 232/2/2
f 231/1/2 227/1/2 232/1/2
f 229/2/2 230/2/2 233/2/2
f 230/1/2 231/1/2 234/1/2
f 233/2/2 230/2/2 234/2/2
f 231/2/2 232/2/2 235/2/2
f 234/1/2 231/1/2 235/1/2
f 232/2/2 228/2/2 236/2/2
f 235/2/2 232/2/2 236/2/2
f 233/1/2 234/1/2 237/1/2
f 234/2/2 235/2/2 238/2/2
f 237/1/2 234/1/2 238/1/2
f 235/1/2 236/1/2 239/1/2
f 238/2/2 235/2/2 239/2/2
f 236/2/2 228/2/2 240/2/2
f 239/1/2 236/1/2 240/1/2
f 240/2/2 228/2/2 241/2/2
f 238/2/2 239/2/2 242/2/2
f 237/2/2 238/2/2 242/2/2
f 239/2/2 240/2/2 242/2/2
f 240/1/2 241/1/2 243/1/2
f 242/2/2 240/2/2 243/2/2
f 242/1/2 243/1/2 245/1/2
f 245/1/2 243/1/2 246/1/2
f 243/1/2 241/1/2 247/1/2
f 246/1/2 243/1/2 247/1/2
f 247/1/2 241/1/2 248/1/2
f 245/3/2 246/3/2 250/3/2
f 244/3/2 245/3/2 250/3/2
f 250/3/2 246/3/2 251/3/2
f 246/1/2 247/1/2 252/1/2
f 251/3/2 246/3/2 252/3/2
f 247/3/2 248/3/2 253/3/2
f 252/1/2 247/1/2 253/1/2
f 248/3/2 249/3/2 253/3/2
f 253/3/2 249/3/2 254/3/2
f 254/3/2 249/3/2 255/3/2
f 251/3/2 252/3/2 256/3/2
f 253/3/2 254/3/2 256/3/2
f 252/3/2 253/3/2 256/3/2
f 256/3/2 254/3/2 257/3/2
f 257/3/2 254/3/2 258/3/2
f 258/3/2 254/3/2 259/3/2
f 257/3/2 258/3/2 260/3/2
f 260/3/2 258/3/2 261/3/2
f 264/3/3 263/3/3 262/3/3
f 271/3/3 264/3/3 262/3/3
f 271/3/3 265/3/3 264/3/3
f 272/1/3 267/1/3 266/1/3
f 273/2/3 268/2/3 267/2/3
f 273/1/3 267/1/3 272/1/3
f 274/1/3 269/1/3 268/1/3
f 274/2/3 268/2/3 273/2/3
f 275/2/3 270/2/3 269/2/3
f 275/1/3 269/1/3 274/1/3
f 276/1/3 271/1/3 270/1/3
f 276/3/3 265/3/3 271/3/3
f 277/3/3 265/3/3 276/3/3
f 278/3/3 265/3/3 277/3/3
f 280/2/3 273/2/3 272/2/3
f 281/1/3 274/1/3 273/1/3
f 281/2/3 273/2/3 280/2/3
f 282/2/3 275/2/3 274/2/3
f 282/1/3 274/1/3 281/1/3
f 283/2/3 270/2/3 275/2/3
f 283/2/3 275/2/3 282/2/3
f 284/1/3 281/1/3 280/1/3
f 285/2/3 282/2/3 281/2/3
f 285/1/3 281/1/3 284/1/3
f 286/1/3 283/1/3 282/1/3
f 286/2/3 282/2/3 285/2/3
f 287/2/3 270/2/3 283/2/3
f 287/1/3 283/1/3 286/1/3
f 288/1/3 276/1/3 270/1/3
f 288/2/3 270/2/3 287/2/3
f 288/1/3 277/1/3 276/1/3
f 289/1/3 277/1/3 288/1/3
f 290/3/3 279/3/3 278/3/3
f 290/1/3 277/1/3 289/1/3
f 290/3/3 278/3/3 277/3/3
f 291/3/3 279/3/3 290/3/3
f 292/3/3 279/3/3 291/3/3
f 293/2/3 286/2/3 285/2/3
f 293/2/3 287/2/3 286/2/3
f 293/2/3 285/2/3 284/2/3
f 294/1/3 289/1/3 288/1/3
f 294/2/3 287/2/3 293/2/3
f 294/1/3 288/1/3 287/1/3
f 295/3/3 291/3/3 290/3/3
f 295/1/3 289/1/3 294/1/3
f 295/3/3 290/3/3 289/3/3
f 296/3/3 291/3/3 295/3/3
f 297/3/3 291/3/3 296/3/3
f 298/3/3 296/3/3 295/3/3
f 299/3/3 296/3/3 298/3/3
f 302/3/3 301/3/3 300/3/3
f 303/3/3 301/3/3 302/3/3
f 306/3/3 305/3/3 304/3/3
f 307/3/3 305/3/3 306/3/3
f 310/3/3 309/3/3 308/3/3
f 311/3/3 309/3/3 310/3/3
f 314/3/3 313/3/3 312/3/3
f 315/3/3 313/3/3 314/3/3
f 321/2/3 317/2/3 316/2/3
f 322/1/3 318/1/3 317/1/3
f 322/2/3 317/2/3 321/2/3
f 323/2/3 319/2/3 318/2/3
f 323/1/3 318/1/3 322/1/3
f 324/2/3 319/2/3 323/2/3
f 325/1/3 322/1/3 321/1/3
f 326/2/3 323/2/3 322/2/3
f 326/1/3 322/1/3 325/1/3
f 327/1/3 324/1/3 323/1/3
f 327/2/3 323/2/3 326/2/3
f 328/2/3 319/2/3 324/2/3
f 328/1/3 324/1/3 327/1/3
f 329/1/3 320/1/3 319/1/3
f 329/2/3 319/2/3 328/2/3
f 330/2/3 328/2/3 327/2/3
f 330/2/3 327/2/3 326/2/3
f 330/2/3 326/2/3 325/2/3
f 331/2/3 328/2/3 330/2/3
f 332/2/3 328/2/3 331/2/3
f 333/1/3 329/1/3 328/1/3
f 333/2/3 328/2/3 332/2/3
f 334/1/3 320/1/3 329/1/3
f 334/1/3 329/1/3 333/1/3
f 335/1/3 331/1/3 330/1/3
f 336/2/3 332/2/3 331/2/3
f 336/1/3 331/1/3 335/1/3
f 337/1/3 333/1/3 332/1/3
f 337/2/3 332/2/3 336/2/3
f 338/2/3 334/2/3 333/2/3
f 338/1/3 333/1/3 337/1/3
f 339/2/3 336/2/3 335/2/3
f 340/1/3 337/1/3 336/1/3
f 340/2/3 336/2/3 339/2/3
f 341/2/3 338/2/3 337/2/3
f 341/1/3 337/1/3 340/1/3
f 342/2/3 334/2/3 338/2/3
f 342/2/3 338/2/3 341/2/3
f 343/1/3 340/1/3 339/1/3
f 344/2/3 341/2/3 340/2/3
f 344/1/3 340/1/3 343/1/3
f 345/1/3 342/1/3 341/1/3
f 345/2/3 341/2/3 344/2/3
f 346/2/3 334/2/3 342/2/3
f 346/1/3 342/1/3 345/1/3
f 347/1/3 320/1/3 334/1/3
f 347/2/3 334/2/3 346/2/3
f 348/1/3 320/1/3 347/1/3
f 355/2/3 350/2/3 349/2/3
f 355/2/3 351/2/3 350/2/3
f 355/2/3 352/2/3 351/2/3
f 356/2/3 352/2/3 355/2/3
f 357/2/3 352/2/3 356/2/3
f 358/1/3 354/1/3 353/1/3
f 358/2/3 352/2/3 357/2/3
f 358/1/3 353/1/3 352/1/3
f 359/1/3 354/1/3 358/1/3
f 360/1/3 356/1/3 355/1/3
f 361/2/3 357/2/3 356/2/3
f 361/1/3 356/1/3 360/1/3
f 362/1/3 358/1/3 357/1/3
f 362/2/3 357/2/3 361/2/3
f 363/2/3 359/2/3 358/2/3
f 363/1/3 358/1/3 362/1/3
f 364/2/3 361/2/3 360/2/3
f 365/1/3 362/1/3 361/1/3
f 365/2/3 361/2/3 364/2/3
f 366/2/3 363/2/3 362/2/3
f 366/1/3 362/1/3 365/1/3
f 367/2/3 359/2/3 363/2/3
f 367/2/3 363/2/3 366/2/3
f 368/1/3 365/1/3 364/1/3
f 369/2/3 366/2/3 365/2/3
f 369/1/3 365/1/3 368/1/3
f 370/1/3 367/1/3 366/1/3
f 370/2/3 366/2/3 369/2/3
f 371/2/3 359/2/3 367/2/3
f 371/1/3 367/1/3 370/1/3
f 372/1/3 354/1/3 359/1/3
f 372/2/3 359/2/3 371/2/3
f 373/2/3 371/2/3 370/2/3
f 373/2/3 370/2/3 369/2/3
f 373/2/3 369/2/3 368/2/3
f 374/2/3 371/2/3 373/2/3
f 375/2/3 371/2/3 374/2/3
f 376/1/3 372/1/3 371/1/3
f 376/2/3 371/2/3 375/2/3
f 377/1/3 354/1/3 372/1/3
f 377/1/3 372/1/3 376/1/3
f 378/1/3 374/1/3 373/1/3
f 379/2/3 375/2/3 374/2/3
f 379/1/3 374/1/3 378/1/3
f 380/1/3 376/1/3 375/1/3
f 380/2/3 375/2/3 379/2/3
f 381/2/3 377/2/3 376/2/3
f 381/1/3 376/1/3 380/1/3
f 382/1/3 354/1/3 377/1/3
f 382/2/3 377/2/3 381/2/3
f 383/1/3 354/1/3 382/1/3
f 386/3/3 385/3/3 384/3/3
f 387/3/3 385/3/3 386/3/3
f 390/3/3 389/3/3 388/3/3
f 391/3/3 389/3/3 390/3/3
f 392/3/4 393/3/4 394/3/4
f 394/3/4 393/3/4 395/3/4
f 396/3/4 397/3/4 398/3/4
f 398/3/4 397/3/4 399/3/4
f 400/1/4 401/1/4 406/1/4
f 401/2/4 402/2/4 407/2/4
f 406/1/4 401/1/4 407/1/4
f 402/1/4 403/1/4 408/1/4
f 407/2/4 402/2/4 408/2/4
f 403/2/4 404/2/4 409/2/4
f 408/1/4 403/1/4 409/1/4
f 406/2/4 407/2/4 410/2/4
f 407/1/4 408/1/4 411/1/4
f 410/2/4 407/2/4 411/2/4
f 408/2/4 409/2/4 412/2/4
f 411/1/4 408/1/4 412/1/4
f 409/2/4 404/2/4 413/2/4
f 412/2/4 409/2/4 413/2/4
f 410/1/4 411/1/4 414/1/4
f 411/2/4 412/2/4 415/2/4
f 414/1/4 411/1/4 415/1/4
f 412/1/4 413/1/4 416/1/4
f 415/2/4 412/2/4 416/2/4
f 413/2/4 404/2/4 417/2/4
f 416/1/4 413/1/4 417/1/4
f 404/1/4 405/1/4 418/1/4
f 417/2/4 404/2/4 418/2/4
f 416/2/4 417/2/4 419/2/4
f 415/2/4 416/2/4 419/2/4
f 414/2/4 415/2/4 419/2/4
f 419/2/4 417/2/4 420/2/4
f 420/2/4 417/2/4 421/2/4
f 417/1/4 418/1/4 422/1/4
f 421/2/4 417/2/4 422/2/4
f 418/1/4 405/1/4 423/1/4
f 422/1/4 418/1/4 423/1/4
f 419/1/4 420/1/4 424/1/4
f 420/2/4 421/2/4 425/2/4
f 424/1/4 420/1/4 425/1/4
f 421/1/4 422/1/4 426/1/4
f 425/2/4 421/2/4 426/2/4
f 422/2/4 423/2/4 427/2/4
f 426/1/4 422/1/4 427/1/4
f 424/2/4 425/2/4 428/2/4
f 425/1/4 426/1/4 429/1/4
f 428/2/4 425/2/4 429/2/4
f 426/2/4 427/2/4 430/2/4
f 429/1/4 426/1/4 430/1/4
f 427/2/4 423/2/4 431/2/4
f 430/2/4 427/2/4 431/2/4
f 423/1/4 405/1/4 432/1/4
f 431/2/4 423/2/4 432/2/4
f 432/1/4 405/1/4 433/1/4
f 434/1/4 435/1/4 440/1/4
f 435/2/4 436/2/4 441/2/4
f 440/1/4 435/1/4 441/1/4
f 436/1/4 437/1/4 442/1/4
f 441/2/4 436/2/4 442/2/4
f 437/2/4 438/2/4 443/2/4
f 442/1/4 437/1/4 443/1/4
f 438/1/4 439/1/4 444/1/4
f 443/2/4 438/2/4 444/2/4
f 442/2/4 443/2/4 445/2/4
f 440/2/4 441/2/4 445/2/4
f 441/2/4 442/2/4 445/2/4
f 445/2/4 443/2/4 446/2/4
f 446/2/4 443/2/4 447/2/4
f 443/1/4 444/1/4 448/1/4
f 447/2/4 443/2/4 448/2/4
f 444/1/4 439/1/4 449/1/4
f 448/1/4 444/1/4 449/1/4
f 445/1/4 446/1/4 450/1/4
f 446/2/4 447/2/4 451/2/4
f 450/1/4 446/1/4 451/1/4
f 447/1/4 448/1/4 452/1/4
f 451/2/4 447/2/4 452/2/4
f 448/2/4 449/2/4 453/2/4
f 452/1/4 448/1/4 453/1/4
f 450/2/4 451/2/4 454/2/4
f 451/1/4 452/1/4 455/1/4
f 454/2/4 451/2/4 455/2/4
f 452/2/4 453/2/4 456/2/4
f 455/1/4 452/1/4 456/1/4
f 453/2/4 449/2/4 457/2/4
f 456/2/4 453/2/4 457/2/4
f 454/1/4 455/1/4 458/1/4
f 455/2/4 456/2/4 459/2/4
f 458/1/4 455/1/4 459/1/4
f 456/1/4 457/1/4 460/1/4
f 459/2/4 456/2/4 460/2/4
f 457/2/4 449/2/4 461/2/4
f 460/1/4 457/1/4 461/1/4
f 449/1/4 439/1/4 462/1/4
f 461/2/4 449/2/4 462/2/4
f 460/2/4 461/2/4 463/2/4
f 459/2/4 460/2/4 463/2/4
f 458/2/4 459/2/4 463/2/4
f 461/1/4 462/1/4 464/1/4
f 463/2/4 461/2/4 464/2/4
f 462/1/4 439/1/4 465/1/4
f 464/1/4 462/1/4 465/1/4
f 466/3/4 467/3/4 468/3/4
f 468/3/4 467/3/4 469/3/4
f 470/3/4 471/3/4 472/3/4
f 472/3/4 471/3/4 473/3/4
f 474/3/4 475/3/4 476/3/4
f 476/3/4 475/3/4 477/3/4
f 478/3/4 479/3/4 480/3/4
f 480/3/4 479/3/4 481/3/4
f 482/3/4 483/3/4 484/3/4
f 482/3/4 484/3/4 490/3/4
f 484/3/4 485/3/4 490/3/4
f 486/2/4 487/2/4 491/2/4
f 487/1/4 488/1/4 492/1/4
f 491/2/4 487/2/4 492/2/4
f 488/2/4 489/2/4 493/2/4
f 492/1/4 488/1/4 493/1/4
f 493/2/4 489/2/4 494/2/4
f 489/1/4 490/1/4 495/1/4
f 490/3/4 485/3/4 495/3/4
f 495/3/4 485/3/4 496/3/4
f 496/3/4 485/3/4 497/3/4
f 491/1/4 492/1/4 499/1/4
f 492/2/4 493/2/4 500/2/4
f 499/1/4 492/1/4 500/1/4
f 493/1/4 494/1/4 501/1/4
f 500/2/4 493/2/4 501/2/4
f 494/2/4 489/2/4 502/2/4
f 501/1/4 494/1/4 502/1/4
f 489/1/4 495/1/4 503/1/4
f 502/2/4 489/2/4 503/2/4
f 495/1/4 496/1/4 503/1/4
f 500/2/4 501/2/4 504/2/4
f 499/2/4 500/2/4 504/2/4
f 501/2/4 502/2/4 504/2/4
f 504/2/4 502/2/4 505/2/4
f 505/2/4 502/2/4 506/2/4
f 502/1/4 503/1/4 507/1/4
f 506/2/4 502/2/4 507/2/4
f 503/1/4 496/1/4 508/1/4
f 507/1/4 503/1/4 508/1/4
f 508/1/4 496/1/4 509/1/4
f 497/3/4 498/3/4 510/3/4
f 509/1/4 496/1/4 510/1/4
f 496/3/4 497/3/4 510/3/4
f 510/3/4 498/3/4 511/3/4
f 511/3/4 498/3/4 512/3/4
f 504/1/4 505/1/4 513/1/4
f 505/2/4 506/2/4 514/2/4
f 513/1/4 505/1/4 514/1/4
f 506/1/4 507/1/4 515/1/4
f 514/2/4 506/2/4 515/2/4
f 507/2/4 508/2/4 516/2/4
f 515/1/4 507/1/4 516/1/4
f 508/1/4 509/1/4 517/1/4
f 516/2/4 508/2/4 517/2/4
f 509/3/4 510/3/4 518/3/4
f 517/1/4 509/1/4 518/1/4
f 510/3/4 511/3/4 518/3/4
f 518/3/4 511/3/4 519/3/4
f 519/3/4 511/3/4 520/3/4
f 518/3/4 519/3/4 521/3/4
f 521/3/4 519/3/4 522/3/4
f 528/1/5 524/1/5 523/1/5
f 529/2/5 525/2/5 524/2/5
f 529/1/5 524/1/5 528/1/5
f 530/1/5 526/1/5 525/1/5
f 530/2/5 525/2/5 529/2/5
f 531/2/5 527/2/5 526/2/5
f 531/1/5 526/1/5 530/1/5
f 532/2/5 527/2/5 531/2/5
f 533/2/5 529/2/5 528/2/5
f 534/1/5 530/1/5 529/1/5
f 534/2/5 529/2/5 533/2/5
f 534/1/5 531/1/5 530/1/5
f 534/1/5 532/1/5 531/1/5
f 535/1/5 532/1/5 534/1/5
f 536/1/5 532/1/5 535/1/5
f 537/1/5 534/1/5 533/1/5
f 537/1/5 535/1/5 534/1/5
f 538/1/5 535/1/5 537/1/5
f 539/2/5 536/2/5 535/2/5
f 539/1/5 535/1/5 538/1/5
f 540/2/5 536/2/5 539/2/5
f 541/2/5 538/2/5 537/2/5
f 542/1/5 539/1/5 538/1/5
f 542/2/5 538/2/5 541/2/5
f 542/1/5 540/1/5 539/1/5
f 543/1/5 540/1/5 542/1/5
f 544/1/5 540/1/5 543/1/5
f 545/1/5 542/1/5 541/1/5
f 545/1/5 543/1/5 542/1/5
f 546/1/5 543/1/5 545/1/5
f 547/2/5 544/2/5 543/2/5
f 547/1/5 543/1/5 546/1/5
f 548/2/5 544/2/5 547/2/5
f 555/2/5 546/2/5 545/2/5
f 556/1/5 547/1/5 546/1/5
f 556/1/5 548/1/5 547/1/5
f 556/2/5 546/2/5 555/2/5
f 557/1/5 548/1/5 556/1/5
f 558/1/5 548/1/5 557/1/5
f 565/2/5 550/2/5 549/2/5
f 566/1/5 551/1/5 550/1/5
f 566/2/5 550/2/5 565/2/5
f 567/2/5 552/2/5 551/2/5
f 567/1/5 551/1/5 566/1/5
f 568/1/5 553/1/5 552/1/5
f 568/2/5 552/2/5 567/2/5
f 569/2/5 554/2/5 553/2/5
f 569/1/5 553/1/5 568/1/5
f 570/1/5 557/1/5 556/1/5
f 570/2/5 554/2/5 569/2/5
f 570/1/5 556/1/5 555/1/5
f 570/1/5 555/1/5 554/1/5
f 571/1/5 557/1/5 570/1/5
f 572/1/5 557/1/5 571/1/5
f 573/2/5 558/2/5 557/2/5
f 573/1/5 557/1/5 572/1/5
f 573/2/5 559/2/5 558/2/5
f 574/1/5 560/1/5 559/1/5
f 574/2/5 559/2/5 573/2/5
f 575/2/5 561/2/5 560/2/5
f 575/1/5 560/1/5 574/1/5
f 576/1/5 562/1/5 561/1/5
f 576/2/5 561/2/5 575/2/5
f 577/2/5 563/2/5 562/2/5
f 577/1/5 562/1/5 576/1/5
f 578/1/5 564/1/5 563/1/5
f 578/2/5 563/2/5 577/2/5
f 579/1/5 564/1/5 578/1/5
f 580/1/5 569/1/5 568/1/5
f 580/1/5 567/1/5 566/1/5
f 580/1/5 568/1/5 567/1/5
f 580/1/5 566/1/5 565/1/5
f 580/1/5 570/1/5 569/1/5
f 580/1/5 571/1/5 570/1/5
f 581/1/5 571/1/5 580/1/5
f 582/2/5 572/2/5 571/2/5
f 582/1/5 571/1/5 581/1/5
f 583/1/5 576/1/5 575/1/5
f 583/2/5 572/2/5 582/2/5
f 583/1/5 578/1/5 577/1/5
f 583/1/5 575/1/5 574/1/5
f 583/1/5 573/1/5 572/1/5
f 583/1/5 574/1/5 573/1/5
f 583/1/5 577/1/5 576/1/5
f 584/1/5 578/1/5 583/1/5
f 585/1/5 578/1/5 584/1/5
f 586/2/5 579/2/5 578/2/5
f 586/1/5 578/1/5 585/1/5
f 587/2/5 579/2/5 586/2/5
f 588/2/5 581/2/5 580/2/5
f 589/1/5 582/1/5 581/1/5
f 589/2/5 581/2/5 588/2/5
f 589/1/5 583/1/5 582/1/5
f 589/1/5 584/1/5 583/1/5
f 590/1/5 584/1/5 589/1/5
f 591/1/5 584/1/5 590/1/5
f 592/1/5 584/1/5 591/1/5
f 593/1/5 584/1/5 592/1/5
f 594/1/5 584/1/5 593/1/5
f 595/2/5 585/2/5 584/2/5
f 595/1/5 584/1/5 594/1/5
f 596/1/5 587/1/5 586/1/5
f 596/2/5 585/2/5 595/2/5
f 596/1/5 586/1/5 585/1/5
f 597/1/5 587/1/5 596/1/5
f 598/1/5 587/1/5 597/1/5
f 599/1/5 587/1/5 598/1/5
f 600/1/5 587/1/5 599/1/5
f 601/1/5 587/1/5 600/1/5
f 602/1/5 587/1/5 601/1/5
f 603/1/5 589/1/5 588/1/5
f 604/2/5 590/2/5 589/2/5
f 604/1/5 589/1/5 603/1/5
f 605/1/5 591/1/5 590/1/5
f 605/2/5 590/2/5 604/2/5
f 606/2/5 592/2/5 591/2/5
f 606/1/5 591/1/5 605/1/5
f 607/1/5 593/1/5 592/1/5
f 607/2/5 592/2/5 606/2/5
f 608/2/5 594/2/5 593/2/5
f 608/1/5 593/1/5 607/1/5
f 609/2/5 594/2/5 608/2/5
f 610/1/5 595/1/5 594/1/5
f 610/2/5 594/2/5 609/2/5
f 610/1/5 596/1/5 595/1/5
f 610/1/5 597/1/5 596/1/5
f 611/1/5 597/1/5 610/1/5
f 612/1/5 597/1/5 611/1/5
f 613/2/5 598/2/5 597/2/5
f 613/1/5 597/1/5 612/1/5
f 614/1/5 599/1/5 598/1/5
f 614/2/5 598/2/5 613/2/5
f 615/2/5 600/2/5 599/2/5
f 615/1/5 599/1/5 614/1/5
f 616/1/5 601/1/5 600/1/5
f 616/2/5 600/2/5 615/2/5
f 617/2/5 602/2/5 601/2/5
f 617/1/5 601/1/5 616/1/5
f 618/2/5 602/2/5 617/2/5
f 619/1/5 611/1/5 610/1/5
f 619/1/5 610/1/5 609/1/5
f 620/1/5 611/1/5 619/1/5
f 621/2/5 612/2/5 611/2/5
f 621/1/5 611/1/5 620/1/5
f 622/2/5 612/2/5 621/2/5
f 623/2/5 620/2/5 619/2/5
f 624/1/5 621/1/5 620/1/5
f 624/2/5 620/2/5 623/2/5
f 624/1/5 622/1/5 621/1/5
f 625/1/5 622/1/5 624/1/5
f 626/1/5 622/1/5 625/1/5
f 627/1/5 624/1/5 623/1/5
f 627/1/5 625/1/5 624/1/5
f 628/1/5 625/1/5 627/1/5
f 629/2/5 626/2/5 625/2/5
f 629/1/5 625/1/5 628/1/5
f 630/2/5 626/2/5 629/2/5
f 631/2/5 628/2/5 627/2/5
f 632/1/5 629/1/5 628/1/5
f 632/2/5 628/2/5 631/2/5
f 632/1/5 630/1/5 629/1/5
f 633/1/5 630/1/5 632/1/5
f 634/1/5 630/1/5 633/1/5
f 635/1/5 632/1/5 631/1/5
f 635/1/5 633/1/5 632/1/5
f 636/1/5 633/1/5 635/1/5
f 637/1/5 633/1/5 636/1/5
f 638/2/5 634/2/5 633/2/5
f 638/1/5 633/1/5 637/1/5
f 639/2/5 634/2/5 638/2/5
f 640/2/5 636/2/5 635/2/5
f 641/1/5 637/1/5 636/1/5
f 641/2/5 636/2/5 640/2/5
f 642/2/5 638/2/5 637/2/5
f 642/1/5 637/1/5 641/1/5
f 643/1/5 639/1/5 638/1/5
f 643/2/5 638/2/5 642/2/5
f 644/1/5 639/1/5 643/1/5
f 650/3/5 646/3/5 645/3/5
f 651/3/5 648/3/5 647/3/5
f 653/3/5 650/3/5 649/3/5
f 654/3/5 646/3/5 650/3/5
f 654/3/5 650/3/5 653/3/5
f 655/3/5 652/3/5 651/3/5
f 655/3/5 651/3/5 647/3/5
f 656/3/5 652/3/5 655/3/5
f 661/3/5 658/3/5 657/3/5
f 662/3/5 658/3/5 661/3/5
f 663/3/5 660/3/5 659/3/5
f 664/3/5 660/3/5 663/3/5
f 665/3/5 658/3/5 662/3/5
f 666/3/5 658/3/5 665/3/5
f 667/3/5 663/3/5 659/3/5
f 668/3/5 663/3/5 667/3/5
f 669/3/6 670/3/6 674/3/6
f 671/3/6 672/3/6 675/3/6
f 673/3/6 674/3/6 677/3/6
f 674/3/6 670/3/6 678/3/6
f 677/3/6 674/3/6 678/3/6
f 675/3/6 676/3/6 679/3/6
f 671/3/6 675/3/6 679/3/6
f 679/3/6 676/3/6 680/3/6
f 681/3/6 682/3/6 685/3/6
f 685/3/6 682/3/6 686/3/6
f 683/3/6 684/3/6 687/3/6
f 687/3/6 684/3/6 688/3/6
f 686/3/6 682/3/6 689/3/6
f 689/3/6 682/3/6 690/3/6
f 683/3/6 687/3/6 691/3/6
f 691/3/6 687/3/6 692/3/6
f 693/3/6 694/3/6 698/3/6
f 695/3/6 696/3/6 699/3/6
f 697/3/6 698/3/6 701/3/6
f 698/3/6 694/3/6 702/3/6
f 701/3/6 698/3/6 702/3/6
f 699/3/6 700/3/6 703/3/6
f 695/3/6 699/3/6 703/3/6
f 703/3/6 700/3/6 704/3/6
f 705/3/6 706/3/6 709/3/6
f 709/3/6 706/3/6 710/3/6
f 707/3/6 708/3/6 711/3/6
f 711/3/6 708/3/6 712/3/6
f 710/3/6 706/3/6 713/3/6
f 713/3/6 706/3/6 714/3/6
f 707/3/6 711/3/6 715/3/6
f 715/3/6 711/3/6 716/3/6
f 717/3/6 718/3/6 720/3/6
f 720/3/6 718/3/6 721/3/6
f 719/3/6 720/3/6 723/3/6
f 721/3/6 722/3/6 723/3/6
f 720/3/6 721/3/6 723/3/6
f 723/3/6 722/3/6 724/3/6
f 724/3/6 722/3/6 725/3/6
f 725/3/6 722/3/6 726/3/6
f 724/3/6 725/3/6 727/3/6
f 727/3/6 725/3/6 728/3/6
