# MagicaVoxel @ Ephtracy

# group
o 

# material
mtllib kyuhei.mtl
usemtl palette

# normals
vn -1 0 0
vn 1 0 0
vn 0 0 1
vn 0 0 -1
vn 0 -1 0
vn 0 1 0

# texcoords
vt 0.00585938 0.5
vt 0.0214844 0.5
vt 0.0253906 0.5
vt 0.0292969 0.5
vt 0.0332031 0.5
vt 0.306641 0.5
vt 0.537109 0.5
vt 0.990234 0.5

# verts
v -0.4 1.3 0.6
v -0.4 1.3 -0.3
v -0.4 1.4 0.6
v -0.4 1.4 -0.3
v -0.3 1 0.5
v -0.3 1 0.4
v -0.3 1.3 0.5
v -0.3 1.3 0.4
v -0.2 0.6 0.4
v -0.2 0.6 -0.1
v -0.2 0.7 0.4
v -0.2 0.7 -0.1
v -0.2 0.9 0.3
v -0.2 0.9 0
v -0.2 1 0.4
v -0.2 1 0.3
v -0.2 1 0.1
v -0.2 1 0
v -0.2 1 -0.1
v -0.2 1.3 0.4
v -0.2 1.3 0.1
v -0.2 1.3 0
v -0.2 1.3 -0.1
v -0.2 1.4 0.4
v -0.2 1.4 -0.1
v -0.2 1.5 0.4
v -0.2 1.5 -0.1
v -0.1 0.3 0.5
v -0.1 0.3 0.2
v -0.1 0.3 0.1
v -0.1 0.3 -0.2
v -0.1 0.4 0.5
v -0.1 0.4 0.2
v -0.1 0.4 0.1
v -0.1 0.4 -0.2
v -0.1 0.6 0.5
v -0.1 0.6 0.4
v -0.1 0.6 0.2
v -0.1 0.6 0.1
v -0.1 0.6 -0.1
v -0.1 0.6 -0.2
v 0 0 0.4
v 0 0 0.3
v 0 0 0
v 0 0 -0.1
v 0 0.1 0.4
v 0 0.1 0.3
v 0 0.1 0
v 0 0.1 -0.1
v 0 0.3 0.4
v 0 0.3 0.3
v 0 0.3 0
v 0 0.3 -0.1
v 0 0.7 0.6
v 0 0.7 0.4
v 0 0.7 -0.1
v 0 0.7 -0.2
v 0 0.7 -0.3
v 0 0.8 -0.2
v 0 0.8 -0.3
v 0 0.9 0.6
v 0 0.9 0.4
v 0 0.9 -0.1
v 0 0.9 -0.3
v 0 1 0.6
v 0 1 0.5
v 0 1 0.4
v 0 1 -0.1
v 0 1 -0.3
v 0 1.5 0.2
v 0 1.5 0.1
v 0 1.6 0.2
v 0 1.6 0.1
v 0.1 0.7 -0.3
v 0.1 0.7 -0.4
v 0.1 0.8 -0.3
v 0.1 0.9 -0.3
v 0.1 0.9 -0.4
v 0.2 0.8 -0.4
v 0.2 0.8 -0.5
v 0.2 0.9 -0.4
v 0.2 0.9 -0.5
v 0.3 0.4 -0.1
v 0.3 0.4 -0.3
v 0.3 0.5 -0.1
v 0.3 0.5 -0.2
v 0.3 0.5 -0.3
v 0.3 0.5 -0.4
v 0.3 0.6 -0.1
v 0.3 0.6 -0.3
v 0.3 0.6 -0.4
v 0.3 0.6 -0.5
v 0.3 0.7 -0.1
v 0.3 0.7 -0.2
v 0.3 0.7 -0.4
v 0.3 0.8 -0.4
v 0.3 0.8 -0.5
v 0.3 0.9 -0.1
v 0.3 0.9 -0.2
v 0.3 0.9 -0.4
v 0.3 0.9 -0.5
v 0.3 1 -0.1
v 0.3 1.1 -0.3
v 0.3 1.1 -0.4
v 0.3 1.1 -0.5
v 0.3 1.2 -0.1
v 0.3 1.2 -0.2
v 0.3 1.2 -0.3
v 0.3 1.2 -0.4
v 0.3 1.3 -0.1
v 0.3 1.3 -0.3
v 0.1 0.1 0.4
v 0.1 0.1 0.3
v 0.1 0.1 0
v 0.1 0.1 -0.1
v 0.1 0.3 0.4
v 0.1 0.3 0.3
v 0.1 0.3 0
v 0.1 0.3 -0.1
v 0.1 1.5 0.2
v 0.1 1.5 0.1
v 0.1 1.6 0.2
v 0.1 1.6 0.1
v 0.2 0 0.4
v 0.2 0 0.3
v 0.2 0 0
v 0.2 0 -0.1
v 0.2 0.1 0.4
v 0.2 0.1 0.3
v 0.2 0.1 0
v 0.2 0.1 -0.1
v 0.2 0.3 0.5
v 0.2 0.3 0.2
v 0.2 0.3 0.1
v 0.2 0.3 -0.2
v 0.2 0.4 0.5
v 0.2 0.4 0.2
v 0.2 0.4 0.1
v 0.2 0.4 -0.2
v 0.2 0.6 0.5
v 0.2 0.6 0.4
v 0.2 0.6 0.2
v 0.2 0.6 0.1
v 0.2 0.6 -0.1
v 0.2 0.6 -0.2
v 0.2 0.7 -0.1
v 0.2 0.7 -0.2
v 0.2 0.9 0.6
v 0.2 0.9 0.4
v 0.2 0.9 -0.1
v 0.2 0.9 -0.2
v 0.2 0.9 -0.3
v 0.2 1 0.6
v 0.2 1 0.5
v 0.2 1 0.4
v 0.2 1 -0.1
v 0.2 1 -0.3
v 0.3 0.6 0.4
v 0.3 0.6 -0.1
v 0.3 0.7 0.6
v 0.3 0.7 0.5
v 0.3 0.7 0.4
v 0.3 0.7 0.3
v 0.3 0.7 -0.1
v 0.3 0.7 -0.2
v 0.3 0.7 -0.4
v 0.3 0.8 0.6
v 0.3 0.8 0.5
v 0.3 0.8 0.3
v 0.3 0.8 0.2
v 0.3 0.9 0.6
v 0.3 0.9 0.5
v 0.3 0.9 0.4
v 0.3 0.9 0.3
v 0.3 0.9 0.2
v 0.3 0.9 0
v 0.3 0.9 -0.1
v 0.3 0.9 -0.2
v 0.3 0.9 -0.4
v 0.3 1 0.4
v 0.3 1 0.3
v 0.3 1 0.1
v 0.3 1 0
v 0.3 1 -0.1
v 0.3 1.2 -0.1
v 0.3 1.3 0.4
v 0.3 1.3 0.1
v 0.3 1.3 0
v 0.3 1.3 -0.1
v 0.3 1.4 0.4
v 0.3 1.4 -0.1
v 0.3 1.5 0.4
v 0.3 1.5 -0.1
v 0.4 0.4 -0.1
v 0.4 0.4 -0.3
v 0.4 0.5 -0.1
v 0.4 0.5 -0.2
v 0.4 0.5 -0.3
v 0.4 0.5 -0.4
v 0.4 0.6 -0.3
v 0.4 0.6 -0.4
v 0.4 0.6 -0.5
v 0.4 0.7 0.5
v 0.4 0.7 0.3
v 0.4 0.8 0.3
v 0.4 0.8 0.2
v 0.4 0.9 0.5
v 0.4 0.9 0.3
v 0.4 0.9 0.2
v 0.4 1 0.5
v 0.4 1 0.4
v 0.4 1.1 -0.3
v 0.4 1.1 -0.4
v 0.4 1.1 -0.5
v 0.4 1.2 -0.1
v 0.4 1.2 -0.2
v 0.4 1.2 -0.3
v 0.4 1.2 -0.4
v 0.4 1.3 0.5
v 0.4 1.3 0.4
v 0.4 1.3 -0.1
v 0.4 1.3 -0.3
v 0.5 1.3 0.6
v 0.5 1.3 -0.3
v 0.5 1.4 0.6
v 0.5 1.4 -0.3
v -0.4 1.3 0.6
v -0.4 1.4 0.6
v 0 0.7 0.6
v 0 0.9 0.6
v 0 1 0.6
v 0.2 0.7 0.6
v 0.2 0.8 0.6
v 0.2 0.9 0.6
v 0.2 1 0.6
v 0.3 0.7 0.6
v 0.3 0.8 0.6
v 0.3 0.9 0.6
v 0.5 1.3 0.6
v 0.5 1.4 0.6
v -0.3 1 0.5
v -0.3 1.3 0.5
v -0.1 0.3 0.5
v -0.1 0.4 0.5
v -0.1 0.6 0.5
v 0 1 0.5
v 0.2 0.3 0.5
v 0.2 0.4 0.5
v 0.2 0.6 0.5
v 0.2 1 0.5
v 0.3 0.7 0.5
v 0.3 0.8 0.5
v 0.3 0.9 0.5
v 0.4 0.7 0.5
v 0.4 0.9 0.5
v 0.4 1 0.5
v 0.4 1.3 0.5
v -0.2 0.6 0.4
v -0.2 0.7 0.4
v -0.2 1 0.4
v -0.2 1.4 0.4
v -0.2 1.5 0.4
v -0.1 0.6 0.4
v 0 0 0.4
v 0 0.1 0.4
v 0 0.3 0.4
v 0 0.7 0.4
v 0 0.9 0.4
v 0 1 0.4
v 0.1 0.1 0.4
v 0.1 0.3 0.4
v 0.2 0 0.4
v 0.2 0.1 0.4
v 0.2 0.6 0.4
v 0.2 0.9 0.4
v 0.2 1 0.4
v 0.3 0.6 0.4
v 0.3 0.7 0.4
v 0.3 0.9 0.4
v 0.3 1 0.4
v 0.3 1.4 0.4
v 0.3 1.5 0.4
v 0 1.5 0.2
v 0 1.6 0.2
v 0.1 1.5 0.2
v 0.1 1.6 0.2
v -0.1 0.3 0.1
v -0.1 0.4 0.1
v -0.1 0.6 0.1
v 0.2 0.3 0.1
v 0.2 0.4 0.1
v 0.2 0.6 0.1
v 0 0 0
v 0 0.1 0
v 0 0.3 0
v 0.1 0.1 0
v 0.1 0.3 0
v 0.2 0 0
v 0.2 0.1 0
v 0.3 0.4 -0.1
v 0.3 0.5 -0.1
v 0.3 0.6 -0.1
v 0.3 0.7 -0.1
v 0.3 0.9 -0.1
v 0.3 1 -0.1
v 0.3 1.2 -0.1
v 0.3 1.3 -0.1
v 0.4 0.4 -0.1
v 0.4 0.5 -0.1
v 0.4 1.2 -0.1
v 0.4 1.3 -0.1
v 0.2 0.7 -0.2
v 0.2 0.9 -0.2
v 0.3 0.7 -0.2
v 0.3 0.9 -0.2
v 0.3 0.5 -0.3
v 0.3 0.6 -0.3
v 0.3 1.1 -0.3
v 0.3 1.2 -0.3
v 0.4 0.5 -0.3
v 0.4 0.6 -0.3
v 0.4 1.1 -0.3
v 0.4 1.2 -0.3
v 0.3 0.6 -0.4
v 0.3 0.7 -0.4
v 0.3 0.9 -0.4
v 0.3 1.1 -0.4
v 0.4 0.6 -0.4
v 0.4 1.1 -0.4
v -0.3 1 0.4
v -0.3 1.3 0.4
v -0.2 1 0.4
v -0.2 1.3 0.4
v 0.3 1 0.4
v 0.3 1.3 0.4
v 0.4 1 0.4
v 0.4 1.3 0.4
v 0 0 0.3
v 0 0.1 0.3
v 0 0.3 0.3
v 0.1 0.1 0.3
v 0.1 0.3 0.3
v 0.2 0 0.3
v 0.2 0.1 0.3
v 0.3 0.7 0.3
v 0.3 0.8 0.3
v 0.4 0.7 0.3
v 0.4 0.8 0.3
v -0.1 0.3 0.2
v -0.1 0.4 0.2
v -0.1 0.6 0.2
v 0.2 0.3 0.2
v 0.2 0.4 0.2
v 0.2 0.6 0.2
v 0.3 0.8 0.2
v 0.3 0.9 0.2
v 0.4 0.8 0.2
v 0.4 0.9 0.2
v 0 1.5 0.1
v 0 1.6 0.1
v 0.1 1.5 0.1
v 0.1 1.6 0.1
v -0.2 0.6 -0.1
v -0.2 0.7 -0.1
v -0.2 1 -0.1
v -0.2 1.3 -0.1
v -0.2 1.4 -0.1
v -0.2 1.5 -0.1
v -0.1 0.6 -0.1
v 0 0 -0.1
v 0 0.1 -0.1
v 0 0.3 -0.1
v 0 0.7 -0.1
v 0 0.9 -0.1
v 0 1 -0.1
v 0.1 0.1 -0.1
v 0.1 0.3 -0.1
v 0.2 0 -0.1
v 0.2 0.1 -0.1
v 0.2 0.6 -0.1
v 0.2 0.7 -0.1
v 0.2 0.9 -0.1
v 0.2 1 -0.1
v 0.3 0.6 -0.1
v 0.3 0.7 -0.1
v 0.3 0.9 -0.1
v 0.3 1 -0.1
v 0.3 1.2 -0.1
v 0.3 1.3 -0.1
v 0.3 1.4 -0.1
v 0.3 1.5 -0.1
v -0.1 0.3 -0.2
v -0.1 0.4 -0.2
v -0.1 0.6 -0.2
v 0.2 0.3 -0.2
v 0.2 0.4 -0.2
v 0.2 0.6 -0.2
v 0.3 0.5 -0.2
v 0.3 0.7 -0.2
v 0.3 0.9 -0.2
v 0.3 1.2 -0.2
v 0.4 0.5 -0.2
v 0.4 1.2 -0.2
v -0.4 1.3 -0.3
v -0.4 1.4 -0.3
v 0 0.7 -0.3
v 0 0.8 -0.3
v 0 0.9 -0.3
v 0 1 -0.3
v 0.1 0.7 -0.3
v 0.1 0.8 -0.3
v 0.1 0.9 -0.3
v 0.2 0.9 -0.3
v 0.2 1 -0.3
v 0.3 0.4 -0.3
v 0.3 0.5 -0.3
v 0.3 1.2 -0.3
v 0.3 1.3 -0.3
v 0.4 0.4 -0.3
v 0.4 0.5 -0.3
v 0.4 1.2 -0.3
v 0.4 1.3 -0.3
v 0.5 1.3 -0.3
v 0.5 1.4 -0.3
v 0.1 0.7 -0.4
v 0.1 0.9 -0.4
v 0.2 0.8 -0.4
v 0.2 0.9 -0.4
v 0.3 0.5 -0.4
v 0.3 0.6 -0.4
v 0.3 0.7 -0.4
v 0.3 0.8 -0.4
v 0.3 1.1 -0.4
v 0.3 1.2 -0.4
v 0.4 0.5 -0.4
v 0.4 0.6 -0.4
v 0.4 1.1 -0.4
v 0.4 1.2 -0.4
v 0.2 0.8 -0.5
v 0.2 0.9 -0.5
v 0.3 0.6 -0.5
v 0.3 0.8 -0.5
v 0.3 0.9 -0.5
v 0.3 1.1 -0.5
v 0.4 0.6 -0.5
v 0.4 1.1 -0.5
v 0 0 0.4
v 0.2 0 0.4
v 0 0 0.3
v 0.2 0 0.3
v 0 0 0
v 0.2 0 0
v 0 0 -0.1
v 0.2 0 -0.1
v -0.1 0.3 0.5
v 0.2 0.3 0.5
v 0 0.3 0.4
v 0.1 0.3 0.4
v 0 0.3 0.3
v 0.1 0.3 0.3
v -0.1 0.3 0.2
v 0.2 0.3 0.2
v -0.1 0.3 0.1
v 0.2 0.3 0.1
v 0 0.3 0
v 0.1 0.3 0
v 0 0.3 -0.1
v 0.1 0.3 -0.1
v -0.1 0.3 -0.2
v 0.2 0.3 -0.2
v 0.3 0.4 -0.1
v 0.4 0.4 -0.1
v 0.3 0.4 -0.3
v 0.4 0.4 -0.3
v 0.3 0.5 -0.3
v 0.4 0.5 -0.3
v 0.3 0.5 -0.4
v 0.4 0.5 -0.4
v -0.2 0.6 0.4
v -0.1 0.6 0.4
v 0.2 0.6 0.4
v 0.3 0.6 0.4
v -0.1 0.6 0.2
v 0.2 0.6 0.2
v -0.1 0.6 0.1
v 0.2 0.6 0.1
v -0.2 0.6 -0.1
v -0.1 0.6 -0.1
v 0.2 0.6 -0.1
v 0.3 0.6 -0.1
v 0.3 0.6 -0.4
v 0.4 0.6 -0.4
v 0.3 0.6 -0.5
v 0.4 0.6 -0.5
v 0 0.7 0.6
v 0.2 0.7 0.6
v 0.3 0.7 0.6
v 0.2 0.7 0.5
v 0.3 0.7 0.5
v 0.4 0.7 0.5
v 0 0.7 0.4
v 0.3 0.7 0.4
v 0.3 0.7 0.3
v 0.4 0.7 0.3
v 0 0.7 -0.1
v 0.2 0.7 -0.1
v 0 0.7 -0.2
v 0.1 0.7 -0.2
v 0.2 0.7 -0.2
v 0.3 0.7 -0.2
v 0 0.7 -0.3
v 0.1 0.7 -0.3
v 0.1 0.7 -0.4
v 0.3 0.7 -0.4
v 0.3 0.8 0.3
v 0.4 0.8 0.3
v 0.3 0.8 0.2
v 0.4 0.8 0.2
v 0.2 0.8 -0.4
v 0.3 0.8 -0.4
v 0.2 0.8 -0.5
v 0.3 0.8 -0.5
v -0.3 1 0.5
v 0 1 0.5
v 0.2 1 0.5
v 0.4 1 0.5
v -0.3 1 0.4
v -0.2 1 0.4
v 0 1 0.4
v 0.2 1 0.4
v 0.3 1 0.4
v 0.4 1 0.4
v 0.3 1.1 -0.3
v 0.4 1.1 -0.3
v 0.3 1.1 -0.4
v 0.4 1.1 -0.4
v 0.3 1.2 -0.2
v 0.4 1.2 -0.2
v 0.3 1.2 -0.3
v 0.4 1.2 -0.3
v -0.4 1.3 0.6
v 0.5 1.3 0.6
v -0.3 1.3 0.5
v 0.4 1.3 0.5
v -0.3 1.3 0.4
v -0.2 1.3 0.4
v 0.3 1.3 0.4
v 0.4 1.3 0.4
v -0.2 1.3 0.1
v 0.3 1.3 0.1
v -0.2 1.3 0
v 0.3 1.3 0
v -0.2 1.3 -0.1
v 0.3 1.3 -0.1
v 0.4 1.3 -0.1
v -0.4 1.3 -0.3
v 0.3 1.3 -0.3
v 0.4 1.3 -0.3
v 0.5 1.3 -0.3
v 0.1 0.1 0.4
v 0.2 0.1 0.4
v 0.1 0.1 0.3
v 0.2 0.1 0.3
v 0.1 0.1 0
v 0.2 0.1 0
v 0.1 0.1 -0.1
v 0.2 0.1 -0.1
v 0.3 0.5 -0.2
v 0.4 0.5 -0.2
v 0.3 0.5 -0.3
v 0.4 0.5 -0.3
v -0.1 0.6 0.5
v 0.2 0.6 0.5
v -0.1 0.6 0.4
v 0.2 0.6 0.4
v -0.1 0.6 -0.1
v 0.2 0.6 -0.1
v -0.1 0.6 -0.2
v 0.2 0.6 -0.2
v 0.3 0.6 -0.3
v 0.4 0.6 -0.3
v 0.3 0.6 -0.4
v 0.4 0.6 -0.4
v 0.2 0.9 0.6
v 0.3 0.9 0.6
v 0.3 0.9 0.5
v 0.4 0.9 0.5
v 0.2 0.9 0.4
v 0.3 0.9 0.4
v 0.3 0.9 0.3
v 0.4 0.9 0.3
v 0.3 0.9 0.2
v 0.4 0.9 0.2
v 0.2 0.9 -0.2
v 0.3 0.9 -0.2
v 0.1 0.9 -0.3
v 0.2 0.9 -0.3
v 0.1 0.9 -0.4
v 0.2 0.9 -0.4
v 0.3 0.9 -0.4
v 0.2 0.9 -0.5
v 0.3 0.9 -0.5
v 0 1 0.6
v 0.2 1 0.6
v 0 1 0.5
v 0.2 1 0.5
v 0 1 -0.1
v 0.2 1 -0.1
v 0 1 -0.3
v 0.2 1 -0.3
v 0.3 1.1 -0.4
v 0.4 1.1 -0.4
v 0.3 1.1 -0.5
v 0.4 1.1 -0.5
v 0.3 1.2 -0.3
v 0.4 1.2 -0.3
v 0.3 1.2 -0.4
v 0.4 1.2 -0.4
v -0.4 1.4 0.6
v 0.5 1.4 0.6
v -0.2 1.4 0.4
v 0.3 1.4 0.4
v -0.2 1.4 -0.1
v 0.3 1.4 -0.1
v -0.4 1.4 -0.3
v 0.5 1.4 -0.3
v -0.2 1.5 0.4
v 0.3 1.5 0.4
v 0 1.5 0.2
v 0.1 1.5 0.2
v 0 1.5 0.1
v 0.1 1.5 0.1
v -0.2 1.5 -0.1
v 0.3 1.5 -0.1
v 0 1.6 0.2
v 0.1 1.6 0.2
v 0 1.6 0.1
v 0.1 1.6 0.1

# faces
f 3/8/1 2/8/1 1/8/1
f 4/8/1 2/8/1 3/8/1
f 7/1/1 6/1/1 5/1/1
f 8/1/1 6/1/1 7/1/1
f 11/4/1 10/4/1 9/4/1
f 12/4/1 10/4/1 11/4/1
f 13/3/1 12/3/1 11/3/1
f 14/3/1 12/3/1 13/3/1
f 15/3/1 13/3/1 11/3/1
f 16/2/1 14/2/1 13/2/1
f 16/3/1 13/3/1 15/3/1
f 17/2/1 14/2/1 16/2/1
f 18/3/1 12/3/1 14/3/1
f 18/2/1 14/2/1 17/2/1
f 19/3/1 12/3/1 18/3/1
f 20/5/1 17/5/1 16/5/1
f 20/5/1 16/5/1 15/5/1
f 21/1/1 18/1/1 17/1/1
f 21/5/1 17/5/1 20/5/1
f 22/5/1 19/5/1 18/5/1
f 22/1/1 18/1/1 21/1/1
f 23/5/1 19/5/1 22/5/1
f 26/8/1 25/8/1 24/8/1
f 27/8/1 25/8/1 26/8/1
f 32/2/1 29/2/1 28/2/1
f 33/2/1 29/2/1 32/2/1
f 34/2/1 31/2/1 30/2/1
f 35/2/1 31/2/1 34/2/1
f 36/3/1 33/3/1 32/3/1
f 37/3/1 33/3/1 36/3/1
f 38/3/1 33/3/1 37/3/1
f 39/3/1 35/3/1 34/3/1
f 40/3/1 35/3/1 39/3/1
f 41/3/1 35/3/1 40/3/1
f 46/8/1 43/8/1 42/8/1
f 47/8/1 43/8/1 46/8/1
f 48/8/1 45/8/1 44/8/1
f 49/8/1 45/8/1 48/8/1
f 50/3/1 47/3/1 46/3/1
f 51/3/1 47/3/1 50/3/1
f 52/3/1 49/3/1 48/3/1
f 53/3/1 49/3/1 52/3/1
f 59/2/1 57/2/1 56/2/1
f 59/3/1 58/3/1 57/3/1
f 60/3/1 58/3/1 59/3/1
f 61/2/1 55/2/1 54/2/1
f 62/2/1 55/2/1 61/2/1
f 63/2/1 59/2/1 56/2/1
f 63/2/1 60/2/1 59/2/1
f 64/2/1 60/2/1 63/2/1
f 65/3/1 62/3/1 61/3/1
f 66/3/1 62/3/1 65/3/1
f 67/3/1 62/3/1 66/3/1
f 68/3/1 64/3/1 63/3/1
f 69/3/1 64/3/1 68/3/1
f 72/8/1 71/8/1 70/8/1
f 73/8/1 71/8/1 72/8/1
f 76/2/1 75/2/1 74/2/1
f 77/2/1 75/2/1 76/2/1
f 78/2/1 75/2/1 77/2/1
f 81/5/1 80/5/1 79/5/1
f 82/5/1 80/5/1 81/5/1
f 85/7/1 84/7/1 83/7/1
f 86/7/1 84/7/1 85/7/1
f 87/7/1 84/7/1 86/7/1
f 89/1/1 86/1/1 85/1/1
f 90/7/1 88/7/1 87/7/1
f 91/7/1 88/7/1 90/7/1
f 93/1/1 86/1/1 89/1/1
f 94/1/1 86/1/1 93/1/1
f 95/7/1 92/7/1 91/7/1
f 96/7/1 92/7/1 95/7/1
f 97/7/1 92/7/1 96/7/1
f 98/1/1 94/1/1 93/1/1
f 99/1/1 94/1/1 98/1/1
f 102/1/1 99/1/1 98/1/1
f 104/7/1 101/7/1 100/7/1
f 105/7/1 101/7/1 104/7/1
f 106/1/1 99/1/1 102/1/1
f 107/1/1 99/1/1 106/1/1
f 108/7/1 104/7/1 103/7/1
f 109/7/1 104/7/1 108/7/1
f 110/7/1 107/7/1 106/7/1
f 110/7/1 108/7/1 107/7/1
f 111/7/1 108/7/1 110/7/1
f 112/3/2 113/3/2 116/3/2
f 116/3/2 113/3/2 117/3/2
f 114/3/2 115/3/2 118/3/2
f 118/3/2 115/3/2 119/3/2
f 120/8/2 121/8/2 122/8/2
f 122/8/2 121/8/2 123/8/2
f 124/8/2 125/8/2 128/8/2
f 128/8/2 125/8/2 129/8/2
f 126/8/2 127/8/2 130/8/2
f 130/8/2 127/8/2 131/8/2
f 132/2/2 133/2/2 136/2/2
f 136/2/2 133/2/2 137/2/2
f 134/2/2 135/2/2 138/2/2
f 138/2/2 135/2/2 139/2/2
f 136/3/2 137/3/2 140/3/2
f 140/3/2 137/3/2 141/3/2
f 141/3/2 137/3/2 142/3/2
f 138/3/2 139/3/2 143/3/2
f 143/3/2 139/3/2 144/3/2
f 144/3/2 139/3/2 145/3/2
f 146/2/2 147/2/2 150/2/2
f 150/2/2 147/2/2 151/2/2
f 148/3/2 149/3/2 153/3/2
f 153/3/2 149/3/2 154/3/2
f 154/3/2 149/3/2 155/3/2
f 150/3/2 151/3/2 156/3/2
f 151/3/2 152/3/2 156/3/2
f 156/3/2 152/3/2 157/3/2
f 158/4/2 159/4/2 162/4/2
f 162/4/2 159/4/2 163/4/2
f 163/4/2 159/4/2 164/4/2
f 160/3/2 161/3/2 167/3/2
f 167/3/2 161/3/2 168/3/2
f 163/3/2 164/3/2 169/3/2
f 169/3/2 164/3/2 170/3/2
f 167/2/2 168/2/2 171/2/2
f 171/2/2 168/2/2 172/2/2
f 170/3/2 164/3/2 175/3/2
f 175/3/2 164/3/2 176/3/2
f 176/3/2 164/3/2 177/3/2
f 165/2/2 166/2/2 178/2/2
f 178/2/2 166/2/2 179/2/2
f 173/4/2 174/4/2 180/4/2
f 174/2/2 175/2/2 181/2/2
f 180/4/2 174/4/2 181/4/2
f 175/2/2 176/2/2 181/2/2
f 181/2/2 176/2/2 182/2/2
f 176/4/2 177/4/2 183/4/2
f 182/2/2 176/2/2 183/2/2
f 183/4/2 177/4/2 184/4/2
f 183/5/2 184/5/2 185/5/2
f 181/5/2 182/5/2 186/5/2
f 180/5/2 181/5/2 186/5/2
f 182/1/2 183/1/2 187/1/2
f 186/5/2 182/5/2 187/5/2
f 183/5/2 185/5/2 188/5/2
f 187/1/2 183/1/2 188/1/2
f 188/5/2 185/5/2 189/5/2
f 190/8/2 191/8/2 192/8/2
f 192/8/2 191/8/2 193/8/2
f 194/7/2 195/7/2 196/7/2
f 196/7/2 195/7/2 197/7/2
f 197/7/2 195/7/2 198/7/2
f 198/7/2 199/7/2 200/7/2
f 200/7/2 199/7/2 201/7/2
f 203/2/2 204/2/2 205/2/2
f 203/2/2 205/2/2 207/2/2
f 205/5/2 206/5/2 208/5/2
f 207/2/2 205/2/2 208/2/2
f 208/5/2 206/5/2 209/5/2
f 201/7/2 202/7/2 213/7/2
f 213/7/2 202/7/2 214/7/2
f 196/1/2 197/1/2 215/1/2
f 215/1/2 197/1/2 216/1/2
f 212/7/2 213/7/2 217/7/2
f 217/7/2 213/7/2 218/7/2
f 210/1/2 211/1/2 219/1/2
f 219/1/2 211/1/2 220/1/2
f 215/7/2 216/7/2 221/7/2
f 216/7/2 217/7/2 221/7/2
f 221/7/2 217/7/2 222/7/2
f 223/8/2 224/8/2 225/8/2
f 225/8/2 224/8/2 226/8/2
f 232/2/3 230/2/3 229/2/3
f 233/2/3 230/2/3 232/2/3
f 234/3/3 231/3/3 230/3/3
f 234/2/3 230/2/3 233/2/3
f 235/3/3 231/3/3 234/3/3
f 236/3/3 233/3/3 232/3/3
f 237/2/3 234/2/3 233/2/3
f 237/3/3 233/3/3 236/3/3
f 238/2/3 234/2/3 237/2/3
f 239/8/3 228/8/3 227/8/3
f 240/8/3 228/8/3 239/8/3
f 246/1/3 242/1/3 241/1/3
f 247/2/3 244/2/3 243/2/3
f 248/3/3 245/3/3 244/3/3
f 248/2/3 244/2/3 247/2/3
f 249/3/3 245/3/3 248/3/3
f 250/1/3 242/1/3 246/1/3
f 254/2/3 252/2/3 251/2/3
f 254/2/3 253/2/3 252/2/3
f 255/2/3 253/2/3 254/2/3
f 256/1/3 242/1/3 250/1/3
f 257/1/3 242/1/3 256/1/3
f 263/4/3 259/4/3 258/4/3
f 267/3/3 260/3/3 259/3/3
f 267/4/3 259/4/3 263/4/3
f 268/3/3 260/3/3 267/3/3
f 269/3/3 260/3/3 268/3/3
f 270/3/3 266/3/3 265/3/3
f 270/8/3 265/8/3 264/8/3
f 271/3/3 266/3/3 270/3/3
f 272/8/3 270/8/3 264/8/3
f 273/8/3 270/8/3 272/8/3
f 274/4/3 267/4/3 263/4/3
f 277/4/3 267/4/3 274/4/3
f 278/4/3 267/4/3 277/4/3
f 279/4/3 276/4/3 275/4/3
f 280/4/3 276/4/3 279/4/3
f 281/8/3 262/8/3 261/8/3
f 282/8/3 262/8/3 281/8/3
f 285/8/3 284/8/3 283/8/3
f 286/8/3 284/8/3 285/8/3
f 290/2/3 288/2/3 287/2/3
f 291/3/3 289/3/3 288/3/3
f 291/2/3 288/2/3 290/2/3
f 292/3/3 289/3/3 291/3/3
f 296/8/3 294/8/3 293/8/3
f 296/3/3 295/3/3 294/3/3
f 297/3/3 295/3/3 296/3/3
f 298/8/3 296/8/3 293/8/3
f 299/8/3 296/8/3 298/8/3
f 308/7/3 301/7/3 300/7/3
f 309/1/3 302/1/3 301/1/3
f 309/7/3 301/7/3 308/7/3
f 309/1/3 303/1/3 302/1/3
f 309/1/3 306/1/3 305/1/3
f 309/1/3 305/1/3 304/1/3
f 309/1/3 304/1/3 303/1/3
f 310/7/3 307/7/3 306/7/3
f 310/1/3 306/1/3 309/1/3
f 311/7/3 307/7/3 310/7/3
f 314/2/3 313/2/3 312/2/3
f 315/2/3 313/2/3 314/2/3
f 320/7/3 317/7/3 316/7/3
f 321/7/3 317/7/3 320/7/3
f 322/7/3 319/7/3 318/7/3
f 323/7/3 319/7/3 322/7/3
f 328/7/3 325/7/3 324/7/3
f 328/7/3 327/7/3 326/7/3
f 328/7/3 326/7/3 325/7/3
f 329/7/3 327/7/3 328/7/3
f 330/1/4 331/1/4 332/1/4
f 332/1/4 331/1/4 333/1/4
f 334/1/4 335/1/4 336/1/4
f 336/1/4 335/1/4 337/1/4
f 338/8/4 339/8/4 341/8/4
f 339/3/4 340/3/4 341/3/4
f 341/3/4 340/3/4 342/3/4
f 338/8/4 341/8/4 343/8/4
f 343/8/4 341/8/4 344/8/4
f 345/2/4 346/2/4 347/2/4
f 347/2/4 346/2/4 348/2/4
f 349/2/4 350/2/4 352/2/4
f 350/3/4 351/3/4 353/3/4
f 352/2/4 350/2/4 353/2/4
f 353/3/4 351/3/4 354/3/4
f 355/5/4 356/5/4 357/5/4
f 357/5/4 356/5/4 358/5/4
f 359/8/4 360/8/4 361/8/4
f 361/8/4 360/8/4 362/8/4
f 363/4/4 364/4/4 369/4/4
f 364/3/4 365/3/4 373/3/4
f 369/4/4 364/4/4 373/4/4
f 373/3/4 365/3/4 374/3/4
f 365/5/4 366/5/4 375/5/4
f 374/3/4 365/3/4 375/3/4
f 371/3/4 372/3/4 376/3/4
f 370/8/4 371/8/4 376/8/4
f 376/3/4 372/3/4 377/3/4
f 370/8/4 376/8/4 378/8/4
f 378/8/4 376/8/4 379/8/4
f 369/4/4 373/4/4 380/4/4
f 380/4/4 373/4/4 381/4/4
f 375/5/4 366/5/4 383/5/4
f 380/4/4 381/4/4 384/4/4
f 381/3/4 382/3/4 385/3/4
f 384/4/4 381/4/4 385/4/4
f 382/4/4 383/4/4 386/4/4
f 385/3/4 382/3/4 386/3/4
f 383/5/4 366/5/4 387/5/4
f 386/4/4 383/4/4 387/4/4
f 387/5/4 366/5/4 388/5/4
f 388/5/4 366/5/4 389/5/4
f 367/8/4 368/8/4 390/8/4
f 390/8/4 368/8/4 391/8/4
f 392/2/4 393/2/4 395/2/4
f 393/3/4 394/3/4 396/3/4
f 395/2/4 393/2/4 396/2/4
f 396/3/4 394/3/4 397/3/4
f 398/1/4 399/1/4 402/1/4
f 400/1/4 401/1/4 402/1/4
f 399/1/4 400/1/4 402/1/4
f 402/1/4 401/1/4 403/1/4
f 406/3/4 407/3/4 410/3/4
f 407/2/4 408/2/4 411/2/4
f 410/3/4 407/3/4 411/3/4
f 408/3/4 409/3/4 412/3/4
f 411/2/4 408/2/4 412/2/4
f 412/3/4 409/3/4 413/3/4
f 413/3/4 409/3/4 414/3/4
f 404/8/4 405/8/4 418/8/4
f 415/7/4 416/7/4 419/7/4
f 419/7/4 416/7/4 420/7/4
f 417/7/4 418/7/4 421/7/4
f 418/8/4 405/8/4 422/8/4
f 421/7/4 418/7/4 422/7/4
f 422/8/4 405/8/4 423/8/4
f 423/8/4 405/8/4 424/8/4
f 425/2/4 426/2/4 427/2/4
f 427/2/4 426/2/4 428/2/4
f 425/2/4 427/2/4 431/2/4
f 431/2/4 427/2/4 432/2/4
f 429/7/4 430/7/4 435/7/4
f 435/7/4 430/7/4 436/7/4
f 433/7/4 434/7/4 437/7/4
f 437/7/4 434/7/4 438/7/4
f 439/5/4 440/5/4 442/5/4
f 442/5/4 440/5/4 443/5/4
f 441/7/4 442/7/4 445/7/4
f 443/7/4 444/7/4 445/7/4
f 442/7/4 443/7/4 445/7/4
f 445/7/4 444/7/4 446/7/4
f 449/8/5 448/8/5 447/8/5
f 450/8/5 448/8/5 449/8/5
f 453/8/5 452/8/5 451/8/5
f 454/8/5 452/8/5 453/8/5
f 457/2/5 456/2/5 455/2/5
f 458/2/5 456/2/5 457/2/5
f 459/2/5 457/2/5 455/2/5
f 460/2/5 456/2/5 458/2/5
f 461/2/5 459/2/5 455/2/5
f 461/2/5 460/2/5 459/2/5
f 462/2/5 456/2/5 460/2/5
f 462/2/5 460/2/5 461/2/5
f 465/2/5 464/2/5 463/2/5
f 466/2/5 464/2/5 465/2/5
f 467/2/5 465/2/5 463/2/5
f 468/2/5 464/2/5 466/2/5
f 469/2/5 467/2/5 463/2/5
f 469/2/5 468/2/5 467/2/5
f 470/2/5 464/2/5 468/2/5
f 470/2/5 468/2/5 469/2/5
f 473/7/5 472/7/5 471/7/5
f 474/7/5 472/7/5 473/7/5
f 477/7/5 476/7/5 475/7/5
f 478/7/5 476/7/5 477/7/5
f 483/4/5 480/4/5 479/4/5
f 484/4/5 482/4/5 481/4/5
f 485/4/5 483/4/5 479/4/5
f 485/2/5 484/2/5 483/2/5
f 486/4/5 482/4/5 484/4/5
f 486/2/5 484/2/5 485/2/5
f 487/4/5 485/4/5 479/4/5
f 488/4/5 485/4/5 487/4/5
f 489/4/5 482/4/5 486/4/5
f 490/4/5 482/4/5 489/4/5
f 493/7/5 492/7/5 491/7/5
f 494/7/5 492/7/5 493/7/5
f 498/2/5 496/2/5 495/2/5
f 498/3/5 497/3/5 496/3/5
f 499/3/5 497/3/5 498/3/5
f 501/2/5 498/2/5 495/2/5
f 501/2/5 500/2/5 499/2/5
f 501/2/5 499/2/5 498/2/5
f 502/2/5 500/2/5 501/2/5
f 503/2/5 500/2/5 502/2/5
f 504/2/5 500/2/5 503/2/5
f 507/2/5 506/2/5 505/2/5
f 508/2/5 506/2/5 507/2/5
f 509/2/5 506/2/5 508/2/5
f 511/3/5 508/3/5 507/3/5
f 512/2/5 510/2/5 509/2/5
f 512/3/5 508/3/5 511/3/5
f 512/2/5 509/2/5 508/2/5
f 513/2/5 510/2/5 512/2/5
f 514/2/5 510/2/5 513/2/5
f 517/5/5 516/5/5 515/5/5
f 518/5/5 516/5/5 517/5/5
f 521/5/5 520/5/5 519/5/5
f 522/5/5 520/5/5 521/5/5
f 527/1/5 524/1/5 523/1/5
f 528/1/5 524/1/5 527/1/5
f 529/1/5 524/1/5 528/1/5
f 530/1/5 526/1/5 525/1/5
f 531/1/5 526/1/5 530/1/5
f 532/1/5 526/1/5 531/1/5
f 535/7/5 534/7/5 533/7/5
f 536/7/5 534/7/5 535/7/5
f 539/7/5 538/7/5 537/7/5
f 540/7/5 538/7/5 539/7/5
f 543/8/5 542/8/5 541/8/5
f 544/8/5 542/8/5 543/8/5
f 545/8/5 543/8/5 541/8/5
f 548/8/5 542/8/5 544/8/5
f 549/8/5 546/8/5 545/8/5
f 550/8/5 548/8/5 547/8/5
f 551/8/5 549/8/5 545/8/5
f 552/8/5 548/8/5 550/8/5
f 553/8/5 551/8/5 545/8/5
f 554/8/5 548/8/5 552/8/5
f 555/8/5 542/8/5 548/8/5
f 555/8/5 548/8/5 554/8/5
f 556/8/5 553/8/5 545/8/5
f 556/8/5 545/8/5 541/8/5
f 556/8/5 554/8/5 553/8/5
f 557/8/5 554/8/5 556/8/5
f 558/8/5 542/8/5 555/8/5
f 559/8/5 542/8/5 558/8/5
f 560/8/6 561/8/6 562/8/6
f 562/8/6 561/8/6 563/8/6
f 564/8/6 565/8/6 566/8/6
f 566/8/6 565/8/6 567/8/6
f 568/7/6 569/7/6 570/7/6
f 570/7/6 569/7/6 571/7/6
f 572/3/6 573/3/6 574/3/6
f 574/3/6 573/3/6 575/3/6
f 576/3/6 577/3/6 578/3/6
f 578/3/6 577/3/6 579/3/6
f 580/7/6 581/7/6 582/7/6
f 582/7/6 581/7/6 583/7/6
f 584/2/6 585/2/6 586/2/6
f 584/2/6 586/2/6 588/2/6
f 586/2/6 587/2/6 588/2/6
f 588/2/6 587/2/6 589/2/6
f 589/2/6 587/2/6 590/2/6
f 590/2/6 587/2/6 591/2/6
f 590/5/6 591/5/6 592/5/6
f 592/5/6 591/5/6 593/5/6
f 594/2/6 595/2/6 597/2/6
f 596/2/6 597/2/6 598/2/6
f 597/2/6 595/2/6 599/2/6
f 598/2/6 597/2/6 599/2/6
f 599/2/6 595/2/6 600/2/6
f 599/5/6 600/5/6 601/5/6
f 601/5/6 600/5/6 602/5/6
f 603/3/6 604/3/6 605/3/6
f 605/3/6 604/3/6 606/3/6
f 607/3/6 608/3/6 609/3/6
f 609/3/6 608/3/6 610/3/6
f 611/7/6 612/7/6 613/7/6
f 613/7/6 612/7/6 614/7/6
f 615/7/6 616/7/6 617/7/6
f 617/7/6 616/7/6 618/7/6
f 619/8/6 620/8/6 621/8/6
f 621/8/6 620/8/6 622/8/6
f 619/8/6 621/8/6 623/8/6
f 622/8/6 620/8/6 624/8/6
f 619/8/6 623/8/6 625/8/6
f 623/8/6 624/8/6 625/8/6
f 624/8/6 620/8/6 626/8/6
f 625/8/6 624/8/6 626/8/6
f 627/8/6 628/8/6 629/8/6
f 629/8/6 628/8/6 630/8/6
f 627/8/6 629/8/6 631/8/6
f 630/8/6 628/8/6 632/8/6
f 627/8/6 631/8/6 633/8/6
f 631/8/6 632/8/6 633/8/6
f 632/8/6 628/8/6 634/8/6
f 633/8/6 632/8/6 634/8/6
f 635/8/6 636/8/6 637/8/6
f 637/8/6 636/8/6 638/8/6
