# MagicaVoxel @ Ephtracy

# group
o 

# material
mtllib kabe.mtl
usemtl palette

# normals
vn -1 0 0
vn 1 0 0
vn 0 0 1
vn 0 0 -1
vn 0 -1 0
vn 0 1 0

# texcoords
vt 0.00585938 0.5
vt 0.810547 0.5
vt 0.990234 0.5

# verts
v -0.8 0 0.2
v -0.8 0 0.1
v -0.8 0 0
v -0.8 0 -0.1
v -0.8 0 -0.2
v -0.8 0.1 0.2
v -0.8 0.1 0.1
v -0.8 0.1 0
v -0.8 0.1 -0.1
v -0.8 0.1 -0.2
v -0.8 0.2 0.2
v -0.8 0.2 0.1
v -0.8 0.2 0
v -0.8 0.2 -0.1
v -0.8 0.2 -0.2
v -0.8 0.3 0.1
v -0.8 0.3 0
v -0.8 0.3 -0.1
v -0.8 0.3 -0.2
v -0.8 0.4 0.2
v -0.8 0.4 0
v -0.8 0.4 -0.1
v -0.8 0.4 -0.2
v -0.8 1.3 0.4
v -0.8 1.3 0.2
v -0.8 1.3 0.1
v -0.8 1.3 -0.1
v -0.8 1.3 -0.2
v -0.8 1.3 -0.4
v -0.8 1.4 0.4
v -0.8 1.4 0.3
v -0.8 1.4 0.1
v -0.8 1.4 -0.1
v -0.8 1.4 -0.3
v -0.8 1.4 -0.4
v -0.8 1.5 0.3
v -0.8 1.5 0.1
v -0.8 1.5 -0.1
v -0.8 1.5 -0.3
v -0.8 1.6 0.1
v -0.8 1.6 -0.1
v 0.8 0 0.2
v 0.8 0 0.1
v 0.8 0 0
v 0.8 0 -0.1
v 0.8 0 -0.2
v 0.8 0.1 0.2
v 0.8 0.1 0.1
v 0.8 0.1 0
v 0.8 0.1 -0.1
v 0.8 0.2 0.2
v 0.8 0.2 0.1
v 0.8 0.2 0
v 0.8 0.2 -0.1
v 0.8 0.3 0.2
v 0.8 0.3 0.1
v 0.8 0.3 0
v 0.8 0.3 -0.1
v 0.8 0.3 -0.2
v 0.8 0.4 0.2
v 0.8 0.4 -0.1
v 0.8 1.3 0.4
v 0.8 1.3 0.2
v 0.8 1.3 0.1
v 0.8 1.3 -0.1
v 0.8 1.3 -0.2
v 0.8 1.3 -0.4
v 0.8 1.4 0.4
v 0.8 1.4 0.3
v 0.8 1.4 0.1
v 0.8 1.4 -0.1
v 0.8 1.4 -0.3
v 0.8 1.4 -0.4
v 0.8 1.5 0.3
v 0.8 1.5 0.1
v 0.8 1.5 -0.1
v 0.8 1.5 -0.3
v 0.8 1.6 0.1
v 0.8 1.6 -0.1
v -0.8 1.3 0.4
v -0.8 1.4 0.4
v 0.8 1.3 0.4
v 0.8 1.4 0.4
v -0.8 1.4 0.3
v -0.8 1.5 0.3
v 0.8 1.4 0.3
v 0.8 1.5 0.3
v -0.8 0 0.2
v -0.8 0.1 0.2
v -0.8 0.2 0.2
v -0.8 0.4 0.2
v -0.8 1.3 0.2
v -0.7 0 0.2
v -0.7 0.1 0.2
v -0.7 0.2 0.2
v -0.7 0.3 0.2
v -0.6 0 0.2
v -0.6 0.1 0.2
v -0.6 0.2 0.2
v -0.6 0.3 0.2
v -0.6 0.4 0.2
v -0.5 0 0.2
v -0.5 0.1 0.2
v -0.5 0.2 0.2
v -0.5 0.3 0.2
v -0.5 0.4 0.2
v -0.4 0 0.2
v -0.4 0.1 0.2
v -0.4 0.2 0.2
v -0.4 0.3 0.2
v -0.3 0 0.2
v -0.3 0.1 0.2
v -0.3 0.2 0.2
v -0.3 0.3 0.2
v -0.2 0 0.2
v -0.2 0.1 0.2
v -0.2 0.2 0.2
v -0.2 0.3 0.2
v -0.2 0.4 0.2
v -0.1 0 0.2
v -0.1 0.1 0.2
v -0.1 0.2 0.2
v -0.1 0.3 0.2
v -0.1 0.4 0.2
v 0 0 0.2
v 0 0.1 0.2
v 0 0.2 0.2
v 0 0.3 0.2
v 0.1 0 0.2
v 0.1 0.1 0.2
v 0.1 0.2 0.2
v 0.1 0.3 0.2
v 0.2 0 0.2
v 0.2 0.1 0.2
v 0.2 0.2 0.2
v 0.2 0.3 0.2
v 0.2 0.4 0.2
v 0.3 0 0.2
v 0.3 0.1 0.2
v 0.3 0.2 0.2
v 0.3 0.3 0.2
v 0.3 0.4 0.2
v 0.4 0 0.2
v 0.4 0.1 0.2
v 0.4 0.2 0.2
v 0.4 0.3 0.2
v 0.5 0 0.2
v 0.5 0.1 0.2
v 0.5 0.2 0.2
v 0.5 0.3 0.2
v 0.6 0 0.2
v 0.6 0.1 0.2
v 0.6 0.2 0.2
v 0.6 0.3 0.2
v 0.6 0.4 0.2
v 0.7 0 0.2
v 0.7 0.1 0.2
v 0.7 0.2 0.2
v 0.7 0.3 0.2
v 0.7 0.4 0.2
v 0.8 0 0.2
v 0.8 0.1 0.2
v 0.8 0.2 0.2
v 0.8 0.3 0.2
v 0.8 0.4 0.2
v 0.8 1.3 0.2
v -0.8 1.5 0.1
v -0.8 1.6 0.1
v 0.8 1.5 0.1
v 0.8 1.6 0.1
v -0.8 1.5 -0.1
v -0.8 1.6 -0.1
v 0.8 1.5 -0.1
v 0.8 1.6 -0.1
v -0.8 0 -0.2
v -0.8 0.1 -0.2
v -0.8 0.2 -0.2
v -0.8 0.3 -0.2
v -0.8 0.4 -0.2
v -0.8 1.3 -0.2
v -0.7 0 -0.2
v -0.7 0.1 -0.2
v -0.7 0.2 -0.2
v -0.7 0.3 -0.2
v -0.6 0 -0.2
v -0.6 0.1 -0.2
v -0.6 0.2 -0.2
v -0.6 0.3 -0.2
v -0.5 0 -0.2
v -0.5 0.1 -0.2
v -0.5 0.2 -0.2
v -0.5 0.3 -0.2
v -0.5 0.4 -0.2
v -0.4 0 -0.2
v -0.4 0.1 -0.2
v -0.4 0.2 -0.2
v -0.4 0.3 -0.2
v -0.4 0.4 -0.2
v -0.3 0 -0.2
v -0.3 0.1 -0.2
v -0.3 0.2 -0.2
v -0.3 0.3 -0.2
v -0.2 0 -0.2
v -0.2 0.1 -0.2
v -0.2 0.2 -0.2
v -0.2 0.3 -0.2
v -0.1 0 -0.2
v -0.1 0.1 -0.2
v -0.1 0.2 -0.2
v -0.1 0.3 -0.2
v -0.1 0.4 -0.2
v 0 0 -0.2
v 0 0.1 -0.2
v 0 0.2 -0.2
v 0 0.3 -0.2
v 0 0.4 -0.2
v 0.1 0 -0.2
v 0.1 0.1 -0.2
v 0.1 0.2 -0.2
v 0.1 0.3 -0.2
v 0.2 0 -0.2
v 0.2 0.1 -0.2
v 0.2 0.2 -0.2
v 0.2 0.3 -0.2
v 0.3 0 -0.2
v 0.3 0.1 -0.2
v 0.3 0.2 -0.2
v 0.3 0.3 -0.2
v 0.3 0.4 -0.2
v 0.4 0 -0.2
v 0.4 0.1 -0.2
v 0.4 0.2 -0.2
v 0.4 0.3 -0.2
v 0.4 0.4 -0.2
v 0.5 0 -0.2
v 0.5 0.1 -0.2
v 0.5 0.2 -0.2
v 0.5 0.3 -0.2
v 0.6 0 -0.2
v 0.6 0.1 -0.2
v 0.6 0.2 -0.2
v 0.6 0.3 -0.2
v 0.7 0 -0.2
v 0.7 0.1 -0.2
v 0.7 0.2 -0.2
v 0.7 0.3 -0.2
v 0.7 0.4 -0.2
v 0.8 0 -0.2
v 0.8 0.3 -0.2
v 0.8 1.3 -0.2
v -0.8 1.4 -0.3
v -0.8 1.5 -0.3
v 0.8 1.4 -0.3
v 0.8 1.5 -0.3
v -0.8 1.3 -0.4
v -0.8 1.4 -0.4
v 0.8 1.3 -0.4
v 0.8 1.4 -0.4
v -0.8 0 0.2
v -0.7 0 0.2
v -0.6 0 0.2
v -0.5 0 0.2
v -0.4 0 0.2
v -0.3 0 0.2
v -0.2 0 0.2
v -0.1 0 0.2
v 0 0 0.2
v 0.1 0 0.2
v 0.2 0 0.2
v 0.3 0 0.2
v 0.4 0 0.2
v 0.5 0 0.2
v 0.6 0 0.2
v 0.7 0 0.2
v 0.8 0 0.2
v -0.8 0 0.1
v -0.7 0 0.1
v -0.6 0 0.1
v -0.5 0 0.1
v -0.4 0 0.1
v -0.3 0 0.1
v -0.2 0 0.1
v -0.1 0 0.1
v 0 0 0.1
v 0.1 0 0.1
v 0.2 0 0.1
v 0.3 0 0.1
v 0.4 0 0.1
v 0.5 0 0.1
v 0.6 0 0.1
v 0.7 0 0.1
v 0.8 0 0.1
v -0.8 0 0
v -0.7 0 0
v 0.7 0 0
v 0.8 0 0
v -0.8 0 -0.1
v -0.7 0 -0.1
v -0.6 0 -0.1
v -0.5 0 -0.1
v -0.4 0 -0.1
v -0.3 0 -0.1
v -0.2 0 -0.1
v -0.1 0 -0.1
v 0 0 -0.1
v 0.1 0 -0.1
v 0.2 0 -0.1
v 0.3 0 -0.1
v 0.4 0 -0.1
v 0.5 0 -0.1
v 0.6 0 -0.1
v 0.7 0 -0.1
v 0.8 0 -0.1
v -0.8 0 -0.2
v -0.7 0 -0.2
v -0.6 0 -0.2
v -0.5 0 -0.2
v -0.4 0 -0.2
v -0.3 0 -0.2
v -0.2 0 -0.2
v -0.1 0 -0.2
v 0 0 -0.2
v 0.1 0 -0.2
v 0.2 0 -0.2
v 0.3 0 -0.2
v 0.4 0 -0.2
v 0.5 0 -0.2
v 0.6 0 -0.2
v 0.7 0 -0.2
v 0.8 0 -0.2
v -0.8 1.3 0.4
v 0.8 1.3 0.4
v -0.8 1.3 0.2
v 0.8 1.3 0.2
v -0.8 1.3 -0.2
v 0.8 1.3 -0.2
v -0.8 1.3 -0.4
v 0.8 1.3 -0.4
v -0.8 1.4 0.4
v 0.8 1.4 0.4
v -0.8 1.4 0.3
v 0.8 1.4 0.3
v -0.8 1.4 -0.3
v 0.8 1.4 -0.3
v -0.8 1.4 -0.4
v 0.8 1.4 -0.4
v -0.8 1.5 0.3
v 0.8 1.5 0.3
v -0.8 1.5 0.1
v 0.8 1.5 0.1
v -0.8 1.5 -0.1
v 0.8 1.5 -0.1
v -0.8 1.5 -0.3
v 0.8 1.5 -0.3
v -0.8 1.6 0.1
v 0.8 1.6 0.1
v -0.8 1.6 -0.1
v 0.8 1.6 -0.1

# faces
f 6/2/1 2/2/1 1/2/1
f 7/1/1 3/1/1 2/1/1
f 7/2/1 2/2/1 6/2/1
f 8/2/1 4/2/1 3/2/1
f 8/1/1 3/1/1 7/1/1
f 9/1/1 5/1/1 4/1/1
f 9/2/1 4/2/1 8/2/1
f 10/1/1 5/1/1 9/1/1
f 11/1/1 7/1/1 6/1/1
f 12/2/1 8/2/1 7/2/1
f 12/1/1 7/1/1 11/1/1
f 12/2/1 9/2/1 8/2/1
f 12/2/1 10/2/1 9/2/1
f 13/2/1 10/2/1 12/2/1
f 14/2/1 10/2/1 13/2/1
f 15/2/1 10/2/1 14/2/1
f 16/2/1 12/2/1 11/2/1
f 16/1/1 13/1/1 12/1/1
f 17/2/1 14/2/1 13/2/1
f 17/1/1 13/1/1 16/1/1
f 18/1/1 15/1/1 14/1/1
f 18/2/1 14/2/1 17/2/1
f 19/1/1 15/1/1 18/1/1
f 20/2/1 17/2/1 16/2/1
f 20/2/1 16/2/1 11/2/1
f 21/1/1 18/1/1 17/1/1
f 21/2/1 17/2/1 20/2/1
f 22/2/1 19/2/1 18/2/1
f 22/1/1 18/1/1 21/1/1
f 23/2/1 19/2/1 22/2/1
f 25/1/1 21/1/1 20/1/1
f 25/1/1 22/1/1 21/1/1
f 25/1/1 23/1/1 22/1/1
f 26/1/1 23/1/1 25/1/1
f 27/1/1 23/1/1 26/1/1
f 28/1/1 23/1/1 27/1/1
f 30/3/1 26/3/1 25/3/1
f 30/3/1 25/3/1 24/3/1
f 31/3/1 26/3/1 30/3/1
f 32/1/1 27/1/1 26/1/1
f 32/3/1 26/3/1 31/3/1
f 33/3/1 28/3/1 27/3/1
f 33/1/1 27/1/1 32/1/1
f 33/3/1 29/3/1 28/3/1
f 34/3/1 29/3/1 33/3/1
f 35/3/1 29/3/1 34/3/1
f 36/3/1 32/3/1 31/3/1
f 36/3/1 34/3/1 33/3/1
f 36/3/1 33/3/1 32/3/1
f 37/3/1 34/3/1 36/3/1
f 38/3/1 34/3/1 37/3/1
f 39/3/1 34/3/1 38/3/1
f 40/3/1 38/3/1 37/3/1
f 41/3/1 38/3/1 40/3/1
f 42/1/2 43/1/2 47/1/2
f 43/2/2 44/2/2 48/2/2
f 47/1/2 43/1/2 48/1/2
f 44/1/2 45/1/2 49/1/2
f 48/2/2 44/2/2 49/2/2
f 45/2/2 46/2/2 50/2/2
f 49/1/2 45/1/2 50/1/2
f 47/2/2 48/2/2 51/2/2
f 48/1/2 49/1/2 52/1/2
f 51/2/2 48/2/2 52/2/2
f 49/2/2 50/2/2 53/2/2
f 52/1/2 49/1/2 53/1/2
f 50/2/2 46/2/2 54/2/2
f 53/2/2 50/2/2 54/2/2
f 51/1/2 52/1/2 55/1/2
f 52/2/2 53/2/2 56/2/2
f 55/1/2 52/1/2 56/1/2
f 53/1/2 54/1/2 57/1/2
f 56/2/2 53/2/2 57/2/2
f 54/2/2 46/2/2 58/2/2
f 57/1/2 54/1/2 58/1/2
f 58/2/2 46/2/2 59/2/2
f 56/2/2 57/2/2 60/2/2
f 55/2/2 56/2/2 60/2/2
f 57/2/2 58/2/2 60/2/2
f 58/1/2 59/1/2 61/1/2
f 60/2/2 58/2/2 61/2/2
f 60/1/2 61/1/2 63/1/2
f 63/1/2 61/1/2 64/1/2
f 61/1/2 59/1/2 65/1/2
f 64/1/2 61/1/2 65/1/2
f 65/1/2 59/1/2 66/1/2
f 63/3/2 64/3/2 68/3/2
f 62/3/2 63/3/2 68/3/2
f 68/3/2 64/3/2 69/3/2
f 64/1/2 65/1/2 70/1/2
f 69/3/2 64/3/2 70/3/2
f 65/3/2 66/3/2 71/3/2
f 70/1/2 65/1/2 71/1/2
f 66/3/2 67/3/2 71/3/2
f 71/3/2 67/3/2 72/3/2
f 72/3/2 67/3/2 73/3/2
f 69/3/2 70/3/2 74/3/2
f 71/3/2 72/3/2 74/3/2
f 70/3/2 71/3/2 74/3/2
f 74/3/2 72/3/2 75/3/2
f 75/3/2 72/3/2 76/3/2
f 76/3/2 72/3/2 77/3/2
f 75/3/2 76/3/2 78/3/2
f 78/3/2 76/3/2 79/3/2
f 82/3/3 81/3/3 80/3/3
f 83/3/3 81/3/3 82/3/3
f 86/3/3 85/3/3 84/3/3
f 87/3/3 85/3/3 86/3/3
f 93/2/3 89/2/3 88/2/3
f 94/1/3 90/1/3 89/1/3
f 94/2/3 89/2/3 93/2/3
f 95/2/3 91/2/3 90/2/3
f 95/1/3 90/1/3 94/1/3
f 96/2/3 91/2/3 95/2/3
f 97/1/3 94/1/3 93/1/3
f 98/2/3 95/2/3 94/2/3
f 98/1/3 94/1/3 97/1/3
f 99/1/3 96/1/3 95/1/3
f 99/2/3 95/2/3 98/2/3
f 100/2/3 91/2/3 96/2/3
f 100/1/3 96/1/3 99/1/3
f 101/1/3 92/1/3 91/1/3
f 101/2/3 91/2/3 100/2/3
f 102/2/3 100/2/3 99/2/3
f 102/2/3 99/2/3 98/2/3
f 102/2/3 98/2/3 97/2/3
f 103/2/3 100/2/3 102/2/3
f 104/2/3 100/2/3 103/2/3
f 105/1/3 101/1/3 100/1/3
f 105/2/3 100/2/3 104/2/3
f 106/1/3 92/1/3 101/1/3
f 106/1/3 101/1/3 105/1/3
f 107/1/3 103/1/3 102/1/3
f 108/2/3 104/2/3 103/2/3
f 108/1/3 103/1/3 107/1/3
f 109/1/3 105/1/3 104/1/3
f 109/2/3 104/2/3 108/2/3
f 110/2/3 106/2/3 105/2/3
f 110/1/3 105/1/3 109/1/3
f 111/2/3 108/2/3 107/2/3
f 112/1/3 109/1/3 108/1/3
f 112/2/3 108/2/3 111/2/3
f 113/2/3 110/2/3 109/2/3
f 113/1/3 109/1/3 112/1/3
f 114/2/3 106/2/3 110/2/3
f 114/2/3 110/2/3 113/2/3
f 115/1/3 112/1/3 111/1/3
f 116/2/3 113/2/3 112/2/3
f 116/1/3 112/1/3 115/1/3
f 117/1/3 114/1/3 113/1/3
f 117/2/3 113/2/3 116/2/3
f 118/2/3 106/2/3 114/2/3
f 118/1/3 114/1/3 117/1/3
f 119/1/3 92/1/3 106/1/3
f 119/2/3 106/2/3 118/2/3
f 120/2/3 118/2/3 117/2/3
f 120/2/3 117/2/3 116/2/3
f 120/2/3 116/2/3 115/2/3
f 121/2/3 118/2/3 120/2/3
f 122/2/3 118/2/3 121/2/3
f 123/1/3 119/1/3 118/1/3
f 123/2/3 118/2/3 122/2/3
f 124/1/3 92/1/3 119/1/3
f 124/1/3 119/1/3 123/1/3
f 125/1/3 121/1/3 120/1/3
f 126/2/3 122/2/3 121/2/3
f 126/1/3 121/1/3 125/1/3
f 127/1/3 123/1/3 122/1/3
f 127/2/3 122/2/3 126/2/3
f 128/2/3 124/2/3 123/2/3
f 128/1/3 123/1/3 127/1/3
f 129/2/3 126/2/3 125/2/3
f 130/1/3 127/1/3 126/1/3
f 130/2/3 126/2/3 129/2/3
f 131/2/3 128/2/3 127/2/3
f 131/1/3 127/1/3 130/1/3
f 132/2/3 124/2/3 128/2/3
f 132/2/3 128/2/3 131/2/3
f 133/1/3 130/1/3 129/1/3
f 134/2/3 131/2/3 130/2/3
f 134/1/3 130/1/3 133/1/3
f 135/1/3 132/1/3 131/1/3
f 135/2/3 131/2/3 134/2/3
f 136/2/3 124/2/3 132/2/3
f 136/1/3 132/1/3 135/1/3
f 137/1/3 92/1/3 124/1/3
f 137/2/3 124/2/3 136/2/3
f 138/2/3 136/2/3 135/2/3
f 138/2/3 135/2/3 134/2/3
f 138/2/3 134/2/3 133/2/3
f 139/2/3 136/2/3 138/2/3
f 140/2/3 136/2/3 139/2/3
f 141/1/3 137/1/3 136/1/3
f 141/2/3 136/2/3 140/2/3
f 142/1/3 92/1/3 137/1/3
f 142/1/3 137/1/3 141/1/3
f 143/1/3 139/1/3 138/1/3
f 144/2/3 140/2/3 139/2/3
f 144/1/3 139/1/3 143/1/3
f 145/1/3 141/1/3 140/1/3
f 145/2/3 140/2/3 144/2/3
f 146/2/3 142/2/3 141/2/3
f 146/1/3 141/1/3 145/1/3
f 147/2/3 144/2/3 143/2/3
f 148/1/3 145/1/3 144/1/3
f 148/2/3 144/2/3 147/2/3
f 149/2/3 146/2/3 145/2/3
f 149/1/3 145/1/3 148/1/3
f 150/2/3 142/2/3 146/2/3
f 150/2/3 146/2/3 149/2/3
f 151/1/3 148/1/3 147/1/3
f 152/2/3 149/2/3 148/2/3
f 152/1/3 148/1/3 151/1/3
f 153/1/3 150/1/3 149/1/3
f 153/2/3 149/2/3 152/2/3
f 154/2/3 142/2/3 150/2/3
f 154/1/3 150/1/3 153/1/3
f 155/1/3 92/1/3 142/1/3
f 155/2/3 142/2/3 154/2/3
f 156/2/3 154/2/3 153/2/3
f 156/2/3 153/2/3 152/2/3
f 156/2/3 152/2/3 151/2/3
f 157/2/3 154/2/3 156/2/3
f 158/2/3 154/2/3 157/2/3
f 159/1/3 155/1/3 154/1/3
f 159/2/3 154/2/3 158/2/3
f 160/1/3 92/1/3 155/1/3
f 160/1/3 155/1/3 159/1/3
f 161/1/3 157/1/3 156/1/3
f 162/2/3 158/2/3 157/2/3
f 162/1/3 157/1/3 161/1/3
f 163/1/3 159/1/3 158/1/3
f 163/2/3 158/2/3 162/2/3
f 164/2/3 160/2/3 159/2/3
f 164/1/3 159/1/3 163/1/3
f 165/1/3 92/1/3 160/1/3
f 165/2/3 160/2/3 164/2/3
f 166/1/3 92/1/3 165/1/3
f 169/3/3 168/3/3 167/3/3
f 170/3/3 168/3/3 169/3/3
f 171/3/4 172/3/4 173/3/4
f 173/3/4 172/3/4 174/3/4
f 175/1/4 176/1/4 181/1/4
f 176/2/4 177/2/4 182/2/4
f 181/1/4 176/1/4 182/1/4
f 177/1/4 178/1/4 183/1/4
f 182/2/4 177/2/4 183/2/4
f 178/2/4 179/2/4 184/2/4
f 183/1/4 178/1/4 184/1/4
f 181/2/4 182/2/4 185/2/4
f 182/1/4 183/1/4 186/1/4
f 185/2/4 182/2/4 186/2/4
f 183/2/4 184/2/4 187/2/4
f 186/1/4 183/1/4 187/1/4
f 184/2/4 179/2/4 188/2/4
f 187/2/4 184/2/4 188/2/4
f 185/1/4 186/1/4 189/1/4
f 186/2/4 187/2/4 190/2/4
f 189/1/4 186/1/4 190/1/4
f 187/1/4 188/1/4 191/1/4
f 190/2/4 187/2/4 191/2/4
f 188/2/4 179/2/4 192/2/4
f 191/1/4 188/1/4 192/1/4
f 179/1/4 180/1/4 193/1/4
f 192/2/4 179/2/4 193/2/4
f 191/2/4 192/2/4 194/2/4
f 190/2/4 191/2/4 194/2/4
f 189/2/4 190/2/4 194/2/4
f 194/2/4 192/2/4 195/2/4
f 195/2/4 192/2/4 196/2/4
f 192/1/4 193/1/4 197/1/4
f 196/2/4 192/2/4 197/2/4
f 193/1/4 180/1/4 198/1/4
f 197/1/4 193/1/4 198/1/4
f 194/1/4 195/1/4 199/1/4
f 195/2/4 196/2/4 200/2/4
f 199/1/4 195/1/4 200/1/4
f 196/1/4 197/1/4 201/1/4
f 200/2/4 196/2/4 201/2/4
f 197/2/4 198/2/4 202/2/4
f 201/1/4 197/1/4 202/1/4
f 199/2/4 200/2/4 203/2/4
f 200/1/4 201/1/4 204/1/4
f 203/2/4 200/2/4 204/2/4
f 201/2/4 202/2/4 205/2/4
f 204/1/4 201/1/4 205/1/4
f 202/2/4 198/2/4 206/2/4
f 205/2/4 202/2/4 206/2/4
f 203/1/4 204/1/4 207/1/4
f 204/2/4 205/2/4 208/2/4
f 207/1/4 204/1/4 208/1/4
f 205/1/4 206/1/4 209/1/4
f 208/2/4 205/2/4 209/2/4
f 206/2/4 198/2/4 210/2/4
f 209/1/4 206/1/4 210/1/4
f 198/1/4 180/1/4 211/1/4
f 210/2/4 198/2/4 211/2/4
f 209/2/4 210/2/4 212/2/4
f 208/2/4 209/2/4 212/2/4
f 207/2/4 208/2/4 212/2/4
f 212/2/4 210/2/4 213/2/4
f 213/2/4 210/2/4 214/2/4
f 210/1/4 211/1/4 215/1/4
f 214/2/4 210/2/4 215/2/4
f 211/1/4 180/1/4 216/1/4
f 215/1/4 211/1/4 216/1/4
f 212/1/4 213/1/4 217/1/4
f 213/2/4 214/2/4 218/2/4
f 217/1/4 213/1/4 218/1/4
f 214/1/4 215/1/4 219/1/4
f 218/2/4 214/2/4 219/2/4
f 215/2/4 216/2/4 220/2/4
f 219/1/4 215/1/4 220/1/4
f 217/2/4 218/2/4 221/2/4
f 218/1/4 219/1/4 222/1/4
f 221/2/4 218/2/4 222/2/4
f 219/2/4 220/2/4 223/2/4
f 222/1/4 219/1/4 223/1/4
f 220/2/4 216/2/4 224/2/4
f 223/2/4 220/2/4 224/2/4
f 221/1/4 222/1/4 225/1/4
f 222/2/4 223/2/4 226/2/4
f 225/1/4 222/1/4 226/1/4
f 223/1/4 224/1/4 227/1/4
f 226/2/4 223/2/4 227/2/4
f 224/2/4 216/2/4 228/2/4
f 227/1/4 224/1/4 228/1/4
f 216/1/4 180/1/4 229/1/4
f 228/2/4 216/2/4 229/2/4
f 227/2/4 228/2/4 230/2/4
f 226/2/4 227/2/4 230/2/4
f 225/2/4 226/2/4 230/2/4
f 230/2/4 228/2/4 231/2/4
f 231/2/4 228/2/4 232/2/4
f 228/1/4 229/1/4 233/1/4
f 232/2/4 228/2/4 233/2/4
f 229/1/4 180/1/4 234/1/4
f 233/1/4 229/1/4 234/1/4
f 230/1/4 231/1/4 235/1/4
f 231/2/4 232/2/4 236/2/4
f 235/1/4 231/1/4 236/1/4
f 232/1/4 233/1/4 237/1/4
f 236/2/4 232/2/4 237/2/4
f 233/2/4 234/2/4 238/2/4
f 237/1/4 233/1/4 238/1/4
f 235/2/4 236/2/4 239/2/4
f 236/1/4 237/1/4 240/1/4
f 239/2/4 236/2/4 240/2/4
f 237/2/4 238/2/4 241/2/4
f 240/1/4 237/1/4 241/1/4
f 238/2/4 234/2/4 242/2/4
f 241/2/4 238/2/4 242/2/4
f 239/1/4 240/1/4 243/1/4
f 240/2/4 241/2/4 244/2/4
f 243/1/4 240/1/4 244/1/4
f 241/1/4 242/1/4 245/1/4
f 244/2/4 241/2/4 245/2/4
f 242/2/4 234/2/4 246/2/4
f 245/1/4 242/1/4 246/1/4
f 234/1/4 180/1/4 247/1/4
f 246/2/4 234/2/4 247/2/4
f 245/2/4 246/2/4 248/2/4
f 244/2/4 245/2/4 248/2/4
f 243/2/4 244/2/4 248/2/4
f 246/1/4 247/1/4 249/1/4
f 248/2/4 246/2/4 249/2/4
f 247/1/4 180/1/4 250/1/4
f 249/1/4 247/1/4 250/1/4
f 251/3/4 252/3/4 253/3/4
f 253/3/4 252/3/4 254/3/4
f 255/3/4 256/3/4 257/3/4
f 257/3/4 256/3/4 258/3/4
f 276/2/5 260/2/5 259/2/5
f 277/1/5 261/1/5 260/1/5
f 277/2/5 260/2/5 276/2/5
f 278/2/5 262/2/5 261/2/5
f 278/1/5 261/1/5 277/1/5
f 279/1/5 263/1/5 262/1/5
f 279/2/5 262/2/5 278/2/5
f 280/2/5 264/2/5 263/2/5
f 280/1/5 263/1/5 279/1/5
f 281/1/5 265/1/5 264/1/5
f 281/2/5 264/2/5 280/2/5
f 282/2/5 266/2/5 265/2/5
f 282/1/5 265/1/5 281/1/5
f 283/1/5 267/1/5 266/1/5
f 283/2/5 266/2/5 282/2/5
f 284/2/5 268/2/5 267/2/5
f 284/1/5 267/1/5 283/1/5
f 285/1/5 269/1/5 268/1/5
f 285/2/5 268/2/5 284/2/5
f 286/2/5 270/2/5 269/2/5
f 286/1/5 269/1/5 285/1/5
f 287/1/5 271/1/5 270/1/5
f 287/2/5 270/2/5 286/2/5
f 288/2/5 272/2/5 271/2/5
f 288/1/5 271/1/5 287/1/5
f 289/1/5 273/1/5 272/1/5
f 289/2/5 272/2/5 288/2/5
f 290/2/5 274/2/5 273/2/5
f 290/1/5 273/1/5 289/1/5
f 291/1/5 275/1/5 274/1/5
f 291/2/5 274/2/5 290/2/5
f 292/1/5 275/1/5 291/1/5
f 293/1/5 290/1/5 289/1/5
f 293/1/5 277/1/5 276/1/5
f 293/1/5 278/1/5 277/1/5
f 293/1/5 291/1/5 290/1/5
f 293/1/5 289/1/5 288/1/5
f 293/1/5 288/1/5 287/1/5
f 293/1/5 287/1/5 286/1/5
f 293/1/5 286/1/5 285/1/5
f 293/1/5 285/1/5 284/1/5
f 293/1/5 284/1/5 283/1/5
f 293/1/5 283/1/5 282/1/5
f 293/1/5 282/1/5 281/1/5
f 293/1/5 281/1/5 280/1/5
f 293/1/5 280/1/5 279/1/5
f 293/1/5 279/1/5 278/1/5
f 294/1/5 291/1/5 293/1/5
f 295/2/5 292/2/5 291/2/5
f 295/1/5 291/1/5 294/1/5
f 296/2/5 292/2/5 295/2/5
f 297/2/5 294/2/5 293/2/5
f 298/1/5 295/1/5 294/1/5
f 298/2/5 294/2/5 297/2/5
f 298/1/5 296/1/5 295/1/5
f 299/1/5 296/1/5 298/1/5
f 300/1/5 296/1/5 299/1/5
f 301/1/5 296/1/5 300/1/5
f 302/1/5 296/1/5 301/1/5
f 303/1/5 296/1/5 302/1/5
f 304/1/5 296/1/5 303/1/5
f 305/1/5 296/1/5 304/1/5
f 306/1/5 296/1/5 305/1/5
f 307/1/5 296/1/5 306/1/5
f 308/1/5 296/1/5 307/1/5
f 309/1/5 296/1/5 308/1/5
f 310/1/5 296/1/5 309/1/5
f 311/1/5 296/1/5 310/1/5
f 312/1/5 296/1/5 311/1/5
f 313/1/5 296/1/5 312/1/5
f 314/1/5 298/1/5 297/1/5
f 315/2/5 299/2/5 298/2/5
f 315/1/5 298/1/5 314/1/5
f 316/1/5 300/1/5 299/1/5
f 316/2/5 299/2/5 315/2/5
f 317/2/5 301/2/5 300/2/5
f 317/1/5 300/1/5 316/1/5
f 318/1/5 302/1/5 301/1/5
f 318/2/5 301/2/5 317/2/5
f 319/2/5 303/2/5 302/2/5
f 319/1/5 302/1/5 318/1/5
f 320/1/5 304/1/5 303/1/5
f 320/2/5 303/2/5 319/2/5
f 321/2/5 305/2/5 304/2/5
f 321/1/5 304/1/5 320/1/5
f 322/1/5 306/1/5 305/1/5
f 322/2/5 305/2/5 321/2/5
f 323/2/5 307/2/5 306/2/5
f 323/1/5 306/1/5 322/1/5
f 324/1/5 308/1/5 307/1/5
f 324/2/5 307/2/5 323/2/5
f 325/2/5 309/2/5 308/2/5
f 325/1/5 308/1/5 324/1/5
f 326/1/5 310/1/5 309/1/5
f 326/2/5 309/2/5 325/2/5
f 327/2/5 311/2/5 310/2/5
f 327/1/5 310/1/5 326/1/5
f 328/1/5 312/1/5 311/1/5
f 328/2/5 311/2/5 327/2/5
f 329/2/5 313/2/5 312/2/5
f 329/1/5 312/1/5 328/1/5
f 330/2/5 313/2/5 329/2/5
f 333/3/5 332/3/5 331/3/5
f 334/3/5 332/3/5 333/3/5
f 337/3/5 336/3/5 335/3/5
f 338/3/5 336/3/5 337/3/5
f 339/3/6 340/3/6 341/3/6
f 341/3/6 340/3/6 342/3/6
f 343/3/6 344/3/6 345/3/6
f 345/3/6 344/3/6 346/3/6
f 347/3/6 348/3/6 349/3/6
f 349/3/6 348/3/6 350/3/6
f 351/3/6 352/3/6 353/3/6
f 353/3/6 352/3/6 354/3/6
f 355/3/6 356/3/6 357/3/6
f 357/3/6 356/3/6 358/3/6
