# MagicaVoxel @ Ephtracy

# group
o 

# material
mtllib bomb.mtl
usemtl palette

# normals
vn -1 0 0
vn 1 0 0
vn 0 0 1
vn 0 0 -1
vn 0 -1 0
vn 0 1 0

# texcoords
vt 0.845703 0.5
vt 0.970703 0.5
vt 0.974609 0.5
vt 0.978516 0.5
vt 0.990234 0.5

# verts
v -0.6 0.4 0.1
v -0.6 0.4 -0.2
v -0.6 0.5 0.2
v -0.6 0.5 0.1
v -0.6 0.5 -0.2
v -0.6 0.5 -0.3
v -0.6 0.8 0.2
v -0.6 0.8 0.1
v -0.6 0.8 -0.2
v -0.6 0.8 -0.3
v -0.6 0.9 0.1
v -0.6 0.9 -0.2
v -0.5 0.2 0.1
v -0.5 0.2 -0.2
v -0.5 0.3 0.2
v -0.5 0.3 0.1
v -0.5 0.3 -0.2
v -0.5 0.3 -0.3
v -0.5 0.4 0.3
v -0.5 0.4 0.2
v -0.5 0.4 0.1
v -0.5 0.4 -0.2
v -0.5 0.4 -0.3
v -0.5 0.4 -0.4
v -0.5 0.5 0.4
v -0.5 0.5 0.3
v -0.5 0.5 0.2
v -0.5 0.5 0.1
v -0.5 0.5 -0.2
v -0.5 0.5 -0.3
v -0.5 0.5 -0.4
v -0.5 0.5 -0.5
v -0.5 0.8 0.4
v -0.5 0.8 0.3
v -0.5 0.8 0.2
v -0.5 0.8 0.1
v -0.5 0.8 -0.2
v -0.5 0.8 -0.3
v -0.5 0.8 -0.4
v -0.5 0.8 -0.5
v -0.5 0.9 0.3
v -0.5 0.9 0.2
v -0.5 0.9 0.1
v -0.5 0.9 -0.2
v -0.5 0.9 -0.3
v -0.5 0.9 -0.4
v -0.5 1 0.2
v -0.5 1 0.1
v -0.5 1 -0.2
v -0.5 1 -0.3
v -0.5 1.1 0.1
v -0.5 1.1 -0.2
v -0.4 0.1 0.1
v -0.4 0.1 -0.2
v -0.4 0.2 0.3
v -0.4 0.2 0.1
v -0.4 0.2 -0.2
v -0.4 0.2 -0.4
v -0.4 0.3 0.4
v -0.4 0.3 0.3
v -0.4 0.3 0.2
v -0.4 0.3 0.1
v -0.4 0.3 -0.2
v -0.4 0.3 -0.3
v -0.4 0.3 -0.4
v -0.4 0.3 -0.5
v -0.4 0.4 0.3
v -0.4 0.4 0.2
v -0.4 0.4 -0.3
v -0.4 0.4 -0.4
v -0.4 0.5 0.5
v -0.4 0.5 0.4
v -0.4 0.5 0.3
v -0.4 0.5 -0.4
v -0.4 0.5 -0.5
v -0.4 0.5 -0.6
v -0.4 0.8 0.5
v -0.4 0.8 0.4
v -0.4 0.8 0.3
v -0.4 0.8 -0.4
v -0.4 0.8 -0.5
v -0.4 0.8 -0.6
v -0.4 0.9 0.3
v -0.4 0.9 0.2
v -0.4 0.9 -0.3
v -0.4 0.9 -0.4
v -0.4 1 0.4
v -0.4 1 0.3
v -0.4 1 0.2
v -0.4 1 0.1
v -0.4 1 -0.2
v -0.4 1 -0.3
v -0.4 1 -0.4
v -0.4 1 -0.5
v -0.4 1.1 0.3
v -0.4 1.1 0.2
v -0.4 1.1 0.1
v -0.4 1.1 -0.2
v -0.4 1.1 -0.4
v -0.4 1.2 0.3
v -0.4 1.2 0.2
v -0.4 1.2 0.1
v -0.4 1.2 0
v -0.4 1.2 -0.2
v -0.4 1.3 0.2
v -0.4 1.3 0
v -0.3 0.1 0.2
v -0.3 0.1 0.1
v -0.3 0.1 -0.2
v -0.3 0.1 -0.3
v -0.3 0.2 0.4
v -0.3 0.2 0.3
v -0.3 0.2 0.2
v -0.3 0.2 0.1
v -0.3 0.2 -0.2
v -0.3 0.2 -0.3
v -0.3 0.2 -0.4
v -0.3 0.2 -0.5
v -0.3 0.3 0.4
v -0.3 0.3 0.3
v -0.3 0.3 -0.4
v -0.3 0.3 -0.5
v -0.3 0.4 0.5
v -0.3 0.4 0.4
v -0.3 0.4 -0.5
v -0.3 0.4 -0.6
v -0.3 0.5 0.5
v -0.3 0.5 0.4
v -0.3 0.5 -0.5
v -0.3 0.5 -0.6
v -0.3 0.8 0.5
v -0.3 0.8 0.4
v -0.3 0.8 -0.5
v -0.3 0.8 -0.6
v -0.3 0.9 0.5
v -0.3 0.9 0.4
v -0.3 0.9 -0.5
v -0.3 0.9 -0.6
v -0.3 1 0.4
v -0.3 1 0.3
v -0.3 1 -0.4
v -0.3 1 -0.5
v -0.3 1.1 0.4
v -0.3 1.1 0.3
v -0.3 1.1 0.2
v -0.3 1.1 0.1
v -0.3 1.1 -0.2
v -0.3 1.1 -0.3
v -0.3 1.1 -0.4
v -0.3 1.1 -0.5
v -0.3 1.2 0.2
v -0.3 1.2 0.1
v -0.3 1.2 0
v -0.3 1.2 -0.1
v -0.3 1.2 -0.2
v -0.3 1.2 -0.3
v -0.3 1.3 0
v -0.3 1.3 -0.1
v -0.2 0 0.1
v -0.2 0 -0.2
v -0.2 0.1 0.3
v -0.2 0.1 0.2
v -0.2 0.1 0.1
v -0.2 0.1 -0.2
v -0.2 0.1 -0.3
v -0.2 0.1 -0.4
v -0.2 0.2 0.3
v -0.2 0.2 0.2
v -0.2 0.2 -0.3
v -0.2 0.2 -0.4
v -0.2 0.3 0.5
v -0.2 0.3 0.4
v -0.2 0.3 -0.5
v -0.2 0.3 -0.6
v -0.2 0.4 0.5
v -0.2 0.4 0.4
v -0.2 0.4 -0.5
v -0.2 0.4 -0.6
v -0.2 0.5 0.6
v -0.2 0.5 0.5
v -0.2 0.5 -0.6
v -0.2 0.5 -0.7
v -0.2 0.8 0.6
v -0.2 0.8 0.5
v -0.2 0.8 -0.6
v -0.2 0.8 -0.7
v -0.2 0.9 0.5
v -0.2 0.9 0.4
v -0.2 0.9 -0.5
v -0.2 0.9 -0.6
v -0.2 1 0.5
v -0.2 1 0.4
v -0.2 1 -0.5
v -0.2 1 -0.6
v -0.2 1.1 0.3
v -0.2 1.1 0.2
v -0.2 1.1 -0.3
v -0.2 1.1 -0.4
v -0.2 1.2 0.3
v -0.2 1.2 0.2
v -0.2 1.2 0.1
v -0.2 1.2 0
v -0.2 1.2 -0.1
v -0.2 1.2 -0.2
v -0.2 1.2 -0.3
v -0.2 1.2 -0.4
v -0.2 1.3 0.1
v -0.2 1.3 0
v -0.2 1.3 -0.1
v -0.2 1.3 -0.2
v -0.2 1.4 0
v -0.2 1.4 -0.1
v -0.1 0 0.2
v -0.1 0 0.1
v -0.1 0 -0.2
v -0.1 0 -0.3
v -0.1 0.1 0.4
v -0.1 0.1 0.3
v -0.1 0.1 0.2
v -0.1 0.1 0.1
v -0.1 0.1 -0.2
v -0.1 0.1 -0.3
v -0.1 0.1 -0.4
v -0.1 0.1 -0.5
v -0.1 0.2 0.5
v -0.1 0.2 0.4
v -0.1 0.2 0.3
v -0.1 0.2 -0.4
v -0.1 0.2 -0.5
v -0.1 0.2 -0.6
v -0.1 0.3 0.5
v -0.1 0.3 0.4
v -0.1 0.3 -0.5
v -0.1 0.3 -0.6
v -0.1 0.4 0.6
v -0.1 0.4 0.5
v -0.1 0.4 -0.6
v -0.1 0.4 -0.7
v -0.1 0.5 0.6
v -0.1 0.5 0.5
v -0.1 0.5 -0.6
v -0.1 0.5 -0.7
v -0.1 0.8 0.6
v -0.1 0.8 0.5
v -0.1 0.8 -0.6
v -0.1 0.8 -0.7
v -0.1 0.9 0.6
v -0.1 0.9 0.5
v -0.1 0.9 -0.6
v -0.1 0.9 -0.7
v -0.1 1 0.5
v -0.1 1 0.4
v -0.1 1 -0.5
v -0.1 1 -0.6
v -0.1 1.1 0.5
v -0.1 1.1 0.4
v -0.1 1.1 0.3
v -0.1 1.1 -0.4
v -0.1 1.1 -0.5
v -0.1 1.1 -0.6
v -0.1 1.2 0.4
v -0.1 1.2 0.3
v -0.1 1.2 0.2
v -0.1 1.2 0.1
v -0.1 1.2 -0.2
v -0.1 1.2 -0.3
v -0.1 1.2 -0.4
v -0.1 1.2 -0.5
v -0.1 1.3 0.2
v -0.1 1.3 0.1
v -0.1 1.3 -0.2
v -0.1 1.3 -0.3
v -0.1 1.4 0
v -0.1 1.4 -0.1
v -0.1 1.5 0
v -0.1 1.5 -0.1
v 0 1 0.4
v 0 1 0.3
v 0 1 -0.4
v 0 1 -0.5
v 0 1.1 0.4
v 0 1.1 0.3
v 0 1.1 0.2
v 0 1.1 0.1
v 0 1.1 -0.2
v 0 1.1 -0.3
v 0 1.1 -0.4
v 0 1.1 -0.5
v 0 1.2 0.2
v 0 1.2 0.1
v 0 1.2 -0.2
v 0 1.2 -0.3
v 0 1.3 0
v 0 1.3 -0.1
v 0 1.4 0
v 0 1.4 -0.1
v 0.2 0.1 0.1
v 0.2 0.1 -0.2
v 0.2 0.2 0.3
v 0.2 0.2 0.2
v 0.2 0.2 0.1
v 0.2 0.2 -0.2
v 0.2 0.2 -0.3
v 0.2 0.2 -0.4
v 0.2 0.3 0.3
v 0.2 0.3 0.2
v 0.2 0.3 -0.3
v 0.2 0.3 -0.4
v 0.2 0.3 -0.5
v 0.2 0.4 -0.4
v 0.2 0.4 -0.5
v 0.2 0.8 0.5
v 0.2 0.8 0.4
v 0.2 0.8 -0.5
v 0.2 0.8 -0.6
v 0.2 0.9 0.5
v 0.2 0.9 0.4
v 0.2 0.9 -0.5
v 0.2 0.9 -0.6
v 0.2 1 0.4
v 0.2 1 0.3
v 0.2 1 -0.4
v 0.2 1 -0.5
v 0.2 1.1 0.4
v 0.2 1.1 0.3
v 0.2 1.1 0.2
v 0.2 1.1 0.1
v 0.2 1.1 0
v 0.2 1.1 -0.1
v 0.2 1.1 -0.2
v 0.2 1.1 -0.3
v 0.2 1.1 -0.4
v 0.2 1.1 -0.5
v 0.2 1.2 0.2
v 0.2 1.2 0.1
v 0.2 1.2 0
v 0.2 1.2 -0.1
v 0.2 1.2 -0.2
v 0.2 1.2 -0.3
v 0.3 0.2 0.2
v 0.3 0.2 0.1
v 0.3 0.2 -0.2
v 0.3 0.2 -0.3
v 0.3 0.3 0.4
v 0.3 0.3 0.3
v 0.3 0.3 0.2
v 0.3 0.3 0.1
v 0.3 0.3 -0.2
v 0.3 0.3 -0.3
v 0.3 0.4 0.4
v 0.3 0.4 0.3
v 0.3 0.5 0.5
v 0.3 0.5 0.4
v 0.3 0.5 -0.5
v 0.3 0.5 -0.6
v 0.3 0.8 0.5
v 0.3 0.8 0.4
v 0.3 0.8 -0.5
v 0.3 0.8 -0.6
v 0.3 0.9 0.4
v 0.3 0.9 0.3
v 0.3 0.9 -0.4
v 0.3 0.9 -0.5
v 0.3 1 0.4
v 0.3 1 0.3
v 0.3 1 0.2
v 0.3 1 -0.3
v 0.3 1 -0.4
v 0.3 1 -0.5
v 0.3 1.1 0.3
v 0.3 1.1 0.2
v 0.3 1.1 0.1
v 0.3 1.1 0
v 0.3 1.1 -0.1
v 0.3 1.1 -0.2
v 0.3 1.1 -0.3
v 0.3 1.1 -0.4
v 0.3 1.2 0.1
v 0.3 1.2 0
v 0.3 1.2 -0.1
v 0.3 1.2 -0.2
v 0.4 0.2 0.1
v 0.4 0.2 -0.2
v 0.4 0.3 0.3
v 0.4 0.3 0.2
v 0.4 0.3 0.1
v 0.4 0.3 -0.2
v 0.4 0.3 -0.3
v 0.4 0.3 -0.4
v 0.4 0.4 0.4
v 0.4 0.4 0.3
v 0.4 0.4 0.2
v 0.4 0.4 0.1
v 0.4 0.4 -0.2
v 0.4 0.4 -0.3
v 0.4 0.4 -0.4
v 0.4 0.4 -0.5
v 0.4 0.5 0.4
v 0.4 0.5 0.3
v 0.4 0.5 -0.4
v 0.4 0.5 -0.5
v 0.4 0.7 0.4
v 0.4 0.7 0.3
v 0.4 0.7 -0.4
v 0.4 0.7 -0.5
v 0.4 0.8 0.4
v 0.4 0.8 0.3
v 0.4 0.8 -0.4
v 0.4 0.8 -0.5
v 0.4 0.9 0.4
v 0.4 0.9 0.3
v 0.4 0.9 0.2
v 0.4 0.9 -0.3
v 0.4 0.9 -0.4
v 0.4 0.9 -0.5
v 0.4 1 0.3
v 0.4 1 0.2
v 0.4 1 0.1
v 0.4 1 0
v 0.4 1 -0.1
v 0.4 1 -0.2
v 0.4 1 -0.3
v 0.4 1 -0.4
v 0.4 1.1 0.2
v 0.4 1.1 0.1
v 0.4 1.1 0
v 0.4 1.1 -0.1
v 0.4 1.1 -0.2
v 0.4 1.1 -0.3
v 0.5 0.3 0.1
v 0.5 0.3 -0.2
v 0.5 0.4 0.3
v 0.5 0.4 0.2
v 0.5 0.4 0.1
v 0.5 0.4 -0.2
v 0.5 0.4 -0.3
v 0.5 0.4 -0.4
v 0.5 0.5 0.4
v 0.5 0.5 0.3
v 0.5 0.5 0.2
v 0.5 0.5 0.1
v 0.5 0.5 -0.2
v 0.5 0.5 -0.3
v 0.5 0.5 -0.4
v 0.5 0.5 -0.5
v 0.5 0.7 0.4
v 0.5 0.7 0.3
v 0.5 0.7 -0.4
v 0.5 0.7 -0.5
v 0.5 0.8 0.3
v 0.5 0.8 0.2
v 0.5 0.8 0.1
v 0.5 0.8 -0.2
v 0.5 0.8 -0.3
v 0.5 0.8 -0.4
v 0.5 0.9 0.3
v 0.5 0.9 0.2
v 0.5 0.9 0.1
v 0.5 0.9 -0.2
v 0.5 0.9 -0.3
v 0.5 0.9 -0.4
v 0.5 1 0.2
v 0.5 1 0.1
v 0.5 1 0
v 0.5 1 -0.1
v 0.5 1 -0.2
v 0.5 1 -0.3
v 0.5 1.1 0.1
v 0.5 1.1 0
v 0.5 1.1 -0.1
v 0.5 1.1 -0.2
v 0.6 0.5 0.2
v 0.6 0.5 0.1
v 0.6 0.5 -0.2
v 0.6 0.5 -0.3
v 0.6 0.8 0.2
v 0.6 0.8 0.1
v 0.6 0.8 -0.2
v 0.6 0.8 -0.3
v 0.6 0.9 0.1
v 0.6 0.9 -0.2
v -0.5 0.5 0.2
v -0.5 0.5 0.1
v -0.5 0.5 -0.2
v -0.5 0.5 -0.3
v -0.5 0.8 0.2
v -0.5 0.8 0.1
v -0.5 0.8 -0.2
v -0.5 0.8 -0.3
v -0.5 0.9 0.1
v -0.5 0.9 -0.2
v -0.4 0.3 0.1
v -0.4 0.3 -0.2
v -0.4 0.4 0.3
v -0.4 0.4 0.2
v -0.4 0.4 0.1
v -0.4 0.4 -0.2
v -0.4 0.4 -0.3
v -0.4 0.4 -0.4
v -0.4 0.5 0.4
v -0.4 0.5 0.3
v -0.4 0.5 0.2
v -0.4 0.5 0.1
v -0.4 0.5 -0.2
v -0.4 0.5 -0.3
v -0.4 0.5 -0.4
v -0.4 0.5 -0.5
v -0.4 0.7 0.4
v -0.4 0.7 0.3
v -0.4 0.7 -0.4
v -0.4 0.7 -0.5
v -0.4 0.8 0.3
v -0.4 0.8 0.2
v -0.4 0.8 0.1
v -0.4 0.8 -0.2
v -0.4 0.8 -0.3
v -0.4 0.8 -0.4
v -0.4 0.9 0.3
v -0.4 0.9 0.2
v -0.4 0.9 0.1
v -0.4 0.9 -0.2
v -0.4 0.9 -0.3
v -0.4 0.9 -0.4
v -0.4 1 0.2
v -0.4 1 0.1
v -0.4 1 0
v -0.4 1 -0.1
v -0.4 1 -0.2
v -0.4 1 -0.3
v -0.4 1.1 0.1
v -0.4 1.1 0
v -0.4 1.1 -0.1
v -0.4 1.1 -0.2
v -0.3 0.2 0.1
v -0.3 0.2 -0.2
v -0.3 0.3 0.3
v -0.3 0.3 0.2
v -0.3 0.3 0.1
v -0.3 0.3 -0.2
v -0.3 0.3 -0.3
v -0.3 0.3 -0.4
v -0.3 0.4 0.4
v -0.3 0.4 0.3
v -0.3 0.4 0.2
v -0.3 0.4 0.1
v -0.3 0.4 -0.2
v -0.3 0.4 -0.3
v -0.3 0.4 -0.4
v -0.3 0.4 -0.5
v -0.3 0.5 0.4
v -0.3 0.5 0.3
v -0.3 0.5 -0.4
v -0.3 0.5 -0.5
v -0.3 0.7 0.4
v -0.3 0.7 0.3
v -0.3 0.7 -0.4
v -0.3 0.7 -0.5
v -0.3 0.8 0.4
v -0.3 0.8 0.3
v -0.3 0.8 -0.4
v -0.3 0.8 -0.5
v -0.3 0.9 0.4
v -0.3 0.9 0.3
v -0.3 0.9 0.2
v -0.3 0.9 -0.3
v -0.3 0.9 -0.4
v -0.3 0.9 -0.5
v -0.3 1 0.3
v -0.3 1 0.2
v -0.3 1 0.1
v -0.3 1 0
v -0.3 1 -0.1
v -0.3 1 -0.2
v -0.3 1 -0.3
v -0.3 1 -0.4
v -0.3 1.1 0.3
v -0.3 1.1 0.2
v -0.3 1.1 0.1
v -0.3 1.1 0
v -0.3 1.1 -0.1
v -0.3 1.1 -0.2
v -0.3 1.1 -0.3
v -0.3 1.2 0.3
v -0.3 1.2 0.2
v -0.3 1.2 0
v -0.3 1.3 0.2
v -0.3 1.3 0
v -0.2 0.2 0.2
v -0.2 0.2 0.1
v -0.2 0.2 -0.2
v -0.2 0.2 -0.3
v -0.2 0.3 0.2
v -0.2 0.3 0.1
v -0.2 0.3 -0.2
v -0.2 0.3 -0.3
v -0.2 0.5 0.5
v -0.2 0.5 0.4
v -0.2 0.5 -0.5
v -0.2 0.5 -0.6
v -0.2 0.8 0.5
v -0.2 0.8 0.4
v -0.2 0.8 -0.5
v -0.2 0.8 -0.6
v -0.2 0.9 0.4
v -0.2 0.9 0.3
v -0.2 0.9 -0.4
v -0.2 0.9 -0.5
v -0.2 1 0.4
v -0.2 1 0.3
v -0.2 1 0.2
v -0.2 1 -0.3
v -0.2 1 -0.4
v -0.2 1 -0.5
v -0.2 1.1 0.3
v -0.2 1.1 0.2
v -0.2 1.1 0.1
v -0.2 1.1 0
v -0.2 1.1 -0.1
v -0.2 1.1 -0.2
v -0.2 1.1 -0.3
v -0.2 1.1 -0.4
v -0.2 1.2 0.1
v -0.2 1.2 0
v -0.2 1.2 -0.1
v -0.2 1.2 -0.2
v -0.1 0.1 0.1
v -0.1 0.1 -0.2
v -0.1 0.2 0.3
v -0.1 0.2 0.2
v -0.1 0.2 0.1
v -0.1 0.2 -0.2
v -0.1 0.2 -0.3
v -0.1 0.2 -0.4
v -0.1 0.3 0.4
v -0.1 0.3 0.3
v -0.1 0.3 0.2
v -0.1 0.3 -0.3
v -0.1 0.3 -0.4
v -0.1 0.3 -0.5
v -0.1 0.4 0.4
v -0.1 0.4 0.3
v -0.1 0.4 -0.4
v -0.1 0.4 -0.5
v -0.1 0.8 0.5
v -0.1 0.8 0.4
v -0.1 0.8 -0.5
v -0.1 0.8 -0.6
v -0.1 0.9 0.5
v -0.1 0.9 0.4
v -0.1 0.9 -0.5
v -0.1 0.9 -0.6
v -0.1 1 0.4
v -0.1 1 0.3
v -0.1 1 -0.4
v -0.1 1 -0.5
v -0.1 1.1 0.4
v -0.1 1.1 0.3
v -0.1 1.1 0.2
v -0.1 1.1 0.1
v -0.1 1.1 0
v -0.1 1.1 -0.1
v -0.1 1.1 -0.2
v -0.1 1.1 -0.3
v -0.1 1.1 -0.4
v -0.1 1.1 -0.5
v -0.1 1.2 0.2
v -0.1 1.2 0.1
v -0.1 1.2 0
v -0.1 1.2 -0.1
v -0.1 1.2 -0.2
v -0.1 1.2 -0.3
v -0.1 1.3 0
v -0.1 1.3 -0.1
v -0.1 1.4 0
v -0.1 1.4 -0.1
v 0 1.4 0
v 0 1.4 -0.1
v 0 1.5 0
v 0 1.5 -0.1
v 0.1 1 0.4
v 0.1 1 0.3
v 0.1 1 -0.4
v 0.1 1 -0.5
v 0.1 1.1 0.4
v 0.1 1.1 0.3
v 0.1 1.1 0.2
v 0.1 1.1 0.1
v 0.1 1.1 -0.2
v 0.1 1.1 -0.3
v 0.1 1.1 -0.4
v 0.1 1.1 -0.5
v 0.1 1.2 0.2
v 0.1 1.2 0.1
v 0.1 1.2 -0.2
v 0.1 1.2 -0.3
v 0.1 1.3 0
v 0.1 1.3 -0.1
v 0.1 1.4 0
v 0.1 1.4 -0.1
v 0.2 0 0.2
v 0.2 0 0.1
v 0.2 0 -0.2
v 0.2 0 -0.3
v 0.2 0.1 0.4
v 0.2 0.1 0.3
v 0.2 0.1 0.2
v 0.2 0.1 0.1
v 0.2 0.1 -0.2
v 0.2 0.1 -0.3
v 0.2 0.1 -0.4
v 0.2 0.1 -0.5
v 0.2 0.2 0.5
v 0.2 0.2 0.4
v 0.2 0.2 0.3
v 0.2 0.2 -0.4
v 0.2 0.2 -0.5
v 0.2 0.2 -0.6
v 0.2 0.3 0.5
v 0.2 0.3 0.4
v 0.2 0.3 -0.5
v 0.2 0.3 -0.6
v 0.2 0.4 0.6
v 0.2 0.4 0.5
v 0.2 0.4 -0.6
v 0.2 0.4 -0.7
v 0.2 0.5 0.6
v 0.2 0.5 0.5
v 0.2 0.5 -0.6
v 0.2 0.5 -0.7
v 0.2 0.8 0.6
v 0.2 0.8 0.5
v 0.2 0.8 -0.6
v 0.2 0.8 -0.7
v 0.2 0.9 0.6
v 0.2 0.9 0.5
v 0.2 0.9 -0.6
v 0.2 0.9 -0.7
v 0.2 1 0.5
v 0.2 1 0.4
v 0.2 1 -0.5
v 0.2 1 -0.6
v 0.2 1.1 0.5
v 0.2 1.1 0.4
v 0.2 1.1 0.3
v 0.2 1.1 -0.4
v 0.2 1.1 -0.5
v 0.2 1.1 -0.6
v 0.2 1.2 0.4
v 0.2 1.2 0.3
v 0.2 1.2 0.2
v 0.2 1.2 0.1
v 0.2 1.2 -0.2
v 0.2 1.2 -0.3
v 0.2 1.2 -0.4
v 0.2 1.2 -0.5
v 0.2 1.3 0.2
v 0.2 1.3 0.1
v 0.2 1.3 -0.2
v 0.2 1.3 -0.3
v 0.3 0 0.1
v 0.3 0 -0.2
v 0.3 0.1 0.3
v 0.3 0.1 0.2
v 0.3 0.1 0.1
v 0.3 0.1 -0.2
v 0.3 0.1 -0.3
v 0.3 0.1 -0.4
v 0.3 0.2 0.3
v 0.3 0.2 0.2
v 0.3 0.2 -0.3
v 0.3 0.2 -0.4
v 0.3 0.3 0.5
v 0.3 0.3 0.4
v 0.3 0.3 -0.5
v 0.3 0.3 -0.6
v 0.3 0.4 0.5
v 0.3 0.4 0.4
v 0.3 0.4 -0.5
v 0.3 0.4 -0.6
v 0.3 0.5 0.6
v 0.3 0.5 0.5
v 0.3 0.5 -0.6
v 0.3 0.5 -0.7
v 0.3 0.8 0.6
v 0.3 0.8 0.5
v 0.3 0.8 -0.6
v 0.3 0.8 -0.7
v 0.3 0.9 0.5
v 0.3 0.9 0.4
v 0.3 0.9 -0.5
v 0.3 0.9 -0.6
v 0.3 1 0.5
v 0.3 1 0.4
v 0.3 1 -0.5
v 0.3 1 -0.6
v 0.3 1.1 0.3
v 0.3 1.1 0.2
v 0.3 1.1 -0.3
v 0.3 1.1 -0.4
v 0.3 1.2 0.3
v 0.3 1.2 0.2
v 0.3 1.2 0.1
v 0.3 1.2 -0.2
v 0.3 1.2 -0.3
v 0.3 1.2 -0.4
v 0.3 1.3 0.1
v 0.3 1.3 -0.2
v 0.4 0.1 0.2
v 0.4 0.1 0.1
v 0.4 0.1 -0.2
v 0.4 0.1 -0.3
v 0.4 0.2 0.4
v 0.4 0.2 0.3
v 0.4 0.2 0.2
v 0.4 0.2 0.1
v 0.4 0.2 -0.2
v 0.4 0.2 -0.3
v 0.4 0.2 -0.4
v 0.4 0.2 -0.5
v 0.4 0.3 0.4
v 0.4 0.3 0.3
v 0.4 0.3 -0.4
v 0.4 0.3 -0.5
v 0.4 0.4 0.5
v 0.4 0.4 0.4
v 0.4 0.4 -0.5
v 0.4 0.4 -0.6
v 0.4 0.5 0.5
v 0.4 0.5 0.4
v 0.4 0.5 -0.5
v 0.4 0.5 -0.6
v 0.4 0.8 0.5
v 0.4 0.8 0.4
v 0.4 0.8 -0.5
v 0.4 0.8 -0.6
v 0.4 0.9 0.5
v 0.4 0.9 0.4
v 0.4 0.9 -0.5
v 0.4 0.9 -0.6
v 0.4 1 0.4
v 0.4 1 0.3
v 0.4 1 -0.4
v 0.4 1 -0.5
v 0.4 1.1 0.4
v 0.4 1.1 0.3
v 0.4 1.1 0.2
v 0.4 1.1 0.1
v 0.4 1.1 -0.2
v 0.4 1.1 -0.3
v 0.4 1.1 -0.4
v 0.4 1.1 -0.5
v 0.4 1.2 0.2
v 0.4 1.2 0.1
v 0.4 1.2 -0.2
v 0.4 1.2 -0.3
v 0.5 0.1 0.1
v 0.5 0.1 -0.2
v 0.5 0.2 0.3
v 0.5 0.2 0.1
v 0.5 0.2 -0.2
v 0.5 0.2 -0.4
v 0.5 0.3 0.4
v 0.5 0.3 0.3
v 0.5 0.3 0.2
v 0.5 0.3 0.1
v 0.5 0.3 -0.2
v 0.5 0.3 -0.3
v 0.5 0.3 -0.4
v 0.5 0.3 -0.5
v 0.5 0.4 0.3
v 0.5 0.4 0.2
v 0.5 0.4 -0.3
v 0.5 0.4 -0.4
v 0.5 0.5 0.5
v 0.5 0.5 0.4
v 0.5 0.5 0.3
v 0.5 0.5 -0.4
v 0.5 0.5 -0.5
v 0.5 0.5 -0.6
v 0.5 0.8 0.5
v 0.5 0.8 0.4
v 0.5 0.8 0.3
v 0.5 0.8 -0.4
v 0.5 0.8 -0.5
v 0.5 0.8 -0.6
v 0.5 0.9 0.3
v 0.5 0.9 0.2
v 0.5 0.9 -0.3
v 0.5 0.9 -0.4
v 0.5 1 0.4
v 0.5 1 0.3
v 0.5 1 0.2
v 0.5 1 0.1
v 0.5 1 -0.2
v 0.5 1 -0.3
v 0.5 1 -0.4
v 0.5 1 -0.5
v 0.5 1.1 0.3
v 0.5 1.1 0.1
v 0.5 1.1 -0.2
v 0.5 1.1 -0.4
v 0.5 1.2 0.1
v 0.5 1.2 -0.2
v 0.6 0.2 0.1
v 0.6 0.2 -0.2
v 0.6 0.3 0.2
v 0.6 0.3 0.1
v 0.6 0.3 -0.2
v 0.6 0.3 -0.3
v 0.6 0.4 0.3
v 0.6 0.4 0.2
v 0.6 0.4 0.1
v 0.6 0.4 -0.2
v 0.6 0.4 -0.3
v 0.6 0.4 -0.4
v 0.6 0.5 0.4
v 0.6 0.5 0.3
v 0.6 0.5 0.2
v 0.6 0.5 0.1
v 0.6 0.5 -0.2
v 0.6 0.5 -0.3
v 0.6 0.5 -0.4
v 0.6 0.5 -0.5
v 0.6 0.8 0.4
v 0.6 0.8 0.3
v 0.6 0.8 0.2
v 0.6 0.8 0.1
v 0.6 0.8 -0.2
v 0.6 0.8 -0.3
v 0.6 0.8 -0.4
v 0.6 0.8 -0.5
v 0.6 0.9 0.3
v 0.6 0.9 0.2
v 0.6 0.9 0.1
v 0.6 0.9 -0.2
v 0.6 0.9 -0.3
v 0.6 0.9 -0.4
v 0.6 1 0.2
v 0.6 1 0.1
v 0.6 1 -0.2
v 0.6 1 -0.3
v 0.6 1.1 0.1
v 0.6 1.1 -0.2
v 0.7 0.4 0.1
v 0.7 0.4 -0.2
v 0.7 0.5 0.2
v 0.7 0.5 0.1
v 0.7 0.5 -0.2
v 0.7 0.5 -0.3
v 0.7 0.8 0.2
v 0.7 0.8 0.1
v 0.7 0.8 -0.2
v 0.7 0.8 -0.3
v 0.7 0.9 0.1
v 0.7 0.9 -0.2
v -0.2 0.5 0.6
v -0.2 0.8 0.6
v -0.1 0.4 0.6
v -0.1 0.5 0.6
v -0.1 0.8 0.6
v -0.1 0.9 0.6
v 0.2 0.4 0.6
v 0.2 0.5 0.6
v 0.2 0.8 0.6
v 0.2 0.9 0.6
v 0.3 0.5 0.6
v 0.3 0.8 0.6
v -0.4 0.5 0.5
v -0.4 0.8 0.5
v -0.3 0.4 0.5
v -0.3 0.5 0.5
v -0.3 0.8 0.5
v -0.3 0.9 0.5
v -0.2 0.3 0.5
v -0.2 0.4 0.5
v -0.2 0.5 0.5
v -0.2 0.8 0.5
v -0.2 0.9 0.5
v -0.2 1 0.5
v -0.1 0.2 0.5
v -0.1 0.3 0.5
v -0.1 0.4 0.5
v -0.1 0.5 0.5
v -0.1 0.8 0.5
v -0.1 0.9 0.5
v -0.1 1 0.5
v -0.1 1.1 0.5
v 0.2 0.2 0.5
v 0.2 0.3 0.5
v 0.2 0.4 0.5
v 0.2 0.5 0.5
v 0.2 0.8 0.5
v 0.2 0.9 0.5
v 0.2 1 0.5
v 0.2 1.1 0.5
v 0.3 0.3 0.5
v 0.3 0.4 0.5
v 0.3 0.5 0.5
v 0.3 0.8 0.5
v 0.3 0.9 0.5
v 0.3 1 0.5
v 0.4 0.4 0.5
v 0.4 0.5 0.5
v 0.4 0.8 0.5
v 0.4 0.9 0.5
v 0.5 0.5 0.5
v 0.5 0.8 0.5
v -0.5 0.5 0.4
v -0.5 0.8 0.4
v -0.4 0.3 0.4
v -0.4 0.5 0.4
v -0.4 0.8 0.4
v -0.4 1 0.4
v -0.3 0.2 0.4
v -0.3 0.3 0.4
v -0.3 0.4 0.4
v -0.3 0.5 0.4
v -0.3 0.8 0.4
v -0.3 0.9 0.4
v -0.3 1 0.4
v -0.3 1.1 0.4
v -0.2 0.3 0.4
v -0.2 0.4 0.4
v -0.2 0.9 0.4
v -0.2 1 0.4
v -0.1 0.1 0.4
v -0.1 0.2 0.4
v -0.1 0.3 0.4
v -0.1 1 0.4
v -0.1 1.1 0.4
v -0.1 1.2 0.4
v 0.2 0.1 0.4
v 0.2 0.2 0.4
v 0.2 0.3 0.4
v 0.2 1 0.4
v 0.2 1.1 0.4
v 0.2 1.2 0.4
v 0.3 0.3 0.4
v 0.3 0.4 0.4
v 0.3 0.9 0.4
v 0.3 1 0.4
v 0.4 0.2 0.4
v 0.4 0.3 0.4
v 0.4 0.4 0.4
v 0.4 0.5 0.4
v 0.4 0.8 0.4
v 0.4 0.9 0.4
v 0.4 1 0.4
v 0.4 1.1 0.4
v 0.5 0.3 0.4
v 0.5 0.5 0.4
v 0.5 0.8 0.4
v 0.5 1 0.4
v 0.6 0.5 0.4
v 0.6 0.8 0.4
v -0.5 0.4 0.3
v -0.5 0.5 0.3
v -0.5 0.8 0.3
v -0.5 0.9 0.3
v -0.4 0.2 0.3
v -0.4 0.3 0.3
v -0.4 0.4 0.3
v -0.4 0.5 0.3
v -0.4 0.8 0.3
v -0.4 0.9 0.3
v -0.4 1 0.3
v -0.4 1.1 0.3
v -0.4 1.2 0.3
v -0.3 0.2 0.3
v -0.3 0.3 0.3
v -0.3 1 0.3
v -0.3 1.1 0.3
v -0.3 1.2 0.3
v -0.2 0.1 0.3
v -0.2 0.2 0.3
v -0.2 1.1 0.3
v -0.2 1.2 0.3
v -0.1 0.1 0.3
v -0.1 0.2 0.3
v -0.1 1.1 0.3
v -0.1 1.2 0.3
v 0.2 0.1 0.3
v 0.2 0.2 0.3
v 0.2 1.1 0.3
v 0.2 1.2 0.3
v 0.3 0.1 0.3
v 0.3 0.2 0.3
v 0.3 1.1 0.3
v 0.3 1.2 0.3
v 0.4 0.2 0.3
v 0.4 0.3 0.3
v 0.4 1 0.3
v 0.4 1.1 0.3
v 0.5 0.2 0.3
v 0.5 0.3 0.3
v 0.5 0.4 0.3
v 0.5 0.5 0.3
v 0.5 0.8 0.3
v 0.5 0.9 0.3
v 0.5 1 0.3
v 0.5 1.1 0.3
v 0.6 0.4 0.3
v 0.6 0.5 0.3
v 0.6 0.8 0.3
v 0.6 0.9 0.3
v -0.6 0.5 0.2
v -0.6 0.8 0.2
v -0.5 0.3 0.2
v -0.5 0.4 0.2
v -0.5 0.5 0.2
v -0.5 0.8 0.2
v -0.5 0.9 0.2
v -0.5 1 0.2
v -0.4 0.3 0.2
v -0.4 0.4 0.2
v -0.4 0.9 0.2
v -0.4 1 0.2
v -0.4 1.2 0.2
v -0.4 1.3 0.2
v -0.3 0.1 0.2
v -0.3 0.2 0.2
v -0.3 1.1 0.2
v -0.3 1.2 0.2
v -0.3 1.3 0.2
v -0.2 0.1 0.2
v -0.2 0.2 0.2
v -0.2 1.1 0.2
v -0.2 1.2 0.2
v -0.1 0 0.2
v -0.1 0.1 0.2
v -0.1 1.2 0.2
v -0.1 1.3 0.2
v 0.2 0 0.2
v 0.2 0.1 0.2
v 0.2 1.2 0.2
v 0.2 1.3 0.2
v 0.3 0.1 0.2
v 0.3 0.2 0.2
v 0.3 1.1 0.2
v 0.3 1.2 0.2
v 0.4 0.1 0.2
v 0.4 0.2 0.2
v 0.4 1.1 0.2
v 0.4 1.2 0.2
v 0.5 0.3 0.2
v 0.5 0.4 0.2
v 0.5 0.9 0.2
v 0.5 1 0.2
v 0.6 0.3 0.2
v 0.6 0.4 0.2
v 0.6 0.5 0.2
v 0.6 0.8 0.2
v 0.6 0.9 0.2
v 0.6 1 0.2
v 0.7 0.5 0.2
v 0.7 0.8 0.2
v -0.6 0.4 0.1
v -0.6 0.5 0.1
v -0.6 0.8 0.1
v -0.6 0.9 0.1
v -0.5 0.2 0.1
v -0.5 0.3 0.1
v -0.5 0.4 0.1
v -0.5 0.5 0.1
v -0.5 0.8 0.1
v -0.5 0.9 0.1
v -0.5 1 0.1
v -0.5 1.1 0.1
v -0.4 0.1 0.1
v -0.4 0.2 0.1
v -0.4 0.3 0.1
v -0.4 1 0.1
v -0.4 1.1 0.1
v -0.4 1.2 0.1
v -0.3 0.1 0.1
v -0.3 0.2 0.1
v -0.3 1.1 0.1
v -0.3 1.2 0.1
v -0.2 0 0.1
v -0.2 0.1 0.1
v -0.2 1.2 0.1
v -0.2 1.3 0.1
v -0.1 0 0.1
v -0.1 0.1 0.1
v -0.1 1.2 0.1
v -0.1 1.3 0.1
v 0.2 0 0.1
v 0.2 0.1 0.1
v 0.2 1.2 0.1
v 0.2 1.3 0.1
v 0.3 0 0.1
v 0.3 0.1 0.1
v 0.3 1.2 0.1
v 0.3 1.3 0.1
v 0.4 0.1 0.1
v 0.4 0.2 0.1
v 0.4 1.1 0.1
v 0.4 1.2 0.1
v 0.5 0.1 0.1
v 0.5 0.2 0.1
v 0.5 0.3 0.1
v 0.5 1 0.1
v 0.5 1.1 0.1
v 0.5 1.2 0.1
v 0.6 0.2 0.1
v 0.6 0.3 0.1
v 0.6 0.4 0.1
v 0.6 0.5 0.1
v 0.6 0.8 0.1
v 0.6 0.9 0.1
v 0.6 1 0.1
v 0.6 1.1 0.1
v 0.7 0.4 0.1
v 0.7 0.5 0.1
v 0.7 0.8 0.1
v 0.7 0.9 0.1
v -0.4 1 0
v -0.4 1.1 0
v -0.3 1 0
v -0.3 1.1 0
v -0.3 1.2 0
v -0.3 1.3 0
v -0.2 1.1 0
v -0.2 1.2 0
v -0.2 1.3 0
v -0.2 1.4 0
v -0.1 1.1 0
v -0.1 1.2 0
v -0.1 1.3 0
v -0.1 1.4 0
v -0.1 1.5 0
v 0 1.3 0
v 0 1.4 0
v 0 1.5 0
v 0.1 1.3 0
v 0.1 1.4 0
v 0.2 1.1 0
v 0.2 1.2 0
v 0.3 1.1 0
v 0.3 1.2 0
v 0.4 1 0
v 0.4 1.1 0
v 0.5 1 0
v 0.5 1.1 0
v -0.5 0.8 -0.2
v -0.5 0.9 -0.2
v -0.4 0.3 -0.2
v -0.4 0.4 -0.2
v -0.4 0.8 -0.2
v -0.4 0.9 -0.2
v -0.4 1 -0.2
v -0.4 1.1 -0.2
v -0.3 0.2 -0.2
v -0.3 0.3 -0.2
v -0.3 0.4 -0.2
v -0.3 1 -0.2
v -0.3 1.1 -0.2
v -0.2 0.2 -0.2
v -0.2 0.3 -0.2
v -0.2 1.1 -0.2
v -0.2 1.2 -0.2
v -0.1 0.1 -0.2
v -0.1 0.2 -0.2
v -0.1 1.1 -0.2
v -0.1 1.2 -0.2
v 0 1.1 -0.2
v 0 1.2 -0.2
v 0.1 1.1 -0.2
v 0.1 1.2 -0.2
v 0.2 0.1 -0.2
v 0.2 0.2 -0.2
v 0.2 1.1 -0.2
v 0.2 1.2 -0.2
v 0.3 0.2 -0.2
v 0.3 0.3 -0.2
v 0.3 1.1 -0.2
v 0.3 1.2 -0.2
v 0.4 0.2 -0.2
v 0.4 0.3 -0.2
v 0.4 0.4 -0.2
v 0.4 1 -0.2
v 0.4 1.1 -0.2
v 0.5 0.3 -0.2
v 0.5 0.4 -0.2
v 0.5 0.8 -0.2
v 0.5 0.9 -0.2
v 0.5 1 -0.2
v 0.5 1.1 -0.2
v 0.6 0.8 -0.2
v 0.6 0.9 -0.2
v -0.5 0.5 -0.3
v -0.5 0.8 -0.3
v -0.4 0.5 -0.3
v -0.4 0.8 -0.3
v -0.4 0.9 -0.3
v -0.4 1 -0.3
v -0.3 0.9 -0.3
v -0.3 1 -0.3
v -0.3 1.1 -0.3
v -0.2 0.2 -0.3
v -0.2 0.3 -0.3
v -0.2 1 -0.3
v -0.2 1.1 -0.3
v -0.1 0.2 -0.3
v -0.1 0.3 -0.3
v -0.1 1.1 -0.3
v -0.1 1.2 -0.3
v 0 1.1 -0.3
v 0 1.2 -0.3
v 0.1 1.1 -0.3
v 0.1 1.2 -0.3
v 0.2 0.2 -0.3
v 0.2 0.3 -0.3
v 0.2 1.1 -0.3
v 0.2 1.2 -0.3
v 0.3 0.2 -0.3
v 0.3 0.3 -0.3
v 0.3 1 -0.3
v 0.3 1.1 -0.3
v 0.4 0.9 -0.3
v 0.4 1 -0.3
v 0.4 1.1 -0.3
v 0.5 0.5 -0.3
v 0.5 0.8 -0.3
v 0.5 0.9 -0.3
v 0.5 1 -0.3
v 0.6 0.5 -0.3
v 0.6 0.8 -0.3
v -0.4 0.4 -0.4
v -0.4 0.5 -0.4
v -0.4 0.7 -0.4
v -0.4 0.8 -0.4
v -0.4 0.9 -0.4
v -0.3 0.3 -0.4
v -0.3 0.4 -0.4
v -0.3 0.5 -0.4
v -0.3 0.7 -0.4
v -0.3 0.8 -0.4
v -0.3 0.9 -0.4
v -0.3 1 -0.4
v -0.2 0.3 -0.4
v -0.2 0.4 -0.4
v -0.2 0.9 -0.4
v -0.2 1 -0.4
v -0.2 1.1 -0.4
v -0.1 0.2 -0.4
v -0.1 0.3 -0.4
v -0.1 0.4 -0.4
v -0.1 1 -0.4
v -0.1 1.1 -0.4
v 0 1 -0.4
v 0 1.1 -0.4
v 0.1 1 -0.4
v 0.1 1.1 -0.4
v 0.2 0.2 -0.4
v 0.2 0.3 -0.4
v 0.2 0.4 -0.4
v 0.2 1 -0.4
v 0.2 1.1 -0.4
v 0.3 0.3 -0.4
v 0.3 0.4 -0.4
v 0.3 0.9 -0.4
v 0.3 1 -0.4
v 0.3 1.1 -0.4
v 0.4 0.3 -0.4
v 0.4 0.4 -0.4
v 0.4 0.5 -0.4
v 0.4 0.7 -0.4
v 0.4 0.8 -0.4
v 0.4 0.9 -0.4
v 0.4 1 -0.4
v 0.5 0.4 -0.4
v 0.5 0.5 -0.4
v 0.5 0.7 -0.4
v 0.5 0.8 -0.4
v 0.5 0.9 -0.4
v -0.4 0.5 -0.5
v -0.4 0.7 -0.5
v -0.3 0.4 -0.5
v -0.3 0.5 -0.5
v -0.3 0.7 -0.5
v -0.3 0.8 -0.5
v -0.3 0.9 -0.5
v -0.2 0.4 -0.5
v -0.2 0.5 -0.5
v -0.2 0.8 -0.5
v -0.2 0.9 -0.5
v -0.2 1 -0.5
v -0.1 0.3 -0.5
v -0.1 0.4 -0.5
v -0.1 0.5 -0.5
v -0.1 0.8 -0.5
v -0.1 0.9 -0.5
v -0.1 1 -0.5
v -0.1 1.1 -0.5
v 0 1 -0.5
v 0 1.1 -0.5
v 0.1 1 -0.5
v 0.1 1.1 -0.5
v 0.2 0.3 -0.5
v 0.2 0.4 -0.5
v 0.2 0.5 -0.5
v 0.2 0.8 -0.5
v 0.2 0.9 -0.5
v 0.2 1 -0.5
v 0.2 1.1 -0.5
v 0.3 0.4 -0.5
v 0.3 0.5 -0.5
v 0.3 0.8 -0.5
v 0.3 0.9 -0.5
v 0.3 1 -0.5
v 0.4 0.4 -0.5
v 0.4 0.5 -0.5
v 0.4 0.7 -0.5
v 0.4 0.8 -0.5
v 0.4 0.9 -0.5
v 0.5 0.5 -0.5
v 0.5 0.7 -0.5
v -0.2 0.5 -0.6
v -0.2 0.8 -0.6
v -0.1 0.5 -0.6
v -0.1 0.8 -0.6
v -0.1 0.9 -0.6
v 0.2 0.5 -0.6
v 0.2 0.8 -0.6
v 0.2 0.9 -0.6
v 0.3 0.5 -0.6
v 0.3 0.8 -0.6
v -0.2 0.5 0.5
v -0.2 0.8 0.5
v -0.1 0.5 0.5
v -0.1 0.8 0.5
v -0.1 0.9 0.5
v 0.2 0.5 0.5
v 0.2 0.8 0.5
v 0.2 0.9 0.5
v 0.3 0.5 0.5
v 0.3 0.8 0.5
v -0.4 0.5 0.4
v -0.4 0.7 0.4
v -0.3 0.4 0.4
v -0.3 0.5 0.4
v -0.3 0.7 0.4
v -0.3 0.8 0.4
v -0.3 0.9 0.4
v -0.2 0.4 0.4
v -0.2 0.5 0.4
v -0.2 0.8 0.4
v -0.2 0.9 0.4
v -0.2 1 0.4
v -0.1 0.3 0.4
v -0.1 0.4 0.4
v -0.1 0.5 0.4
v -0.1 0.8 0.4
v -0.1 0.9 0.4
v -0.1 1 0.4
v -0.1 1.1 0.4
v 0 1 0.4
v 0 1.1 0.4
v 0.1 1 0.4
v 0.1 1.1 0.4
v 0.2 0.3 0.4
v 0.2 0.4 0.4
v 0.2 0.5 0.4
v 0.2 0.8 0.4
v 0.2 0.9 0.4
v 0.2 1 0.4
v 0.2 1.1 0.4
v 0.3 0.3 0.4
v 0.3 0.4 0.4
v 0.3 0.5 0.4
v 0.3 0.8 0.4
v 0.3 0.9 0.4
v 0.3 1 0.4
v 0.4 0.4 0.4
v 0.4 0.5 0.4
v 0.4 0.7 0.4
v 0.4 0.8 0.4
v 0.4 0.9 0.4
v 0.5 0.5 0.4
v 0.5 0.7 0.4
v -0.4 0.4 0.3
v -0.4 0.5 0.3
v -0.4 0.7 0.3
v -0.4 0.8 0.3
v -0.4 0.9 0.3
v -0.3 0.3 0.3
v -0.3 0.4 0.3
v -0.3 0.5 0.3
v -0.3 0.7 0.3
v -0.3 0.8 0.3
v -0.3 0.9 0.3
v -0.3 1 0.3
v -0.2 0.3 0.3
v -0.2 0.4 0.3
v -0.2 0.9 0.3
v -0.2 1 0.3
v -0.2 1.1 0.3
v -0.1 0.2 0.3
v -0.1 0.3 0.3
v -0.1 0.4 0.3
v -0.1 1 0.3
v -0.1 1.1 0.3
v 0 1 0.3
v 0 1.1 0.3
v 0.1 1 0.3
v 0.1 1.1 0.3
v 0.2 0.2 0.3
v 0.2 0.3 0.3
v 0.2 1 0.3
v 0.2 1.1 0.3
v 0.3 0.3 0.3
v 0.3 0.4 0.3
v 0.3 0.9 0.3
v 0.3 1 0.3
v 0.3 1.1 0.3
v 0.4 0.3 0.3
v 0.4 0.4 0.3
v 0.4 0.5 0.3
v 0.4 0.7 0.3
v 0.4 0.8 0.3
v 0.4 0.9 0.3
v 0.4 1 0.3
v 0.5 0.4 0.3
v 0.5 0.5 0.3
v 0.5 0.7 0.3
v 0.5 0.8 0.3
v 0.5 0.9 0.3
v -0.5 0.5 0.2
v -0.5 0.8 0.2
v -0.4 0.5 0.2
v -0.4 0.8 0.2
v -0.4 0.9 0.2
v -0.4 1 0.2
v -0.4 1.1 0.2
v -0.4 1.2 0.2
v -0.3 0.9 0.2
v -0.3 1 0.2
v -0.3 1.1 0.2
v -0.3 1.2 0.2
v -0.2 0.2 0.2
v -0.2 0.3 0.2
v -0.2 1 0.2
v -0.2 1.1 0.2
v -0.1 0.2 0.2
v -0.1 0.3 0.2
v -0.1 1.1 0.2
v -0.1 1.2 0.2
v 0 1.1 0.2
v 0 1.2 0.2
v 0.1 1.1 0.2
v 0.1 1.2 0.2
v 0.2 0.2 0.2
v 0.2 0.3 0.2
v 0.2 1.1 0.2
v 0.2 1.2 0.2
v 0.3 0.2 0.2
v 0.3 0.3 0.2
v 0.3 1 0.2
v 0.3 1.1 0.2
v 0.4 0.9 0.2
v 0.4 1 0.2
v 0.4 1.1 0.2
v 0.5 0.5 0.2
v 0.5 0.8 0.2
v 0.5 0.9 0.2
v 0.5 1 0.2
v 0.6 0.5 0.2
v 0.6 0.8 0.2
v -0.5 0.8 0.1
v -0.5 0.9 0.1
v -0.4 0.3 0.1
v -0.4 0.4 0.1
v -0.4 0.8 0.1
v -0.4 0.9 0.1
v -0.4 1 0.1
v -0.4 1.1 0.1
v -0.3 0.2 0.1
v -0.3 0.3 0.1
v -0.3 0.4 0.1
v -0.3 1 0.1
v -0.3 1.1 0.1
v -0.2 0.2 0.1
v -0.2 0.3 0.1
v -0.2 1.1 0.1
v -0.2 1.2 0.1
v -0.1 0.1 0.1
v -0.1 0.2 0.1
v -0.1 1.1 0.1
v -0.1 1.2 0.1
v 0 1.1 0.1
v 0 1.2 0.1
v 0.1 1.1 0.1
v 0.1 1.2 0.1
v 0.2 0.1 0.1
v 0.2 0.2 0.1
v 0.2 1.1 0.1
v 0.2 1.2 0.1
v 0.3 0.2 0.1
v 0.3 0.3 0.1
v 0.3 1.1 0.1
v 0.3 1.2 0.1
v 0.4 0.2 0.1
v 0.4 0.3 0.1
v 0.4 0.4 0.1
v 0.4 1 0.1
v 0.4 1.1 0.1
v 0.5 0.3 0.1
v 0.5 0.4 0.1
v 0.5 0.8 0.1
v 0.5 0.9 0.1
v 0.5 1 0.1
v 0.5 1.1 0.1
v 0.6 0.8 0.1
v 0.6 0.9 0.1
v -0.4 1.2 0
v -0.4 1.3 0
v -0.3 1.2 0
v -0.3 1.3 0
v -0.4 1 -0.1
v -0.4 1.1 -0.1
v -0.3 1 -0.1
v -0.3 1.1 -0.1
v -0.3 1.2 -0.1
v -0.3 1.3 -0.1
v -0.2 1.1 -0.1
v -0.2 1.2 -0.1
v -0.2 1.3 -0.1
v -0.2 1.4 -0.1
v -0.1 1.1 -0.1
v -0.1 1.2 -0.1
v -0.1 1.3 -0.1
v -0.1 1.4 -0.1
v -0.1 1.5 -0.1
v 0 1.3 -0.1
v 0 1.4 -0.1
v 0 1.5 -0.1
v 0.1 1.3 -0.1
v 0.1 1.4 -0.1
v 0.2 1.1 -0.1
v 0.2 1.2 -0.1
v 0.3 1.1 -0.1
v 0.3 1.2 -0.1
v 0.4 1 -0.1
v 0.4 1.1 -0.1
v 0.5 1 -0.1
v 0.5 1.1 -0.1
v -0.6 0.4 -0.2
v -0.6 0.5 -0.2
v -0.6 0.8 -0.2
v -0.6 0.9 -0.2
v -0.5 0.2 -0.2
v -0.5 0.3 -0.2
v -0.5 0.4 -0.2
v -0.5 0.5 -0.2
v -0.5 0.8 -0.2
v -0.5 0.9 -0.2
v -0.5 1 -0.2
v -0.5 1.1 -0.2
v -0.4 0.1 -0.2
v -0.4 0.2 -0.2
v -0.4 0.3 -0.2
v -0.4 1 -0.2
v -0.4 1.1 -0.2
v -0.4 1.2 -0.2
v -0.3 0.1 -0.2
v -0.3 0.2 -0.2
v -0.3 1.1 -0.2
v -0.3 1.2 -0.2
v -0.2 0 -0.2
v -0.2 0.1 -0.2
v -0.2 1.2 -0.2
v -0.2 1.3 -0.2
v -0.1 0 -0.2
v -0.1 0.1 -0.2
v -0.1 1.2 -0.2
v -0.1 1.3 -0.2
v 0.2 0 -0.2
v 0.2 0.1 -0.2
v 0.2 1.2 -0.2
v 0.2 1.3 -0.2
v 0.3 0 -0.2
v 0.3 0.1 -0.2
v 0.3 1.2 -0.2
v 0.3 1.3 -0.2
v 0.4 0.1 -0.2
v 0.4 0.2 -0.2
v 0.4 1.1 -0.2
v 0.4 1.2 -0.2
v 0.5 0.1 -0.2
v 0.5 0.2 -0.2
v 0.5 0.3 -0.2
v 0.5 1 -0.2
v 0.5 1.1 -0.2
v 0.5 1.2 -0.2
v 0.6 0.2 -0.2
v 0.6 0.3 -0.2
v 0.6 0.4 -0.2
v 0.6 0.5 -0.2
v 0.6 0.8 -0.2
v 0.6 0.9 -0.2
v 0.6 1 -0.2
v 0.6 1.1 -0.2
v 0.7 0.4 -0.2
v 0.7 0.5 -0.2
v 0.7 0.8 -0.2
v 0.7 0.9 -0.2
v -0.6 0.5 -0.3
v -0.6 0.8 -0.3
v -0.5 0.3 -0.3
v -0.5 0.4 -0.3
v -0.5 0.5 -0.3
v -0.5 0.8 -0.3
v -0.5 0.9 -0.3
v -0.5 1 -0.3
v -0.4 0.3 -0.3
v -0.4 0.4 -0.3
v -0.4 0.9 -0.3
v -0.4 1 -0.3
v -0.3 0.1 -0.3
v -0.3 0.2 -0.3
v -0.3 1.1 -0.3
v -0.3 1.2 -0.3
v -0.2 0.1 -0.3
v -0.2 0.2 -0.3
v -0.2 1.1 -0.3
v -0.2 1.2 -0.3
v -0.1 0 -0.3
v -0.1 0.1 -0.3
v -0.1 1.2 -0.3
v -0.1 1.3 -0.3
v 0.2 0 -0.3
v 0.2 0.1 -0.3
v 0.2 1.2 -0.3
v 0.2 1.3 -0.3
v 0.3 0.1 -0.3
v 0.3 0.2 -0.3
v 0.3 1.1 -0.3
v 0.3 1.2 -0.3
v 0.4 0.1 -0.3
v 0.4 0.2 -0.3
v 0.4 1.1 -0.3
v 0.4 1.2 -0.3
v 0.5 0.3 -0.3
v 0.5 0.4 -0.3
v 0.5 0.9 -0.3
v 0.5 1 -0.3
v 0.6 0.3 -0.3
v 0.6 0.4 -0.3
v 0.6 0.5 -0.3
v 0.6 0.8 -0.3
v 0.6 0.9 -0.3
v 0.6 1 -0.3
v 0.7 0.5 -0.3
v 0.7 0.8 -0.3
v -0.5 0.4 -0.4
v -0.5 0.5 -0.4
v -0.5 0.8 -0.4
v -0.5 0.9 -0.4
v -0.4 0.2 -0.4
v -0.4 0.3 -0.4
v -0.4 0.4 -0.4
v -0.4 0.5 -0.4
v -0.4 0.8 -0.4
v -0.4 0.9 -0.4
v -0.4 1 -0.4
v -0.4 1.1 -0.4
v -0.3 0.2 -0.4
v -0.3 0.3 -0.4
v -0.3 1 -0.4
v -0.3 1.1 -0.4
v -0.2 0.1 -0.4
v -0.2 0.2 -0.4
v -0.2 1.1 -0.4
v -0.2 1.2 -0.4
v -0.1 0.1 -0.4
v -0.1 0.2 -0.4
v -0.1 1.1 -0.4
v -0.1 1.2 -0.4
v 0.2 0.1 -0.4
v 0.2 0.2 -0.4
v 0.2 1.1 -0.4
v 0.2 1.2 -0.4
v 0.3 0.1 -0.4
v 0.3 0.2 -0.4
v 0.3 1.1 -0.4
v 0.3 1.2 -0.4
v 0.4 0.2 -0.4
v 0.4 0.3 -0.4
v 0.4 1 -0.4
v 0.4 1.1 -0.4
v 0.5 0.2 -0.4
v 0.5 0.3 -0.4
v 0.5 0.4 -0.4
v 0.5 0.5 -0.4
v 0.5 0.8 -0.4
v 0.5 0.9 -0.4
v 0.5 1 -0.4
v 0.5 1.1 -0.4
v 0.6 0.4 -0.4
v 0.6 0.5 -0.4
v 0.6 0.8 -0.4
v 0.6 0.9 -0.4
v -0.5 0.5 -0.5
v -0.5 0.8 -0.5
v -0.4 0.3 -0.5
v -0.4 0.5 -0.5
v -0.4 0.8 -0.5
v -0.4 1 -0.5
v -0.3 0.2 -0.5
v -0.3 0.3 -0.5
v -0.3 0.4 -0.5
v -0.3 0.5 -0.5
v -0.3 0.8 -0.5
v -0.3 0.9 -0.5
v -0.3 1 -0.5
v -0.3 1.1 -0.5
v -0.2 0.3 -0.5
v -0.2 0.4 -0.5
v -0.2 0.9 -0.5
v -0.2 1 -0.5
v -0.1 0.1 -0.5
v -0.1 0.2 -0.5
v -0.1 0.3 -0.5
v -0.1 1 -0.5
v -0.1 1.1 -0.5
v -0.1 1.2 -0.5
v 0.2 0.1 -0.5
v 0.2 0.2 -0.5
v 0.2 0.3 -0.5
v 0.2 1 -0.5
v 0.2 1.1 -0.5
v 0.2 1.2 -0.5
v 0.3 0.3 -0.5
v 0.3 0.4 -0.5
v 0.3 0.9 -0.5
v 0.3 1 -0.5
v 0.4 0.2 -0.5
v 0.4 0.3 -0.5
v 0.4 0.4 -0.5
v 0.4 0.5 -0.5
v 0.4 0.8 -0.5
v 0.4 0.9 -0.5
v 0.4 1 -0.5
v 0.4 1.1 -0.5
v 0.5 0.3 -0.5
v 0.5 0.5 -0.5
v 0.5 0.8 -0.5
v 0.5 1 -0.5
v 0.6 0.5 -0.5
v 0.6 0.8 -0.5
v -0.4 0.5 -0.6
v -0.4 0.8 -0.6
v -0.3 0.4 -0.6
v -0.3 0.5 -0.6
v -0.3 0.8 -0.6
v -0.3 0.9 -0.6
v -0.2 0.3 -0.6
v -0.2 0.4 -0.6
v -0.2 0.5 -0.6
v -0.2 0.8 -0.6
v -0.2 0.9 -0.6
v -0.2 1 -0.6
v -0.1 0.2 -0.6
v -0.1 0.3 -0.6
v -0.1 0.4 -0.6
v -0.1 0.5 -0.6
v -0.1 0.8 -0.6
v -0.1 0.9 -0.6
v -0.1 1 -0.6
v -0.1 1.1 -0.6
v 0.2 0.2 -0.6
v 0.2 0.3 -0.6
v 0.2 0.4 -0.6
v 0.2 0.5 -0.6
v 0.2 0.8 -0.6
v 0.2 0.9 -0.6
v 0.2 1 -0.6
v 0.2 1.1 -0.6
v 0.3 0.3 -0.6
v 0.3 0.4 -0.6
v 0.3 0.5 -0.6
v 0.3 0.8 -0.6
v 0.3 0.9 -0.6
v 0.3 1 -0.6
v 0.4 0.4 -0.6
v 0.4 0.5 -0.6
v 0.4 0.8 -0.6
v 0.4 0.9 -0.6
v 0.5 0.5 -0.6
v 0.5 0.8 -0.6
v -0.2 0.5 -0.7
v -0.2 0.8 -0.7
v -0.1 0.4 -0.7
v -0.1 0.5 -0.7
v -0.1 0.8 -0.7
v -0.1 0.9 -0.7
v 0.2 0.4 -0.7
v 0.2 0.5 -0.7
v 0.2 0.8 -0.7
v 0.2 0.9 -0.7
v 0.3 0.5 -0.7
v 0.3 0.8 -0.7
v -0.1 0 0.2
v 0.2 0 0.2
v -0.2 0 0.1
v -0.1 0 0.1
v 0.2 0 0.1
v 0.3 0 0.1
v -0.2 0 -0.2
v -0.1 0 -0.2
v 0.2 0 -0.2
v 0.3 0 -0.2
v -0.1 0 -0.3
v 0.2 0 -0.3
v -0.1 0.1 0.4
v 0.2 0.1 0.4
v -0.2 0.1 0.3
v -0.1 0.1 0.3
v 0.2 0.1 0.3
v 0.3 0.1 0.3
v -0.3 0.1 0.2
v -0.2 0.1 0.2
v -0.1 0.1 0.2
v 0.2 0.1 0.2
v 0.3 0.1 0.2
v 0.4 0.1 0.2
v -0.4 0.1 0.1
v -0.3 0.1 0.1
v -0.2 0.1 0.1
v -0.1 0.1 0.1
v 0.2 0.1 0.1
v 0.3 0.1 0.1
v 0.4 0.1 0.1
v 0.5 0.1 0.1
v -0.4 0.1 -0.2
v -0.3 0.1 -0.2
v -0.2 0.1 -0.2
v -0.1 0.1 -0.2
v 0.2 0.1 -0.2
v 0.3 0.1 -0.2
v 0.4 0.1 -0.2
v 0.5 0.1 -0.2
v -0.3 0.1 -0.3
v -0.2 0.1 -0.3
v -0.1 0.1 -0.3
v 0.2 0.1 -0.3
v 0.3 0.1 -0.3
v 0.4 0.1 -0.3
v -0.2 0.1 -0.4
v -0.1 0.1 -0.4
v 0.2 0.1 -0.4
v 0.3 0.1 -0.4
v -0.1 0.1 -0.5
v 0.2 0.1 -0.5
v -0.1 0.2 0.5
v 0.2 0.2 0.5
v -0.3 0.2 0.4
v -0.1 0.2 0.4
v 0.2 0.2 0.4
v 0.4 0.2 0.4
v -0.4 0.2 0.3
v -0.3 0.2 0.3
v -0.2 0.2 0.3
v -0.1 0.2 0.3
v 0.2 0.2 0.3
v 0.3 0.2 0.3
v 0.4 0.2 0.3
v 0.5 0.2 0.3
v -0.3 0.2 0.2
v -0.2 0.2 0.2
v 0.3 0.2 0.2
v 0.4 0.2 0.2
v -0.5 0.2 0.1
v -0.4 0.2 0.1
v -0.3 0.2 0.1
v 0.4 0.2 0.1
v 0.5 0.2 0.1
v 0.6 0.2 0.1
v -0.5 0.2 -0.2
v -0.4 0.2 -0.2
v -0.3 0.2 -0.2
v 0.4 0.2 -0.2
v 0.5 0.2 -0.2
v 0.6 0.2 -0.2
v -0.3 0.2 -0.3
v -0.2 0.2 -0.3
v 0.3 0.2 -0.3
v 0.4 0.2 -0.3
v -0.4 0.2 -0.4
v -0.3 0.2 -0.4
v -0.2 0.2 -0.4
v -0.1 0.2 -0.4
v 0.2 0.2 -0.4
v 0.3 0.2 -0.4
v 0.4 0.2 -0.4
v 0.5 0.2 -0.4
v -0.3 0.2 -0.5
v -0.1 0.2 -0.5
v 0.2 0.2 -0.5
v 0.4 0.2 -0.5
v -0.1 0.2 -0.6
v 0.2 0.2 -0.6
v -0.2 0.3 0.5
v -0.1 0.3 0.5
v 0.2 0.3 0.5
v 0.3 0.3 0.5
v -0.4 0.3 0.4
v -0.3 0.3 0.4
v -0.2 0.3 0.4
v -0.1 0.3 0.4
v 0.2 0.3 0.4
v 0.3 0.3 0.4
v 0.4 0.3 0.4
v 0.5 0.3 0.4
v -0.4 0.3 0.3
v -0.3 0.3 0.3
v 0.4 0.3 0.3
v 0.5 0.3 0.3
v -0.5 0.3 0.2
v -0.4 0.3 0.2
v 0.5 0.3 0.2
v 0.6 0.3 0.2
v -0.5 0.3 0.1
v -0.4 0.3 0.1
v 0.5 0.3 0.1
v 0.6 0.3 0.1
v -0.5 0.3 -0.2
v -0.4 0.3 -0.2
v 0.5 0.3 -0.2
v 0.6 0.3 -0.2
v -0.5 0.3 -0.3
v -0.4 0.3 -0.3
v 0.5 0.3 -0.3
v 0.6 0.3 -0.3
v -0.4 0.3 -0.4
v -0.3 0.3 -0.4
v 0.4 0.3 -0.4
v 0.5 0.3 -0.4
v -0.4 0.3 -0.5
v -0.3 0.3 -0.5
v -0.2 0.3 -0.5
v -0.1 0.3 -0.5
v 0.2 0.3 -0.5
v 0.3 0.3 -0.5
v 0.4 0.3 -0.5
v 0.5 0.3 -0.5
v -0.2 0.3 -0.6
v -0.1 0.3 -0.6
v 0.2 0.3 -0.6
v 0.3 0.3 -0.6
v -0.1 0.4 0.6
v 0.2 0.4 0.6
v -0.3 0.4 0.5
v -0.2 0.4 0.5
v -0.1 0.4 0.5
v 0.2 0.4 0.5
v 0.3 0.4 0.5
v 0.4 0.4 0.5
v -0.3 0.4 0.4
v -0.2 0.4 0.4
v 0.3 0.4 0.4
v 0.4 0.4 0.4
v -0.5 0.4 0.3
v -0.4 0.4 0.3
v 0.5 0.4 0.3
v 0.6 0.4 0.3
v -0.5 0.4 0.2
v -0.4 0.4 0.2
v 0.5 0.4 0.2
v 0.6 0.4 0.2
v -0.6 0.4 0.1
v -0.5 0.4 0.1
v 0.6 0.4 0.1
v 0.7 0.4 0.1
v -0.6 0.4 -0.2
v -0.5 0.4 -0.2
v 0.6 0.4 -0.2
v 0.7 0.4 -0.2
v -0.5 0.4 -0.3
v -0.4 0.4 -0.3
v 0.5 0.4 -0.3
v 0.6 0.4 -0.3
v -0.5 0.4 -0.4
v -0.4 0.4 -0.4
v 0.5 0.4 -0.4
v 0.6 0.4 -0.4
v -0.3 0.4 -0.5
v -0.2 0.4 -0.5
v 0.3 0.4 -0.5
v 0.4 0.4 -0.5
v -0.3 0.4 -0.6
v -0.2 0.4 -0.6
v -0.1 0.4 -0.6
v 0.2 0.4 -0.6
v 0.3 0.4 -0.6
v 0.4 0.4 -0.6
v -0.1 0.4 -0.7
v 0.2 0.4 -0.7
v -0.2 0.5 0.6
v -0.1 0.5 0.6
v 0.2 0.5 0.6
v 0.3 0.5 0.6
v -0.4 0.5 0.5
v -0.3 0.5 0.5
v -0.2 0.5 0.5
v -0.1 0.5 0.5
v 0.2 0.5 0.5
v 0.3 0.5 0.5
v 0.4 0.5 0.5
v 0.5 0.5 0.5
v -0.5 0.5 0.4
v -0.4 0.5 0.4
v -0.3 0.5 0.4
v 0.4 0.5 0.4
v 0.5 0.5 0.4
v 0.6 0.5 0.4
v -0.5 0.5 0.3
v -0.4 0.5 0.3
v 0.5 0.5 0.3
v 0.6 0.5 0.3
v -0.6 0.5 0.2
v -0.5 0.5 0.2
v 0.6 0.5 0.2
v 0.7 0.5 0.2
v -0.6 0.5 0.1
v -0.5 0.5 0.1
v 0.6 0.5 0.1
v 0.7 0.5 0.1
v -0.6 0.5 -0.2
v -0.5 0.5 -0.2
v 0.6 0.5 -0.2
v 0.7 0.5 -0.2
v -0.6 0.5 -0.3
v -0.5 0.5 -0.3
v 0.6 0.5 -0.3
v 0.7 0.5 -0.3
v -0.5 0.5 -0.4
v -0.4 0.5 -0.4
v 0.5 0.5 -0.4
v 0.6 0.5 -0.4
v -0.5 0.5 -0.5
v -0.4 0.5 -0.5
v -0.3 0.5 -0.5
v 0.4 0.5 -0.5
v 0.5 0.5 -0.5
v 0.6 0.5 -0.5
v -0.4 0.5 -0.6
v -0.3 0.5 -0.6
v -0.2 0.5 -0.6
v -0.1 0.5 -0.6
v 0.2 0.5 -0.6
v 0.3 0.5 -0.6
v 0.4 0.5 -0.6
v 0.5 0.5 -0.6
v -0.2 0.5 -0.7
v -0.1 0.5 -0.7
v 0.2 0.5 -0.7
v 0.3 0.5 -0.7
v -0.4 0.7 0.4
v -0.3 0.7 0.4
v 0.4 0.7 0.4
v 0.5 0.7 0.4
v -0.4 0.7 0.3
v -0.3 0.7 0.3
v 0.4 0.7 0.3
v 0.5 0.7 0.3
v -0.4 0.7 -0.4
v -0.3 0.7 -0.4
v 0.4 0.7 -0.4
v 0.5 0.7 -0.4
v -0.4 0.7 -0.5
v -0.3 0.7 -0.5
v 0.4 0.7 -0.5
v 0.5 0.7 -0.5
v -0.2 0.8 0.5
v -0.1 0.8 0.5
v 0.2 0.8 0.5
v 0.3 0.8 0.5
v -0.2 0.8 0.4
v -0.1 0.8 0.4
v 0.2 0.8 0.4
v 0.3 0.8 0.4
v -0.5 0.8 0.2
v -0.4 0.8 0.2
v 0.5 0.8 0.2
v 0.6 0.8 0.2
v -0.5 0.8 0.1
v -0.4 0.8 0.1
v 0.5 0.8 0.1
v 0.6 0.8 0.1
v -0.5 0.8 -0.2
v -0.4 0.8 -0.2
v 0.5 0.8 -0.2
v 0.6 0.8 -0.2
v -0.5 0.8 -0.3
v -0.4 0.8 -0.3
v 0.5 0.8 -0.3
v 0.6 0.8 -0.3
v -0.2 0.8 -0.5
v -0.1 0.8 -0.5
v 0.2 0.8 -0.5
v 0.3 0.8 -0.5
v -0.2 0.8 -0.6
v -0.1 0.8 -0.6
v 0.2 0.8 -0.6
v 0.3 0.8 -0.6
v -0.1 0.9 0.5
v 0.2 0.9 0.5
v -0.3 0.9 0.4
v -0.2 0.9 0.4
v -0.1 0.9 0.4
v 0.2 0.9 0.4
v 0.3 0.9 0.4
v 0.4 0.9 0.4
v -0.4 0.9 0.3
v -0.3 0.9 0.3
v -0.2 0.9 0.3
v 0.3 0.9 0.3
v 0.4 0.9 0.3
v 0.5 0.9 0.3
v -0.4 0.9 0.2
v -0.3 0.9 0.2
v 0.4 0.9 0.2
v 0.5 0.9 0.2
v -0.5 0.9 0.1
v -0.4 0.9 0.1
v 0.5 0.9 0.1
v 0.6 0.9 0.1
v -0.5 0.9 -0.2
v -0.4 0.9 -0.2
v 0.5 0.9 -0.2
v 0.6 0.9 -0.2
v -0.4 0.9 -0.3
v -0.3 0.9 -0.3
v 0.4 0.9 -0.3
v 0.5 0.9 -0.3
v -0.4 0.9 -0.4
v -0.3 0.9 -0.4
v -0.2 0.9 -0.4
v 0.3 0.9 -0.4
v 0.4 0.9 -0.4
v 0.5 0.9 -0.4
v -0.3 0.9 -0.5
v -0.2 0.9 -0.5
v -0.1 0.9 -0.5
v 0.2 0.9 -0.5
v 0.3 0.9 -0.5
v 0.4 0.9 -0.5
v -0.1 0.9 -0.6
v 0.2 0.9 -0.6
v -0.2 1 0.4
v -0.1 1 0.4
v 0 1 0.4
v 0.1 1 0.4
v 0.2 1 0.4
v 0.3 1 0.4
v -0.3 1 0.3
v -0.2 1 0.3
v -0.1 1 0.3
v 0 1 0.3
v 0.1 1 0.3
v 0.2 1 0.3
v 0.3 1 0.3
v 0.4 1 0.3
v -0.4 1 0.2
v -0.3 1 0.2
v -0.2 1 0.2
v 0.3 1 0.2
v 0.4 1 0.2
v 0.5 1 0.2
v -0.4 1 0.1
v -0.3 1 0.1
v 0.4 1 0.1
v 0.5 1 0.1
v -0.4 1 0
v -0.3 1 0
v 0.4 1 0
v 0.5 1 0
v -0.4 1 -0.1
v -0.3 1 -0.1
v 0.4 1 -0.1
v 0.5 1 -0.1
v -0.4 1 -0.2
v -0.3 1 -0.2
v 0.4 1 -0.2
v 0.5 1 -0.2
v -0.4 1 -0.3
v -0.3 1 -0.3
v -0.2 1 -0.3
v 0.3 1 -0.3
v 0.4 1 -0.3
v 0.5 1 -0.3
v -0.3 1 -0.4
v -0.2 1 -0.4
v -0.1 1 -0.4
v 0 1 -0.4
v 0.1 1 -0.4
v 0.2 1 -0.4
v 0.3 1 -0.4
v 0.4 1 -0.4
v -0.2 1 -0.5
v -0.1 1 -0.5
v 0 1 -0.5
v 0.1 1 -0.5
v 0.2 1 -0.5
v 0.3 1 -0.5
v -0.1 1.1 0.4
v 0 1.1 0.4
v 0.1 1.1 0.4
v 0.2 1.1 0.4
v -0.2 1.1 0.3
v -0.1 1.1 0.3
v 0 1.1 0.3
v 0.1 1.1 0.3
v 0.2 1.1 0.3
v 0.3 1.1 0.3
v -0.3 1.1 0.2
v -0.2 1.1 0.2
v -0.1 1.1 0.2
v 0 1.1 0.2
v 0.1 1.1 0.2
v 0.2 1.1 0.2
v 0.3 1.1 0.2
v 0.4 1.1 0.2
v -0.4 1.1 0.1
v -0.3 1.1 0.1
v -0.2 1.1 0.1
v -0.1 1.1 0.1
v 0 1.1 0.1
v 0.1 1.1 0.1
v 0.2 1.1 0.1
v 0.3 1.1 0.1
v 0.4 1.1 0.1
v 0.5 1.1 0.1
v -0.4 1.1 0
v -0.3 1.1 0
v -0.2 1.1 0
v -0.1 1.1 0
v 0.2 1.1 0
v 0.3 1.1 0
v 0.4 1.1 0
v 0.5 1.1 0
v -0.4 1.1 -0.1
v -0.3 1.1 -0.1
v -0.2 1.1 -0.1
v -0.1 1.1 -0.1
v 0.2 1.1 -0.1
v 0.3 1.1 -0.1
v 0.4 1.1 -0.1
v 0.5 1.1 -0.1
v -0.4 1.1 -0.2
v -0.3 1.1 -0.2
v -0.2 1.1 -0.2
v -0.1 1.1 -0.2
v 0 1.1 -0.2
v 0.1 1.1 -0.2
v 0.2 1.1 -0.2
v 0.3 1.1 -0.2
v 0.4 1.1 -0.2
v 0.5 1.1 -0.2
v -0.3 1.1 -0.3
v -0.2 1.1 -0.3
v -0.1 1.1 -0.3
v 0 1.1 -0.3
v 0.1 1.1 -0.3
v 0.2 1.1 -0.3
v 0.3 1.1 -0.3
v 0.4 1.1 -0.3
v -0.2 1.1 -0.4
v -0.1 1.1 -0.4
v 0 1.1 -0.4
v 0.1 1.1 -0.4
v 0.2 1.1 -0.4
v 0.3 1.1 -0.4
v -0.1 1.1 -0.5
v 0 1.1 -0.5
v 0.1 1.1 -0.5
v 0.2 1.1 -0.5
v -0.4 1.2 0.2
v -0.3 1.2 0.2
v -0.1 1.2 0.2
v 0 1.2 0.2
v 0.1 1.2 0.2
v 0.2 1.2 0.2
v -0.4 1.2 0.1
v -0.3 1.2 0.1
v -0.2 1.2 0.1
v -0.1 1.2 0.1
v 0 1.2 0.1
v 0.1 1.2 0.1
v 0.2 1.2 0.1
v 0.3 1.2 0.1
v -0.2 1.2 0
v -0.1 1.2 0
v 0.2 1.2 0
v 0.3 1.2 0
v -0.2 1.2 -0.1
v -0.1 1.2 -0.1
v 0.2 1.2 -0.1
v 0.3 1.2 -0.1
v -0.2 1.2 -0.2
v -0.1 1.2 -0.2
v 0 1.2 -0.2
v 0.1 1.2 -0.2
v 0.2 1.2 -0.2
v 0.3 1.2 -0.2
v -0.1 1.2 -0.3
v 0 1.2 -0.3
v 0.1 1.2 -0.3
v 0.2 1.2 -0.3
v -0.1 1.4 0
v 0 1.4 0
v -0.1 1.4 -0.1
v 0 1.4 -0.1
v -0.1 0.1 0.1
v 0.2 0.1 0.1
v -0.1 0.1 -0.2
v 0.2 0.1 -0.2
v -0.1 0.2 0.3
v 0.2 0.2 0.3
v -0.2 0.2 0.2
v -0.1 0.2 0.2
v 0.2 0.2 0.2
v 0.3 0.2 0.2
v -0.3 0.2 0.1
v -0.2 0.2 0.1
v -0.1 0.2 0.1
v 0.2 0.2 0.1
v 0.3 0.2 0.1
v 0.4 0.2 0.1
v -0.3 0.2 -0.2
v -0.2 0.2 -0.2
v -0.1 0.2 -0.2
v 0.2 0.2 -0.2
v 0.3 0.2 -0.2
v 0.4 0.2 -0.2
v -0.2 0.2 -0.3
v -0.1 0.2 -0.3
v 0.2 0.2 -0.3
v 0.3 0.2 -0.3
v -0.1 0.2 -0.4
v 0.2 0.2 -0.4
v -0.1 0.3 0.4
v 0.2 0.3 0.4
v 0.3 0.3 0.4
v -0.3 0.3 0.3
v -0.2 0.3 0.3
v -0.1 0.3 0.3
v 0.2 0.3 0.3
v 0.3 0.3 0.3
v 0.4 0.3 0.3
v -0.3 0.3 0.2
v -0.2 0.3 0.2
v -0.1 0.3 0.2
v 0.2 0.3 0.2
v 0.3 0.3 0.2
v 0.4 0.3 0.2
v -0.4 0.3 0.1
v -0.3 0.3 0.1
v -0.2 0.3 0.1
v 0.3 0.3 0.1
v 0.4 0.3 0.1
v 0.5 0.3 0.1
v -0.4 0.3 -0.2
v -0.3 0.3 -0.2
v -0.2 0.3 -0.2
v 0.3 0.3 -0.2
v 0.4 0.3 -0.2
v 0.5 0.3 -0.2
v -0.3 0.3 -0.3
v -0.2 0.3 -0.3
v -0.1 0.3 -0.3
v 0.2 0.3 -0.3
v 0.3 0.3 -0.3
v 0.4 0.3 -0.3
v -0.3 0.3 -0.4
v -0.2 0.3 -0.4
v -0.1 0.3 -0.4
v 0.2 0.3 -0.4
v 0.3 0.3 -0.4
v 0.4 0.3 -0.4
v -0.1 0.3 -0.5
v 0.2 0.3 -0.5
v -0.3 0.4 0.4
v -0.2 0.4 0.4
v -0.1 0.4 0.4
v 0.3 0.4 0.4
v 0.4 0.4 0.4
v -0.4 0.4 0.3
v -0.3 0.4 0.3
v -0.2 0.4 0.3
v -0.1 0.4 0.3
v 0.3 0.4 0.3
v 0.4 0.4 0.3
v 0.5 0.4 0.3
v -0.4 0.4 0.2
v -0.3 0.4 0.2
v 0.4 0.4 0.2
v 0.5 0.4 0.2
v -0.4 0.4 0.1
v -0.3 0.4 0.1
v 0.4 0.4 0.1
v 0.5 0.4 0.1
v -0.4 0.4 -0.2
v -0.3 0.4 -0.2
v 0.4 0.4 -0.2
v 0.5 0.4 -0.2
v -0.4 0.4 -0.3
v -0.3 0.4 -0.3
v 0.4 0.4 -0.3
v 0.5 0.4 -0.3
v -0.4 0.4 -0.4
v -0.3 0.4 -0.4
v -0.2 0.4 -0.4
v -0.1 0.4 -0.4
v 0.2 0.4 -0.4
v 0.3 0.4 -0.4
v 0.4 0.4 -0.4
v 0.5 0.4 -0.4
v -0.3 0.4 -0.5
v -0.2 0.4 -0.5
v -0.1 0.4 -0.5
v 0.2 0.4 -0.5
v 0.3 0.4 -0.5
v 0.4 0.4 -0.5
v -0.2 0.5 0.5
v -0.1 0.5 0.5
v 0.2 0.5 0.5
v 0.3 0.5 0.5
v -0.4 0.5 0.4
v -0.3 0.5 0.4
v -0.2 0.5 0.4
v -0.1 0.5 0.4
v 0.2 0.5 0.4
v 0.3 0.5 0.4
v 0.4 0.5 0.4
v 0.5 0.5 0.4
v -0.4 0.5 0.3
v -0.3 0.5 0.3
v 0.4 0.5 0.3
v 0.5 0.5 0.3
v -0.5 0.5 0.2
v -0.4 0.5 0.2
v 0.5 0.5 0.2
v 0.6 0.5 0.2
v -0.5 0.5 0.1
v -0.4 0.5 0.1
v 0.5 0.5 0.1
v 0.6 0.5 0.1
v -0.5 0.5 -0.2
v -0.4 0.5 -0.2
v 0.5 0.5 -0.2
v 0.6 0.5 -0.2
v -0.5 0.5 -0.3
v -0.4 0.5 -0.3
v 0.5 0.5 -0.3
v 0.6 0.5 -0.3
v -0.4 0.5 -0.4
v -0.3 0.5 -0.4
v 0.4 0.5 -0.4
v 0.5 0.5 -0.4
v -0.4 0.5 -0.5
v -0.3 0.5 -0.5
v -0.2 0.5 -0.5
v -0.1 0.5 -0.5
v 0.2 0.5 -0.5
v 0.3 0.5 -0.5
v 0.4 0.5 -0.5
v 0.5 0.5 -0.5
v -0.2 0.5 -0.6
v -0.1 0.5 -0.6
v 0.2 0.5 -0.6
v 0.3 0.5 -0.6
v -0.2 0.8 0.6
v -0.1 0.8 0.6
v 0.2 0.8 0.6
v 0.3 0.8 0.6
v -0.4 0.8 0.5
v -0.3 0.8 0.5
v -0.2 0.8 0.5
v -0.1 0.8 0.5
v 0.2 0.8 0.5
v 0.3 0.8 0.5
v 0.4 0.8 0.5
v 0.5 0.8 0.5
v -0.5 0.8 0.4
v -0.4 0.8 0.4
v -0.3 0.8 0.4
v 0.4 0.8 0.4
v 0.5 0.8 0.4
v 0.6 0.8 0.4
v -0.5 0.8 0.3
v -0.4 0.8 0.3
v 0.5 0.8 0.3
v 0.6 0.8 0.3
v -0.6 0.8 0.2
v -0.5 0.8 0.2
v 0.6 0.8 0.2
v 0.7 0.8 0.2
v -0.6 0.8 0.1
v -0.5 0.8 0.1
v 0.6 0.8 0.1
v 0.7 0.8 0.1
v -0.6 0.8 -0.2
v -0.5 0.8 -0.2
v 0.6 0.8 -0.2
v 0.7 0.8 -0.2
v -0.6 0.8 -0.3
v -0.5 0.8 -0.3
v 0.6 0.8 -0.3
v 0.7 0.8 -0.3
v -0.5 0.8 -0.4
v -0.4 0.8 -0.4
v 0.5 0.8 -0.4
v 0.6 0.8 -0.4
v -0.5 0.8 -0.5
v -0.4 0.8 -0.5
v -0.3 0.8 -0.5
v 0.4 0.8 -0.5
v 0.5 0.8 -0.5
v 0.6 0.8 -0.5
v -0.4 0.8 -0.6
v -0.3 0.8 -0.6
v -0.2 0.8 -0.6
v -0.1 0.8 -0.6
v 0.2 0.8 -0.6
v 0.3 0.8 -0.6
v 0.4 0.8 -0.6
v 0.5 0.8 -0.6
v -0.2 0.8 -0.7
v -0.1 0.8 -0.7
v 0.2 0.8 -0.7
v 0.3 0.8 -0.7
v -0.1 0.9 0.6
v 0.2 0.9 0.6
v -0.3 0.9 0.5
v -0.2 0.9 0.5
v -0.1 0.9 0.5
v 0.2 0.9 0.5
v 0.3 0.9 0.5
v 0.4 0.9 0.5
v -0.3 0.9 0.4
v -0.2 0.9 0.4
v 0.3 0.9 0.4
v 0.4 0.9 0.4
v -0.5 0.9 0.3
v -0.4 0.9 0.3
v 0.5 0.9 0.3
v 0.6 0.9 0.3
v -0.5 0.9 0.2
v -0.4 0.9 0.2
v 0.5 0.9 0.2
v 0.6 0.9 0.2
v -0.6 0.9 0.1
v -0.5 0.9 0.1
v 0.6 0.9 0.1
v 0.7 0.9 0.1
v -0.6 0.9 -0.2
v -0.5 0.9 -0.2
v 0.6 0.9 -0.2
v 0.7 0.9 -0.2
v -0.5 0.9 -0.3
v -0.4 0.9 -0.3
v 0.5 0.9 -0.3
v 0.6 0.9 -0.3
v -0.5 0.9 -0.4
v -0.4 0.9 -0.4
v 0.5 0.9 -0.4
v 0.6 0.9 -0.4
v -0.3 0.9 -0.5
v -0.2 0.9 -0.5
v 0.3 0.9 -0.5
v 0.4 0.9 -0.5
v -0.3 0.9 -0.6
v -0.2 0.9 -0.6
v -0.1 0.9 -0.6
v 0.2 0.9 -0.6
v 0.3 0.9 -0.6
v 0.4 0.9 -0.6
v -0.1 0.9 -0.7
v 0.2 0.9 -0.7
v -0.2 1 0.5
v -0.1 1 0.5
v 0.2 1 0.5
v 0.3 1 0.5
v -0.4 1 0.4
v -0.3 1 0.4
v -0.2 1 0.4
v -0.1 1 0.4
v 0.2 1 0.4
v 0.3 1 0.4
v 0.4 1 0.4
v 0.5 1 0.4
v -0.4 1 0.3
v -0.3 1 0.3
v 0.4 1 0.3
v 0.5 1 0.3
v -0.5 1 0.2
v -0.4 1 0.2
v 0.5 1 0.2
v 0.6 1 0.2
v -0.5 1 0.1
v -0.4 1 0.1
v 0.5 1 0.1
v 0.6 1 0.1
v -0.5 1 -0.2
v -0.4 1 -0.2
v 0.5 1 -0.2
v 0.6 1 -0.2
v -0.5 1 -0.3
v -0.4 1 -0.3
v 0.5 1 -0.3
v 0.6 1 -0.3
v -0.4 1 -0.4
v -0.3 1 -0.4
v 0.4 1 -0.4
v 0.5 1 -0.4
v -0.4 1 -0.5
v -0.3 1 -0.5
v -0.2 1 -0.5
v -0.1 1 -0.5
v 0.2 1 -0.5
v 0.3 1 -0.5
v 0.4 1 -0.5
v 0.5 1 -0.5
v -0.2 1 -0.6
v -0.1 1 -0.6
v 0.2 1 -0.6
v 0.3 1 -0.6
v -0.1 1.1 0.5
v 0.2 1.1 0.5
v -0.3 1.1 0.4
v -0.1 1.1 0.4
v 0.2 1.1 0.4
v 0.4 1.1 0.4
v -0.3 1.1 0.3
v -0.2 1.1 0.3
v -0.1 1.1 0.3
v 0.2 1.1 0.3
v 0.3 1.1 0.3
v 0.4 1.1 0.3
v 0.5 1.1 0.3
v -0.4 1.1 0.2
v -0.3 1.1 0.2
v -0.2 1.1 0.2
v 0.3 1.1 0.2
v 0.4 1.1 0.2
v -0.5 1.1 0.1
v -0.4 1.1 0.1
v -0.3 1.1 0.1
v 0.4 1.1 0.1
v 0.5 1.1 0.1
v 0.6 1.1 0.1
v -0.5 1.1 -0.2
v -0.4 1.1 -0.2
v -0.3 1.1 -0.2
v 0.4 1.1 -0.2
v 0.5 1.1 -0.2
v 0.6 1.1 -0.2
v -0.3 1.1 -0.3
v -0.2 1.1 -0.3
v 0.3 1.1 -0.3
v 0.4 1.1 -0.3
v -0.4 1.1 -0.4
v -0.3 1.1 -0.4
v -0.2 1.1 -0.4
v -0.1 1.1 -0.4
v 0.2 1.1 -0.4
v 0.3 1.1 -0.4
v 0.4 1.1 -0.4
v 0.5 1.1 -0.4
v -0.3 1.1 -0.5
v -0.1 1.1 -0.5
v 0.2 1.1 -0.5
v 0.4 1.1 -0.5
v -0.1 1.1 -0.6
v 0.2 1.1 -0.6
v -0.1 1.2 0.4
v 0.2 1.2 0.4
v -0.4 1.2 0.3
v -0.3 1.2 0.3
v -0.2 1.2 0.3
v -0.1 1.2 0.3
v 0.2 1.2 0.3
v 0.3 1.2 0.3
v -0.4 1.2 0.2
v -0.3 1.2 0.2
v -0.2 1.2 0.2
v -0.1 1.2 0.2
v 0.2 1.2 0.2
v 0.3 1.2 0.2
v 0.4 1.2 0.2
v -0.2 1.2 0.1
v -0.1 1.2 0.1
v 0.2 1.2 0.1
v 0.3 1.2 0.1
v 0.4 1.2 0.1
v 0.5 1.2 0.1
v -0.4 1.2 0
v -0.3 1.2 0
v -0.2 1.2 0
v -0.3 1.2 -0.1
v -0.2 1.2 -0.1
v -0.4 1.2 -0.2
v -0.3 1.2 -0.2
v -0.2 1.2 -0.2
v -0.1 1.2 -0.2
v 0.2 1.2 -0.2
v 0.3 1.2 -0.2
v 0.4 1.2 -0.2
v 0.5 1.2 -0.2
v -0.3 1.2 -0.3
v -0.2 1.2 -0.3
v -0.1 1.2 -0.3
v 0.2 1.2 -0.3
v 0.3 1.2 -0.3
v 0.4 1.2 -0.3
v -0.2 1.2 -0.4
v -0.1 1.2 -0.4
v 0.2 1.2 -0.4
v 0.3 1.2 -0.4
v -0.1 1.2 -0.5
v 0.2 1.2 -0.5
v -0.4 1.3 0.2
v -0.3 1.3 0.2
v -0.1 1.3 0.2
v 0.2 1.3 0.2
v -0.2 1.3 0.1
v -0.1 1.3 0.1
v 0.2 1.3 0.1
v 0.3 1.3 0.1
v -0.4 1.3 0
v -0.3 1.3 0
v -0.2 1.3 0
v -0.1 1.3 0
v 0 1.3 0
v 0.1 1.3 0
v -0.3 1.3 -0.1
v -0.2 1.3 -0.1
v -0.1 1.3 -0.1
v 0 1.3 -0.1
v 0.1 1.3 -0.1
v -0.2 1.3 -0.2
v -0.1 1.3 -0.2
v 0.2 1.3 -0.2
v 0.3 1.3 -0.2
v -0.1 1.3 -0.3
v 0.2 1.3 -0.3
v -0.2 1.4 0
v -0.1 1.4 0
v 0 1.4 0
v 0.1 1.4 0
v -0.2 1.4 -0.1
v -0.1 1.4 -0.1
v 0 1.4 -0.1
v 0.1 1.4 -0.1
v -0.1 1.5 0
v 0 1.5 0
v -0.1 1.5 -0.1
v 0 1.5 -0.1

# faces
f 4/5/1 2/5/1 1/5/1
f 5/5/1 2/5/1 4/5/1
f 7/5/1 4/5/1 3/5/1
f 7/5/1 6/5/1 5/5/1
f 7/5/1 5/5/1 4/5/1
f 8/5/1 6/5/1 7/5/1
f 9/5/1 6/5/1 8/5/1
f 10/5/1 6/5/1 9/5/1
f 11/5/1 9/5/1 8/5/1
f 12/5/1 9/5/1 11/5/1
f 16/5/1 14/5/1 13/5/1
f 17/5/1 14/5/1 16/5/1
f 20/5/1 16/5/1 15/5/1
f 20/5/1 18/5/1 17/5/1
f 20/5/1 17/5/1 16/5/1
f 21/5/1 18/5/1 20/5/1
f 22/5/1 18/5/1 21/5/1
f 23/5/1 18/5/1 22/5/1
f 26/5/1 20/5/1 19/5/1
f 26/5/1 21/5/1 20/5/1
f 27/5/1 21/5/1 26/5/1
f 28/5/1 21/5/1 27/5/1
f 29/5/1 23/5/1 22/5/1
f 29/5/1 24/5/1 23/5/1
f 30/5/1 24/5/1 29/5/1
f 31/5/1 24/5/1 30/5/1
f 33/5/1 27/5/1 26/5/1
f 33/5/1 26/5/1 25/5/1
f 34/5/1 27/5/1 33/5/1
f 35/5/1 27/5/1 34/5/1
f 38/5/1 32/5/1 31/5/1
f 38/5/1 31/5/1 30/5/1
f 39/5/1 32/5/1 38/5/1
f 40/5/1 32/5/1 39/5/1
f 41/5/1 36/5/1 35/5/1
f 41/5/1 35/5/1 34/5/1
f 42/5/1 36/5/1 41/5/1
f 43/5/1 36/5/1 42/5/1
f 44/5/1 39/5/1 38/5/1
f 44/5/1 38/5/1 37/5/1
f 45/5/1 39/5/1 44/5/1
f 46/5/1 39/5/1 45/5/1
f 47/5/1 43/5/1 42/5/1
f 47/5/1 45/5/1 44/5/1
f 47/5/1 44/5/1 43/5/1
f 48/5/1 45/5/1 47/5/1
f 49/5/1 45/5/1 48/5/1
f 50/5/1 45/5/1 49/5/1
f 51/5/1 49/5/1 48/5/1
f 52/5/1 49/5/1 51/5/1
f 56/5/1 54/5/1 53/5/1
f 57/5/1 54/5/1 56/5/1
f 60/5/1 56/5/1 55/5/1
f 61/5/1 56/5/1 60/5/1
f 62/5/1 56/5/1 61/5/1
f 63/5/1 58/5/1 57/5/1
f 64/5/1 58/5/1 63/5/1
f 65/5/1 58/5/1 64/5/1
f 67/5/1 60/5/1 59/5/1
f 67/5/1 61/5/1 60/5/1
f 68/5/1 61/5/1 67/5/1
f 69/5/1 66/5/1 65/5/1
f 69/5/1 65/5/1 64/5/1
f 70/5/1 66/5/1 69/5/1
f 72/5/1 67/5/1 59/5/1
f 73/5/1 67/5/1 72/5/1
f 74/5/1 66/5/1 70/5/1
f 75/5/1 66/5/1 74/5/1
f 77/5/1 72/5/1 71/5/1
f 78/5/1 72/5/1 77/5/1
f 81/5/1 76/5/1 75/5/1
f 82/5/1 76/5/1 81/5/1
f 83/5/1 79/5/1 78/5/1
f 86/5/1 81/5/1 80/5/1
f 87/5/1 84/5/1 83/5/1
f 87/5/1 83/5/1 78/5/1
f 88/5/1 84/5/1 87/5/1
f 89/5/1 84/5/1 88/5/1
f 92/5/1 86/5/1 85/5/1
f 93/5/1 81/5/1 86/5/1
f 93/5/1 86/5/1 92/5/1
f 94/5/1 81/5/1 93/5/1
f 95/5/1 90/5/1 89/5/1
f 95/5/1 89/5/1 88/5/1
f 96/5/1 90/5/1 95/5/1
f 97/5/1 90/5/1 96/5/1
f 98/5/1 92/5/1 91/5/1
f 98/5/1 93/5/1 92/5/1
f 99/5/1 93/5/1 98/5/1
f 100/1/1 96/1/1 95/1/1
f 101/1/1 96/1/1 100/1/1
f 102/5/1 98/5/1 97/5/1
f 103/5/1 98/5/1 102/5/1
f 104/5/1 98/5/1 103/5/1
f 105/2/1 102/2/1 101/2/1
f 105/2/1 103/2/1 102/2/1
f 106/2/1 103/2/1 105/2/1
f 113/5/1 108/5/1 107/5/1
f 114/5/1 108/5/1 113/5/1
f 115/5/1 110/5/1 109/5/1
f 116/5/1 110/5/1 115/5/1
f 119/5/1 112/5/1 111/5/1
f 120/5/1 112/5/1 119/5/1
f 121/5/1 118/5/1 117/5/1
f 122/5/1 118/5/1 121/5/1
f 127/5/1 124/5/1 123/5/1
f 128/5/1 124/5/1 127/5/1
f 129/5/1 126/5/1 125/5/1
f 130/5/1 126/5/1 129/5/1
f 135/5/1 132/5/1 131/5/1
f 136/5/1 132/5/1 135/5/1
f 137/5/1 134/5/1 133/5/1
f 138/5/1 134/5/1 137/5/1
f 143/5/1 140/5/1 139/5/1
f 144/5/1 140/5/1 143/5/1
f 149/5/1 142/5/1 141/5/1
f 150/5/1 142/5/1 149/5/1
f 151/5/1 146/5/1 145/5/1
f 152/5/1 146/5/1 151/5/1
f 155/5/1 148/5/1 147/5/1
f 156/5/1 148/5/1 155/5/1
f 157/2/1 154/2/1 153/2/1
f 158/2/1 154/2/1 157/2/1
f 163/5/1 160/5/1 159/5/1
f 164/5/1 160/5/1 163/5/1
f 167/5/1 162/5/1 161/5/1
f 168/5/1 162/5/1 167/5/1
f 169/5/1 166/5/1 165/5/1
f 170/5/1 166/5/1 169/5/1
f 175/5/1 172/5/1 171/5/1
f 176/5/1 172/5/1 175/5/1
f 177/5/1 174/5/1 173/5/1
f 178/5/1 174/5/1 177/5/1
f 183/5/1 180/5/1 179/5/1
f 184/5/1 180/5/1 183/5/1
f 185/5/1 182/5/1 181/5/1
f 186/5/1 182/5/1 185/5/1
f 191/5/1 188/5/1 187/5/1
f 192/5/1 188/5/1 191/5/1
f 193/5/1 190/5/1 189/5/1
f 194/5/1 190/5/1 193/5/1
f 199/5/1 196/5/1 195/5/1
f 200/5/1 196/5/1 199/5/1
f 205/5/1 198/5/1 197/5/1
f 206/5/1 198/5/1 205/5/1
f 207/5/1 202/5/1 201/5/1
f 208/5/1 202/5/1 207/5/1
f 209/5/1 204/5/1 203/5/1
f 210/5/1 204/5/1 209/5/1
f 211/2/1 209/2/1 208/2/1
f 212/2/1 209/2/1 211/2/1
f 219/5/1 214/5/1 213/5/1
f 220/5/1 214/5/1 219/5/1
f 221/5/1 216/5/1 215/5/1
f 222/5/1 216/5/1 221/5/1
f 226/5/1 218/5/1 217/5/1
f 227/5/1 218/5/1 226/5/1
f 228/5/1 224/5/1 223/5/1
f 229/5/1 224/5/1 228/5/1
f 231/5/1 226/5/1 225/5/1
f 232/5/1 226/5/1 231/5/1
f 233/5/1 230/5/1 229/5/1
f 234/5/1 230/5/1 233/5/1
f 239/5/1 236/5/1 235/5/1
f 240/5/1 236/5/1 239/5/1
f 241/5/1 238/5/1 237/5/1
f 242/5/1 238/5/1 241/5/1
f 247/5/1 244/5/1 243/5/1
f 248/5/1 244/5/1 247/5/1
f 249/5/1 246/5/1 245/5/1
f 250/5/1 246/5/1 249/5/1
f 255/5/1 252/5/1 251/5/1
f 256/5/1 252/5/1 255/5/1
f 259/5/1 254/5/1 253/5/1
f 260/5/1 254/5/1 259/5/1
f 261/5/1 257/5/1 256/5/1
f 262/5/1 257/5/1 261/5/1
f 267/5/1 259/5/1 258/5/1
f 268/5/1 259/5/1 267/5/1
f 269/5/1 264/5/1 263/5/1
f 270/5/1 264/5/1 269/5/1
f 271/5/1 266/5/1 265/5/1
f 272/5/1 266/5/1 271/5/1
f 275/2/1 274/2/1 273/2/1
f 276/2/1 274/2/1 275/2/1
f 281/3/1 278/3/1 277/3/1
f 282/3/1 278/3/1 281/3/1
f 287/3/1 280/3/1 279/3/1
f 288/3/1 280/3/1 287/3/1
f 289/3/1 284/3/1 283/3/1
f 290/3/1 284/3/1 289/3/1
f 291/3/1 286/3/1 285/3/1
f 292/3/1 286/3/1 291/3/1
f 295/2/1 294/2/1 293/2/1
f 296/2/1 294/2/1 295/2/1
f 301/4/1 298/4/1 297/4/1
f 302/4/1 298/4/1 301/4/1
f 305/3/1 300/3/1 299/3/1
f 306/3/1 300/3/1 305/3/1
f 307/3/1 304/3/1 303/3/1
f 308/3/1 304/3/1 307/3/1
f 310/3/1 309/3/1 308/3/1
f 311/3/1 309/3/1 310/3/1
f 316/5/1 313/5/1 312/5/1
f 317/5/1 313/5/1 316/5/1
f 318/5/1 315/5/1 314/5/1
f 319/5/1 315/5/1 318/5/1
f 324/5/1 321/5/1 320/5/1
f 325/5/1 321/5/1 324/5/1
f 332/5/1 323/5/1 322/5/1
f 333/5/1 323/5/1 332/5/1
f 334/5/1 327/5/1 326/5/1
f 335/5/1 327/5/1 334/5/1
f 336/3/1 329/3/1 328/3/1
f 337/3/1 329/3/1 336/3/1
f 338/5/1 331/5/1 330/5/1
f 339/5/1 331/5/1 338/5/1
f 346/3/1 341/3/1 340/3/1
f 347/3/1 341/3/1 346/3/1
f 348/3/1 343/3/1 342/3/1
f 349/3/1 343/3/1 348/3/1
f 350/5/1 345/5/1 344/5/1
f 351/5/1 345/5/1 350/5/1
f 356/5/1 353/5/1 352/5/1
f 357/5/1 353/5/1 356/5/1
f 358/5/1 355/5/1 354/5/1
f 359/5/1 355/5/1 358/5/1
f 364/5/1 361/5/1 360/5/1
f 365/5/1 361/5/1 364/5/1
f 368/5/1 363/5/1 362/5/1
f 369/5/1 363/5/1 368/5/1
f 370/5/1 366/5/1 365/5/1
f 371/5/1 366/5/1 370/5/1
f 376/5/1 368/5/1 367/5/1
f 377/5/1 368/5/1 376/5/1
f 378/5/1 373/5/1 372/5/1
f 379/5/1 373/5/1 378/5/1
f 380/5/1 375/5/1 374/5/1
f 381/5/1 375/5/1 380/5/1
f 386/3/1 383/3/1 382/3/1
f 387/3/1 383/3/1 386/3/1
f 391/5/1 385/5/1 384/5/1
f 392/3/1 386/3/1 385/3/1
f 392/5/1 385/5/1 391/5/1
f 393/3/1 386/3/1 392/3/1
f 394/3/1 388/3/1 387/3/1
f 395/5/1 389/5/1 388/5/1
f 395/3/1 388/3/1 394/3/1
f 396/5/1 389/5/1 395/5/1
f 398/5/1 391/5/1 390/5/1
f 399/5/1 391/5/1 398/5/1
f 400/5/1 397/5/1 396/5/1
f 401/5/1 397/5/1 400/5/1
f 406/3/1 403/3/1 402/3/1
f 407/3/1 403/3/1 406/3/1
f 408/3/1 405/3/1 404/3/1
f 409/3/1 405/3/1 408/3/1
f 410/5/1 407/5/1 406/5/1
f 411/5/1 407/5/1 410/5/1
f 414/5/1 409/5/1 408/5/1
f 415/5/1 409/5/1 414/5/1
f 416/5/1 412/5/1 411/5/1
f 417/5/1 412/5/1 416/5/1
f 422/5/1 414/5/1 413/5/1
f 423/5/1 414/5/1 422/5/1
f 424/5/1 418/5/1 417/5/1
f 425/5/1 418/5/1 424/5/1
f 426/3/1 420/3/1 419/3/1
f 427/3/1 420/3/1 426/3/1
f 428/5/1 422/5/1 421/5/1
f 429/5/1 422/5/1 428/5/1
f 434/5/1 431/5/1 430/5/1
f 435/5/1 431/5/1 434/5/1
f 439/5/1 433/5/1 432/5/1
f 439/5/1 434/5/1 433/5/1
f 440/5/1 434/5/1 439/5/1
f 441/3/1 435/3/1 434/3/1
f 441/5/1 434/5/1 440/5/1
f 442/5/1 437/5/1 436/5/1
f 442/3/1 435/3/1 441/3/1
f 442/5/1 436/5/1 435/5/1
f 443/5/1 437/5/1 442/5/1
f 444/5/1 437/5/1 443/5/1
f 446/5/1 439/5/1 438/5/1
f 446/5/1 440/5/1 439/5/1
f 447/5/1 440/5/1 446/5/1
f 448/5/1 445/5/1 444/5/1
f 448/5/1 444/5/1 443/5/1
f 449/5/1 445/5/1 448/5/1
f 450/5/1 440/5/1 447/5/1
f 451/5/1 440/5/1 450/5/1
f 454/5/1 448/5/1 443/5/1
f 455/5/1 448/5/1 454/5/1
f 456/5/1 452/5/1 451/5/1
f 456/5/1 451/5/1 450/5/1
f 457/5/1 452/5/1 456/5/1
f 458/5/1 452/5/1 457/5/1
f 459/5/1 455/5/1 454/5/1
f 459/5/1 454/5/1 453/5/1
f 460/5/1 455/5/1 459/5/1
f 461/5/1 455/5/1 460/5/1
f 462/5/1 458/5/1 457/5/1
f 462/5/1 460/5/1 459/5/1
f 462/5/1 459/5/1 458/5/1
f 463/5/1 460/5/1 462/5/1
f 464/5/1 460/5/1 463/5/1
f 465/5/1 460/5/1 464/5/1
f 466/5/1 460/5/1 465/5/1
f 467/5/1 460/5/1 466/5/1
f 468/5/1 464/5/1 463/5/1
f 469/5/1 464/5/1 468/5/1
f 470/5/1 466/5/1 465/5/1
f 471/5/1 466/5/1 470/5/1
f 476/5/1 473/5/1 472/5/1
f 476/5/1 475/5/1 474/5/1
f 476/5/1 474/5/1 473/5/1
f 477/5/1 475/5/1 476/5/1
f 478/5/1 475/5/1 477/5/1
f 479/5/1 475/5/1 478/5/1
f 480/5/1 478/5/1 477/5/1
f 481/5/1 478/5/1 480/5/1
f 482/5/2 483/5/2 486/5/2
f 484/5/2 485/5/2 486/5/2
f 483/5/2 484/5/2 486/5/2
f 486/5/2 485/5/2 487/5/2
f 487/5/2 485/5/2 488/5/2
f 488/5/2 485/5/2 489/5/2
f 487/5/2 488/5/2 490/5/2
f 490/5/2 488/5/2 491/5/2
f 492/5/2 493/5/2 496/5/2
f 496/5/2 493/5/2 497/5/2
f 494/5/2 495/5/2 501/5/2
f 495/5/2 496/5/2 501/5/2
f 501/5/2 496/5/2 502/5/2
f 496/3/2 497/3/2 503/3/2
f 502/5/2 496/5/2 503/5/2
f 498/5/2 499/5/2 504/5/2
f 503/3/2 497/3/2 504/3/2
f 497/5/2 498/5/2 504/5/2
f 504/5/2 499/5/2 505/5/2
f 505/5/2 499/5/2 506/5/2
f 500/5/2 501/5/2 508/5/2
f 501/5/2 502/5/2 508/5/2
f 508/5/2 502/5/2 509/5/2
f 506/5/2 507/5/2 510/5/2
f 505/5/2 506/5/2 510/5/2
f 510/5/2 507/5/2 511/5/2
f 509/5/2 502/5/2 512/5/2
f 512/5/2 502/5/2 513/5/2
f 505/5/2 510/5/2 516/5/2
f 516/5/2 510/5/2 517/5/2
f 513/5/2 514/5/2 518/5/2
f 512/5/2 513/5/2 518/5/2
f 518/5/2 514/5/2 519/5/2
f 519/5/2 514/5/2 520/5/2
f 516/5/2 517/5/2 521/5/2
f 515/5/2 516/5/2 521/5/2
f 521/5/2 517/5/2 522/5/2
f 522/5/2 517/5/2 523/5/2
f 519/5/2 520/5/2 524/5/2
f 521/5/2 522/5/2 524/5/2
f 520/5/2 521/5/2 524/5/2
f 524/5/2 522/5/2 525/5/2
f 525/5/2 522/5/2 526/5/2
f 526/5/2 522/5/2 527/5/2
f 527/5/2 522/5/2 528/5/2
f 528/5/2 522/5/2 529/5/2
f 525/5/2 526/5/2 530/5/2
f 530/5/2 526/5/2 531/5/2
f 527/5/2 528/5/2 532/5/2
f 532/5/2 528/5/2 533/5/2
f 534/3/2 535/3/2 538/3/2
f 538/3/2 535/3/2 539/3/2
f 536/5/2 537/5/2 543/5/2
f 537/3/2 538/3/2 544/3/2
f 543/5/2 537/5/2 544/5/2
f 544/3/2 538/3/2 545/3/2
f 539/3/2 540/3/2 546/3/2
f 540/5/2 541/5/2 547/5/2
f 546/3/2 540/3/2 547/3/2
f 547/5/2 541/5/2 548/5/2
f 542/5/2 543/5/2 550/5/2
f 550/5/2 543/5/2 551/5/2
f 548/5/2 549/5/2 552/5/2
f 552/5/2 549/5/2 553/5/2
f 554/3/2 555/3/2 558/3/2
f 558/3/2 555/3/2 559/3/2
f 556/3/2 557/3/2 560/3/2
f 560/3/2 557/3/2 561/3/2
f 558/5/2 559/5/2 562/5/2
f 562/5/2 559/5/2 563/5/2
f 560/5/2 561/5/2 566/5/2
f 566/5/2 561/5/2 567/5/2
f 563/5/2 564/5/2 568/5/2
f 568/5/2 564/5/2 569/5/2
f 565/5/2 566/5/2 574/5/2
f 574/5/2 566/5/2 575/5/2
f 569/5/2 570/5/2 577/5/2
f 577/5/2 570/5/2 578/5/2
f 571/3/2 572/3/2 579/3/2
f 579/3/2 572/3/2 580/3/2
f 573/5/2 574/5/2 581/5/2
f 581/5/2 574/5/2 582/5/2
f 576/1/2 577/1/2 583/1/2
f 583/1/2 577/1/2 584/1/2
f 584/2/2 585/2/2 586/2/2
f 586/2/2 585/2/2 587/2/2
f 588/3/2 589/3/2 592/3/2
f 592/3/2 589/3/2 593/3/2
f 590/3/2 591/3/2 594/3/2
f 594/3/2 591/3/2 595/3/2
f 596/5/2 597/5/2 600/5/2
f 600/5/2 597/5/2 601/5/2
f 598/5/2 599/5/2 602/5/2
f 602/5/2 599/5/2 603/5/2
f 604/5/2 605/5/2 608/5/2
f 608/5/2 605/5/2 609/5/2
f 606/5/2 607/5/2 612/5/2
f 612/5/2 607/5/2 613/5/2
f 609/5/2 610/5/2 614/5/2
f 614/5/2 610/5/2 615/5/2
f 611/5/2 612/5/2 620/5/2
f 620/5/2 612/5/2 621/5/2
f 616/5/2 617/5/2 622/5/2
f 622/5/2 617/5/2 623/5/2
f 618/5/2 619/5/2 624/5/2
f 624/5/2 619/5/2 625/5/2
f 626/4/2 627/4/2 630/4/2
f 630/4/2 627/4/2 631/4/2
f 628/3/2 629/3/2 635/3/2
f 635/3/2 629/3/2 636/3/2
f 632/3/2 633/3/2 637/3/2
f 637/3/2 633/3/2 638/3/2
f 634/3/2 635/3/2 640/3/2
f 640/3/2 635/3/2 641/3/2
f 638/3/2 639/3/2 642/3/2
f 642/3/2 639/3/2 643/3/2
f 644/5/2 645/5/2 648/5/2
f 648/5/2 645/5/2 649/5/2
f 646/5/2 647/5/2 650/5/2
f 650/5/2 647/5/2 651/5/2
f 652/5/2 653/5/2 656/5/2
f 656/5/2 653/5/2 657/5/2
f 654/5/2 655/5/2 664/5/2
f 664/5/2 655/5/2 665/5/2
f 658/5/2 659/5/2 666/5/2
f 666/5/2 659/5/2 667/5/2
f 660/3/2 661/3/2 668/3/2
f 668/3/2 661/3/2 669/3/2
f 662/5/2 663/5/2 670/5/2
f 670/5/2 663/5/2 671/5/2
f 672/2/2 673/2/2 674/2/2
f 674/2/2 673/2/2 675/2/2
f 676/2/2 677/2/2 678/2/2
f 678/2/2 677/2/2 679/2/2
f 680/3/2 681/3/2 684/3/2
f 684/3/2 681/3/2 685/3/2
f 682/3/2 683/3/2 690/3/2
f 690/3/2 683/3/2 691/3/2
f 686/3/2 687/3/2 692/3/2
f 692/3/2 687/3/2 693/3/2
f 688/3/2 689/3/2 694/3/2
f 694/3/2 689/3/2 695/3/2
f 696/2/2 697/2/2 698/2/2
f 698/2/2 697/2/2 699/2/2
f 700/5/2 701/5/2 706/5/2
f 706/5/2 701/5/2 707/5/2
f 702/5/2 703/5/2 708/5/2
f 708/5/2 703/5/2 709/5/2
f 704/5/2 705/5/2 713/5/2
f 713/5/2 705/5/2 714/5/2
f 710/5/2 711/5/2 715/5/2
f 715/5/2 711/5/2 716/5/2
f 712/5/2 713/5/2 718/5/2
f 718/5/2 713/5/2 719/5/2
f 716/5/2 717/5/2 720/5/2
f 720/5/2 717/5/2 721/5/2
f 722/5/2 723/5/2 726/5/2
f 726/5/2 723/5/2 727/5/2
f 724/5/2 725/5/2 728/5/2
f 728/5/2 725/5/2 729/5/2
f 730/5/2 731/5/2 734/5/2
f 734/5/2 731/5/2 735/5/2
f 732/5/2 733/5/2 736/5/2
f 736/5/2 733/5/2 737/5/2
f 738/5/2 739/5/2 742/5/2
f 742/5/2 739/5/2 743/5/2
f 740/5/2 741/5/2 746/5/2
f 746/5/2 741/5/2 747/5/2
f 743/5/2 744/5/2 748/5/2
f 748/5/2 744/5/2 749/5/2
f 745/5/2 746/5/2 754/5/2
f 754/5/2 746/5/2 755/5/2
f 750/5/2 751/5/2 756/5/2
f 756/5/2 751/5/2 757/5/2
f 752/5/2 753/5/2 758/5/2
f 758/5/2 753/5/2 759/5/2
f 760/5/2 761/5/2 764/5/2
f 764/5/2 761/5/2 765/5/2
f 762/5/2 763/5/2 768/5/2
f 768/5/2 763/5/2 769/5/2
f 766/5/2 767/5/2 770/5/2
f 770/5/2 767/5/2 771/5/2
f 772/5/2 773/5/2 776/5/2
f 776/5/2 773/5/2 777/5/2
f 774/5/2 775/5/2 778/5/2
f 778/5/2 775/5/2 779/5/2
f 780/5/2 781/5/2 784/5/2
f 784/5/2 781/5/2 785/5/2
f 782/5/2 783/5/2 786/5/2
f 786/5/2 783/5/2 787/5/2
f 788/5/2 789/5/2 792/5/2
f 792/5/2 789/5/2 793/5/2
f 790/5/2 791/5/2 794/5/2
f 794/5/2 791/5/2 795/5/2
f 796/5/2 797/5/2 800/5/2
f 800/5/2 797/5/2 801/5/2
f 798/5/2 799/5/2 804/5/2
f 804/5/2 799/5/2 805/5/2
f 802/5/2 803/5/2 806/5/2
f 806/5/2 803/5/2 807/5/2
f 808/5/2 809/5/2 814/5/2
f 814/5/2 809/5/2 815/5/2
f 810/5/2 811/5/2 816/5/2
f 816/5/2 811/5/2 817/5/2
f 812/5/2 813/5/2 820/5/2
f 820/5/2 813/5/2 821/5/2
f 818/5/2 819/5/2 822/5/2
f 822/5/2 819/5/2 823/5/2
f 824/5/2 825/5/2 828/5/2
f 828/5/2 825/5/2 829/5/2
f 826/5/2 827/5/2 830/5/2
f 830/5/2 827/5/2 831/5/2
f 832/5/2 833/5/2 836/5/2
f 836/5/2 833/5/2 837/5/2
f 834/5/2 835/5/2 838/5/2
f 838/5/2 835/5/2 839/5/2
f 840/5/2 841/5/2 844/5/2
f 844/5/2 841/5/2 845/5/2
f 842/5/2 843/5/2 850/5/2
f 850/5/2 843/5/2 851/5/2
f 846/5/2 847/5/2 852/5/2
f 852/5/2 847/5/2 853/5/2
f 848/5/2 849/5/2 854/5/2
f 854/5/2 849/5/2 855/5/2
f 856/5/2 857/5/2 859/5/2
f 859/5/2 857/5/2 860/5/2
f 858/5/2 859/5/2 863/5/2
f 863/5/2 859/5/2 864/5/2
f 864/5/2 859/5/2 865/5/2
f 860/5/2 861/5/2 866/5/2
f 866/5/2 861/5/2 867/5/2
f 867/5/2 861/5/2 868/5/2
f 862/5/2 863/5/2 870/5/2
f 863/5/2 864/5/2 870/5/2
f 870/5/2 864/5/2 871/5/2
f 868/5/2 869/5/2 872/5/2
f 867/5/2 868/5/2 872/5/2
f 872/5/2 869/5/2 873/5/2
f 862/5/2 870/5/2 875/5/2
f 875/5/2 870/5/2 876/5/2
f 873/5/2 869/5/2 877/5/2
f 877/5/2 869/5/2 878/5/2
f 874/5/2 875/5/2 880/5/2
f 880/5/2 875/5/2 881/5/2
f 878/5/2 879/5/2 884/5/2
f 884/5/2 879/5/2 885/5/2
f 881/5/2 882/5/2 886/5/2
f 883/5/2 884/5/2 889/5/2
f 886/5/2 887/5/2 890/5/2
f 881/5/2 886/5/2 890/5/2
f 890/5/2 887/5/2 891/5/2
f 891/5/2 887/5/2 892/5/2
f 888/5/2 889/5/2 895/5/2
f 889/5/2 884/5/2 896/5/2
f 895/5/2 889/5/2 896/5/2
f 896/5/2 884/5/2 897/5/2
f 892/5/2 893/5/2 898/5/2
f 891/5/2 892/5/2 898/5/2
f 898/5/2 893/5/2 899/5/2
f 894/5/2 895/5/2 900/5/2
f 895/5/2 896/5/2 900/5/2
f 900/5/2 896/5/2 901/5/2
f 899/5/2 900/5/2 902/5/2
f 902/5/2 900/5/2 903/5/2
f 904/5/2 905/5/2 907/5/2
f 907/5/2 905/5/2 908/5/2
f 906/5/2 907/5/2 911/5/2
f 908/5/2 909/5/2 911/5/2
f 907/5/2 908/5/2 911/5/2
f 911/5/2 909/5/2 912/5/2
f 912/5/2 909/5/2 913/5/2
f 913/5/2 909/5/2 914/5/2
f 910/5/2 911/5/2 917/5/2
f 911/5/2 912/5/2 917/5/2
f 917/5/2 912/5/2 918/5/2
f 918/5/2 912/5/2 919/5/2
f 913/5/2 914/5/2 920/5/2
f 914/5/2 915/5/2 920/5/2
f 920/5/2 915/5/2 921/5/2
f 921/5/2 915/5/2 922/5/2
f 917/5/2 918/5/2 924/5/2
f 916/5/2 917/5/2 924/5/2
f 924/5/2 918/5/2 925/5/2
f 925/5/2 918/5/2 926/5/2
f 922/5/2 923/5/2 929/5/2
f 921/5/2 922/5/2 929/5/2
f 929/5/2 923/5/2 930/5/2
f 930/5/2 923/5/2 931/5/2
f 926/5/2 927/5/2 932/5/2
f 925/5/2 926/5/2 932/5/2
f 932/5/2 927/5/2 933/5/2
f 933/5/2 927/5/2 934/5/2
f 929/5/2 930/5/2 935/5/2
f 928/5/2 929/5/2 935/5/2
f 935/5/2 930/5/2 936/5/2
f 936/5/2 930/5/2 937/5/2
f 933/5/2 934/5/2 938/5/2
f 935/5/2 936/5/2 938/5/2
f 934/5/2 935/5/2 938/5/2
f 938/5/2 936/5/2 939/5/2
f 939/5/2 936/5/2 940/5/2
f 940/5/2 936/5/2 941/5/2
f 939/5/2 940/5/2 942/5/2
f 942/5/2 940/5/2 943/5/2
f 944/5/2 945/5/2 947/5/2
f 947/5/2 945/5/2 948/5/2
f 946/5/2 947/5/2 950/5/2
f 948/5/2 949/5/2 950/5/2
f 947/5/2 948/5/2 950/5/2
f 950/5/2 949/5/2 951/5/2
f 951/5/2 949/5/2 952/5/2
f 952/5/2 949/5/2 953/5/2
f 951/5/2 952/5/2 954/5/2
f 954/5/2 952/5/2 955/5/2
f 959/5/3 957/5/3 956/5/3
f 960/5/3 957/5/3 959/5/3
f 962/5/3 959/5/3 958/5/3
f 962/5/3 961/5/3 960/5/3
f 962/5/3 960/5/3 959/5/3
f 963/5/3 961/5/3 962/5/3
f 964/5/3 961/5/3 963/5/3
f 965/5/3 961/5/3 964/5/3
f 966/5/3 964/5/3 963/5/3
f 967/5/3 964/5/3 966/5/3
f 971/5/3 969/5/3 968/5/3
f 972/5/3 969/5/3 971/5/3
f 975/5/3 971/5/3 970/5/3
f 975/5/3 973/5/3 972/5/3
f 975/5/3 972/5/3 971/5/3
f 976/5/3 973/5/3 975/5/3
f 977/5/3 973/5/3 976/5/3
f 978/5/3 973/5/3 977/5/3
f 981/5/3 975/5/3 974/5/3
f 981/5/3 976/5/3 975/5/3
f 982/5/3 976/5/3 981/5/3
f 983/5/3 976/5/3 982/5/3
f 984/5/3 978/5/3 977/5/3
f 984/5/3 979/5/3 978/5/3
f 985/5/3 979/5/3 984/5/3
f 986/5/3 979/5/3 985/5/3
f 988/5/3 982/5/3 981/5/3
f 988/5/3 981/5/3 980/5/3
f 989/5/3 982/5/3 988/5/3
f 990/5/3 982/5/3 989/5/3
f 993/5/3 987/5/3 986/5/3
f 993/5/3 986/5/3 985/5/3
f 994/5/3 987/5/3 993/5/3
f 995/5/3 987/5/3 994/5/3
f 996/5/3 991/5/3 990/5/3
f 996/5/3 990/5/3 989/5/3
f 997/5/3 991/5/3 996/5/3
f 998/5/3 991/5/3 997/5/3
f 999/5/3 994/5/3 993/5/3
f 999/5/3 993/5/3 992/5/3
f 1000/5/3 994/5/3 999/5/3
f 1001/5/3 994/5/3 1000/5/3
f 1002/5/3 998/5/3 997/5/3
f 1002/5/3 1000/5/3 999/5/3
f 1002/5/3 999/5/3 998/5/3
f 1003/5/3 1000/5/3 1002/5/3
f 1004/5/3 1000/5/3 1003/5/3
f 1005/5/3 1000/5/3 1004/5/3
f 1006/5/3 1004/5/3 1003/5/3
f 1007/5/3 1004/5/3 1006/5/3
f 1011/5/3 1009/5/3 1008/5/3
f 1012/5/3 1009/5/3 1011/5/3
f 1015/5/3 1011/5/3 1010/5/3
f 1016/5/3 1011/5/3 1015/5/3
f 1017/5/3 1011/5/3 1016/5/3
f 1018/5/3 1013/5/3 1012/5/3
f 1019/5/3 1013/5/3 1018/5/3
f 1020/5/3 1013/5/3 1019/5/3
f 1022/5/3 1015/5/3 1014/5/3
f 1022/5/3 1016/5/3 1015/5/3
f 1023/5/3 1016/5/3 1022/5/3
f 1024/5/3 1021/5/3 1020/5/3
f 1024/5/3 1020/5/3 1019/5/3
f 1025/5/3 1021/5/3 1024/5/3
f 1027/5/3 1022/5/3 1014/5/3
f 1028/5/3 1022/5/3 1027/5/3
f 1029/5/3 1021/5/3 1025/5/3
f 1030/5/3 1021/5/3 1029/5/3
f 1032/5/3 1027/5/3 1026/5/3
f 1033/5/3 1027/5/3 1032/5/3
f 1036/5/3 1031/5/3 1030/5/3
f 1037/5/3 1031/5/3 1036/5/3
f 1038/5/3 1034/5/3 1033/5/3
f 1041/5/3 1036/5/3 1035/5/3
f 1042/5/3 1039/5/3 1038/5/3
f 1042/5/3 1038/5/3 1033/5/3
f 1043/5/3 1039/5/3 1042/5/3
f 1044/5/3 1039/5/3 1043/5/3
f 1047/5/3 1041/5/3 1040/5/3
f 1048/5/3 1036/5/3 1041/5/3
f 1048/5/3 1041/5/3 1047/5/3
f 1049/5/3 1036/5/3 1048/5/3
f 1050/5/3 1045/5/3 1044/5/3
f 1050/5/3 1044/5/3 1043/5/3
f 1051/5/3 1045/5/3 1050/5/3
f 1052/5/3 1047/5/3 1046/5/3
f 1052/5/3 1048/5/3 1047/5/3
f 1053/5/3 1048/5/3 1052/5/3
f 1054/5/3 1052/5/3 1051/5/3
f 1055/5/3 1052/5/3 1054/5/3
f 1062/5/3 1057/5/3 1056/5/3
f 1063/5/3 1057/5/3 1062/5/3
f 1064/5/3 1059/5/3 1058/5/3
f 1065/5/3 1059/5/3 1064/5/3
f 1069/5/3 1061/5/3 1060/5/3
f 1070/5/3 1061/5/3 1069/5/3
f 1071/5/3 1067/5/3 1066/5/3
f 1072/1/3 1068/1/3 1067/1/3
f 1072/5/3 1067/5/3 1071/5/3
f 1073/1/3 1068/1/3 1072/1/3
f 1078/5/3 1075/5/3 1074/5/3
f 1079/5/3 1075/5/3 1078/5/3
f 1080/5/3 1077/5/3 1076/5/3
f 1081/5/3 1077/5/3 1080/5/3
f 1086/5/3 1083/5/3 1082/5/3
f 1087/5/3 1083/5/3 1086/5/3
f 1088/5/3 1085/5/3 1084/5/3
f 1089/5/3 1085/5/3 1088/5/3
f 1094/5/3 1091/5/3 1090/5/3
f 1095/5/3 1091/5/3 1094/5/3
f 1100/5/3 1093/5/3 1092/5/3
f 1101/5/3 1093/5/3 1100/5/3
f 1102/5/3 1097/5/3 1096/5/3
f 1103/5/3 1097/5/3 1102/5/3
f 1104/5/3 1099/5/3 1098/5/3
f 1105/5/3 1099/5/3 1104/5/3
f 1110/5/3 1107/5/3 1106/5/3
f 1111/5/3 1107/5/3 1110/5/3
f 1114/5/3 1109/5/3 1108/5/3
f 1115/5/3 1109/5/3 1114/5/3
f 1116/5/3 1113/5/3 1112/5/3
f 1117/5/3 1113/5/3 1116/5/3
f 1123/2/3 1119/2/3 1118/2/3
f 1124/2/3 1119/2/3 1123/2/3
f 1125/5/3 1121/5/3 1120/5/3
f 1126/5/3 1121/5/3 1125/5/3
f 1127/5/3 1123/5/3 1122/5/3
f 1128/5/3 1123/5/3 1127/5/3
f 1133/5/3 1130/5/3 1129/5/3
f 1134/5/3 1130/5/3 1133/5/3
f 1135/5/3 1132/5/3 1131/5/3
f 1136/5/3 1132/5/3 1135/5/3
f 1141/5/3 1138/5/3 1137/5/3
f 1142/5/3 1138/5/3 1141/5/3
f 1143/5/3 1140/5/3 1139/5/3
f 1144/5/3 1140/5/3 1143/5/3
f 1149/5/3 1146/5/3 1145/5/3
f 1150/5/3 1146/5/3 1149/5/3
f 1153/5/3 1148/5/3 1147/5/3
f 1154/5/3 1148/5/3 1153/5/3
f 1155/5/3 1152/5/3 1151/5/3
f 1156/5/3 1152/5/3 1155/5/3
f 1163/5/3 1158/5/3 1157/5/3
f 1164/5/3 1158/5/3 1163/5/3
f 1165/5/3 1160/5/3 1159/5/3
f 1166/5/3 1160/5/3 1165/5/3
f 1170/5/3 1162/5/3 1161/5/3
f 1171/5/3 1162/5/3 1170/5/3
f 1172/5/3 1168/5/3 1167/5/3
f 1173/5/3 1168/5/3 1172/5/3
f 1175/5/3 1170/5/3 1169/5/3
f 1176/5/3 1170/5/3 1175/5/3
f 1177/5/3 1174/5/3 1173/5/3
f 1178/5/3 1174/5/3 1177/5/3
f 1183/5/3 1180/5/3 1179/5/3
f 1184/5/3 1180/5/3 1183/5/3
f 1185/5/3 1182/5/3 1181/5/3
f 1186/5/3 1182/5/3 1185/5/3
f 1191/5/3 1188/5/3 1187/5/3
f 1192/5/3 1188/5/3 1191/5/3
f 1193/5/3 1190/5/3 1189/5/3
f 1194/5/3 1190/5/3 1193/5/3
f 1199/5/3 1196/5/3 1195/5/3
f 1200/5/3 1196/5/3 1199/5/3
f 1203/5/3 1198/5/3 1197/5/3
f 1204/5/3 1198/5/3 1203/5/3
f 1205/5/3 1201/5/3 1200/5/3
f 1206/5/3 1201/5/3 1205/5/3
f 1211/5/3 1203/5/3 1202/5/3
f 1212/5/3 1203/5/3 1211/5/3
f 1213/5/3 1208/5/3 1207/5/3
f 1214/5/3 1208/5/3 1213/5/3
f 1215/5/3 1210/5/3 1209/5/3
f 1216/5/3 1210/5/3 1215/5/3
f 1219/3/3 1218/3/3 1217/3/3
f 1220/3/3 1218/3/3 1219/3/3
f 1224/2/3 1222/2/3 1221/2/3
f 1225/2/3 1222/2/3 1224/2/3
f 1227/3/3 1224/3/3 1223/3/3
f 1228/3/3 1224/3/3 1227/3/3
f 1229/2/3 1226/2/3 1225/2/3
f 1230/2/3 1226/2/3 1229/2/3
f 1233/2/3 1231/2/3 1230/2/3
f 1234/2/3 1231/2/3 1233/2/3
f 1235/2/3 1233/2/3 1232/2/3
f 1236/2/3 1233/2/3 1235/2/3
f 1239/3/3 1238/3/3 1237/3/3
f 1240/3/3 1238/3/3 1239/3/3
f 1243/3/3 1242/3/3 1241/3/3
f 1244/3/3 1242/3/3 1243/3/3
f 1249/5/3 1246/5/3 1245/5/3
f 1250/5/3 1246/5/3 1249/5/3
f 1254/3/3 1248/3/3 1247/3/3
f 1255/3/3 1248/3/3 1254/3/3
f 1256/5/3 1252/5/3 1251/5/3
f 1257/5/3 1252/5/3 1256/5/3
f 1258/3/3 1254/3/3 1253/3/3
f 1259/3/3 1254/3/3 1258/3/3
f 1264/5/3 1261/5/3 1260/5/3
f 1265/5/3 1261/5/3 1264/5/3
f 1268/3/3 1267/3/3 1266/3/3
f 1269/3/3 1267/3/3 1268/3/3
f 1270/4/3 1263/4/3 1262/4/3
f 1271/4/3 1263/4/3 1270/4/3
f 1276/5/3 1273/5/3 1272/5/3
f 1277/5/3 1273/5/3 1276/5/3
f 1278/3/3 1275/3/3 1274/3/3
f 1279/3/3 1275/3/3 1278/3/3
f 1283/3/3 1280/3/3 1279/3/3
f 1284/3/3 1280/3/3 1283/3/3
f 1287/5/3 1282/5/3 1281/5/3
f 1288/5/3 1282/5/3 1287/5/3
f 1289/5/3 1286/5/3 1285/5/3
f 1290/5/3 1286/5/3 1289/5/3
f 1293/5/3 1292/5/3 1291/5/3
f 1294/5/3 1292/5/3 1293/5/3
f 1297/5/3 1296/5/3 1295/5/3
f 1298/5/3 1296/5/3 1297/5/3
f 1302/5/3 1299/5/3 1298/5/3
f 1303/5/3 1299/5/3 1302/5/3
f 1304/3/3 1301/3/3 1300/3/3
f 1305/3/3 1301/3/3 1304/3/3
f 1308/5/3 1307/5/3 1306/5/3
f 1309/5/3 1307/5/3 1308/5/3
f 1314/5/3 1311/5/3 1310/5/3
f 1315/5/3 1311/5/3 1314/5/3
f 1316/3/3 1313/3/3 1312/3/3
f 1317/3/3 1313/3/3 1316/3/3
f 1321/5/3 1319/5/3 1318/5/3
f 1322/5/3 1319/5/3 1321/5/3
f 1325/5/3 1321/5/3 1320/5/3
f 1326/5/3 1321/5/3 1325/5/3
f 1327/5/3 1324/5/3 1323/5/3
f 1328/5/3 1324/5/3 1327/5/3
f 1335/5/3 1330/5/3 1329/5/3
f 1336/5/3 1330/5/3 1335/5/3
f 1337/3/3 1332/3/3 1331/3/3
f 1338/5/3 1333/5/3 1332/5/3
f 1338/3/3 1332/3/3 1337/3/3
f 1339/5/3 1333/5/3 1338/5/3
f 1341/5/3 1335/5/3 1334/5/3
f 1342/5/3 1335/5/3 1341/5/3
f 1343/5/3 1340/5/3 1339/5/3
f 1344/5/3 1340/5/3 1343/5/3
f 1347/3/3 1342/3/3 1341/3/3
f 1348/3/3 1342/3/3 1347/3/3
f 1349/5/3 1345/5/3 1344/5/3
f 1350/5/3 1345/5/3 1349/5/3
f 1353/3/3 1352/3/3 1351/3/3
f 1354/3/3 1352/3/3 1353/3/3
f 1355/3/3 1347/3/3 1346/3/3
f 1356/3/3 1347/3/3 1355/3/3
f 1360/3/3 1357/3/3 1356/3/3
f 1361/3/3 1357/3/3 1360/3/3
f 1363/5/3 1359/5/3 1358/5/3
f 1364/5/3 1359/5/3 1363/5/3
f 1365/5/3 1361/5/3 1360/5/3
f 1366/5/3 1361/5/3 1365/5/3
f 1370/5/3 1363/5/3 1362/5/3
f 1371/5/3 1363/5/3 1370/5/3
f 1372/5/3 1367/5/3 1366/5/3
f 1373/5/3 1367/5/3 1372/5/3
f 1374/3/3 1369/3/3 1368/3/3
f 1375/5/3 1370/5/3 1369/5/3
f 1375/3/3 1369/3/3 1374/3/3
f 1376/5/3 1370/5/3 1375/5/3
f 1380/5/3 1378/5/3 1377/5/3
f 1381/5/3 1378/5/3 1380/5/3
f 1384/5/3 1380/5/3 1379/5/3
f 1384/5/3 1383/5/3 1382/5/3
f 1384/5/3 1382/5/3 1381/5/3
f 1384/5/3 1381/5/3 1380/5/3
f 1385/5/3 1383/5/3 1384/5/3
f 1386/5/3 1383/5/3 1385/5/3
f 1387/5/3 1383/5/3 1386/5/3
f 1390/5/3 1385/5/3 1384/5/3
f 1391/5/3 1385/5/3 1390/5/3
f 1392/5/3 1387/5/3 1386/5/3
f 1392/5/3 1388/5/3 1387/5/3
f 1393/5/3 1388/5/3 1392/5/3
f 1394/5/3 1388/5/3 1393/5/3
f 1396/5/3 1395/5/3 1394/5/3
f 1396/5/3 1394/5/3 1393/5/3
f 1397/5/3 1395/5/3 1396/5/3
f 1398/5/3 1396/5/3 1393/5/3
f 1400/5/3 1390/5/3 1389/5/3
f 1401/3/3 1391/3/3 1390/3/3
f 1401/5/3 1390/5/3 1400/5/3
f 1402/3/3 1391/3/3 1401/3/3
f 1404/5/3 1399/5/3 1398/5/3
f 1404/5/3 1398/5/3 1393/5/3
f 1405/5/3 1399/5/3 1404/5/3
f 1406/5/3 1399/5/3 1405/5/3
f 1407/5/3 1402/5/3 1401/5/3
f 1408/5/3 1402/5/3 1407/5/3
f 1409/5/3 1405/5/3 1404/5/3
f 1409/5/3 1404/5/3 1403/5/3
f 1410/5/3 1405/5/3 1409/5/3
f 1411/5/3 1405/5/3 1410/5/3
f 1412/5/3 1408/5/3 1407/5/3
f 1412/5/3 1409/5/3 1408/5/3
f 1412/5/3 1410/5/3 1409/5/3
f 1413/5/3 1410/5/3 1412/5/3
f 1414/5/3 1410/5/3 1413/5/3
f 1415/5/3 1410/5/3 1414/5/3
f 1416/5/3 1410/5/3 1415/5/3
f 1417/5/3 1414/5/3 1413/5/3
f 1418/5/3 1414/5/3 1417/5/3
f 1421/5/3 1420/5/3 1419/5/3
f 1422/5/3 1420/5/3 1421/5/3
f 1424/5/3 1422/5/3 1421/5/3
f 1424/5/3 1423/5/3 1422/5/3
f 1425/5/3 1423/5/3 1424/5/3
f 1426/5/3 1423/5/3 1425/5/3
f 1427/5/3 1425/5/3 1424/5/3
f 1428/5/3 1425/5/3 1427/5/3
f 1429/5/4 1430/5/4 1431/5/4
f 1431/5/4 1430/5/4 1432/5/4
f 1431/5/4 1432/5/4 1434/5/4
f 1432/5/4 1433/5/4 1434/5/4
f 1434/5/4 1433/5/4 1435/5/4
f 1435/5/4 1433/5/4 1436/5/4
f 1434/5/4 1435/5/4 1437/5/4
f 1437/5/4 1435/5/4 1438/5/4
f 1439/5/4 1440/5/4 1442/5/4
f 1442/5/4 1440/5/4 1443/5/4
f 1441/5/4 1442/5/4 1446/5/4
f 1444/5/4 1445/5/4 1446/5/4
f 1443/5/4 1444/5/4 1446/5/4
f 1442/5/4 1443/5/4 1446/5/4
f 1446/5/4 1445/5/4 1447/5/4
f 1447/5/4 1445/5/4 1448/5/4
f 1448/5/4 1445/5/4 1449/5/4
f 1446/5/4 1447/5/4 1452/5/4
f 1452/5/4 1447/5/4 1453/5/4
f 1448/5/4 1449/5/4 1454/5/4
f 1449/5/4 1450/5/4 1454/5/4
f 1454/5/4 1450/5/4 1455/5/4
f 1455/5/4 1450/5/4 1456/5/4
f 1456/5/4 1457/5/4 1458/5/4
f 1455/5/4 1456/5/4 1458/5/4
f 1458/5/4 1457/5/4 1459/5/4
f 1455/5/4 1458/5/4 1460/5/4
f 1451/5/4 1452/5/4 1462/5/4
f 1452/3/4 1453/3/4 1463/3/4
f 1462/5/4 1452/5/4 1463/5/4
f 1463/3/4 1453/3/4 1464/3/4
f 1460/5/4 1461/5/4 1466/5/4
f 1455/5/4 1460/5/4 1466/5/4
f 1466/5/4 1461/5/4 1467/5/4
f 1467/5/4 1461/5/4 1468/5/4
f 1463/5/4 1464/5/4 1469/5/4
f 1462/5/4 1463/5/4 1469/5/4
f 1469/5/4 1464/5/4 1470/5/4
f 1470/5/4 1464/5/4 1471/5/4
f 1466/5/4 1467/5/4 1472/5/4
f 1465/5/4 1466/5/4 1472/5/4
f 1472/5/4 1467/5/4 1473/5/4
f 1473/5/4 1467/5/4 1474/5/4
f 1470/5/4 1471/5/4 1475/5/4
f 1472/5/4 1473/5/4 1475/5/4
f 1471/5/4 1472/5/4 1475/5/4
f 1475/5/4 1473/5/4 1476/5/4
f 1476/5/4 1473/5/4 1477/5/4
f 1477/5/4 1473/5/4 1478/5/4
f 1478/5/4 1473/5/4 1479/5/4
f 1476/5/4 1477/5/4 1480/5/4
f 1480/5/4 1477/5/4 1481/5/4
f 1482/5/4 1483/5/4 1488/5/4
f 1488/5/4 1483/5/4 1489/5/4
f 1484/3/4 1485/3/4 1490/3/4
f 1485/5/4 1486/5/4 1491/5/4
f 1490/3/4 1485/3/4 1491/3/4
f 1491/5/4 1486/5/4 1492/5/4
f 1487/5/4 1488/5/4 1494/5/4
f 1494/5/4 1488/5/4 1495/5/4
f 1492/5/4 1493/5/4 1496/5/4
f 1496/5/4 1493/5/4 1497/5/4
f 1494/3/4 1495/3/4 1500/3/4
f 1500/3/4 1495/3/4 1501/3/4
f 1497/5/4 1498/5/4 1502/5/4
f 1502/5/4 1498/5/4 1503/5/4
f 1504/3/4 1505/3/4 1506/3/4
f 1506/3/4 1505/3/4 1507/3/4
f 1499/3/4 1500/3/4 1508/3/4
f 1508/3/4 1500/3/4 1509/3/4
f 1510/5/4 1511/5/4 1515/5/4
f 1515/5/4 1511/5/4 1516/5/4
f 1512/5/4 1513/5/4 1517/5/4
f 1517/5/4 1513/5/4 1518/5/4
f 1514/5/4 1515/5/4 1522/5/4
f 1522/5/4 1515/5/4 1523/5/4
f 1518/5/4 1519/5/4 1524/5/4
f 1524/5/4 1519/5/4 1525/5/4
f 1520/3/4 1521/3/4 1526/3/4
f 1521/5/4 1522/5/4 1527/5/4
f 1526/3/4 1521/3/4 1527/3/4
f 1527/5/4 1522/5/4 1528/5/4
f 1529/5/4 1530/5/4 1531/5/4
f 1531/5/4 1530/5/4 1532/5/4
f 1533/5/4 1534/5/4 1537/5/4
f 1537/5/4 1534/5/4 1538/5/4
f 1535/1/4 1536/1/4 1539/1/4
f 1539/1/4 1536/1/4 1540/1/4
f 1538/5/4 1539/5/4 1543/5/4
f 1543/5/4 1539/5/4 1544/5/4
f 1541/3/4 1542/3/4 1545/3/4
f 1545/3/4 1542/3/4 1546/3/4
f 1547/5/4 1548/5/4 1549/5/4
f 1549/5/4 1548/5/4 1550/5/4
f 1551/5/4 1552/5/4 1555/5/4
f 1555/5/4 1552/5/4 1556/5/4
f 1553/3/4 1554/3/4 1557/3/4
f 1557/3/4 1554/3/4 1558/3/4
f 1559/5/4 1560/5/4 1562/5/4
f 1562/5/4 1560/5/4 1563/5/4
f 1561/5/4 1562/5/4 1566/5/4
f 1566/5/4 1562/5/4 1567/5/4
f 1564/5/4 1565/5/4 1568/5/4
f 1568/5/4 1565/5/4 1569/5/4
f 1570/5/4 1571/5/4 1574/5/4
f 1574/5/4 1571/5/4 1575/5/4
f 1572/3/4 1573/3/4 1579/3/4
f 1579/3/4 1573/3/4 1580/3/4
f 1576/5/4 1577/5/4 1581/5/4
f 1581/5/4 1577/5/4 1582/5/4
f 1578/3/4 1579/3/4 1583/3/4
f 1583/3/4 1579/3/4 1584/3/4
f 1585/5/4 1586/5/4 1589/5/4
f 1589/5/4 1586/5/4 1590/5/4
f 1591/3/4 1592/3/4 1593/3/4
f 1593/3/4 1592/3/4 1594/3/4
f 1587/4/4 1588/4/4 1595/4/4
f 1595/4/4 1588/4/4 1596/4/4
f 1597/5/4 1598/5/4 1601/5/4
f 1601/5/4 1598/5/4 1602/5/4
f 1599/3/4 1600/3/4 1603/3/4
f 1603/3/4 1600/3/4 1604/3/4
f 1604/3/4 1605/3/4 1608/3/4
f 1608/3/4 1605/3/4 1609/3/4
f 1606/5/4 1607/5/4 1612/5/4
f 1612/5/4 1607/5/4 1613/5/4
f 1610/5/4 1611/5/4 1614/5/4
f 1614/5/4 1611/5/4 1615/5/4
f 1616/2/4 1617/2/4 1618/2/4
f 1618/2/4 1617/2/4 1619/2/4
f 1620/3/4 1621/3/4 1622/3/4
f 1622/3/4 1621/3/4 1623/3/4
f 1624/2/4 1625/2/4 1627/2/4
f 1627/2/4 1625/2/4 1628/2/4
f 1626/3/4 1627/3/4 1630/3/4
f 1630/3/4 1627/3/4 1631/3/4
f 1628/2/4 1629/2/4 1632/2/4
f 1632/2/4 1629/2/4 1633/2/4
f 1633/2/4 1634/2/4 1636/2/4
f 1636/2/4 1634/2/4 1637/2/4
f 1635/2/4 1636/2/4 1638/2/4
f 1638/2/4 1636/2/4 1639/2/4
f 1640/3/4 1641/3/4 1642/3/4
f 1642/3/4 1641/3/4 1643/3/4
f 1644/3/4 1645/3/4 1646/3/4
f 1646/3/4 1645/3/4 1647/3/4
f 1648/5/4 1649/5/4 1654/5/4
f 1654/5/4 1649/5/4 1655/5/4
f 1650/5/4 1651/5/4 1656/5/4
f 1656/5/4 1651/5/4 1657/5/4
f 1652/5/4 1653/5/4 1661/5/4
f 1661/5/4 1653/5/4 1662/5/4
f 1658/5/4 1659/5/4 1663/5/4
f 1663/5/4 1659/5/4 1664/5/4
f 1660/5/4 1661/5/4 1666/5/4
f 1666/5/4 1661/5/4 1667/5/4
f 1664/5/4 1665/5/4 1668/5/4
f 1668/5/4 1665/5/4 1669/5/4
f 1670/5/4 1671/5/4 1674/5/4
f 1674/5/4 1671/5/4 1675/5/4
f 1672/5/4 1673/5/4 1676/5/4
f 1676/5/4 1673/5/4 1677/5/4
f 1678/5/4 1679/5/4 1682/5/4
f 1682/5/4 1679/5/4 1683/5/4
f 1680/5/4 1681/5/4 1684/5/4
f 1684/5/4 1681/5/4 1685/5/4
f 1686/5/4 1687/5/4 1690/5/4
f 1690/5/4 1687/5/4 1691/5/4
f 1688/5/4 1689/5/4 1694/5/4
f 1694/5/4 1689/5/4 1695/5/4
f 1691/5/4 1692/5/4 1696/5/4
f 1696/5/4 1692/5/4 1697/5/4
f 1693/5/4 1694/5/4 1702/5/4
f 1702/5/4 1694/5/4 1703/5/4
f 1698/5/4 1699/5/4 1704/5/4
f 1704/5/4 1699/5/4 1705/5/4
f 1700/5/4 1701/5/4 1706/5/4
f 1706/5/4 1701/5/4 1707/5/4
f 1708/5/4 1709/5/4 1712/5/4
f 1712/5/4 1709/5/4 1713/5/4
f 1710/5/4 1711/5/4 1716/5/4
f 1716/5/4 1711/5/4 1717/5/4
f 1714/5/4 1715/5/4 1718/5/4
f 1718/5/4 1715/5/4 1719/5/4
f 1720/5/4 1721/5/4 1724/5/4
f 1724/5/4 1721/5/4 1725/5/4
f 1722/5/4 1723/5/4 1726/5/4
f 1726/5/4 1723/5/4 1727/5/4
f 1728/5/4 1729/5/4 1732/5/4
f 1732/5/4 1729/5/4 1733/5/4
f 1730/5/4 1731/5/4 1734/5/4
f 1734/5/4 1731/5/4 1735/5/4
f 1736/5/4 1737/5/4 1740/5/4
f 1740/5/4 1737/5/4 1741/5/4
f 1738/5/4 1739/5/4 1742/5/4
f 1742/5/4 1739/5/4 1743/5/4
f 1744/5/4 1745/5/4 1748/5/4
f 1748/5/4 1745/5/4 1749/5/4
f 1746/5/4 1747/5/4 1752/5/4
f 1752/5/4 1747/5/4 1753/5/4
f 1750/5/4 1751/5/4 1754/5/4
f 1754/5/4 1751/5/4 1755/5/4
f 1756/5/4 1757/5/4 1762/5/4
f 1762/5/4 1757/5/4 1763/5/4
f 1758/5/4 1759/5/4 1764/5/4
f 1764/5/4 1759/5/4 1765/5/4
f 1760/5/4 1761/5/4 1768/5/4
f 1768/5/4 1761/5/4 1769/5/4
f 1766/5/4 1767/5/4 1770/5/4
f 1770/5/4 1767/5/4 1771/5/4
f 1772/5/4 1773/5/4 1776/5/4
f 1776/5/4 1773/5/4 1777/5/4
f 1774/5/4 1775/5/4 1778/5/4
f 1778/5/4 1775/5/4 1779/5/4
f 1780/5/4 1781/5/4 1784/5/4
f 1784/5/4 1781/5/4 1785/5/4
f 1782/5/4 1783/5/4 1786/5/4
f 1786/5/4 1783/5/4 1787/5/4
f 1788/5/4 1789/5/4 1792/5/4
f 1792/5/4 1789/5/4 1793/5/4
f 1790/5/4 1791/5/4 1798/5/4
f 1798/5/4 1791/5/4 1799/5/4
f 1794/5/4 1795/5/4 1800/5/4
f 1800/5/4 1795/5/4 1801/5/4
f 1796/5/4 1797/5/4 1802/5/4
f 1802/5/4 1797/5/4 1803/5/4
f 1804/5/4 1805/5/4 1807/5/4
f 1807/5/4 1805/5/4 1808/5/4
f 1806/5/4 1807/5/4 1811/5/4
f 1811/5/4 1807/5/4 1812/5/4
f 1812/5/4 1807/5/4 1813/5/4
f 1808/5/4 1809/5/4 1814/5/4
f 1814/5/4 1809/5/4 1815/5/4
f 1815/5/4 1809/5/4 1816/5/4
f 1810/5/4 1811/5/4 1818/5/4
f 1811/5/4 1812/5/4 1818/5/4
f 1818/5/4 1812/5/4 1819/5/4
f 1816/5/4 1817/5/4 1820/5/4
f 1815/5/4 1816/5/4 1820/5/4
f 1820/5/4 1817/5/4 1821/5/4
f 1810/5/4 1818/5/4 1823/5/4
f 1823/5/4 1818/5/4 1824/5/4
f 1821/5/4 1817/5/4 1825/5/4
f 1825/5/4 1817/5/4 1826/5/4
f 1822/5/4 1823/5/4 1828/5/4
f 1828/5/4 1823/5/4 1829/5/4
f 1826/5/4 1827/5/4 1832/5/4
f 1832/5/4 1827/5/4 1833/5/4
f 1829/5/4 1830/5/4 1834/5/4
f 1831/5/4 1832/5/4 1837/5/4
f 1834/5/4 1835/5/4 1838/5/4
f 1829/5/4 1834/5/4 1838/5/4
f 1838/5/4 1835/5/4 1839/5/4
f 1839/5/4 1835/5/4 1840/5/4
f 1836/5/4 1837/5/4 1843/5/4
f 1837/5/4 1832/5/4 1844/5/4
f 1843/5/4 1837/5/4 1844/5/4
f 1844/5/4 1832/5/4 1845/5/4
f 1840/5/4 1841/5/4 1846/5/4
f 1839/5/4 1840/5/4 1846/5/4
f 1846/5/4 1841/5/4 1847/5/4
f 1842/5/4 1843/5/4 1848/5/4
f 1843/5/4 1844/5/4 1848/5/4
f 1848/5/4 1844/5/4 1849/5/4
f 1847/5/4 1848/5/4 1850/5/4
f 1850/5/4 1848/5/4 1851/5/4
f 1852/5/4 1853/5/4 1855/5/4
f 1855/5/4 1853/5/4 1856/5/4
f 1854/5/4 1855/5/4 1859/5/4
f 1856/5/4 1857/5/4 1859/5/4
f 1855/5/4 1856/5/4 1859/5/4
f 1859/5/4 1857/5/4 1860/5/4
f 1860/5/4 1857/5/4 1861/5/4
f 1861/5/4 1857/5/4 1862/5/4
f 1858/5/4 1859/5/4 1865/5/4
f 1859/5/4 1860/5/4 1865/5/4
f 1865/5/4 1860/5/4 1866/5/4
f 1866/5/4 1860/5/4 1867/5/4
f 1861/5/4 1862/5/4 1868/5/4
f 1862/5/4 1863/5/4 1868/5/4
f 1868/5/4 1863/5/4 1869/5/4
f 1869/5/4 1863/5/4 1870/5/4
f 1865/5/4 1866/5/4 1872/5/4
f 1864/5/4 1865/5/4 1872/5/4
f 1872/5/4 1866/5/4 1873/5/4
f 1873/5/4 1866/5/4 1874/5/4
f 1870/5/4 1871/5/4 1877/5/4
f 1869/5/4 1870/5/4 1877/5/4
f 1877/5/4 1871/5/4 1878/5/4
f 1878/5/4 1871/5/4 1879/5/4
f 1874/5/4 1875/5/4 1880/5/4
f 1873/5/4 1874/5/4 1880/5/4
f 1880/5/4 1875/5/4 1881/5/4
f 1881/5/4 1875/5/4 1882/5/4
f 1877/5/4 1878/5/4 1883/5/4
f 1876/5/4 1877/5/4 1883/5/4
f 1883/5/4 1878/5/4 1884/5/4
f 1884/5/4 1878/5/4 1885/5/4
f 1881/5/4 1882/5/4 1886/5/4
f 1883/5/4 1884/5/4 1886/5/4
f 1882/5/4 1883/5/4 1886/5/4
f 1886/5/4 1884/5/4 1887/5/4
f 1887/5/4 1884/5/4 1888/5/4
f 1888/5/4 1884/5/4 1889/5/4
f 1887/5/4 1888/5/4 1890/5/4
f 1890/5/4 1888/5/4 1891/5/4
f 1892/5/4 1893/5/4 1895/5/4
f 1895/5/4 1893/5/4 1896/5/4
f 1894/5/4 1895/5/4 1898/5/4
f 1896/5/4 1897/5/4 1898/5/4
f 1895/5/4 1896/5/4 1898/5/4
f 1898/5/4 1897/5/4 1899/5/4
f 1899/5/4 1897/5/4 1900/5/4
f 1900/5/4 1897/5/4 1901/5/4
f 1899/5/4 1900/5/4 1902/5/4
f 1902/5/4 1900/5/4 1903/5/4
f 1907/5/5 1905/5/5 1904/5/5
f 1908/5/5 1905/5/5 1907/5/5
f 1910/5/5 1907/5/5 1906/5/5
f 1910/5/5 1909/5/5 1908/5/5
f 1910/5/5 1908/5/5 1907/5/5
f 1911/5/5 1909/5/5 1910/5/5
f 1912/5/5 1909/5/5 1911/5/5
f 1913/5/5 1909/5/5 1912/5/5
f 1914/5/5 1912/5/5 1911/5/5
f 1915/5/5 1912/5/5 1914/5/5
f 1919/5/5 1917/5/5 1916/5/5
f 1920/5/5 1917/5/5 1919/5/5
f 1923/5/5 1919/5/5 1918/5/5
f 1923/5/5 1921/5/5 1920/5/5
f 1923/5/5 1920/5/5 1919/5/5
f 1924/5/5 1921/5/5 1923/5/5
f 1925/5/5 1921/5/5 1924/5/5
f 1926/5/5 1921/5/5 1925/5/5
f 1929/5/5 1923/5/5 1922/5/5
f 1929/5/5 1924/5/5 1923/5/5
f 1930/5/5 1924/5/5 1929/5/5
f 1931/5/5 1924/5/5 1930/5/5
f 1932/5/5 1926/5/5 1925/5/5
f 1932/5/5 1927/5/5 1926/5/5
f 1933/5/5 1927/5/5 1932/5/5
f 1934/5/5 1927/5/5 1933/5/5
f 1936/5/5 1930/5/5 1929/5/5
f 1936/5/5 1929/5/5 1928/5/5
f 1937/5/5 1930/5/5 1936/5/5
f 1938/5/5 1930/5/5 1937/5/5
f 1941/5/5 1935/5/5 1934/5/5
f 1941/5/5 1934/5/5 1933/5/5
f 1942/5/5 1935/5/5 1941/5/5
f 1943/5/5 1935/5/5 1942/5/5
f 1944/5/5 1939/5/5 1938/5/5
f 1944/5/5 1938/5/5 1937/5/5
f 1945/5/5 1939/5/5 1944/5/5
f 1946/5/5 1939/5/5 1945/5/5
f 1947/5/5 1942/5/5 1941/5/5
f 1947/5/5 1941/5/5 1940/5/5
f 1948/5/5 1942/5/5 1947/5/5
f 1949/5/5 1942/5/5 1948/5/5
f 1950/5/5 1946/5/5 1945/5/5
f 1950/5/5 1948/5/5 1947/5/5
f 1950/5/5 1947/5/5 1946/5/5
f 1951/5/5 1948/5/5 1950/5/5
f 1952/5/5 1948/5/5 1951/5/5
f 1953/5/5 1948/5/5 1952/5/5
f 1954/5/5 1952/5/5 1951/5/5
f 1955/5/5 1952/5/5 1954/5/5
f 1959/5/5 1957/5/5 1956/5/5
f 1960/5/5 1957/5/5 1959/5/5
f 1963/5/5 1959/5/5 1958/5/5
f 1964/5/5 1959/5/5 1963/5/5
f 1965/5/5 1959/5/5 1964/5/5
f 1966/5/5 1961/5/5 1960/5/5
f 1967/5/5 1961/5/5 1966/5/5
f 1968/5/5 1961/5/5 1967/5/5
f 1970/5/5 1963/5/5 1962/5/5
f 1970/5/5 1964/5/5 1963/5/5
f 1971/5/5 1964/5/5 1970/5/5
f 1972/5/5 1969/5/5 1968/5/5
f 1972/5/5 1968/5/5 1967/5/5
f 1973/5/5 1969/5/5 1972/5/5
f 1975/5/5 1970/5/5 1962/5/5
f 1976/5/5 1970/5/5 1975/5/5
f 1977/5/5 1969/5/5 1973/5/5
f 1978/5/5 1969/5/5 1977/5/5
f 1980/5/5 1975/5/5 1974/5/5
f 1981/5/5 1975/5/5 1980/5/5
f 1984/5/5 1979/5/5 1978/5/5
f 1985/5/5 1979/5/5 1984/5/5
f 1986/5/5 1982/5/5 1981/5/5
f 1989/5/5 1984/5/5 1983/5/5
f 1990/5/5 1987/5/5 1986/5/5
f 1990/5/5 1986/5/5 1981/5/5
f 1991/5/5 1987/5/5 1990/5/5
f 1992/5/5 1987/5/5 1991/5/5
f 1995/5/5 1989/5/5 1988/5/5
f 1996/5/5 1984/5/5 1989/5/5
f 1996/5/5 1989/5/5 1995/5/5
f 1997/5/5 1984/5/5 1996/5/5
f 1998/5/5 1993/5/5 1992/5/5
f 1998/5/5 1992/5/5 1991/5/5
f 1999/5/5 1993/5/5 1998/5/5
f 2000/5/5 1995/5/5 1994/5/5
f 2000/5/5 1996/5/5 1995/5/5
f 2001/5/5 1996/5/5 2000/5/5
f 2002/5/5 2000/5/5 1999/5/5
f 2003/5/5 2000/5/5 2002/5/5
f 2010/5/5 2005/5/5 2004/5/5
f 2011/5/5 2005/5/5 2010/5/5
f 2012/5/5 2007/5/5 2006/5/5
f 2013/5/5 2007/5/5 2012/5/5
f 2016/5/5 2009/5/5 2008/5/5
f 2017/5/5 2009/5/5 2016/5/5
f 2018/5/5 2015/5/5 2014/5/5
f 2019/5/5 2015/5/5 2018/5/5
f 2024/5/5 2021/5/5 2020/5/5
f 2025/5/5 2021/5/5 2024/5/5
f 2026/5/5 2023/5/5 2022/5/5
f 2027/5/5 2023/5/5 2026/5/5
f 2032/5/5 2029/5/5 2028/5/5
f 2033/5/5 2029/5/5 2032/5/5
f 2034/5/5 2031/5/5 2030/5/5
f 2035/5/5 2031/5/5 2034/5/5
f 2040/5/5 2037/5/5 2036/5/5
f 2041/5/5 2037/5/5 2040/5/5
f 2046/5/5 2039/5/5 2038/5/5
f 2047/5/5 2039/5/5 2046/5/5
f 2048/5/5 2043/5/5 2042/5/5
f 2049/5/5 2043/5/5 2048/5/5
f 2050/5/5 2045/5/5 2044/5/5
f 2051/5/5 2045/5/5 2050/5/5
f 2056/5/5 2053/5/5 2052/5/5
f 2057/5/5 2053/5/5 2056/5/5
f 2060/5/5 2055/5/5 2054/5/5
f 2061/5/5 2055/5/5 2060/5/5
f 2062/5/5 2059/5/5 2058/5/5
f 2063/5/5 2059/5/5 2062/5/5
f 2068/5/5 2065/5/5 2064/5/5
f 2069/5/5 2065/5/5 2068/5/5
f 2070/5/5 2067/5/5 2066/5/5
f 2071/5/5 2067/5/5 2070/5/5
f 2076/5/5 2073/5/5 2072/5/5
f 2077/5/5 2073/5/5 2076/5/5
f 2078/5/5 2075/5/5 2074/5/5
f 2079/5/5 2075/5/5 2078/5/5
f 2084/5/5 2081/5/5 2080/5/5
f 2085/5/5 2081/5/5 2084/5/5
f 2086/5/5 2083/5/5 2082/5/5
f 2087/5/5 2083/5/5 2086/5/5
f 2092/5/5 2089/5/5 2088/5/5
f 2093/5/5 2089/5/5 2092/5/5
f 2096/5/5 2091/5/5 2090/5/5
f 2097/5/5 2091/5/5 2096/5/5
f 2098/5/5 2095/5/5 2094/5/5
f 2099/5/5 2095/5/5 2098/5/5
f 2106/5/5 2101/5/5 2100/5/5
f 2107/5/5 2101/5/5 2106/5/5
f 2108/5/5 2103/5/5 2102/5/5
f 2109/5/5 2103/5/5 2108/5/5
f 2113/5/5 2105/5/5 2104/5/5
f 2114/5/5 2105/5/5 2113/5/5
f 2115/5/5 2111/5/5 2110/5/5
f 2116/5/5 2111/5/5 2115/5/5
f 2118/5/5 2113/5/5 2112/5/5
f 2119/5/5 2113/5/5 2118/5/5
f 2120/5/5 2117/5/5 2116/5/5
f 2121/5/5 2117/5/5 2120/5/5
f 2126/5/5 2123/5/5 2122/5/5
f 2127/5/5 2123/5/5 2126/5/5
f 2128/5/5 2125/5/5 2124/5/5
f 2129/5/5 2125/5/5 2128/5/5
f 2134/5/5 2131/5/5 2130/5/5
f 2135/5/5 2131/5/5 2134/5/5
f 2136/5/5 2133/5/5 2132/5/5
f 2137/5/5 2133/5/5 2136/5/5
f 2142/5/5 2139/5/5 2138/5/5
f 2143/5/5 2139/5/5 2142/5/5
f 2146/5/5 2141/5/5 2140/5/5
f 2147/5/5 2141/5/5 2146/5/5
f 2148/5/5 2144/5/5 2143/5/5
f 2149/5/5 2144/5/5 2148/5/5
f 2154/5/5 2146/5/5 2145/5/5
f 2155/5/5 2146/5/5 2154/5/5
f 2156/5/5 2151/5/5 2150/5/5
f 2157/5/5 2151/5/5 2156/5/5
f 2158/5/5 2153/5/5 2152/5/5
f 2159/5/5 2153/5/5 2158/5/5
f 2164/3/5 2161/3/5 2160/3/5
f 2165/3/5 2161/3/5 2164/3/5
f 2166/3/5 2163/3/5 2162/3/5
f 2167/3/5 2163/3/5 2166/3/5
f 2172/3/5 2169/3/5 2168/3/5
f 2173/3/5 2169/3/5 2172/3/5
f 2174/3/5 2171/3/5 2170/3/5
f 2175/3/5 2171/3/5 2174/3/5
f 2180/5/5 2177/5/5 2176/5/5
f 2181/5/5 2177/5/5 2180/5/5
f 2182/5/5 2179/5/5 2178/5/5
f 2183/5/5 2179/5/5 2182/5/5
f 2188/5/5 2185/5/5 2184/5/5
f 2189/5/5 2185/5/5 2188/5/5
f 2190/5/5 2187/5/5 2186/5/5
f 2191/5/5 2187/5/5 2190/5/5
f 2196/5/5 2193/5/5 2192/5/5
f 2197/5/5 2193/5/5 2196/5/5
f 2198/5/5 2195/5/5 2194/5/5
f 2199/5/5 2195/5/5 2198/5/5
f 2204/5/5 2201/5/5 2200/5/5
f 2205/5/5 2201/5/5 2204/5/5
f 2206/5/5 2203/5/5 2202/5/5
f 2207/5/5 2203/5/5 2206/5/5
f 2212/5/5 2209/5/5 2208/5/5
f 2213/5/5 2209/5/5 2212/5/5
f 2217/5/5 2211/5/5 2210/5/5
f 2218/5/5 2211/5/5 2217/5/5
f 2219/5/5 2215/5/5 2214/5/5
f 2220/5/5 2215/5/5 2219/5/5
f 2222/5/5 2217/5/5 2216/5/5
f 2223/5/5 2217/5/5 2222/5/5
f 2224/5/5 2221/5/5 2220/5/5
f 2225/5/5 2221/5/5 2224/5/5
f 2230/5/5 2227/5/5 2226/5/5
f 2231/5/5 2227/5/5 2230/5/5
f 2232/5/5 2229/5/5 2228/5/5
f 2233/5/5 2229/5/5 2232/5/5
f 2238/5/5 2235/5/5 2234/5/5
f 2239/5/5 2235/5/5 2238/5/5
f 2242/5/5 2237/5/5 2236/5/5
f 2243/5/5 2237/5/5 2242/5/5
f 2244/5/5 2240/5/5 2239/5/5
f 2245/5/5 2240/5/5 2244/5/5
f 2248/5/5 2242/5/5 2241/5/5
f 2249/5/5 2242/5/5 2248/5/5
f 2250/5/5 2247/5/5 2246/5/5
f 2251/5/5 2247/5/5 2250/5/5
f 2259/5/5 2253/5/5 2252/5/5
f 2260/5/5 2253/5/5 2259/5/5
f 2261/3/5 2255/3/5 2254/3/5
f 2262/3/5 2255/3/5 2261/3/5
f 2263/5/5 2257/5/5 2256/5/5
f 2264/5/5 2257/5/5 2263/5/5
f 2267/5/5 2259/5/5 2258/5/5
f 2268/5/5 2259/5/5 2267/5/5
f 2269/5/5 2265/5/5 2264/5/5
f 2270/5/5 2265/5/5 2269/5/5
f 2272/5/5 2267/5/5 2266/5/5
f 2273/5/5 2267/5/5 2272/5/5
f 2274/5/5 2271/5/5 2270/5/5
f 2275/5/5 2271/5/5 2274/5/5
f 2280/3/5 2277/3/5 2276/3/5
f 2281/3/5 2277/3/5 2280/3/5
f 2282/3/5 2279/3/5 2278/3/5
f 2283/3/5 2279/3/5 2282/3/5
f 2288/5/5 2285/5/5 2284/5/5
f 2289/5/5 2285/5/5 2288/5/5
f 2292/5/5 2287/5/5 2286/5/5
f 2293/5/5 2287/5/5 2292/5/5
f 2294/5/5 2290/5/5 2289/5/5
f 2295/5/5 2290/5/5 2294/5/5
f 2300/5/5 2292/5/5 2291/5/5
f 2301/5/5 2292/5/5 2300/5/5
f 2302/5/5 2296/5/5 2295/5/5
f 2303/5/5 2296/5/5 2302/5/5
f 2304/3/5 2298/3/5 2297/3/5
f 2305/3/5 2298/3/5 2304/3/5
f 2306/5/5 2300/5/5 2299/5/5
f 2307/5/5 2300/5/5 2306/5/5
f 2313/5/5 2309/5/5 2308/5/5
f 2314/5/5 2309/5/5 2313/5/5
f 2315/5/5 2311/5/5 2310/5/5
f 2316/5/5 2311/5/5 2315/5/5
f 2319/5/5 2314/5/5 2313/5/5
f 2319/5/5 2317/5/5 2316/5/5
f 2319/5/5 2316/5/5 2315/5/5
f 2319/5/5 2315/5/5 2314/5/5
f 2319/5/5 2313/5/5 2312/5/5
f 2320/5/5 2317/5/5 2319/5/5
f 2321/5/5 2317/5/5 2320/5/5
f 2322/5/5 2317/5/5 2321/5/5
f 2323/5/5 2317/5/5 2322/5/5
f 2324/5/5 2317/5/5 2323/5/5
f 2327/5/5 2319/5/5 2318/5/5
f 2327/5/5 2320/5/5 2319/5/5
f 2328/5/5 2320/5/5 2327/5/5
f 2329/5/5 2320/5/5 2328/5/5
f 2330/3/5 2322/3/5 2321/3/5
f 2331/3/5 2322/3/5 2330/3/5
f 2332/5/5 2324/5/5 2323/5/5
f 2332/5/5 2325/5/5 2324/5/5
f 2333/5/5 2325/5/5 2332/5/5
f 2334/5/5 2325/5/5 2333/5/5
f 2336/5/5 2327/5/5 2326/5/5
f 2336/5/5 2328/5/5 2327/5/5
f 2337/5/5 2328/5/5 2336/5/5
f 2338/5/5 2328/5/5 2337/5/5
f 2341/5/5 2335/5/5 2334/5/5
f 2341/5/5 2334/5/5 2333/5/5
f 2342/5/5 2335/5/5 2341/5/5
f 2343/5/5 2335/5/5 2342/5/5
f 2345/5/5 2338/5/5 2337/5/5
f 2346/3/5 2339/3/5 2338/3/5
f 2346/5/5 2338/5/5 2345/5/5
f 2347/3/5 2339/3/5 2346/3/5
f 2348/3/5 2341/3/5 2340/3/5
f 2349/5/5 2342/5/5 2341/5/5
f 2349/3/5 2341/3/5 2348/3/5
f 2350/5/5 2342/5/5 2349/5/5
f 2352/5/5 2345/5/5 2344/5/5
f 2352/5/5 2346/5/5 2345/5/5
f 2353/5/5 2346/5/5 2352/5/5
f 2354/5/5 2346/5/5 2353/5/5
f 2359/5/5 2351/5/5 2350/5/5
f 2359/5/5 2350/5/5 2349/5/5
f 2360/5/5 2351/5/5 2359/5/5
f 2361/5/5 2351/5/5 2360/5/5
f 2362/5/5 2355/5/5 2354/5/5
f 2362/5/5 2354/5/5 2353/5/5
f 2363/5/5 2355/5/5 2362/5/5
f 2364/5/5 2355/5/5 2363/5/5
f 2365/3/5 2357/3/5 2356/3/5
f 2366/3/5 2357/3/5 2365/3/5
f 2367/5/5 2360/5/5 2359/5/5
f 2367/5/5 2359/5/5 2358/5/5
f 2368/5/5 2360/5/5 2367/5/5
f 2369/5/5 2360/5/5 2368/5/5
f 2370/5/5 2364/5/5 2363/5/5
f 2370/5/5 2366/5/5 2365/5/5
f 2370/5/5 2368/5/5 2367/5/5
f 2370/5/5 2367/5/5 2366/5/5
f 2370/5/5 2365/5/5 2364/5/5
f 2371/5/5 2368/5/5 2370/5/5
f 2372/5/5 2368/5/5 2371/5/5
f 2373/5/5 2368/5/5 2372/5/5
f 2374/5/5 2368/5/5 2373/5/5
f 2375/5/5 2368/5/5 2374/5/5
f 2376/5/5 2372/5/5 2371/5/5
f 2377/5/5 2372/5/5 2376/5/5
f 2378/5/5 2374/5/5 2373/5/5
f 2379/5/5 2374/5/5 2378/5/5
f 2386/2/5 2381/2/5 2380/2/5
f 2387/2/5 2381/2/5 2386/2/5
f 2389/5/5 2383/5/5 2382/5/5
f 2390/5/5 2383/5/5 2389/5/5
f 2391/5/5 2385/5/5 2384/5/5
f 2392/5/5 2385/5/5 2391/5/5
f 2394/5/5 2390/5/5 2389/5/5
f 2394/5/5 2393/5/5 2392/5/5
f 2394/5/5 2392/5/5 2391/5/5
f 2394/5/5 2391/5/5 2390/5/5
f 2394/5/5 2389/5/5 2388/5/5
f 2395/5/5 2393/5/5 2394/5/5
f 2396/5/5 2393/5/5 2395/5/5
f 2397/5/5 2393/5/5 2396/5/5
f 2399/5/5 2396/5/5 2395/5/5
f 2400/5/5 2396/5/5 2399/5/5
f 2402/5/5 2399/5/5 2398/5/5
f 2402/5/5 2401/5/5 2400/5/5
f 2402/5/5 2400/5/5 2399/5/5
f 2403/5/5 2401/5/5 2402/5/5
f 2404/5/5 2401/5/5 2403/5/5
f 2405/5/5 2401/5/5 2404/5/5
f 2406/5/5 2401/5/5 2405/5/5
f 2407/5/5 2401/5/5 2406/5/5
f 2408/5/5 2404/5/5 2403/5/5
f 2409/5/5 2404/5/5 2408/5/5
f 2410/5/5 2406/5/5 2405/5/5
f 2411/5/5 2406/5/5 2410/5/5
f 2414/2/5 2413/2/5 2412/2/5
f 2415/2/5 2413/2/5 2414/2/5
f 2416/5/6 2417/5/6 2418/5/6
f 2418/5/6 2417/5/6 2419/5/6
f 2420/5/6 2421/5/6 2423/5/6
f 2423/5/6 2421/5/6 2424/5/6
f 2422/5/6 2423/5/6 2427/5/6
f 2423/4/6 2424/4/6 2428/4/6
f 2427/5/6 2423/5/6 2428/5/6
f 2424/5/6 2425/5/6 2429/5/6
f 2428/4/6 2424/4/6 2429/4/6
f 2429/5/6 2425/5/6 2430/5/6
f 2426/5/6 2427/5/6 2432/5/6
f 2427/4/6 2428/4/6 2433/4/6
f 2432/5/6 2427/5/6 2433/5/6
f 2433/4/6 2428/4/6 2434/4/6
f 2429/4/6 2430/4/6 2435/4/6
f 2430/5/6 2431/5/6 2436/5/6
f 2435/4/6 2430/4/6 2436/4/6
f 2436/5/6 2431/5/6 2437/5/6
f 2433/5/6 2434/5/6 2438/5/6
f 2434/4/6 2435/4/6 2439/4/6
f 2438/5/6 2434/5/6 2439/5/6
f 2435/5/6 2436/5/6 2440/5/6
f 2439/4/6 2435/4/6 2440/4/6
f 2440/5/6 2436/5/6 2441/5/6
f 2439/5/6 2440/5/6 2442/5/6
f 2442/5/6 2440/5/6 2443/5/6
f 2444/3/6 2445/3/6 2449/3/6
f 2445/5/6 2446/5/6 2450/5/6
f 2449/3/6 2445/3/6 2450/3/6
f 2450/5/6 2446/5/6 2451/5/6
f 2447/5/6 2448/5/6 2453/5/6
f 2448/3/6 2449/3/6 2454/3/6
f 2453/5/6 2448/5/6 2454/5/6
f 2454/3/6 2449/3/6 2455/3/6
f 2450/3/6 2451/3/6 2456/3/6
f 2451/5/6 2452/5/6 2457/5/6
f 2456/3/6 2451/3/6 2457/3/6
f 2457/5/6 2452/5/6 2458/5/6
f 2453/3/6 2454/3/6 2460/3/6
f 2460/3/6 2454/3/6 2461/3/6
f 2457/3/6 2458/3/6 2462/3/6
f 2462/3/6 2458/3/6 2463/3/6
f 2459/3/6 2460/3/6 2465/3/6
f 2465/3/6 2460/3/6 2466/3/6
f 2463/3/6 2464/3/6 2469/3/6
f 2469/3/6 2464/3/6 2470/3/6
f 2466/3/6 2467/3/6 2471/3/6
f 2471/3/6 2467/3/6 2472/3/6
f 2468/3/6 2469/3/6 2475/3/6
f 2475/3/6 2469/3/6 2476/3/6
f 2471/5/6 2472/5/6 2477/5/6
f 2472/3/6 2473/3/6 2478/3/6
f 2477/5/6 2472/5/6 2478/5/6
f 2478/3/6 2473/3/6 2479/3/6
f 2474/3/6 2475/3/6 2480/3/6
f 2475/5/6 2476/5/6 2481/5/6
f 2480/3/6 2475/3/6 2481/3/6
f 2481/5/6 2476/5/6 2482/5/6
f 2479/3/6 2480/3/6 2483/3/6
f 2483/3/6 2480/3/6 2484/3/6
f 2485/5/6 2486/5/6 2491/5/6
f 2486/3/6 2487/3/6 2492/3/6
f 2491/5/6 2486/5/6 2492/5/6
f 2492/3/6 2487/3/6 2493/3/6
f 2488/5/6 2489/5/6 2494/5/6
f 2494/5/6 2489/5/6 2495/5/6
f 2490/5/6 2491/5/6 2497/5/6
f 2497/5/6 2491/5/6 2498/5/6
f 2495/5/6 2496/5/6 2499/5/6
f 2499/5/6 2496/5/6 2500/5/6
f 2497/3/6 2498/3/6 2501/3/6
f 2501/3/6 2498/3/6 2502/3/6
f 2499/3/6 2500/3/6 2503/3/6
f 2503/3/6 2500/3/6 2504/3/6
f 2505/3/6 2506/3/6 2509/3/6
f 2509/3/6 2506/3/6 2510/3/6
f 2507/3/6 2508/3/6 2511/3/6
f 2511/3/6 2508/3/6 2512/3/6
f 2509/5/6 2510/5/6 2513/5/6
f 2513/5/6 2510/5/6 2514/5/6
f 2511/5/6 2512/5/6 2519/5/6
f 2519/5/6 2512/5/6 2520/5/6
f 2514/5/6 2515/5/6 2521/5/6
f 2515/3/6 2516/3/6 2522/3/6
f 2521/5/6 2515/5/6 2522/5/6
f 2522/3/6 2516/3/6 2523/3/6
f 2517/3/6 2518/3/6 2524/3/6
f 2518/5/6 2519/5/6 2525/5/6
f 2524/3/6 2518/3/6 2525/3/6
f 2525/5/6 2519/5/6 2526/5/6
f 2527/5/6 2528/5/6 2533/5/6
f 2528/3/6 2529/3/6 2534/3/6
f 2533/5/6 2528/5/6 2534/5/6
f 2529/5/6 2530/5/6 2535/5/6
f 2534/3/6 2529/3/6 2535/3/6
f 2535/5/6 2530/5/6 2536/5/6
f 2531/5/6 2532/5/6 2539/5/6
f 2539/5/6 2532/5/6 2540/5/6
f 2537/5/6 2538/5/6 2541/5/6
f 2541/5/6 2538/5/6 2542/5/6
f 2543/5/6 2544/5/6 2547/5/6
f 2547/5/6 2544/5/6 2548/5/6
f 2545/5/6 2546/5/6 2549/5/6
f 2549/5/6 2546/5/6 2550/5/6
f 2547/3/6 2548/3/6 2551/3/6
f 2551/3/6 2548/3/6 2552/3/6
f 2549/3/6 2550/3/6 2553/3/6
f 2553/3/6 2550/3/6 2554/3/6
f 2551/5/6 2552/5/6 2555/5/6
f 2555/5/6 2552/5/6 2556/5/6
f 2553/5/6 2554/5/6 2557/5/6
f 2557/5/6 2554/5/6 2558/5/6
f 2559/5/6 2560/5/6 2563/5/6
f 2563/5/6 2560/5/6 2564/5/6
f 2561/5/6 2562/5/6 2569/5/6
f 2569/5/6 2562/5/6 2570/5/6
f 2565/5/6 2566/5/6 2571/5/6
f 2566/3/6 2567/3/6 2572/3/6
f 2571/5/6 2566/5/6 2572/5/6
f 2567/5/6 2568/5/6 2573/5/6
f 2572/3/6 2567/3/6 2573/3/6
f 2573/5/6 2568/5/6 2574/5/6
f 2575/5/6 2576/5/6 2581/5/6
f 2581/5/6 2576/5/6 2582/5/6
f 2577/5/6 2578/5/6 2583/5/6
f 2583/5/6 2578/5/6 2584/5/6
f 2579/5/6 2580/5/6 2588/5/6
f 2588/5/6 2580/5/6 2589/5/6
f 2585/5/6 2586/5/6 2590/5/6
f 2590/5/6 2586/5/6 2591/5/6
f 2587/5/6 2588/5/6 2593/5/6
f 2593/5/6 2588/5/6 2594/5/6
f 2591/5/6 2592/5/6 2595/5/6
f 2595/5/6 2592/5/6 2596/5/6
f 2597/5/6 2598/5/6 2601/5/6
f 2601/5/6 2598/5/6 2602/5/6
f 2599/5/6 2600/5/6 2603/5/6
f 2603/5/6 2600/5/6 2604/5/6
f 2605/5/6 2606/5/6 2609/5/6
f 2609/5/6 2606/5/6 2610/5/6
f 2607/5/6 2608/5/6 2611/5/6
f 2611/5/6 2608/5/6 2612/5/6
f 2613/5/6 2614/5/6 2617/5/6
f 2617/5/6 2614/5/6 2618/5/6
f 2615/5/6 2616/5/6 2621/5/6
f 2621/5/6 2616/5/6 2622/5/6
f 2618/5/6 2619/5/6 2623/5/6
f 2623/5/6 2619/5/6 2624/5/6
f 2620/5/6 2621/5/6 2629/5/6
f 2629/5/6 2621/5/6 2630/5/6
f 2625/5/6 2626/5/6 2631/5/6
f 2631/5/6 2626/5/6 2632/5/6
f 2627/5/6 2628/5/6 2633/5/6
f 2633/5/6 2628/5/6 2634/5/6
f 2635/5/6 2636/5/6 2639/5/6
f 2639/5/6 2636/5/6 2640/5/6
f 2637/5/6 2638/5/6 2643/5/6
f 2643/5/6 2638/5/6 2644/5/6
f 2641/5/6 2642/5/6 2645/5/6
f 2645/5/6 2642/5/6 2646/5/6
f 2647/5/6 2648/5/6 2651/5/6
f 2651/5/6 2648/5/6 2652/5/6
f 2649/5/6 2650/5/6 2653/5/6
f 2653/5/6 2650/5/6 2654/5/6
f 2655/5/6 2656/5/6 2659/5/6
f 2659/5/6 2656/5/6 2660/5/6
f 2657/5/6 2658/5/6 2661/5/6
f 2661/5/6 2658/5/6 2662/5/6
f 2663/5/6 2664/5/6 2667/5/6
f 2667/5/6 2664/5/6 2668/5/6
f 2665/5/6 2666/5/6 2669/5/6
f 2669/5/6 2666/5/6 2670/5/6
f 2671/5/6 2672/5/6 2675/5/6
f 2675/5/6 2672/5/6 2676/5/6
f 2673/5/6 2674/5/6 2679/5/6
f 2679/5/6 2674/5/6 2680/5/6
f 2677/5/6 2678/5/6 2681/5/6
f 2681/5/6 2678/5/6 2682/5/6
f 2683/5/6 2684/5/6 2689/5/6
f 2689/5/6 2684/5/6 2690/5/6
f 2685/5/6 2686/5/6 2691/5/6
f 2691/5/6 2686/5/6 2692/5/6
f 2687/5/6 2688/5/6 2695/5/6
f 2695/5/6 2688/5/6 2696/5/6
f 2693/5/6 2694/5/6 2697/5/6
f 2697/5/6 2694/5/6 2698/5/6
f 2699/5/6 2700/5/6 2703/5/6
f 2703/5/6 2700/5/6 2704/5/6
f 2701/5/6 2702/5/6 2705/5/6
f 2705/5/6 2702/5/6 2706/5/6
f 2707/5/6 2708/5/6 2711/5/6
f 2711/5/6 2708/5/6 2712/5/6
f 2709/5/6 2710/5/6 2713/5/6
f 2713/5/6 2710/5/6 2714/5/6
f 2715/5/6 2716/5/6 2719/5/6
f 2719/5/6 2716/5/6 2720/5/6
f 2717/5/6 2718/5/6 2725/5/6
f 2725/5/6 2718/5/6 2726/5/6
f 2721/5/6 2722/5/6 2727/5/6
f 2727/5/6 2722/5/6 2728/5/6
f 2723/5/6 2724/5/6 2729/5/6
f 2729/5/6 2724/5/6 2730/5/6
f 2731/5/6 2732/5/6 2734/5/6
f 2734/5/6 2732/5/6 2735/5/6
f 2733/5/6 2734/5/6 2737/5/6
f 2737/5/6 2734/5/6 2738/5/6
f 2738/5/6 2734/5/6 2739/5/6
f 2735/5/6 2736/5/6 2740/5/6
f 2740/5/6 2736/5/6 2741/5/6
f 2741/5/6 2736/5/6 2742/5/6
f 2737/5/6 2738/5/6 2745/5/6
f 2745/5/6 2738/5/6 2746/5/6
f 2742/5/6 2743/5/6 2747/5/6
f 2741/5/6 2742/5/6 2747/5/6
f 2747/5/6 2743/5/6 2748/5/6
f 2744/5/6 2745/5/6 2750/5/6
f 2750/5/6 2745/5/6 2751/5/6
f 2748/5/6 2743/5/6 2752/5/6
f 2752/5/6 2743/5/6 2753/5/6
f 2749/5/6 2750/5/6 2755/5/6
f 2755/5/6 2750/5/6 2756/5/6
f 2753/5/6 2754/5/6 2759/5/6
f 2759/5/6 2754/5/6 2760/5/6
f 2756/5/6 2757/5/6 2761/5/6
f 2758/5/6 2759/5/6 2764/5/6
f 2761/5/6 2762/5/6 2765/5/6
f 2756/5/6 2761/5/6 2765/5/6
f 2765/5/6 2762/5/6 2766/5/6
f 2766/5/6 2762/5/6 2767/5/6
f 2763/5/6 2764/5/6 2770/5/6
f 2764/5/6 2759/5/6 2771/5/6
f 2770/5/6 2764/5/6 2771/5/6
f 2771/5/6 2759/5/6 2772/5/6
f 2767/5/6 2768/5/6 2773/5/6
f 2766/5/6 2767/5/6 2773/5/6
f 2773/5/6 2768/5/6 2774/5/6
f 2769/5/6 2770/5/6 2775/5/6
f 2770/5/6 2771/5/6 2775/5/6
f 2775/5/6 2771/5/6 2776/5/6
f 2774/5/6 2775/5/6 2777/5/6
f 2777/5/6 2775/5/6 2778/5/6
f 2779/5/6 2780/5/6 2784/5/6
f 2784/5/6 2780/5/6 2785/5/6
f 2781/1/6 2782/1/6 2787/1/6
f 2787/1/6 2782/1/6 2788/1/6
f 2785/5/6 2786/5/6 2789/5/6
f 2783/5/6 2784/5/6 2789/5/6
f 2784/5/6 2785/5/6 2789/5/6
f 2789/5/6 2786/5/6 2790/5/6
f 2790/5/6 2786/5/6 2791/5/6
f 2791/5/6 2786/5/6 2792/5/6
f 2788/5/6 2789/5/6 2794/5/6
f 2789/5/6 2790/5/6 2794/5/6
f 2794/5/6 2790/5/6 2795/5/6
f 2792/5/6 2793/5/6 2796/5/6
f 2791/5/6 2792/5/6 2796/5/6
f 2796/5/6 2793/5/6 2797/5/6
f 2797/5/6 2793/5/6 2798/5/6
f 2788/5/6 2794/5/6 2801/5/6
f 2801/5/6 2794/5/6 2802/5/6
f 2800/5/6 2801/5/6 2803/5/6
f 2800/5/6 2803/5/6 2805/5/6
f 2803/5/6 2804/5/6 2805/5/6
f 2805/5/6 2804/5/6 2806/5/6
f 2806/5/6 2804/5/6 2807/5/6
f 2798/5/6 2799/5/6 2810/5/6
f 2797/5/6 2798/5/6 2810/5/6
f 2810/5/6 2799/5/6 2811/5/6
f 2811/5/6 2799/5/6 2812/5/6
f 2807/5/6 2808/5/6 2813/5/6
f 2806/5/6 2807/5/6 2813/5/6
f 2813/5/6 2808/5/6 2814/5/6
f 2814/5/6 2808/5/6 2815/5/6
f 2810/5/6 2811/5/6 2816/5/6
f 2809/5/6 2810/5/6 2816/5/6
f 2816/5/6 2811/5/6 2817/5/6
f 2817/5/6 2811/5/6 2818/5/6
f 2814/5/6 2815/5/6 2819/5/6
f 2816/5/6 2817/5/6 2819/5/6
f 2815/5/6 2816/5/6 2819/5/6
f 2819/5/6 2817/5/6 2820/5/6
f 2820/5/6 2817/5/6 2821/5/6
f 2821/5/6 2817/5/6 2822/5/6
f 2820/5/6 2821/5/6 2823/5/6
f 2823/5/6 2821/5/6 2824/5/6
f 2827/5/6 2828/5/6 2830/5/6
f 2830/5/6 2828/5/6 2831/5/6
f 2825/2/6 2826/2/6 2833/2/6
f 2833/2/6 2826/2/6 2834/2/6
f 2831/5/6 2832/5/6 2835/5/6
f 2829/5/6 2830/5/6 2835/5/6
f 2830/5/6 2831/5/6 2835/5/6
f 2835/5/6 2832/5/6 2836/5/6
f 2836/5/6 2832/5/6 2837/5/6
f 2837/5/6 2832/5/6 2838/5/6
f 2834/2/6 2835/2/6 2839/2/6
f 2839/2/6 2835/2/6 2840/2/6
f 2836/5/6 2837/5/6 2841/5/6
f 2841/5/6 2837/5/6 2842/5/6
f 2838/5/6 2832/5/6 2843/5/6
f 2841/5/6 2842/5/6 2844/5/6
f 2842/5/6 2843/5/6 2844/5/6
f 2840/5/6 2841/5/6 2844/5/6
f 2844/5/6 2843/5/6 2845/5/6
f 2843/5/6 2832/5/6 2846/5/6
f 2845/5/6 2843/5/6 2846/5/6
f 2846/5/6 2832/5/6 2847/5/6
f 2845/5/6 2846/5/6 2848/5/6
f 2848/5/6 2846/5/6 2849/5/6
f 2850/2/6 2851/2/6 2854/2/6
f 2854/2/6 2851/2/6 2855/2/6
f 2852/2/6 2853/2/6 2856/2/6
f 2856/2/6 2853/2/6 2857/2/6
f 2858/2/6 2859/2/6 2860/2/6
f 2860/2/6 2859/2/6 2861/2/6
