# MagicaVoxel @ Ephtracy

# group
o 

# material
mtllib bomberman_holding.mtl
usemtl palette

# normals
vn -1 0 0
vn 1 0 0
vn 0 0 1
vn 0 0 -1
vn 0 -1 0
vn 0 1 0

# texcoords
vt 0.00585938 0.5
vt 0.0214844 0.5
vt 0.0253906 0.5
vt 0.0292969 0.5
vt 0.0332031 0.5
vt 0.306641 0.5
vt 0.990234 0.5

# verts
v -0.4 1.3 0.4
v -0.4 1.3 -0.5
v -0.4 1.4 0.4
v -0.4 1.4 -0.5
v -0.3 1 0.3
v -0.3 1 -0.4
v -0.3 1.3 0.3
v -0.3 1.3 -0.4
v -0.2 0.6 0.2
v -0.2 0.6 -0.3
v -0.2 0.7 0.2
v -0.2 0.7 -0.3
v -0.2 0.9 0.1
v -0.2 0.9 -0.2
v -0.2 1 0.2
v -0.2 1 0.1
v -0.2 1 -0.2
v -0.2 1 -0.3
v -0.2 1.4 0.2
v -0.2 1.4 -0.3
v -0.2 1.5 0.2
v -0.2 1.5 -0.3
v -0.1 0.3 0.3
v -0.1 0.3 0
v -0.1 0.3 -0.1
v -0.1 0.3 -0.4
v -0.1 0.4 0.3
v -0.1 0.4 0
v -0.1 0.4 -0.1
v -0.1 0.4 -0.4
v -0.1 0.6 0.3
v -0.1 0.6 0.2
v -0.1 0.6 0
v -0.1 0.6 -0.1
v -0.1 0.6 -0.3
v -0.1 0.6 -0.4
v 0 0 0.2
v 0 0 0.1
v 0 0 -0.2
v 0 0 -0.3
v 0 0.1 0.2
v 0 0.1 0.1
v 0 0.1 -0.2
v 0 0.1 -0.3
v 0 0.3 0.2
v 0 0.3 0.1
v 0 0.3 -0.2
v 0 0.3 -0.3
v 0 0.8 0.6
v 0 0.8 0.5
v 0 0.8 0.2
v 0 0.8 -0.3
v 0 0.8 -0.6
v 0 0.8 -0.7
v 0 0.9 0.6
v 0 0.9 0.5
v 0 0.9 0.4
v 0 0.9 0.2
v 0 0.9 -0.3
v 0 0.9 -0.5
v 0 0.9 -0.6
v 0 0.9 -0.7
v 0 1 0.4
v 0 1 0.2
v 0 1 -0.3
v 0 1 -0.5
v 0 1.1 0.6
v 0 1.1 0.4
v 0 1.1 -0.5
v 0 1.1 -0.7
v 0 1.5 0
v 0 1.5 -0.1
v 0 1.6 0
v 0 1.6 -0.1
v 0.1 1.1 0.5
v 0.1 1.1 0.4
v 0.1 1.1 -0.5
v 0.1 1.1 -0.6
v 0.1 1.2 0.5
v 0.1 1.2 0.4
v 0.1 1.2 -0.5
v 0.1 1.2 -0.6
v -0.2 1 0.3
v -0.2 1 0.2
v -0.2 1 -0.3
v -0.2 1 -0.4
v -0.2 1.3 0.3
v -0.2 1.3 0.2
v -0.2 1.3 -0.3
v -0.2 1.3 -0.4
v 0.1 0.1 0.2
v 0.1 0.1 0.1
v 0.1 0.1 -0.2
v 0.1 0.1 -0.3
v 0.1 0.3 0.2
v 0.1 0.3 0.1
v 0.1 0.3 -0.2
v 0.1 0.3 -0.3
v 0.1 0.8 0.6
v 0.1 0.8 0.5
v 0.1 0.8 -0.6
v 0.1 0.8 -0.7
v 0.1 0.9 0.6
v 0.1 0.9 0.5
v 0.1 0.9 -0.6
v 0.1 0.9 -0.7
v 0.1 1.5 0
v 0.1 1.5 -0.1
v 0.1 1.6 0
v 0.1 1.6 -0.1
v 0.2 0 0.2
v 0.2 0 0.1
v 0.2 0 -0.2
v 0.2 0 -0.3
v 0.2 0.1 0.2
v 0.2 0.1 0.1
v 0.2 0.1 -0.2
v 0.2 0.1 -0.3
v 0.2 0.3 0.3
v 0.2 0.3 0
v 0.2 0.3 -0.1
v 0.2 0.3 -0.4
v 0.2 0.4 0.3
v 0.2 0.4 0
v 0.2 0.4 -0.1
v 0.2 0.4 -0.4
v 0.2 0.6 0.3
v 0.2 0.6 0.2
v 0.2 0.6 0
v 0.2 0.6 -0.1
v 0.2 0.6 -0.3
v 0.2 0.6 -0.4
v 0.2 0.8 0.5
v 0.2 0.8 0.2
v 0.2 0.8 -0.3
v 0.2 0.8 -0.6
v 0.2 0.9 0.6
v 0.2 0.9 0.5
v 0.2 0.9 0.4
v 0.2 0.9 0.2
v 0.2 0.9 -0.3
v 0.2 0.9 -0.5
v 0.2 0.9 -0.6
v 0.2 0.9 -0.7
v 0.2 1 0.4
v 0.2 1 0.2
v 0.2 1 -0.3
v 0.2 1 -0.5
v 0.2 1.1 0.6
v 0.2 1.1 0.5
v 0.2 1.1 0.4
v 0.2 1.1 -0.5
v 0.2 1.1 -0.6
v 0.2 1.1 -0.7
v 0.2 1.2 0.5
v 0.2 1.2 0.4
v 0.2 1.2 -0.5
v 0.2 1.2 -0.6
v 0.3 0.6 0.2
v 0.3 0.6 -0.3
v 0.3 0.7 0.2
v 0.3 0.7 -0.3
v 0.3 0.9 0.2
v 0.3 0.9 0.1
v 0.3 0.9 -0.2
v 0.3 0.9 -0.3
v 0.3 1 0.2
v 0.3 1 0.1
v 0.3 1 -0.2
v 0.3 1 -0.3
v 0.3 1.3 0.2
v 0.3 1.3 -0.3
v 0.3 1.4 0.2
v 0.3 1.4 -0.3
v 0.3 1.5 0.2
v 0.3 1.5 -0.3
v 0.5 1.3 0.4
v 0.5 1.3 -0.5
v 0.5 1.4 0.4
v 0.5 1.4 -0.5
v 0 0.8 0.6
v 0 0.9 0.6
v 0 1.1 0.6
v 0.1 0.8 0.6
v 0.1 0.9 0.6
v 0.2 0.9 0.6
v 0.2 1.1 0.6
v 0.1 0.8 0.5
v 0.1 0.9 0.5
v 0.1 1.1 0.5
v 0.1 1.2 0.5
v 0.2 0.8 0.5
v 0.2 0.9 0.5
v 0.2 1.1 0.5
v 0.2 1.2 0.5
v -0.4 1.3 0.4
v -0.4 1.4 0.4
v 0.5 1.3 0.4
v 0.5 1.4 0.4
v -0.3 1 0.3
v -0.3 1.3 0.3
v -0.2 1 0.3
v -0.2 1.3 0.3
v -0.1 0.3 0.3
v -0.1 0.4 0.3
v -0.1 0.6 0.3
v 0.2 0.3 0.3
v 0.2 0.4 0.3
v 0.2 0.6 0.3
v -0.2 0.6 0.2
v -0.2 0.7 0.2
v -0.2 1 0.2
v -0.2 1.3 0.2
v -0.2 1.4 0.2
v -0.2 1.5 0.2
v -0.1 0.6 0.2
v 0 0 0.2
v 0 0.1 0.2
v 0 0.3 0.2
v 0 0.8 0.2
v 0 0.9 0.2
v 0 1 0.2
v 0.1 0.1 0.2
v 0.1 0.3 0.2
v 0.1 1 0.2
v 0.1 1.3 0.2
v 0.2 0 0.2
v 0.2 0.1 0.2
v 0.2 0.6 0.2
v 0.2 0.8 0.2
v 0.2 0.9 0.2
v 0.2 1 0.2
v 0.2 1.3 0.2
v 0.3 0.6 0.2
v 0.3 0.7 0.2
v 0.3 0.9 0.2
v 0.3 1 0.2
v 0.3 1.3 0.2
v 0.3 1.4 0.2
v 0.3 1.5 0.2
v 0 1.5 0
v 0 1.6 0
v 0.1 1.5 0
v 0.1 1.6 0
v -0.1 0.3 -0.1
v -0.1 0.4 -0.1
v -0.1 0.6 -0.1
v 0.2 0.3 -0.1
v 0.2 0.4 -0.1
v 0.2 0.6 -0.1
v 0 0 -0.2
v 0 0.1 -0.2
v 0 0.3 -0.2
v 0.1 0.1 -0.2
v 0.1 0.3 -0.2
v 0.2 0 -0.2
v 0.2 0.1 -0.2
v 0 1 -0.5
v 0 1.1 -0.5
v 0.1 1.1 -0.5
v 0.1 1.2 -0.5
v 0.2 1 -0.5
v 0.2 1.1 -0.5
v 0.2 1.2 -0.5
v 0 1 0.4
v 0 1.1 0.4
v 0.1 1.1 0.4
v 0.1 1.2 0.4
v 0.2 1 0.4
v 0.2 1.1 0.4
v 0.2 1.2 0.4
v 0 0 0.1
v 0 0.1 0.1
v 0 0.3 0.1
v 0.1 0.1 0.1
v 0.1 0.3 0.1
v 0.2 0 0.1
v 0.2 0.1 0.1
v -0.1 0.3 0
v -0.1 0.4 0
v -0.1 0.6 0
v 0.2 0.3 0
v 0.2 0.4 0
v 0.2 0.6 0
v 0 1.5 -0.1
v 0 1.6 -0.1
v 0.1 1.5 -0.1
v 0.1 1.6 -0.1
v -0.2 0.6 -0.3
v -0.2 0.7 -0.3
v -0.2 1 -0.3
v -0.2 1.3 -0.3
v -0.2 1.4 -0.3
v -0.2 1.5 -0.3
v -0.1 0.6 -0.3
v 0 0 -0.3
v 0 0.1 -0.3
v 0 0.3 -0.3
v 0 0.8 -0.3
v 0 0.9 -0.3
v 0 1 -0.3
v 0.1 0.1 -0.3
v 0.1 0.3 -0.3
v 0.1 1 -0.3
v 0.1 1.3 -0.3
v 0.2 0 -0.3
v 0.2 0.1 -0.3
v 0.2 0.6 -0.3
v 0.2 0.8 -0.3
v 0.2 0.9 -0.3
v 0.2 1 -0.3
v 0.2 1.3 -0.3
v 0.3 0.6 -0.3
v 0.3 0.7 -0.3
v 0.3 0.9 -0.3
v 0.3 1 -0.3
v 0.3 1.3 -0.3
v 0.3 1.4 -0.3
v 0.3 1.5 -0.3
v -0.3 1 -0.4
v -0.3 1.3 -0.4
v -0.2 1 -0.4
v -0.2 1.3 -0.4
v -0.1 0.3 -0.4
v -0.1 0.4 -0.4
v -0.1 0.6 -0.4
v 0.2 0.3 -0.4
v 0.2 0.4 -0.4
v 0.2 0.6 -0.4
v -0.4 1.3 -0.5
v -0.4 1.4 -0.5
v 0.5 1.3 -0.5
v 0.5 1.4 -0.5
v 0.1 0.8 -0.6
v 0.1 0.9 -0.6
v 0.1 1.1 -0.6
v 0.1 1.2 -0.6
v 0.2 0.8 -0.6
v 0.2 0.9 -0.6
v 0.2 1.1 -0.6
v 0.2 1.2 -0.6
v 0 0.8 -0.7
v 0 0.9 -0.7
v 0 1.1 -0.7
v 0.1 0.8 -0.7
v 0.1 0.9 -0.7
v 0.2 0.9 -0.7
v 0.2 1.1 -0.7
v 0 0 0.2
v 0.2 0 0.2
v 0 0 0.1
v 0.2 0 0.1
v 0 0 -0.2
v 0.2 0 -0.2
v 0 0 -0.3
v 0.2 0 -0.3
v -0.1 0.3 0.3
v 0.2 0.3 0.3
v 0 0.3 0.2
v 0.1 0.3 0.2
v 0 0.3 0.1
v 0.1 0.3 0.1
v -0.1 0.3 0
v 0.2 0.3 0
v -0.1 0.3 -0.1
v 0.2 0.3 -0.1
v 0 0.3 -0.2
v 0.1 0.3 -0.2
v 0 0.3 -0.3
v 0.1 0.3 -0.3
v -0.1 0.3 -0.4
v 0.2 0.3 -0.4
v -0.2 0.6 0.2
v -0.1 0.6 0.2
v 0.2 0.6 0.2
v 0.3 0.6 0.2
v -0.1 0.6 0
v 0.2 0.6 0
v -0.1 0.6 -0.1
v 0.2 0.6 -0.1
v -0.2 0.6 -0.3
v -0.1 0.6 -0.3
v 0.2 0.6 -0.3
v 0.3 0.6 -0.3
v 0 0.8 0.6
v 0.1 0.8 0.6
v 0 0.8 0.5
v 0.1 0.8 0.5
v 0.2 0.8 0.5
v 0 0.8 0.2
v 0.2 0.8 0.2
v 0 0.8 -0.3
v 0.2 0.8 -0.3
v 0 0.8 -0.6
v 0.1 0.8 -0.6
v 0.2 0.8 -0.6
v 0 0.8 -0.7
v 0.1 0.8 -0.7
v 0.1 0.9 0.6
v 0.2 0.9 0.6
v 0.1 0.9 0.5
v 0.2 0.9 0.5
v 0.1 0.9 -0.6
v 0.2 0.9 -0.6
v 0.1 0.9 -0.7
v 0.2 0.9 -0.7
v -0.3 1 0.3
v -0.2 1 0.3
v -0.2 1 0.2
v -0.2 1 0.1
v -0.2 1 -0.2
v -0.2 1 -0.3
v -0.3 1 -0.4
v -0.2 1 -0.4
v -0.4 1.3 0.4
v 0.5 1.3 0.4
v -0.3 1.3 0.3
v -0.2 1.3 0.3
v -0.2 1.3 0.2
v 0.1 1.3 0.2
v 0.2 1.3 0.2
v 0.3 1.3 0.2
v -0.2 1.3 -0.3
v 0.1 1.3 -0.3
v 0.2 1.3 -0.3
v 0.3 1.3 -0.3
v -0.3 1.3 -0.4
v -0.2 1.3 -0.4
v -0.4 1.3 -0.5
v 0.5 1.3 -0.5
v 0.1 0.1 0.2
v 0.2 0.1 0.2
v 0.1 0.1 0.1
v 0.2 0.1 0.1
v 0.1 0.1 -0.2
v 0.2 0.1 -0.2
v 0.1 0.1 -0.3
v 0.2 0.1 -0.3
v -0.1 0.6 0.3
v 0.2 0.6 0.3
v -0.1 0.6 0.2
v 0.2 0.6 0.2
v -0.1 0.6 -0.3
v 0.2 0.6 -0.3
v -0.1 0.6 -0.4
v 0.2 0.6 -0.4
v 0 1 0.4
v 0.2 1 0.4
v 0 1 0.2
v 0.1 1 0.2
v 0.2 1 0.2
v 0 1 -0.3
v 0.1 1 -0.3
v 0.2 1 -0.3
v 0 1 -0.5
v 0.2 1 -0.5
v 0 1.1 0.6
v 0.2 1.1 0.6
v 0.1 1.1 0.5
v 0.2 1.1 0.5
v 0 1.1 0.4
v 0.1 1.1 0.4
v 0 1.1 -0.5
v 0.1 1.1 -0.5
v 0.1 1.1 -0.6
v 0.2 1.1 -0.6
v 0 1.1 -0.7
v 0.2 1.1 -0.7
v 0.1 1.2 0.5
v 0.2 1.2 0.5
v 0.1 1.2 0.4
v 0.2 1.2 0.4
v 0.1 1.2 -0.5
v 0.2 1.2 -0.5
v 0.1 1.2 -0.6
v 0.2 1.2 -0.6
v -0.4 1.4 0.4
v 0.5 1.4 0.4
v -0.2 1.4 0.2
v 0.3 1.4 0.2
v -0.2 1.4 -0.3
v 0.3 1.4 -0.3
v -0.4 1.4 -0.5
v 0.5 1.4 -0.5
v -0.2 1.5 0.2
v 0.3 1.5 0.2
v 0 1.5 0
v 0.1 1.5 0
v 0 1.5 -0.1
v 0.1 1.5 -0.1
v -0.2 1.5 -0.3
v 0.3 1.5 -0.3
v 0 1.6 0
v 0.1 1.6 0
v 0 1.6 -0.1
v 0.1 1.6 -0.1

# faces
f 3/4/1 2/4/1 1/4/1
f 4/4/1 2/4/1 3/4/1
f 7/1/1 6/1/1 5/1/1
f 8/1/1 6/1/1 7/1/1
f 11/4/1 10/4/1 9/4/1
f 12/4/1 10/4/1 11/4/1
f 13/3/1 12/3/1 11/3/1
f 14/3/1 12/3/1 13/3/1
f 15/3/1 13/3/1 11/3/1
f 16/2/1 14/2/1 13/2/1
f 16/3/1 13/3/1 15/3/1
f 17/3/1 12/3/1 14/3/1
f 17/2/1 14/2/1 16/2/1
f 18/3/1 12/3/1 17/3/1
f 21/4/1 20/4/1 19/4/1
f 22/4/1 20/4/1 21/4/1
f 27/2/1 24/2/1 23/2/1
f 28/2/1 24/2/1 27/2/1
f 29/2/1 26/2/1 25/2/1
f 30/2/1 26/2/1 29/2/1
f 31/3/1 28/3/1 27/3/1
f 32/3/1 28/3/1 31/3/1
f 33/3/1 28/3/1 32/3/1
f 34/3/1 30/3/1 29/3/1
f 35/3/1 30/3/1 34/3/1
f 36/3/1 30/3/1 35/3/1
f 41/7/1 38/7/1 37/7/1
f 42/7/1 38/7/1 41/7/1
f 43/7/1 40/7/1 39/7/1
f 44/7/1 40/7/1 43/7/1
f 45/3/1 42/3/1 41/3/1
f 46/3/1 42/3/1 45/3/1
f 47/3/1 44/3/1 43/3/1
f 48/3/1 44/3/1 47/3/1
f 55/3/1 50/3/1 49/3/1
f 56/2/1 51/2/1 50/2/1
f 56/3/1 50/3/1 55/3/1
f 57/2/1 51/2/1 56/2/1
f 58/2/1 51/2/1 57/2/1
f 59/2/1 53/2/1 52/2/1
f 60/2/1 53/2/1 59/2/1
f 61/3/1 54/3/1 53/3/1
f 61/2/1 53/2/1 60/2/1
f 62/3/1 54/3/1 61/3/1
f 63/3/1 58/3/1 57/3/1
f 63/2/1 56/2/1 55/2/1
f 63/2/1 57/2/1 56/2/1
f 64/3/1 58/3/1 63/3/1
f 65/3/1 60/3/1 59/3/1
f 66/2/1 62/2/1 61/2/1
f 66/3/1 60/3/1 65/3/1
f 66/2/1 61/2/1 60/2/1
f 67/2/1 63/2/1 55/2/1
f 68/2/1 63/2/1 67/2/1
f 69/2/1 62/2/1 66/2/1
f 70/2/1 62/2/1 69/2/1
f 73/4/1 72/4/1 71/4/1
f 74/4/1 72/4/1 73/4/1
f 79/5/1 76/5/1 75/5/1
f 80/5/1 76/5/1 79/5/1
f 81/5/1 78/5/1 77/5/1
f 82/5/1 78/5/1 81/5/1
f 83/1/2 84/1/2 87/1/2
f 87/1/2 84/1/2 88/1/2
f 85/1/2 86/1/2 89/1/2
f 89/1/2 86/1/2 90/1/2
f 91/3/2 92/3/2 95/3/2
f 95/3/2 92/3/2 96/3/2
f 93/3/2 94/3/2 97/3/2
f 97/3/2 94/3/2 98/3/2
f 99/3/2 100/3/2 103/3/2
f 103/3/2 100/3/2 104/3/2
f 101/3/2 102/3/2 105/3/2
f 105/3/2 102/3/2 106/3/2
f 107/4/2 108/4/2 109/4/2
f 109/4/2 108/4/2 110/4/2
f 111/7/2 112/7/2 115/7/2
f 115/7/2 112/7/2 116/7/2
f 113/7/2 114/7/2 117/7/2
f 117/7/2 114/7/2 118/7/2
f 119/2/2 120/2/2 123/2/2
f 123/2/2 120/2/2 124/2/2
f 121/2/2 122/2/2 125/2/2
f 125/2/2 122/2/2 126/2/2
f 123/3/2 124/3/2 127/3/2
f 127/3/2 124/3/2 128/3/2
f 128/3/2 124/3/2 129/3/2
f 125/3/2 126/3/2 130/3/2
f 130/3/2 126/3/2 131/3/2
f 131/3/2 126/3/2 132/3/2
f 133/2/2 134/2/2 138/2/2
f 138/2/2 134/2/2 139/2/2
f 139/2/2 134/2/2 140/2/2
f 135/2/2 136/2/2 141/2/2
f 141/2/2 136/2/2 142/2/2
f 142/2/2 136/2/2 143/2/2
f 139/3/2 140/3/2 145/3/2
f 137/2/2 138/2/2 145/2/2
f 138/2/2 139/2/2 145/2/2
f 145/3/2 140/3/2 146/3/2
f 141/3/2 142/3/2 147/3/2
f 143/2/2 144/2/2 148/2/2
f 147/3/2 142/3/2 148/3/2
f 142/2/2 143/2/2 148/2/2
f 137/2/2 145/2/2 149/2/2
f 149/2/2 145/2/2 150/2/2
f 150/2/2 145/2/2 151/2/2
f 148/2/2 144/2/2 152/2/2
f 152/2/2 144/2/2 153/2/2
f 153/2/2 144/2/2 154/2/2
f 150/5/2 151/5/2 155/5/2
f 155/5/2 151/5/2 156/5/2
f 152/5/2 153/5/2 157/5/2
f 157/5/2 153/5/2 158/5/2
f 159/4/2 160/4/2 161/4/2
f 161/4/2 160/4/2 162/4/2
f 161/3/2 162/3/2 163/3/2
f 163/3/2 162/3/2 164/3/2
f 164/3/2 162/3/2 165/3/2
f 165/3/2 162/3/2 166/3/2
f 163/4/2 164/4/2 167/4/2
f 164/2/2 165/2/2 168/2/2
f 167/4/2 164/4/2 168/4/2
f 165/4/2 166/4/2 169/4/2
f 168/2/2 165/2/2 169/2/2
f 169/4/2 166/4/2 170/4/2
f 167/5/2 168/5/2 171/5/2
f 168/5/2 169/5/2 171/5/2
f 169/5/2 170/5/2 171/5/2
f 171/5/2 170/5/2 172/5/2
f 173/4/2 174/4/2 175/4/2
f 175/4/2 174/4/2 176/4/2
f 177/4/2 178/4/2 179/4/2
f 179/4/2 178/4/2 180/4/2
f 184/3/3 182/3/3 181/3/3
f 185/2/3 183/2/3 182/2/3
f 185/3/3 182/3/3 184/3/3
f 186/2/3 183/2/3 185/2/3
f 187/2/3 183/2/3 186/2/3
f 192/2/3 189/2/3 188/2/3
f 193/2/3 189/2/3 192/2/3
f 194/5/3 191/5/3 190/5/3
f 195/5/3 191/5/3 194/5/3
f 198/4/3 197/4/3 196/4/3
f 199/4/3 197/4/3 198/4/3
f 202/1/3 201/1/3 200/1/3
f 203/1/3 201/1/3 202/1/3
f 207/2/3 205/2/3 204/2/3
f 208/3/3 206/3/3 205/3/3
f 208/2/3 205/2/3 207/2/3
f 209/3/3 206/3/3 208/3/3
f 216/4/3 211/4/3 210/4/3
f 220/3/3 212/3/3 211/3/3
f 221/3/3 212/3/3 220/3/3
f 222/5/3 213/5/3 212/5/3
f 222/3/3 212/3/3 221/3/3
f 223/3/3 219/3/3 218/3/3
f 223/7/3 218/7/3 217/7/3
f 224/3/3 219/3/3 223/3/3
f 225/5/3 213/5/3 222/5/3
f 226/5/3 213/5/3 225/5/3
f 227/7/3 223/7/3 217/7/3
f 228/7/3 223/7/3 227/7/3
f 229/4/3 211/4/3 216/4/3
f 230/3/3 220/3/3 211/3/3
f 232/1/3 226/1/3 225/1/3
f 233/1/3 226/1/3 232/1/3
f 234/4/3 211/4/3 229/4/3
f 235/3/3 231/3/3 230/3/3
f 235/4/3 211/4/3 234/4/3
f 235/3/3 230/3/3 211/3/3
f 236/4/3 232/4/3 231/4/3
f 236/3/3 231/3/3 235/3/3
f 237/5/3 233/5/3 232/5/3
f 237/4/3 232/4/3 236/4/3
f 238/5/3 233/5/3 237/5/3
f 239/4/3 215/4/3 214/4/3
f 240/4/3 215/4/3 239/4/3
f 243/4/3 242/4/3 241/4/3
f 244/4/3 242/4/3 243/4/3
f 248/2/3 246/2/3 245/2/3
f 249/3/3 247/3/3 246/3/3
f 249/2/3 246/2/3 248/2/3
f 250/3/3 247/3/3 249/3/3
f 254/7/3 252/7/3 251/7/3
f 254/3/3 253/3/3 252/3/3
f 255/3/3 253/3/3 254/3/3
f 256/7/3 254/7/3 251/7/3
f 257/7/3 254/7/3 256/7/3
f 260/2/3 259/2/3 258/2/3
f 262/2/3 260/2/3 258/2/3
f 263/5/3 261/5/3 260/5/3
f 263/2/3 260/2/3 262/2/3
f 264/5/3 261/5/3 263/5/3
f 265/2/4 266/2/4 267/2/4
f 265/2/4 267/2/4 269/2/4
f 267/5/4 268/5/4 270/5/4
f 269/2/4 267/2/4 270/2/4
f 270/5/4 268/5/4 271/5/4
f 272/7/4 273/7/4 275/7/4
f 273/3/4 274/3/4 275/3/4
f 275/3/4 274/3/4 276/3/4
f 272/7/4 275/7/4 277/7/4
f 277/7/4 275/7/4 278/7/4
f 279/2/4 280/2/4 282/2/4
f 280/3/4 281/3/4 283/3/4
f 282/2/4 280/2/4 283/2/4
f 283/3/4 281/3/4 284/3/4
f 285/4/4 286/4/4 287/4/4
f 287/4/4 286/4/4 288/4/4
f 289/4/4 290/4/4 295/4/4
f 290/3/4 291/3/4 299/3/4
f 299/3/4 291/3/4 300/3/4
f 291/5/4 292/5/4 301/5/4
f 300/3/4 291/3/4 301/3/4
f 297/3/4 298/3/4 302/3/4
f 296/7/4 297/7/4 302/7/4
f 302/3/4 298/3/4 303/3/4
f 301/5/4 292/5/4 304/5/4
f 304/5/4 292/5/4 305/5/4
f 296/7/4 302/7/4 306/7/4
f 306/7/4 302/7/4 307/7/4
f 295/4/4 290/4/4 308/4/4
f 290/3/4 299/3/4 309/3/4
f 304/1/4 305/1/4 311/1/4
f 311/1/4 305/1/4 312/1/4
f 308/4/4 290/4/4 313/4/4
f 309/3/4 310/3/4 314/3/4
f 313/4/4 290/4/4 314/4/4
f 290/3/4 309/3/4 314/3/4
f 310/4/4 311/4/4 315/4/4
f 314/3/4 310/3/4 315/3/4
f 311/5/4 312/5/4 316/5/4
f 315/4/4 311/4/4 316/4/4
f 316/5/4 312/5/4 317/5/4
f 293/4/4 294/4/4 318/4/4
f 318/4/4 294/4/4 319/4/4
f 320/1/4 321/1/4 322/1/4
f 322/1/4 321/1/4 323/1/4
f 324/2/4 325/2/4 327/2/4
f 325/3/4 326/3/4 328/3/4
f 327/2/4 325/2/4 328/2/4
f 328/3/4 326/3/4 329/3/4
f 330/4/4 331/4/4 332/4/4
f 332/4/4 331/4/4 333/4/4
f 334/2/4 335/2/4 338/2/4
f 338/2/4 335/2/4 339/2/4
f 336/5/4 337/5/4 340/5/4
f 340/5/4 337/5/4 341/5/4
f 342/3/4 343/3/4 345/3/4
f 343/2/4 344/2/4 346/2/4
f 345/3/4 343/3/4 346/3/4
f 346/2/4 344/2/4 347/2/4
f 347/2/4 344/2/4 348/2/4
f 351/7/5 350/7/5 349/7/5
f 352/7/5 350/7/5 351/7/5
f 355/7/5 354/7/5 353/7/5
f 356/7/5 354/7/5 355/7/5
f 359/2/5 358/2/5 357/2/5
f 360/2/5 358/2/5 359/2/5
f 361/2/5 359/2/5 357/2/5
f 362/2/5 358/2/5 360/2/5
f 363/2/5 361/2/5 357/2/5
f 363/2/5 362/2/5 361/2/5
f 364/2/5 358/2/5 362/2/5
f 364/2/5 362/2/5 363/2/5
f 367/2/5 366/2/5 365/2/5
f 368/2/5 366/2/5 367/2/5
f 369/2/5 367/2/5 365/2/5
f 370/2/5 366/2/5 368/2/5
f 371/2/5 369/2/5 365/2/5
f 371/2/5 370/2/5 369/2/5
f 372/2/5 366/2/5 370/2/5
f 372/2/5 370/2/5 371/2/5
f 377/4/5 374/4/5 373/4/5
f 378/4/5 376/4/5 375/4/5
f 379/4/5 377/4/5 373/4/5
f 379/2/5 378/2/5 377/2/5
f 380/4/5 376/4/5 378/4/5
f 380/2/5 378/2/5 379/2/5
f 381/4/5 379/4/5 373/4/5
f 382/4/5 379/4/5 381/4/5
f 383/4/5 376/4/5 380/4/5
f 384/4/5 376/4/5 383/4/5
f 387/3/5 386/3/5 385/3/5
f 388/3/5 386/3/5 387/3/5
f 390/2/5 388/2/5 387/2/5
f 390/2/5 389/2/5 388/2/5
f 391/2/5 389/2/5 390/2/5
f 394/2/5 393/2/5 392/2/5
f 395/2/5 393/2/5 394/2/5
f 396/2/5 393/2/5 395/2/5
f 397/3/5 395/3/5 394/3/5
f 398/3/5 395/3/5 397/3/5
f 401/2/5 400/2/5 399/2/5
f 402/2/5 400/2/5 401/2/5
f 405/2/5 404/2/5 403/2/5
f 406/2/5 404/2/5 405/2/5
f 409/1/5 408/1/5 407/1/5
f 410/1/5 409/1/5 407/1/5
f 411/1/5 410/1/5 407/1/5
f 412/1/5 411/1/5 407/1/5
f 413/1/5 412/1/5 407/1/5
f 414/1/5 412/1/5 413/1/5
f 417/4/5 416/4/5 415/4/5
f 418/4/5 416/4/5 417/4/5
f 419/4/5 416/4/5 418/4/5
f 420/4/5 416/4/5 419/4/5
f 421/4/5 416/4/5 420/4/5
f 422/4/5 416/4/5 421/4/5
f 426/4/5 416/4/5 422/4/5
f 427/4/5 417/4/5 415/4/5
f 428/4/5 426/4/5 425/4/5
f 428/4/5 425/4/5 424/4/5
f 428/4/5 424/4/5 423/4/5
f 429/4/5 427/4/5 415/4/5
f 429/4/5 428/4/5 427/4/5
f 430/4/5 426/4/5 428/4/5
f 430/4/5 428/4/5 429/4/5
f 430/4/5 416/4/5 426/4/5
f 431/7/6 432/7/6 433/7/6
f 433/7/6 432/7/6 434/7/6
f 435/7/6 436/7/6 437/7/6
f 437/7/6 436/7/6 438/7/6
f 439/3/6 440/3/6 441/3/6
f 441/3/6 440/3/6 442/3/6
f 443/3/6 444/3/6 445/3/6
f 445/3/6 444/3/6 446/3/6
f 447/3/6 448/3/6 449/3/6
f 449/3/6 448/3/6 450/3/6
f 450/3/6 448/3/6 451/3/6
f 452/3/6 453/3/6 455/3/6
f 453/3/6 454/3/6 455/3/6
f 455/3/6 454/3/6 456/3/6
f 457/2/6 458/2/6 459/2/6
f 459/2/6 458/2/6 460/2/6
f 457/2/6 459/2/6 461/2/6
f 461/2/6 459/2/6 462/2/6
f 463/2/6 464/2/6 465/2/6
f 463/2/6 465/2/6 467/2/6
f 465/2/6 466/2/6 467/2/6
f 467/2/6 466/2/6 468/2/6
f 469/5/6 470/5/6 471/5/6
f 471/5/6 470/5/6 472/5/6
f 473/5/6 474/5/6 475/5/6
f 475/5/6 474/5/6 476/5/6
f 477/4/6 478/4/6 479/4/6
f 479/4/6 478/4/6 480/4/6
f 477/4/6 479/4/6 481/4/6
f 480/4/6 478/4/6 482/4/6
f 477/4/6 481/4/6 483/4/6
f 481/4/6 482/4/6 483/4/6
f 482/4/6 478/4/6 484/4/6
f 483/4/6 482/4/6 484/4/6
f 485/4/6 486/4/6 487/4/6
f 487/4/6 486/4/6 488/4/6
f 485/4/6 487/4/6 489/4/6
f 488/4/6 486/4/6 490/4/6
f 485/4/6 489/4/6 491/4/6
f 489/4/6 490/4/6 491/4/6
f 490/4/6 486/4/6 492/4/6
f 491/4/6 490/4/6 492/4/6
f 493/4/6 494/4/6 495/4/6
f 495/4/6 494/4/6 496/4/6
