# MagicaVoxel @ Ephtracy

# group
o 

# material
mtllib ashigaru.mtl
usemtl palette

# normals
vn -1 0 0
vn 1 0 0
vn 0 0 1
vn 0 0 -1
vn 0 -1 0
vn 0 1 0

# texcoords
vt 0.00585938 0.5
vt 0.0214844 0.5
vt 0.0253906 0.5
vt 0.0292969 0.5
vt 0.0332031 0.5
vt 0.306641 0.5
vt 0.369141 0.5
vt 0.966797 0.5
vt 0.990234 0.5

# verts
v -0.4 1.3 0.4
v -0.4 1.3 -0.5
v -0.4 1.4 0.4
v -0.4 1.4 -0.5
v -0.3 0.6 0.4
v -0.3 0.6 0.3
v -0.3 0.7 0.4
v -0.3 0.7 0.3
v -0.3 1 0.3
v -0.3 1 -0.4
v -0.3 1.3 0.3
v -0.3 1.3 -0.4
v -0.2 0.6 0.2
v -0.2 0.6 -0.3
v -0.2 0.7 0.2
v -0.2 0.7 -0.3
v -0.2 0.9 0.1
v -0.2 0.9 -0.2
v -0.2 1 0.2
v -0.2 1 0.1
v -0.2 1 -0.2
v -0.2 1 -0.3
v -0.2 1.4 0.2
v -0.2 1.4 -0.3
v -0.2 1.5 0.2
v -0.2 1.5 -0.3
v -0.1 0.3 0.3
v -0.1 0.3 -5.96046e-08
v -0.1 0.3 -0.1
v -0.1 0.3 -0.4
v -0.1 0.4 0.3
v -0.1 0.4 -5.96046e-08
v -0.1 0.4 -0.1
v -0.1 0.4 -0.4
v -0.1 0.6 0.3
v -0.1 0.6 0.2
v -0.1 0.6 -5.96046e-08
v -0.1 0.6 -0.1
v -0.1 0.6 -0.3
v -0.1 0.6 -0.4
v 0 0 0.2
v 0 0 0.1
v 0 0 -0.2
v 0 0 -0.3
v 0 0.1 0.2
v 0 0.1 0.1
v 0 0.1 -0.2
v 0 0.1 -0.3
v 0 0.3 0.2
v 0 0.3 0.1
v 0 0.3 -0.2
v 0 0.3 -0.3
v 0 0.7 0.5
v 0 0.7 0.4
v 0 0.7 0.3
v 0 0.7 -0.4
v 0 0.7 -0.6
v 0 0.8 0.5
v 0 0.8 0.4
v 0 0.8 0.3
v 0 0.8 0.2
v 0 0.8 -0.3
v 0 0.8 -0.4
v 0 0.8 -0.5
v 0 0.8 -0.6
v 0 0.9 0.5
v 0 0.9 0.4
v 0 0.9 0.2
v 0 0.9 -0.3
v 0 0.9 -0.5
v 0 0.9 -0.6
v 0 1 0.4
v 0 1 0.2
v 0 1 -0.3
v 0 1 -0.5
v 0 1.5 -5.96046e-08
v 0 1.5 -0.1
v 0 1.6 -5.96046e-08
v 0 1.6 -0.1
v 0.1 0.6 0.5
v 0.1 0.6 0.4
v 0.1 0.6 -0.5
v 0.1 0.6 -0.6
v 0.1 0.7 0.5
v 0.1 0.7 0.4
v 0.1 0.7 -0.5
v 0.1 0.7 -0.6
v 0.4 0.5 0.4
v 0.4 0.5 0.3
v 0.4 0.6 0.4
v 0.4 0.6 0.3
v 0.4 0.7 0.4
v 0.4 0.7 0.3
v 0.4 0.8 0.4
v 0.4 0.8 0.3
v -0.2 1 0.3
v -0.2 1 0.2
v -0.2 1 -0.3
v -0.2 1 -0.4
v -0.2 1.3 0.3
v -0.2 1.3 0.2
v -0.2 1.3 -0.3
v -0.2 1.3 -0.4
v 0.1 0.1 0.2
v 0.1 0.1 0.1
v 0.1 0.1 -0.2
v 0.1 0.1 -0.3
v 0.1 0.3 0.2
v 0.1 0.3 0.1
v 0.1 0.3 -0.2
v 0.1 0.3 -0.3
v 0.1 1.5 -5.96046e-08
v 0.1 1.5 -0.1
v 0.1 1.6 -5.96046e-08
v 0.1 1.6 -0.1
v 0.2 0 0.2
v 0.2 0 0.1
v 0.2 0 -0.2
v 0.2 0 -0.3
v 0.2 0.1 0.2
v 0.2 0.1 0.1
v 0.2 0.1 -0.2
v 0.2 0.1 -0.3
v 0.2 0.3 0.3
v 0.2 0.3 -5.96046e-08
v 0.2 0.3 -0.1
v 0.2 0.3 -0.4
v 0.2 0.4 0.3
v 0.2 0.4 -5.96046e-08
v 0.2 0.4 -0.1
v 0.2 0.4 -0.4
v 0.2 0.6 0.5
v 0.2 0.6 0.4
v 0.2 0.6 0.3
v 0.2 0.6 0.2
v 0.2 0.6 -5.96046e-08
v 0.2 0.6 -0.1
v 0.2 0.6 -0.3
v 0.2 0.6 -0.4
v 0.2 0.6 -0.5
v 0.2 0.6 -0.6
v 0.2 0.7 0.5
v 0.2 0.7 0.4
v 0.2 0.7 0.3
v 0.2 0.7 -0.4
v 0.2 0.7 -0.5
v 0.2 0.7 -0.6
v 0.2 0.8 0.3
v 0.2 0.8 0.2
v 0.2 0.8 -0.3
v 0.2 0.8 -0.4
v 0.2 0.9 0.5
v 0.2 0.9 0.4
v 0.2 0.9 0.2
v 0.2 0.9 -0.3
v 0.2 0.9 -0.5
v 0.2 0.9 -0.6
v 0.2 1 0.4
v 0.2 1 0.2
v 0.2 1 -0.3
v 0.2 1 -0.5
v 0.3 0.6 0.2
v 0.3 0.6 -0.3
v 0.3 0.7 0.2
v 0.3 0.7 -0.3
v 0.3 0.9 0.2
v 0.3 0.9 0.1
v 0.3 0.9 -0.2
v 0.3 0.9 -0.3
v 0.3 1 0.2
v 0.3 1 0.1
v 0.3 1 -0.2
v 0.3 1 -0.3
v 0.3 1.3 0.2
v 0.3 1.3 -0.3
v 0.3 1.4 0.2
v 0.3 1.4 -0.3
v 0.3 1.5 0.2
v 0.3 1.5 -0.3
v 0.5 0.5 0.4
v 0.5 0.5 0.3
v 0.5 0.6 0.4
v 0.5 0.6 0.3
v 0.5 0.7 0.4
v 0.5 0.7 0.3
v 0.5 0.8 0.4
v 0.5 0.8 0.3
v 0.5 1.3 0.4
v 0.5 1.3 -0.5
v 0.5 1.4 0.4
v 0.5 1.4 -0.5
v 0.6 0.6 0.4
v 0.6 0.6 0.3
v 0.6 0.7 0.4
v 0.6 0.7 0.3
v 0 0.7 0.5
v 0 0.8 0.5
v 0 0.9 0.5
v 0.1 0.6 0.5
v 0.1 0.7 0.5
v 0.1 0.8 0.5
v 0.1 0.9 0.5
v 0.2 0.6 0.5
v 0.2 0.7 0.5
v 0.2 0.9 0.5
v -0.4 1.3 0.4
v -0.4 1.4 0.4
v -0.3 0.6 0.4
v -0.3 0.7 0.4
v 0 0.7 0.4
v 0 0.9 0.4
v 0 1 0.4
v 0.1 0.6 0.4
v 0.1 0.7 0.4
v 0.1 0.9 0.4
v 0.2 0.6 0.4
v 0.2 0.7 0.4
v 0.2 0.9 0.4
v 0.2 1 0.4
v 0.4 0.5 0.4
v 0.4 0.6 0.4
v 0.4 0.7 0.4
v 0.4 0.8 0.4
v 0.5 0.5 0.4
v 0.5 0.6 0.4
v 0.5 0.7 0.4
v 0.5 0.8 0.4
v 0.5 1.3 0.4
v 0.5 1.4 0.4
v 0.6 0.6 0.4
v 0.6 0.7 0.4
v -0.3 1 0.3
v -0.3 1.3 0.3
v -0.2 1 0.3
v -0.2 1.3 0.3
v -0.1 0.3 0.3
v -0.1 0.4 0.3
v -0.1 0.6 0.3
v 0.2 0.3 0.3
v 0.2 0.4 0.3
v 0.2 0.6 0.3
v -0.2 0.6 0.2
v -0.2 0.7 0.2
v -0.2 1 0.2
v -0.2 1.3 0.2
v -0.2 1.4 0.2
v -0.2 1.5 0.2
v -0.1 0.6 0.2
v 0 0 0.2
v 0 0.1 0.2
v 0 0.3 0.2
v 0 0.8 0.2
v 0 0.9 0.2
v 0 1 0.2
v 0.1 0.1 0.2
v 0.1 0.3 0.2
v 0.1 1 0.2
v 0.1 1.3 0.2
v 0.2 0 0.2
v 0.2 0.1 0.2
v 0.2 0.6 0.2
v 0.2 0.8 0.2
v 0.2 0.9 0.2
v 0.2 1 0.2
v 0.2 1.3 0.2
v 0.3 0.6 0.2
v 0.3 0.7 0.2
v 0.3 0.9 0.2
v 0.3 1 0.2
v 0.3 1.3 0.2
v 0.3 1.4 0.2
v 0.3 1.5 0.2
v 0 1.5 -5.96046e-08
v 0 1.6 -5.96046e-08
v 0.1 1.5 -5.96046e-08
v 0.1 1.6 -5.96046e-08
v -0.1 0.3 -0.1
v -0.1 0.4 -0.1
v -0.1 0.6 -0.1
v 0.2 0.3 -0.1
v 0.2 0.4 -0.1
v 0.2 0.6 -0.1
v 0 0 -0.2
v 0 0.1 -0.2
v 0 0.3 -0.2
v 0.1 0.1 -0.2
v 0.1 0.3 -0.2
v 0.2 0 -0.2
v 0.2 0.1 -0.2
v 0 0.7 -0.4
v 0 0.8 -0.4
v 0.2 0.7 -0.4
v 0.2 0.8 -0.4
v 0.1 0.6 -0.5
v 0.1 0.7 -0.5
v 0.2 0.6 -0.5
v 0.2 0.7 -0.5
v -0.3 0.6 0.3
v -0.3 0.7 0.3
v -0.1 0.6 0.3
v 0 0.7 0.3
v 0 0.8 0.3
v 0.2 0.6 0.3
v 0.2 0.7 0.3
v 0.2 0.8 0.3
v 0.4 0.5 0.3
v 0.4 0.6 0.3
v 0.4 0.7 0.3
v 0.4 0.8 0.3
v 0.5 0.5 0.3
v 0.5 0.6 0.3
v 0.5 0.7 0.3
v 0.5 0.8 0.3
v 0.6 0.6 0.3
v 0.6 0.7 0.3
v 0 0 0.1
v 0 0.1 0.1
v 0 0.3 0.1
v 0.1 0.1 0.1
v 0.1 0.3 0.1
v 0.2 0 0.1
v 0.2 0.1 0.1
v -0.1 0.3 -5.96046e-08
v -0.1 0.4 -5.96046e-08
v -0.1 0.6 -5.96046e-08
v 0.2 0.3 -5.96046e-08
v 0.2 0.4 -5.96046e-08
v 0.2 0.6 -5.96046e-08
v 0 1.5 -0.1
v 0 1.6 -0.1
v 0.1 1.5 -0.1
v 0.1 1.6 -0.1
v -0.2 0.6 -0.3
v -0.2 0.7 -0.3
v -0.2 1 -0.3
v -0.2 1.3 -0.3
v -0.2 1.4 -0.3
v -0.2 1.5 -0.3
v -0.1 0.6 -0.3
v 0 0 -0.3
v 0 0.1 -0.3
v 0 0.3 -0.3
v 0 0.8 -0.3
v 0 0.9 -0.3
v 0 1 -0.3
v 0.1 0.1 -0.3
v 0.1 0.3 -0.3
v 0.1 1 -0.3
v 0.1 1.3 -0.3
v 0.2 0 -0.3
v 0.2 0.1 -0.3
v 0.2 0.6 -0.3
v 0.2 0.8 -0.3
v 0.2 0.9 -0.3
v 0.2 1 -0.3
v 0.2 1.3 -0.3
v 0.3 0.6 -0.3
v 0.3 0.7 -0.3
v 0.3 0.9 -0.3
v 0.3 1 -0.3
v 0.3 1.3 -0.3
v 0.3 1.4 -0.3
v 0.3 1.5 -0.3
v -0.3 1 -0.4
v -0.3 1.3 -0.4
v -0.2 1 -0.4
v -0.2 1.3 -0.4
v -0.1 0.3 -0.4
v -0.1 0.4 -0.4
v -0.1 0.6 -0.4
v 0.2 0.3 -0.4
v 0.2 0.4 -0.4
v 0.2 0.6 -0.4
v -0.4 1.3 -0.5
v -0.4 1.4 -0.5
v 0 0.9 -0.5
v 0 1 -0.5
v 0.1 0.9 -0.5
v 0.2 0.9 -0.5
v 0.2 1 -0.5
v 0.5 1.3 -0.5
v 0.5 1.4 -0.5
v 0 0.7 -0.6
v 0 0.8 -0.6
v 0 0.9 -0.6
v 0.1 0.6 -0.6
v 0.1 0.7 -0.6
v 0.1 0.8 -0.6
v 0.1 0.9 -0.6
v 0.2 0.6 -0.6
v 0.2 0.7 -0.6
v 0.2 0.9 -0.6
v 0 0 0.2
v 0.2 0 0.2
v 0 0 0.1
v 0.2 0 0.1
v 0 0 -0.2
v 0.2 0 -0.2
v 0 0 -0.3
v 0.2 0 -0.3
v -0.1 0.3 0.3
v 0.2 0.3 0.3
v 0 0.3 0.2
v 0.1 0.3 0.2
v 0 0.3 0.1
v 0.1 0.3 0.1
v -0.1 0.3 -5.96046e-08
v 0.2 0.3 -5.96046e-08
v -0.1 0.3 -0.1
v 0.2 0.3 -0.1
v 0 0.3 -0.2
v 0.1 0.3 -0.2
v 0 0.3 -0.3
v 0.1 0.3 -0.3
v -0.1 0.3 -0.4
v 0.2 0.3 -0.4
v 0.4 0.5 0.4
v 0.5 0.5 0.4
v 0.4 0.5 0.3
v 0.5 0.5 0.3
v 0.1 0.6 0.5
v 0.2 0.6 0.5
v -0.3 0.6 0.4
v 0.1 0.6 0.4
v 0.2 0.6 0.4
v 0.4 0.6 0.4
v 0.5 0.6 0.4
v 0.6 0.6 0.4
v -0.3 0.6 0.3
v -0.1 0.6 0.3
v 0.2 0.6 0.3
v 0.4 0.6 0.3
v 0.5 0.6 0.3
v 0.6 0.6 0.3
v -0.2 0.6 0.2
v -0.1 0.6 0.2
v 0.2 0.6 0.2
v 0.3 0.6 0.2
v -0.1 0.6 -5.96046e-08
v 0.2 0.6 -5.96046e-08
v -0.1 0.6 -0.1
v 0.2 0.6 -0.1
v -0.2 0.6 -0.3
v -0.1 0.6 -0.3
v 0.2 0.6 -0.3
v 0.3 0.6 -0.3
v 0.1 0.6 -0.5
v 0.2 0.6 -0.5
v 0.1 0.6 -0.6
v 0.2 0.6 -0.6
v 0 0.7 0.5
v 0.1 0.7 0.5
v 0 0.7 0.4
v 0.1 0.7 0.4
v 0 0.7 -0.4
v 0.2 0.7 -0.4
v 0.1 0.7 -0.5
v 0.2 0.7 -0.5
v 0 0.7 -0.6
v 0.1 0.7 -0.6
v 0 0.8 0.3
v 0.2 0.8 0.3
v 0 0.8 0.2
v 0.2 0.8 0.2
v 0 0.8 -0.3
v 0.2 0.8 -0.3
v 0 0.8 -0.4
v 0.2 0.8 -0.4
v -0.3 1 0.3
v -0.2 1 0.3
v -0.2 1 0.2
v -0.2 1 0.1
v -0.2 1 -0.2
v -0.2 1 -0.3
v -0.3 1 -0.4
v -0.2 1 -0.4
v -0.4 1.3 0.4
v 0.5 1.3 0.4
v -0.3 1.3 0.3
v -0.2 1.3 0.3
v -0.2 1.3 0.2
v 0.1 1.3 0.2
v 0.2 1.3 0.2
v 0.3 1.3 0.2
v -0.2 1.3 -0.3
v 0.1 1.3 -0.3
v 0.2 1.3 -0.3
v 0.3 1.3 -0.3
v -0.3 1.3 -0.4
v -0.2 1.3 -0.4
v -0.4 1.3 -0.5
v 0.5 1.3 -0.5
v 0.1 0.1 0.2
v 0.2 0.1 0.2
v 0.1 0.1 0.1
v 0.2 0.1 0.1
v 0.1 0.1 -0.2
v 0.2 0.1 -0.2
v 0.1 0.1 -0.3
v 0.2 0.1 -0.3
v -0.1 0.6 0.3
v 0.2 0.6 0.3
v -0.1 0.6 0.2
v 0.2 0.6 0.2
v -0.1 0.6 -0.3
v 0.2 0.6 -0.3
v -0.1 0.6 -0.4
v 0.2 0.6 -0.4
v -0.3 0.7 0.4
v 0 0.7 0.4
v 0.2 0.7 0.4
v 0.4 0.7 0.4
v 0.5 0.7 0.4
v 0.6 0.7 0.4
v -0.3 0.7 0.3
v 0 0.7 0.3
v 0.2 0.7 0.3
v 0.4 0.7 0.3
v 0.5 0.7 0.3
v 0.6 0.7 0.3
v 0.4 0.8 0.4
v 0.5 0.8 0.4
v 0.4 0.8 0.3
v 0.5 0.8 0.3
v 0 0.9 0.5
v 0.1 0.9 0.5
v 0.2 0.9 0.5
v 0 0.9 0.4
v 0.1 0.9 0.4
v 0.2 0.9 0.4
v 0 0.9 -0.5
v 0.1 0.9 -0.5
v 0.2 0.9 -0.5
v 0 0.9 -0.6
v 0.1 0.9 -0.6
v 0.2 0.9 -0.6
v 0 1 0.4
v 0.2 1 0.4
v 0 1 0.2
v 0.1 1 0.2
v 0.2 1 0.2
v 0 1 -0.3
v 0.1 1 -0.3
v 0.2 1 -0.3
v 0 1 -0.5
v 0.2 1 -0.5
v -0.4 1.4 0.4
v 0.5 1.4 0.4
v -0.2 1.4 0.2
v 0.3 1.4 0.2
v -0.2 1.4 -0.3
v 0.3 1.4 -0.3
v -0.4 1.4 -0.5
v 0.5 1.4 -0.5
v -0.2 1.5 0.2
v 0.3 1.5 0.2
v 0 1.5 -5.96046e-08
v 0.1 1.5 -5.96046e-08
v 0 1.5 -0.1
v 0.1 1.5 -0.1
v -0.2 1.5 -0.3
v 0.3 1.5 -0.3
v 0 1.6 -5.96046e-08
v 0.1 1.6 -5.96046e-08
v 0 1.6 -0.1
v 0.1 1.6 -0.1

# faces
f 3/9/1 2/9/1 1/9/1
f 4/9/1 2/9/1 3/9/1
f 7/7/1 6/7/1 5/7/1
f 8/7/1 6/7/1 7/7/1
f 11/1/1 10/1/1 9/1/1
f 12/1/1 10/1/1 11/1/1
f 15/4/1 14/4/1 13/4/1
f 16/4/1 14/4/1 15/4/1
f 17/3/1 16/3/1 15/3/1
f 18/3/1 16/3/1 17/3/1
f 19/3/1 17/3/1 15/3/1
f 20/2/1 18/2/1 17/2/1
f 20/3/1 17/3/1 19/3/1
f 21/3/1 16/3/1 18/3/1
f 21/2/1 18/2/1 20/2/1
f 22/3/1 16/3/1 21/3/1
f 25/9/1 24/9/1 23/9/1
f 26/9/1 24/9/1 25/9/1
f 31/2/1 28/2/1 27/2/1
f 32/2/1 28/2/1 31/2/1
f 33/2/1 30/2/1 29/2/1
f 34/2/1 30/2/1 33/2/1
f 35/3/1 32/3/1 31/3/1
f 36/3/1 32/3/1 35/3/1
f 37/3/1 32/3/1 36/3/1
f 38/3/1 34/3/1 33/3/1
f 39/3/1 34/3/1 38/3/1
f 40/3/1 34/3/1 39/3/1
f 45/9/1 42/9/1 41/9/1
f 46/9/1 42/9/1 45/9/1
f 47/9/1 44/9/1 43/9/1
f 48/9/1 44/9/1 47/9/1
f 49/3/1 46/3/1 45/3/1
f 50/3/1 46/3/1 49/3/1
f 51/3/1 48/3/1 47/3/1
f 52/3/1 48/3/1 51/3/1
f 58/2/1 55/2/1 54/2/1
f 58/2/1 54/2/1 53/2/1
f 59/2/1 55/2/1 58/2/1
f 60/2/1 55/2/1 59/2/1
f 63/2/1 57/2/1 56/2/1
f 64/2/1 57/2/1 63/2/1
f 65/2/1 57/2/1 64/2/1
f 66/3/1 59/3/1 58/3/1
f 67/2/1 61/2/1 60/2/1
f 67/3/1 59/3/1 66/3/1
f 67/2/1 60/2/1 59/2/1
f 68/2/1 61/2/1 67/2/1
f 69/2/1 63/2/1 62/2/1
f 69/2/1 64/2/1 63/2/1
f 70/3/1 65/3/1 64/3/1
f 70/2/1 64/2/1 69/2/1
f 71/3/1 65/3/1 70/3/1
f 72/3/1 68/3/1 67/3/1
f 73/3/1 68/3/1 72/3/1
f 74/3/1 70/3/1 69/3/1
f 75/3/1 70/3/1 74/3/1
f 78/9/1 77/9/1 76/9/1
f 79/9/1 77/9/1 78/9/1
f 84/5/1 81/5/1 80/5/1
f 85/5/1 81/5/1 84/5/1
f 86/5/1 83/5/1 82/5/1
f 87/5/1 83/5/1 86/5/1
f 90/8/1 89/8/1 88/8/1
f 91/8/1 89/8/1 90/8/1
f 94/8/1 93/8/1 92/8/1
f 95/8/1 93/8/1 94/8/1
f 96/1/2 97/1/2 100/1/2
f 100/1/2 97/1/2 101/1/2
f 98/1/2 99/1/2 102/1/2
f 102/1/2 99/1/2 103/1/2
f 104/3/2 105/3/2 108/3/2
f 108/3/2 105/3/2 109/3/2
f 106/3/2 107/3/2 110/3/2
f 110/3/2 107/3/2 111/3/2
f 112/9/2 113/9/2 114/9/2
f 114/9/2 113/9/2 115/9/2
f 116/9/2 117/9/2 120/9/2
f 120/9/2 117/9/2 121/9/2
f 118/9/2 119/9/2 122/9/2
f 122/9/2 119/9/2 123/9/2
f 124/2/2 125/2/2 128/2/2
f 128/2/2 125/2/2 129/2/2
f 126/2/2 127/2/2 130/2/2
f 130/2/2 127/2/2 131/2/2
f 128/3/2 129/3/2 134/3/2
f 134/3/2 129/3/2 135/3/2
f 135/3/2 129/3/2 136/3/2
f 130/3/2 131/3/2 137/3/2
f 137/3/2 131/3/2 138/3/2
f 138/3/2 131/3/2 139/3/2
f 132/5/2 133/5/2 142/5/2
f 142/5/2 133/5/2 143/5/2
f 140/5/2 141/5/2 146/5/2
f 146/5/2 141/5/2 147/5/2
f 143/2/2 144/2/2 148/2/2
f 142/2/2 143/2/2 148/2/2
f 146/2/2 147/2/2 151/2/2
f 145/2/2 146/2/2 151/2/2
f 148/2/2 149/2/2 152/2/2
f 142/2/2 148/2/2 152/2/2
f 152/2/2 149/2/2 153/2/2
f 153/2/2 149/2/2 154/2/2
f 150/2/2 151/2/2 155/2/2
f 151/2/2 147/2/2 156/2/2
f 155/2/2 151/2/2 156/2/2
f 156/2/2 147/2/2 157/2/2
f 153/3/2 154/3/2 158/3/2
f 158/3/2 154/3/2 159/3/2
f 155/3/2 156/3/2 160/3/2
f 160/3/2 156/3/2 161/3/2
f 162/4/2 163/4/2 164/4/2
f 164/4/2 163/4/2 165/4/2
f 164/3/2 165/3/2 166/3/2
f 166/3/2 165/3/2 167/3/2
f 167/3/2 165/3/2 168/3/2
f 168/3/2 165/3/2 169/3/2
f 166/4/2 167/4/2 170/4/2
f 167/2/2 168/2/2 171/2/2
f 170/4/2 167/4/2 171/4/2
f 168/4/2 169/4/2 172/4/2
f 171/2/2 168/2/2 172/2/2
f 172/4/2 169/4/2 173/4/2
f 170/5/2 171/5/2 174/5/2
f 171/5/2 172/5/2 174/5/2
f 172/5/2 173/5/2 174/5/2
f 174/5/2 173/5/2 175/5/2
f 176/9/2 177/9/2 178/9/2
f 178/9/2 177/9/2 179/9/2
f 180/8/2 181/8/2 182/8/2
f 182/8/2 181/8/2 183/8/2
f 184/8/2 185/8/2 186/8/2
f 186/8/2 185/8/2 187/8/2
f 188/9/2 189/9/2 190/9/2
f 190/9/2 189/9/2 191/9/2
f 192/8/2 193/8/2 194/8/2
f 194/8/2 193/8/2 195/8/2
f 200/2/3 197/2/3 196/2/3
f 201/3/3 198/3/3 197/3/3
f 201/2/3 197/2/3 200/2/3
f 202/3/3 198/3/3 201/3/3
f 203/5/3 200/5/3 199/5/3
f 204/2/3 201/2/3 200/2/3
f 204/5/3 200/5/3 203/5/3
f 204/2/3 202/2/3 201/2/3
f 205/2/3 202/2/3 204/2/3
f 210/7/3 209/7/3 208/7/3
f 213/7/3 210/7/3 208/7/3
f 214/7/3 210/7/3 213/7/3
f 215/3/3 212/3/3 211/3/3
f 218/3/3 212/3/3 215/3/3
f 219/3/3 212/3/3 218/3/3
f 221/7/3 217/7/3 216/7/3
f 222/7/3 217/7/3 221/7/3
f 224/8/3 221/8/3 220/8/3
f 224/8/3 223/8/3 222/8/3
f 224/8/3 222/8/3 221/8/3
f 225/8/3 223/8/3 224/8/3
f 226/8/3 223/8/3 225/8/3
f 227/8/3 223/8/3 226/8/3
f 228/9/3 207/9/3 206/9/3
f 229/9/3 207/9/3 228/9/3
f 230/8/3 226/8/3 225/8/3
f 231/8/3 226/8/3 230/8/3
f 234/1/3 233/1/3 232/1/3
f 235/1/3 233/1/3 234/1/3
f 239/2/3 237/2/3 236/2/3
f 240/3/3 238/3/3 237/3/3
f 240/2/3 237/2/3 239/2/3
f 241/3/3 238/3/3 240/3/3
f 248/4/3 243/4/3 242/4/3
f 252/3/3 244/3/3 243/3/3
f 253/3/3 244/3/3 252/3/3
f 254/5/3 245/5/3 244/5/3
f 254/3/3 244/3/3 253/3/3
f 255/3/3 251/3/3 250/3/3
f 255/9/3 250/9/3 249/9/3
f 256/3/3 251/3/3 255/3/3
f 257/5/3 245/5/3 254/5/3
f 258/5/3 245/5/3 257/5/3
f 259/9/3 255/9/3 249/9/3
f 260/9/3 255/9/3 259/9/3
f 261/4/3 243/4/3 248/4/3
f 262/3/3 252/3/3 243/3/3
f 264/1/3 258/1/3 257/1/3
f 265/1/3 258/1/3 264/1/3
f 266/4/3 243/4/3 261/4/3
f 267/3/3 263/3/3 262/3/3
f 267/4/3 243/4/3 266/4/3
f 267/3/3 262/3/3 243/3/3
f 268/4/3 264/4/3 263/4/3
f 268/3/3 263/3/3 267/3/3
f 269/5/3 265/5/3 264/5/3
f 269/4/3 264/4/3 268/4/3
f 270/5/3 265/5/3 269/5/3
f 271/9/3 247/9/3 246/9/3
f 272/9/3 247/9/3 271/9/3
f 275/9/3 274/9/3 273/9/3
f 276/9/3 274/9/3 275/9/3
f 280/2/3 278/2/3 277/2/3
f 281/3/3 279/3/3 278/3/3
f 281/2/3 278/2/3 280/2/3
f 282/3/3 279/3/3 281/3/3
f 286/9/3 284/9/3 283/9/3
f 286/3/3 285/3/3 284/3/3
f 287/3/3 285/3/3 286/3/3
f 288/9/3 286/9/3 283/9/3
f 289/9/3 286/9/3 288/9/3
f 292/2/3 291/2/3 290/2/3
f 293/2/3 291/2/3 292/2/3
f 296/5/3 295/5/3 294/5/3
f 297/5/3 295/5/3 296/5/3
f 298/7/4 299/7/4 300/7/4
f 300/7/4 299/7/4 301/7/4
f 300/7/4 301/7/4 303/7/4
f 301/2/4 302/2/4 304/2/4
f 303/7/4 301/7/4 304/7/4
f 304/2/4 302/2/4 305/2/4
f 303/7/4 304/7/4 307/7/4
f 307/7/4 304/7/4 308/7/4
f 306/8/4 307/8/4 310/8/4
f 308/8/4 309/8/4 310/8/4
f 307/8/4 308/8/4 310/8/4
f 310/8/4 309/8/4 311/8/4
f 311/8/4 309/8/4 312/8/4
f 312/8/4 309/8/4 313/8/4
f 311/8/4 312/8/4 314/8/4
f 314/8/4 312/8/4 315/8/4
f 316/9/4 317/9/4 319/9/4
f 317/3/4 318/3/4 319/3/4
f 319/3/4 318/3/4 320/3/4
f 316/9/4 319/9/4 321/9/4
f 321/9/4 319/9/4 322/9/4
f 323/2/4 324/2/4 326/2/4
f 324/3/4 325/3/4 327/3/4
f 326/2/4 324/2/4 327/2/4
f 327/3/4 325/3/4 328/3/4
f 329/9/4 330/9/4 331/9/4
f 331/9/4 330/9/4 332/9/4
f 333/4/4 334/4/4 339/4/4
f 334/3/4 335/3/4 343/3/4
f 343/3/4 335/3/4 344/3/4
f 335/5/4 336/5/4 345/5/4
f 344/3/4 335/3/4 345/3/4
f 341/3/4 342/3/4 346/3/4
f 340/9/4 341/9/4 346/9/4
f 346/3/4 342/3/4 347/3/4
f 345/5/4 336/5/4 348/5/4
f 348/5/4 336/5/4 349/5/4
f 340/9/4 346/9/4 350/9/4
f 350/9/4 346/9/4 351/9/4
f 339/4/4 334/4/4 352/4/4
f 334/3/4 343/3/4 353/3/4
f 348/1/4 349/1/4 355/1/4
f 355/1/4 349/1/4 356/1/4
f 352/4/4 334/4/4 357/4/4
f 353/3/4 354/3/4 358/3/4
f 357/4/4 334/4/4 358/4/4
f 334/3/4 353/3/4 358/3/4
f 354/4/4 355/4/4 359/4/4
f 358/3/4 354/3/4 359/3/4
f 355/5/4 356/5/4 360/5/4
f 359/4/4 355/4/4 360/4/4
f 360/5/4 356/5/4 361/5/4
f 337/9/4 338/9/4 362/9/4
f 362/9/4 338/9/4 363/9/4
f 364/1/4 365/1/4 366/1/4
f 366/1/4 365/1/4 367/1/4
f 368/2/4 369/2/4 371/2/4
f 369/3/4 370/3/4 372/3/4
f 371/2/4 369/2/4 372/2/4
f 372/3/4 370/3/4 373/3/4
f 376/3/4 377/3/4 378/3/4
f 378/3/4 377/3/4 379/3/4
f 379/3/4 377/3/4 380/3/4
f 374/9/4 375/9/4 381/9/4
f 381/9/4 375/9/4 382/9/4
f 383/2/4 384/2/4 387/2/4
f 384/3/4 385/3/4 388/3/4
f 387/2/4 384/2/4 388/2/4
f 388/3/4 385/3/4 389/3/4
f 386/5/4 387/5/4 390/5/4
f 387/2/4 388/2/4 391/2/4
f 390/5/4 387/5/4 391/5/4
f 388/2/4 389/2/4 391/2/4
f 391/2/4 389/2/4 392/2/4
f 395/9/5 394/9/5 393/9/5
f 396/9/5 394/9/5 395/9/5
f 399/9/5 398/9/5 397/9/5
f 400/9/5 398/9/5 399/9/5
f 403/2/5 402/2/5 401/2/5
f 404/2/5 402/2/5 403/2/5
f 405/2/5 403/2/5 401/2/5
f 406/2/5 402/2/5 404/2/5
f 407/2/5 405/2/5 401/2/5
f 407/2/5 406/2/5 405/2/5
f 408/2/5 402/2/5 406/2/5
f 408/2/5 406/2/5 407/2/5
f 411/2/5 410/2/5 409/2/5
f 412/2/5 410/2/5 411/2/5
f 413/2/5 411/2/5 409/2/5
f 414/2/5 410/2/5 412/2/5
f 415/2/5 413/2/5 409/2/5
f 415/2/5 414/2/5 413/2/5
f 416/2/5 410/2/5 414/2/5
f 416/2/5 414/2/5 415/2/5
f 419/8/5 418/8/5 417/8/5
f 420/8/5 418/8/5 419/8/5
f 424/5/5 422/5/5 421/5/5
f 425/5/5 422/5/5 424/5/5
f 429/7/5 424/7/5 423/7/5
f 429/7/5 425/7/5 424/7/5
f 429/7/5 426/7/5 425/7/5
f 430/7/5 426/7/5 429/7/5
f 431/7/5 426/7/5 430/7/5
f 432/7/5 426/7/5 431/7/5
f 433/8/5 428/8/5 427/8/5
f 434/8/5 428/8/5 433/8/5
f 439/4/5 436/4/5 435/4/5
f 440/4/5 438/4/5 437/4/5
f 441/4/5 439/4/5 435/4/5
f 441/2/5 440/2/5 439/2/5
f 442/4/5 438/4/5 440/4/5
f 442/2/5 440/2/5 441/2/5
f 443/4/5 441/4/5 435/4/5
f 444/4/5 441/4/5 443/4/5
f 445/4/5 438/4/5 442/4/5
f 446/4/5 438/4/5 445/4/5
f 449/5/5 448/5/5 447/5/5
f 450/5/5 448/5/5 449/5/5
f 453/2/5 452/2/5 451/2/5
f 454/2/5 452/2/5 453/2/5
f 457/2/5 456/2/5 455/2/5
f 458/2/5 456/2/5 457/2/5
f 459/2/5 457/2/5 455/2/5
f 460/2/5 457/2/5 459/2/5
f 463/2/5 462/2/5 461/2/5
f 464/2/5 462/2/5 463/2/5
f 467/2/5 466/2/5 465/2/5
f 468/2/5 466/2/5 467/2/5
f 471/1/5 470/1/5 469/1/5
f 472/1/5 471/1/5 469/1/5
f 473/1/5 472/1/5 469/1/5
f 474/1/5 473/1/5 469/1/5
f 475/1/5 474/1/5 469/1/5
f 476/1/5 474/1/5 475/1/5
f 479/9/5 478/9/5 477/9/5
f 480/9/5 478/9/5 479/9/5
f 481/9/5 478/9/5 480/9/5
f 482/9/5 478/9/5 481/9/5
f 483/9/5 478/9/5 482/9/5
f 484/9/5 478/9/5 483/9/5
f 488/9/5 478/9/5 484/9/5
f 489/9/5 479/9/5 477/9/5
f 490/9/5 488/9/5 487/9/5
f 490/9/5 487/9/5 486/9/5
f 490/9/5 486/9/5 485/9/5
f 491/9/5 489/9/5 477/9/5
f 491/9/5 490/9/5 489/9/5
f 492/9/5 488/9/5 490/9/5
f 492/9/5 490/9/5 491/9/5
f 492/9/5 478/9/5 488/9/5
f 493/9/6 494/9/6 495/9/6
f 495/9/6 494/9/6 496/9/6
f 497/9/6 498/9/6 499/9/6
f 499/9/6 498/9/6 500/9/6
f 501/3/6 502/3/6 503/3/6
f 503/3/6 502/3/6 504/3/6
f 505/3/6 506/3/6 507/3/6
f 507/3/6 506/3/6 508/3/6
f 509/7/6 510/7/6 515/7/6
f 515/7/6 510/7/6 516/7/6
f 511/7/6 512/7/6 517/7/6
f 517/7/6 512/7/6 518/7/6
f 513/8/6 514/8/6 519/8/6
f 519/8/6 514/8/6 520/8/6
f 521/8/6 522/8/6 523/8/6
f 523/8/6 522/8/6 524/8/6
f 525/3/6 526/3/6 528/3/6
f 526/2/6 527/2/6 529/2/6
f 528/3/6 526/3/6 529/3/6
f 529/2/6 527/2/6 530/2/6
f 531/3/6 532/3/6 534/3/6
f 532/2/6 533/2/6 535/2/6
f 534/3/6 532/3/6 535/3/6
f 535/2/6 533/2/6 536/2/6
f 537/3/6 538/3/6 539/3/6
f 539/3/6 538/3/6 540/3/6
f 540/3/6 538/3/6 541/3/6
f 542/3/6 543/3/6 545/3/6
f 543/3/6 544/3/6 545/3/6
f 545/3/6 544/3/6 546/3/6
f 547/9/6 548/9/6 549/9/6
f 549/9/6 548/9/6 550/9/6
f 547/9/6 549/9/6 551/9/6
f 550/9/6 548/9/6 552/9/6
f 547/9/6 551/9/6 553/9/6
f 551/9/6 552/9/6 553/9/6
f 552/9/6 548/9/6 554/9/6
f 553/9/6 552/9/6 554/9/6
f 555/9/6 556/9/6 557/9/6
f 557/9/6 556/9/6 558/9/6
f 555/9/6 557/9/6 559/9/6
f 558/9/6 556/9/6 560/9/6
f 555/9/6 559/9/6 561/9/6
f 559/9/6 560/9/6 561/9/6
f 560/9/6 556/9/6 562/9/6
f 561/9/6 560/9/6 562/9/6
f 563/9/6 564/9/6 565/9/6
f 565/9/6 564/9/6 566/9/6
